<svg width="24" height="24" viewBox="0 0 24 24" fill="none" xmlns="http://www.w3.org/2000/svg">
<path d="M2.54362 4.707L3.25063 4L20.0006 20.75L19.2936 21.457L15.9456 18.109C14.5786 18.683 13.0756 19 11.5006 19C9.33722 19.0007 7.21748 18.3912 5.3849 17.2414C3.55232 16.0916 2.08124 14.4482 1.14062 12.5C2.10626 10.5069 3.62457 8.83341 5.51463 7.679L2.54362 4.707ZM11.5006 18C12.7936 18 14.0316 17.766 15.1756 17.339L14.0466 16.211C13.1803 16.8053 12.1333 17.0778 11.0871 16.9812C10.0409 16.8846 9.06156 16.425 8.31872 15.682C7.57588 14.939 7.11641 13.9596 7.01996 12.9134C6.9235 11.8672 7.19615 10.8203 7.79063 9.954L6.24463 8.408C4.56714 9.38035 3.19006 10.7962 2.26462 12.5C3.16551 14.1641 4.49943 15.5537 6.12525 16.5218C7.75108 17.49 9.60836 18.0007 11.5006 18ZM20.7356 12.5C19.8348 10.8361 18.5011 9.44658 16.8754 8.47842C15.2498 7.51026 13.3927 6.99944 11.5006 7C10.3777 6.99863 9.26182 7.17758 8.19562 7.53L7.41263 6.748C8.7184 6.25191 10.1038 5.99842 11.5006 6C13.664 5.99928 15.7838 6.60882 17.6164 7.7586C19.4489 8.90838 20.92 10.5518 21.8606 12.5C20.9487 14.3826 19.5427 15.9822 17.7926 17.128L17.0686 16.404C18.6064 15.4397 19.8694 14.0951 20.7356 12.5ZM11.5006 8C12.2897 7.9998 13.0649 8.20707 13.7485 8.60102C14.4322 8.99497 15.0002 9.56175 15.3957 10.2445C15.7912 10.9273 16.0002 11.702 16.0017 12.4911C16.0033 13.2801 15.7974 14.0557 15.4046 14.74L14.6646 14C14.9751 13.3472 15.0758 12.6144 14.953 11.9021C14.8302 11.1898 14.4899 10.533 13.9788 10.0218C13.4677 9.51074 12.8109 9.17041 12.0985 9.0476C11.3862 8.9248 10.6534 9.02554 10.0006 9.336L9.26062 8.596C9.94208 8.20427 10.7146 7.99872 11.5006 8ZM8.00063 12.5C8.00047 13.1217 8.16595 13.7323 8.48003 14.2689C8.79411 14.8055 9.24546 15.2487 9.78765 15.553C10.3298 15.8573 10.9433 16.0117 11.565 16.0003C12.1866 15.9888 12.794 15.812 13.3246 15.488L8.51263 10.676C8.17675 11.225 7.99954 11.8564 8.00063 12.5Z" fill="white"/>
</svg>
