<svg width="37" height="37" viewBox="0 0 37 37" fill="none" xmlns="http://www.w3.org/2000/svg">
<path d="M18.5 0C8.28371 0 0 8.28371 0 18.5C0 28.7163 8.28371 37 18.5 37C28.7163 37 37 28.7163 37 18.5C37 8.28371 28.7163 0 18.5 0ZM20.0073 23.0754C18.1944 25.6275 14.5522 26.3708 11.7112 25.2764C8.86183 24.1904 6.83839 21.18 7.08203 18.1118C7.14397 14.3581 10.6003 11.067 14.354 11.195C16.1545 11.1124 17.8475 11.8929 19.2268 12.9954C18.6363 13.6644 18.0292 14.3086 17.3768 14.9074C15.7209 13.7635 13.3629 13.4373 11.707 14.7587C9.33672 16.3981 9.22935 20.2674 11.5088 22.0307C13.7263 24.0417 17.9177 23.0424 18.533 19.9618C17.1455 19.9412 15.7498 19.9618 14.3623 19.9164C14.3581 19.0864 14.354 18.2605 14.3581 17.4305C16.6789 17.4222 19.0038 17.4181 21.3287 17.4387C21.465 19.392 21.2048 21.465 20.0073 23.0754ZM30.0212 19.5117C29.3275 19.52 28.6337 19.5241 27.94 19.5282C27.9317 20.222 27.9276 20.9157 27.9276 21.6095H25.8504C25.8422 20.9157 25.8422 20.2261 25.8381 19.5324C25.1443 19.5241 24.4506 19.52 23.7568 19.5117V17.4429C24.4506 17.4346 25.1443 17.4305 25.8381 17.4305C25.8422 16.7367 25.8504 16.043 25.8546 15.3492H27.9276L27.94 17.4305C28.6337 17.4387 29.3275 17.4387 30.0212 17.4429V19.5117Z" fill="white"/>
</svg>
