<svg width="50" height="50" viewBox="0 0 50 50" fill="none" xmlns="http://www.w3.org/2000/svg">
<path d="M8.84202 25.525C7.94963 24.6324 7.25839 23.5593 6.81467 22.3776C6.37095 21.196 6.18499 19.9332 6.26927 18.6738C6.35355 17.4144 6.70612 16.1876 7.30334 15.0756C7.90056 13.9636 8.72862 12.9922 9.732 12.2264C10.7354 11.4607 11.8909 10.9183 13.121 10.6357C14.3512 10.353 15.6276 10.3367 16.8646 10.5877C18.1015 10.8387 19.2706 11.3513 20.2932 12.0911C21.3159 12.8309 22.1686 13.7808 22.7941 14.8771H25.1233C25.7488 13.7808 26.6015 12.8309 27.6241 12.0911C28.6468 11.3513 29.8158 10.8387 31.0528 10.5877C32.2898 10.3367 33.5662 10.353 34.7963 10.6357C36.0265 10.9183 37.182 11.4607 38.1854 12.2264C39.1888 12.9922 40.0168 13.9636 40.614 15.0756C41.2113 16.1876 41.5638 17.4144 41.6481 18.6738C41.7324 19.9332 41.5464 21.196 41.1027 22.3776C40.659 23.5593 39.9678 24.6324 39.0754 25.525L23.9587 40.6459L8.84202 25.5271V25.525ZM40.5462 27.0042C41.6131 25.9372 42.4478 24.6609 42.9976 23.2556C43.5474 21.8504 43.8004 20.3466 43.7409 18.8388C43.6813 17.331 43.3104 15.8519 42.6515 14.4944C41.9926 13.1369 41.0599 11.9304 39.9121 10.9509C38.7643 9.97133 37.4263 9.23987 35.9821 8.80251C34.5379 8.36515 33.0188 8.23135 31.5204 8.40953C30.022 8.5877 28.5767 9.074 27.2753 9.83784C25.974 10.6017 24.8448 11.6265 23.9587 12.8479C23.0726 11.6265 21.9434 10.6017 20.642 9.83784C19.3407 9.074 17.8954 8.5877 16.397 8.40953C14.8986 8.23135 13.3795 8.36515 11.9353 8.80251C10.4911 9.23987 9.15306 9.97133 8.00527 10.9509C6.85748 11.9304 5.92479 13.1369 5.26587 14.4944C4.60695 15.8519 4.23605 17.331 4.17649 18.8388C4.11694 20.3466 4.37002 21.8504 4.91981 23.2556C5.46961 24.6609 6.30424 25.9372 7.37119 27.0042L23.9587 43.5896L40.5462 27.0063V27.0042Z" fill="white"/>
</svg>
