<svg width="24" height="24" viewBox="0 0 24 24" fill="none" xmlns="http://www.w3.org/2000/svg">
<path d="M11.5 4C10.3837 4.00007 9.27834 4.22 8.24704 4.64725C7.21573 5.0745 6.27868 5.7007 5.48939 6.49009C4.70009 7.27948 4.074 8.21661 3.64687 9.24796C3.21974 10.2793 2.99993 11.3847 3 12.501C3.00007 13.6173 3.22 14.7227 3.64725 15.754C4.0745 16.7853 4.7007 17.7223 5.49009 18.5116C6.27948 19.3009 7.21661 19.927 8.24796 20.3541C9.27931 20.7813 10.3847 21.0011 11.501 21.001C13.7555 21.0009 15.9176 20.1052 17.5116 18.5109C19.1057 16.9167 20.0011 14.7545 20.001 12.5C20.0009 10.2455 19.1052 8.08344 17.5109 6.48939C15.9167 4.89533 13.7545 3.99987 11.5 4ZM11.5 3C14.0196 3 16.4359 4.00089 18.2175 5.78249C19.9991 7.56408 21 9.98044 21 12.5C21 15.0196 19.9991 17.4359 18.2175 19.2175C16.4359 20.9991 14.0196 22 11.5 22C8.98044 22 6.56408 20.9991 4.78249 19.2175C3.00089 17.4359 2 15.0196 2 12.5C2 9.98044 3.00089 7.56408 4.78249 5.78249C6.56408 4.00089 8.98044 3 11.5 3ZM11 17H12V19H11V17ZM11.5 6C12.4283 6 13.3185 6.36875 13.9749 7.02513C14.6313 7.6815 15 8.57174 15 9.5C15 10.397 14.301 11.019 13.561 11.676L12.626 12.579C12.038 13.253 11.974 14.534 11.999 14.971V15H11C10.996 14.948 10.898 13.036 11.874 11.921L12.896 10.929C13.488 10.403 14 9.948 14 9.5C14 8.83696 13.7366 8.20107 13.2678 7.73223C12.7989 7.26339 12.163 7 11.5 7C10.837 7 10.2011 7.26339 9.73223 7.73223C9.26339 8.20107 9 8.83696 9 9.5H8C8 8.57174 8.36875 7.6815 9.02513 7.02513C9.6815 6.36875 10.5717 6 11.5 6Z" fill="black"/>
</svg>
