<svg width="13" height="19" viewBox="0 0 13 19" fill="none" xmlns="http://www.w3.org/2000/svg">
<path d="M9 17C9 17.5304 8.78929 18.0391 8.41421 18.4142C8.03914 18.7892 7.53043 19 7 19H6C5.46957 19 4.96086 18.7892 4.58579 18.4142C4.21071 18.0391 4 17.5304 4 17H5C5 17.2652 5.10536 17.5195 5.29289 17.7071C5.48043 17.8946 5.73478 18 6 18H7C7.26522 18 7.51957 17.8946 7.70711 17.7071C7.89464 17.5195 8 17.2652 8 17H9ZM10 14C10 14.5304 9.78929 15.0391 9.41421 15.4142C9.03914 15.7892 8.53043 16 8 16H5C4.46957 16 3.96086 15.7892 3.58579 15.4142C3.21071 15.0391 3 14.5304 3 14V11.978C1.81537 11.221 0.908095 10.1003 0.414249 8.78407C-0.0795976 7.46782 -0.133393 6.02695 0.260932 4.67754C0.655256 3.32814 1.47644 2.14295 2.60133 1.29974C3.72622 0.45652 5.09416 0.000732422 6.5 0.000732422C7.90584 0.000732422 9.27379 0.45652 10.3987 1.29974C11.5236 2.14295 12.3447 3.32814 12.7391 4.67754C13.1334 6.02695 13.0796 7.46782 12.5858 8.78407C12.0919 10.1003 11.1846 11.221 10 11.978V14ZM4 14C4 14.2652 4.10536 14.5195 4.29289 14.7071C4.48043 14.8946 4.73478 15 5 15H8C8.26522 15 8.51957 14.8946 8.70711 14.7071C8.89464 14.5195 9 14.2652 9 14V11.4C10.1001 10.8385 10.9793 9.92317 11.4959 8.80127C12.0124 7.67937 12.1363 6.41626 11.8476 5.21536C11.5589 4.01447 10.8744 2.9457 9.90434 2.18121C8.93427 1.41671 7.73511 1.00098 6.5 1.00098C5.26489 1.00098 4.06573 1.41671 3.09566 2.18121C2.12558 2.9457 1.44107 4.01447 1.15237 5.21536C0.863661 6.41626 0.987571 7.67937 1.50414 8.80127C2.02071 9.92317 2.89986 10.8385 4 11.4V14Z" fill="black"/>
</svg>
