<svg width="37" height="37" viewBox="0 0 37 37" fill="none" xmlns="http://www.w3.org/2000/svg">
<path d="M18.5 37C15.9948 37 13.598 36.5122 11.3096 35.5366C9.02116 34.561 7.05192 33.2482 5.40186 31.5981C3.75179 29.9481 2.43896 27.9788 1.46338 25.6904C0.487793 23.402 0 21.0052 0 18.5C0 15.9948 0.487793 13.598 1.46338 11.3096C2.43896 9.02116 3.75179 7.05192 5.40186 5.40186C7.05192 3.75179 9.02116 2.43896 11.3096 1.46338C13.598 0.487793 15.9948 0 18.5 0C21.0052 0 23.402 0.487793 25.6904 1.46338C27.9788 2.43896 29.9481 3.75179 31.5981 5.40186C33.2482 7.05192 34.561 9.02116 35.5366 11.3096C36.5122 13.598 37 15.9948 37 18.5C37 21.0052 36.5122 23.402 35.5366 25.6904C34.561 27.9788 33.2482 29.9481 31.5981 31.5981C29.9481 33.2482 27.9788 34.561 25.6904 35.5366C23.402 36.5122 21.0052 37 18.5 37ZM27.75 11.5625C27.75 10.9362 27.5272 10.3942 27.0815 9.93652C26.6359 9.47884 26.0879 9.25 25.4375 9.25H11.5625C10.9362 9.25 10.3942 9.47884 9.93652 9.93652C9.47884 10.3942 9.25 10.9362 9.25 11.5625V13.875H13.3691C14.7663 12.3333 16.4766 11.5625 18.5 11.5625C20.5234 11.5625 22.2337 12.3333 23.6309 13.875H27.75V11.5625ZM13.875 18.5C13.875 19.7767 14.3267 20.8667 15.23 21.77C16.1333 22.6733 17.2233 23.125 18.5 23.125C19.7767 23.125 20.8667 22.6733 21.77 21.77C22.6733 20.8667 23.125 19.7767 23.125 18.5C23.125 17.2233 22.6733 16.1333 21.77 15.23C20.8667 14.3267 19.7767 13.875 18.5 13.875C17.2233 13.875 16.1333 14.3267 15.23 15.23C14.3267 16.1333 13.875 17.2233 13.875 18.5ZM27.75 16.1875H25.0039C25.293 16.9824 25.4375 17.7533 25.4375 18.5C25.4375 20.4271 24.763 22.0651 23.4141 23.4141C22.0651 24.763 20.4271 25.4375 18.5 25.4375C16.5729 25.4375 14.9349 24.763 13.5859 23.4141C12.237 22.0651 11.5625 20.4271 11.5625 18.5C11.5625 17.7533 11.707 16.9824 11.9961 16.1875H9.25V25.4375C9.25 26.0879 9.47282 26.6359 9.91846 27.0815C10.3641 27.5272 10.9121 27.75 11.5625 27.75H25.4375C26.0879 27.75 26.6359 27.5272 27.0815 27.0815C27.5272 26.6359 27.75 26.0879 27.75 25.4375V16.1875Z" fill="white"/>
</svg>
