<svg width="24" height="24" viewBox="0 0 24 24" fill="none" xmlns="http://www.w3.org/2000/svg">
<path d="M15.62 21.119C15.3414 21.3976 15.0107 21.6187 14.6467 21.7694C14.2827 21.9202 13.8925 21.9979 13.4985 21.9979C13.1045 21.9979 12.7143 21.9202 12.3503 21.7694C11.9863 21.6187 11.6556 21.3976 11.377 21.119L3.054 12.996C2.45 12.448 2 11.63 2 10.75V6C2 5.20435 2.31607 4.44129 2.87868 3.87868C3.44129 3.31607 4.20435 3 5 3H9.75C10.63 3 11.448 3.451 11.996 4.054L20.069 12.427C20.6314 12.9896 20.9474 13.7525 20.9474 14.548C20.9474 15.3435 20.6314 16.1064 20.069 16.669L15.619 21.119H15.62ZM14.912 20.412L19.362 15.962C19.7369 15.5869 19.9476 15.0783 19.9476 14.548C19.9476 14.0177 19.7369 13.5091 19.362 13.134L11.112 4.584C10.776 4.197 10.302 4 9.75 4L4.973 3.973C3.87 3.973 3 4.895 3 6V10.75C3 11.302 3.197 11.776 3.584 12.112L12.084 20.412C12.4591 20.7869 12.9677 20.9976 13.498 20.9976C14.0283 20.9976 14.5369 20.7869 14.912 20.412ZM6.5 5C7.16304 5 7.79893 5.26339 8.26777 5.73223C8.73661 6.20107 9 6.83696 9 7.5C9 8.16304 8.73661 8.79893 8.26777 9.26777C7.79893 9.73661 7.16304 10 6.5 10C5.83696 10 5.20107 9.73661 4.73223 9.26777C4.26339 8.79893 4 8.16304 4 7.5C4 6.83696 4.26339 6.20107 4.73223 5.73223C5.20107 5.26339 5.83696 5 6.5 5ZM6.5 6C6.10218 6 5.72064 6.15804 5.43934 6.43934C5.15804 6.72064 5 7.10218 5 7.5C5 7.89782 5.15804 8.27936 5.43934 8.56066C5.72064 8.84196 6.10218 9 6.5 9C6.89782 9 7.27936 8.84196 7.56066 8.56066C7.84196 8.27936 8 7.89782 8 7.5C8 7.10218 7.84196 6.72064 7.56066 6.43934C7.27936 6.15804 6.89782 6 6.5 6Z" fill="black"/>
</svg>
