<svg width="24" height="24" viewBox="0 0 24 24" fill="none" xmlns="http://www.w3.org/2000/svg">
<path d="M9.49952 4.00024C10.7431 4.00022 11.9605 4.35691 13.0075 5.02801C14.0544 5.69911 14.8868 6.65644 15.406 7.78642C15.9252 8.9164 16.1094 10.1716 15.9367 11.4031C15.7639 12.6346 15.2416 13.7907 14.4315 14.7342L20.0755 20.3782L19.3685 21.0852L13.7235 15.4402C12.9274 16.1211 11.9785 16.5994 10.9577 16.8345C9.93688 17.0695 8.87437 17.0544 7.86066 16.7904C6.84694 16.5263 5.91206 16.0212 5.13563 15.318C4.35921 14.6148 3.76424 13.7344 3.4014 12.7517C3.03856 11.769 2.9186 10.7132 3.05174 9.67412C3.18488 8.63508 3.56717 7.64361 4.16605 6.78415C4.76493 5.92469 5.56267 5.22271 6.49131 4.73798C7.41995 4.25326 8.45199 4.00016 9.49952 4.00024ZM9.49952 5.00024C8.04083 5.00024 6.64189 5.57971 5.61044 6.61116C4.57899 7.64261 3.99952 9.04155 3.99952 10.5002C3.99952 11.9589 4.57899 13.3579 5.61044 14.3893C6.64189 15.4208 8.04083 16.0002 9.49952 16.0002C10.9582 16.0002 12.3572 15.4208 13.3886 14.3893C14.4201 13.3579 14.9995 11.9589 14.9995 10.5002C14.9995 9.04155 14.4201 7.64261 13.3886 6.61116C12.3572 5.57971 10.9582 5.00024 9.49952 5.00024Z" fill="#575757"/>
</svg>
