<svg width="24" height="24" viewBox="0 0 24 24" fill="none" xmlns="http://www.w3.org/2000/svg">
<path d="M17 18C17.5304 18 18.0391 18.2107 18.4142 18.5858C18.7893 18.9609 19 19.4696 19 20C19 20.5304 18.7893 21.0391 18.4142 21.4142C18.0391 21.7893 17.5304 22 17 22C16.4696 22 15.9609 21.7893 15.5858 21.4142C15.2107 21.0391 15 20.5304 15 20C15 19.4696 15.2107 18.9609 15.5858 18.5858C15.9609 18.2107 16.4696 18 17 18ZM17 19C16.7348 19 16.4804 19.1054 16.2929 19.2929C16.1054 19.4804 16 19.7348 16 20C16 20.2652 16.1054 20.5196 16.2929 20.7071C16.4804 20.8946 16.7348 21 17 21C17.2652 21 17.5196 20.8946 17.7071 20.7071C17.8946 20.5196 18 20.2652 18 20C18 19.7348 17.8946 19.4804 17.7071 19.2929C17.5196 19.1054 17.2652 19 17 19ZM8 18C8.53043 18 9.03914 18.2107 9.41421 18.5858C9.78929 18.9609 10 19.4696 10 20C10 20.5304 9.78929 21.0391 9.41421 21.4142C9.03914 21.7893 8.53043 22 8 22C7.46957 22 6.96086 21.7893 6.58579 21.4142C6.21071 21.0391 6 20.5304 6 20C6 19.4696 6.21071 18.9609 6.58579 18.5858C6.96086 18.2107 7.46957 18 8 18ZM8 19C7.73478 19 7.48043 19.1054 7.29289 19.2929C7.10536 19.4804 7 19.7348 7 20C7 20.2652 7.10536 20.5196 7.29289 20.7071C7.48043 20.8946 7.73478 21 8 21C8.26522 21 8.51957 20.8946 8.70711 20.7071C8.89464 20.5196 9 20.2652 9 20C9 19.7348 8.89464 19.4804 8.70711 19.2929C8.51957 19.1054 8.26522 19 8 19ZM19 6H5.273L7.82 12H16C16.1555 12.0002 16.3089 11.964 16.4478 11.8942C16.5868 11.8244 16.7074 11.7229 16.8 11.598L19.8 7.598H19.801C19.9119 7.44936 19.9793 7.2728 19.9956 7.08806C20.012 6.90333 19.9766 6.71769 19.8935 6.55189C19.8104 6.3861 19.6828 6.24668 19.525 6.14922C19.3672 6.05176 19.1855 6.00009 19 6ZM16 13H7.866L7.1 14.56L7 15C7 15.2652 7.10536 15.5196 7.29289 15.7071C7.48043 15.8946 7.73478 16 8 16H19V17H8C7.65177 17.0002 7.30952 16.9094 7.00713 16.7367C6.70474 16.564 6.45269 16.3153 6.27591 16.0153C6.09912 15.7153 6.00374 15.3743 5.9992 15.0261C5.99465 14.6779 6.08111 14.3345 6.25 14.03L6.97 12.556L3.338 4H2V3H4L4.849 5H19C19.3779 5.00004 19.748 5.10712 20.0675 5.30885C20.3871 5.51059 20.6429 5.79871 20.8054 6.13985C20.9679 6.481 21.0305 6.8612 20.9858 7.23642C20.9411 7.61165 20.7911 7.96654 20.553 8.26L17.639 12.146C17.4548 12.4098 17.2095 12.6252 16.9242 12.7739C16.6388 12.9226 16.3218 13.0001 16 13Z" fill="white"/>
</svg>
