<svg width="204" height="204" viewBox="0 0 204 204" fill="none" xmlns="http://www.w3.org/2000/svg">
<path fill-rule="evenodd" clip-rule="evenodd" d="M83.1048 184.171C83.6927 184.511 84.3596 184.689 85.0384 184.689C85.8896 184.689 86.717 184.408 87.3924 183.89C88.0677 183.371 88.5532 182.644 88.7735 181.822C88.9938 180.999 88.9367 180.127 88.6109 179.34C88.2852 178.553 87.7091 177.896 86.9719 177.47L30.2517 144.705C28.6874 143.8 27.158 141.152 27.158 139.351V133.721L73.9115 160.74C74.4989 161.081 75.1659 161.261 75.8451 161.261C76.6969 161.262 77.5252 160.981 78.2012 160.462C78.8772 159.944 79.3632 159.216 79.5836 158.393C79.804 157.57 79.7466 156.697 79.4202 155.909C79.0938 155.122 78.5167 154.465 77.7786 154.039L27.158 124.785V60.4909C27.158 58.6879 28.6913 56.0357 30.2517 55.1362L98.5054 15.7054C100.072 14.8039 103.132 14.8039 104.693 15.7054L172.285 54.7542L104.634 95.4512C100.73 97.7997 97.7871 103.005 97.7871 107.561V190.418C97.7871 191.444 98.1946 192.428 98.9198 193.153C99.645 193.879 100.629 194.287 101.654 194.287C102.162 194.287 102.666 194.187 103.135 193.993C103.605 193.799 104.032 193.514 104.391 193.155C104.751 192.795 105.036 192.369 105.23 191.899C105.425 191.429 105.525 190.926 105.525 190.418V107.561C105.525 105.737 107.055 103.023 108.619 102.085L176.04 61.5242V138.441L159.551 128.916C159.111 128.658 158.624 128.489 158.119 128.42C157.614 128.351 157.1 128.383 156.607 128.513C156.114 128.644 155.651 128.87 155.246 129.18C154.841 129.49 154.501 129.877 154.246 130.319C153.991 130.761 153.826 131.249 153.76 131.755C153.695 132.261 153.73 132.775 153.863 133.267C153.997 133.76 154.227 134.221 154.539 134.624C154.851 135.027 155.241 135.365 155.684 135.617L172.954 145.591C175.499 147.063 178.204 147.189 180.369 145.938C182.535 144.686 183.778 142.281 183.778 139.339V60.4909C183.778 55.9081 180.785 50.7255 176.817 48.4332L108.564 9.00426C104.59 6.71189 98.6099 6.71382 94.6422 9.00426L26.3885 48.4332C22.417 50.7255 19.4277 55.9081 19.4277 60.4909V139.351C19.4277 143.931 22.4208 149.116 26.3885 151.406L83.1048 184.171ZM81.1691 126.848V137.064L41.6611 114.237C40.7748 113.75 39.7333 113.63 38.7596 113.903C37.786 114.175 36.9576 114.818 36.452 115.694C35.9464 116.57 35.8037 117.609 36.0546 118.589C36.3054 119.569 36.9298 120.411 37.7941 120.936L83.1045 147.118C83.6921 147.458 84.3591 147.637 85.0381 147.636V147.638C86.0637 147.638 87.0473 147.23 87.7725 146.505C88.4977 145.779 88.9051 144.795 88.9051 143.769V124.86C88.9151 124.7 88.9151 124.539 88.9051 124.379V105.466C88.9051 104.787 88.7264 104.12 88.387 103.532C88.0476 102.944 87.5595 102.455 86.9716 102.116L41.6611 75.936C41.2209 75.6687 40.7318 75.492 40.2225 75.4163C39.7131 75.3406 39.1938 75.3675 38.695 75.4953C38.1961 75.6232 37.7278 75.8494 37.3175 76.1607C36.9073 76.4721 36.5633 76.8622 36.3057 77.3084C36.0482 77.7545 35.8823 78.2476 35.8178 78.7588C35.7533 79.2699 35.7915 79.7888 35.9302 80.2849C36.0688 80.7811 36.3051 81.2446 36.6251 81.6482C36.9452 82.0518 37.3426 82.3873 37.7941 82.6352L81.1691 107.699V117.912L41.6654 95.0856C40.7777 94.5806 39.7264 94.4475 38.7409 94.7152C37.7554 94.9828 36.9157 95.6297 36.4051 96.5145C35.8945 97.3992 35.7545 98.4502 36.0155 99.4379C36.2765 100.426 36.9174 101.27 37.7983 101.787L81.1691 126.848ZM95.1782 86.9336C95.7663 87.2725 96.4331 87.4507 97.1118 87.4501C97.7898 87.4476 98.4553 87.2668 99.0414 86.9259L115.73 77.2863C116.318 76.9468 116.807 76.4583 117.146 75.87C117.486 75.2817 117.665 74.6142 117.665 73.9348C117.665 73.2553 117.486 72.5878 117.146 71.9995C116.807 71.4112 116.318 70.9227 115.73 70.5832L77.3762 48.4971L86.3304 43.3281L128.557 67.6467C129.145 67.9863 129.812 68.165 130.49 68.165C131.169 68.165 131.836 67.9863 132.424 67.6467L149.11 58.009C149.698 57.6693 150.185 57.181 150.524 56.593C150.864 56.0051 151.042 55.3382 151.042 54.6594C151.042 53.9806 150.864 53.3138 150.524 52.7259C150.185 52.1379 149.698 51.6496 149.11 51.3099L104.95 25.8693C104.061 25.3562 103.005 25.2175 102.014 25.4836C101.023 25.7497 100.178 26.3989 99.665 27.2882C99.1522 28.1776 99.0135 29.2344 99.2795 30.2261C99.5455 31.2178 100.194 32.0631 101.083 32.5762L139.431 54.6681L130.483 59.8371L88.262 35.5108C87.6741 35.1713 87.0073 34.9925 86.3284 34.9925C85.6496 34.9925 84.9828 35.1713 84.3949 35.5108L67.7085 45.1504C67.1202 45.4899 66.6317 45.9783 66.292 46.5667C65.9523 47.155 65.7735 47.8225 65.7735 48.5019C65.7735 49.1814 65.9523 49.8488 66.292 50.4372C66.6317 51.0255 67.1202 51.514 67.7085 51.8534L106.058 73.9454L97.1098 79.1144L54.8814 54.7861C54.4409 54.5202 53.9517 54.3448 53.4425 54.2704C52.9334 54.196 52.4145 54.224 51.9163 54.3528C51.4181 54.4815 50.9506 54.7085 50.5412 55.0203C50.1318 55.3321 49.7887 55.7225 49.532 56.1687C49.2753 56.6149 49.1102 57.1078 49.0464 57.6187C48.9825 58.1295 49.0212 58.6479 49.1601 59.1436C49.2991 59.6393 49.5355 60.1022 49.8556 60.5053C50.1756 60.9084 50.5729 61.2436 51.024 61.4911L95.1782 86.9336Z" fill="#C4C4C4"/>
</svg>
