<svg width="359" height="174" viewBox="0 0 359 174" fill="none" xmlns="http://www.w3.org/2000/svg">
<g clip-path="url(#clip0_1917_16816)">
<path d="M0 95L230.987 95M230.987 95L311.5 95L230.987 70L230.987 95Z" stroke="white" stroke-width="2" stroke-linejoin="round"/>
<circle cx="263" cy="89.5" r="83.5" stroke="white" stroke-width="2"/>
<circle cx="275" cy="84.5" r="83.5" stroke="#EB5757" stroke-width="2"/>
<path d="M12.3525 79.3398V77.8809C12.3467 77.4238 12.3057 76.9609 12.2295 76.4922C12.1592 76.0234 12.0479 75.5723 11.8955 75.1387C11.7373 74.7051 11.5381 74.3008 11.2979 73.9258C11.0635 73.5449 10.7822 73.2139 10.4541 72.9326C10.126 72.6514 9.74805 72.4316 9.32031 72.2734C8.89258 72.1094 8.41504 72.0273 7.8877 72.0273C7.36035 72.0273 6.88281 72.1094 6.45508 72.2734C6.0332 72.4316 5.6582 72.6514 5.33008 72.9326C5.00195 73.2197 4.71777 73.5537 4.47754 73.9346C4.24316 74.3096 4.0498 74.7139 3.89746 75.1475C3.73926 75.5811 3.62207 76.0322 3.5459 76.501C3.47559 76.9639 3.4375 77.4238 3.43164 77.8809V79.3398C3.4375 79.7969 3.47852 80.2568 3.55469 80.7197C3.63086 81.1826 3.74805 81.6309 3.90625 82.0645C4.05859 82.498 4.25488 82.9053 4.49512 83.2861C4.73535 83.6611 5.01953 83.9893 5.34766 84.2705C5.67578 84.5518 6.05078 84.7744 6.47266 84.9385C6.90039 85.0967 7.37793 85.1758 7.90527 85.1758C8.43262 85.1758 8.90723 85.0967 9.3291 84.9385C9.75684 84.7744 10.1348 84.5518 10.4629 84.2705C10.791 83.9893 11.0723 83.6611 11.3066 83.2861C11.5469 82.9111 11.7432 82.5068 11.8955 82.0732C12.0479 81.6396 12.1592 81.1914 12.2295 80.7285C12.3057 80.2598 12.3467 79.7969 12.3525 79.3398ZM10.7441 77.8633V79.3398C10.7383 79.6445 10.7178 79.9639 10.6826 80.2979C10.6533 80.6318 10.5977 80.96 10.5156 81.2822C10.4277 81.6104 10.3135 81.9238 10.1729 82.2227C10.0381 82.5156 9.86816 82.7734 9.66309 82.9961C9.45215 83.2246 9.2002 83.4062 8.90723 83.541C8.62012 83.6758 8.28613 83.7432 7.90527 83.7432C7.52441 83.7432 7.19043 83.6758 6.90332 83.541C6.61621 83.4062 6.36719 83.2246 6.15625 82.9961C5.94531 82.7734 5.76953 82.5127 5.62891 82.2139C5.48828 81.915 5.37402 81.6016 5.28613 81.2734C5.19824 80.9512 5.13379 80.623 5.09277 80.2891C5.05762 79.9551 5.03711 79.6387 5.03125 79.3398V77.8633C5.03711 77.5645 5.05762 77.251 5.09277 76.9229C5.13379 76.5889 5.19824 76.2578 5.28613 75.9297C5.36816 75.6074 5.47949 75.2998 5.62012 75.0068C5.76074 74.708 5.93652 74.4443 6.14746 74.2158C6.3584 73.9932 6.60742 73.8145 6.89453 73.6797C7.18164 73.5449 7.5127 73.4775 7.8877 73.4775C8.26855 73.4775 8.60254 73.5449 8.88965 73.6797C9.17676 73.8086 9.42578 73.9844 9.63672 74.207C9.84766 74.4355 10.0234 74.6992 10.1641 74.998C10.3047 75.291 10.4189 75.5986 10.5068 75.9209C10.5889 76.249 10.6475 76.5801 10.6826 76.9141C10.7178 77.2422 10.7383 77.5586 10.7441 77.8633ZM22.9064 85H24.383V75.4902H22.7482V82.3105C22.6604 82.5156 22.549 82.7061 22.4143 82.8818C22.2854 83.0518 22.133 83.1982 21.9572 83.3213C21.7463 83.4736 21.4973 83.5938 21.2102 83.6816C20.923 83.7637 20.5979 83.8047 20.2346 83.8047C19.924 83.8047 19.6486 83.7637 19.4084 83.6816C19.174 83.5996 18.9748 83.4561 18.8107 83.251C18.6467 83.0518 18.5236 82.7822 18.4416 82.4424C18.3596 82.1025 18.3186 81.6748 18.3186 81.1592V75.4902H16.6926V81.1416C16.6926 81.8506 16.7688 82.46 16.9211 82.9697C17.0793 83.4736 17.302 83.8896 17.5891 84.2178C17.8762 84.5459 18.2219 84.7891 18.6262 84.9473C19.0305 85.0996 19.4816 85.1758 19.9797 85.1758C20.6008 85.1758 21.1486 85.0469 21.6232 84.7891C22.0979 84.5254 22.4934 84.1592 22.8098 83.6904L22.9064 85ZM35.4818 75.3145C34.7904 75.3145 34.1723 75.4668 33.6273 75.7715C33.0883 76.0703 32.6254 76.4805 32.2387 77.002L32.2299 76.7646L32.1596 75.4902H30.6127V85H32.2475V78.9004C32.3529 78.6074 32.4848 78.3438 32.643 78.1094C32.807 77.8691 32.9975 77.667 33.2143 77.5029C33.4545 77.3154 33.7357 77.1748 34.058 77.0811C34.3803 76.9814 34.7406 76.9316 35.1391 76.9316C35.4496 76.9316 35.7455 76.9492 36.0268 76.9844C36.3139 77.0137 36.6156 77.0635 36.932 77.1338L37.1518 75.543C36.9877 75.4727 36.7416 75.417 36.4135 75.376C36.0912 75.335 35.7807 75.3145 35.4818 75.3145ZM54.4627 88.6562H56.0887V84.0859C56.2059 84.2148 56.3318 84.335 56.4666 84.4463C56.6014 84.5518 56.7449 84.6484 56.8973 84.7363C57.1492 84.877 57.4305 84.9854 57.741 85.0615C58.0574 85.1377 58.3973 85.1758 58.7605 85.1758C59.3582 85.1758 59.8885 85.0527 60.3514 84.8066C60.8201 84.5605 61.2127 84.2207 61.5291 83.7871C61.8455 83.3535 62.0857 82.8438 62.2498 82.2578C62.4139 81.666 62.4959 81.0303 62.4959 80.3506V80.166C62.4959 79.457 62.4139 78.8066 62.2498 78.2148C62.0857 77.6172 61.8455 77.1045 61.5291 76.6768C61.2127 76.249 60.8201 75.915 60.3514 75.6748C59.8826 75.4346 59.3436 75.3145 58.7342 75.3145C58.3885 75.3145 58.0633 75.3525 57.7586 75.4287C57.4598 75.499 57.1873 75.6045 56.9412 75.7451C56.7654 75.8389 56.6014 75.9531 56.449 76.0879C56.2967 76.2168 56.1561 76.3633 56.0271 76.5273L55.948 75.4902H54.4627V88.6562ZM60.8699 80.166V80.3506C60.8699 80.8135 60.8172 81.2559 60.7117 81.6777C60.6121 82.0996 60.4568 82.4717 60.2459 82.7939C60.035 83.1162 59.7654 83.374 59.4373 83.5674C59.1092 83.7549 58.7195 83.8486 58.2684 83.8486C57.9871 83.8486 57.7293 83.8135 57.4949 83.7432C57.2664 83.6729 57.0584 83.5762 56.8709 83.4531C56.7068 83.3477 56.5604 83.2188 56.4314 83.0664C56.3025 82.9141 56.1883 82.75 56.0887 82.5742V77.9951C56.2 77.7959 56.3289 77.6143 56.4754 77.4502C56.6219 77.2861 56.7889 77.1484 56.9764 77.0371C57.1463 76.9258 57.3367 76.8408 57.5477 76.7822C57.7645 76.7236 57.9988 76.6943 58.2508 76.6943C58.7078 76.6943 59.1004 76.7881 59.4285 76.9756C59.7566 77.1631 60.0291 77.415 60.2459 77.7314C60.4568 78.0537 60.6121 78.4258 60.7117 78.8477C60.8172 79.2637 60.8699 79.7031 60.8699 80.166ZM73.3135 75.3145C72.6221 75.3145 72.0039 75.4668 71.459 75.7715C70.9199 76.0703 70.457 76.4805 70.0703 77.002L70.0615 76.7646L69.9912 75.4902H68.4443V85H70.0791V78.9004C70.1846 78.6074 70.3164 78.3438 70.4746 78.1094C70.6387 77.8691 70.8291 77.667 71.0459 77.5029C71.2861 77.3154 71.5674 77.1748 71.8896 77.0811C72.2119 76.9814 72.5723 76.9316 72.9707 76.9316C73.2812 76.9316 73.5771 76.9492 73.8584 76.9844C74.1455 77.0137 74.4473 77.0635 74.7637 77.1338L74.9834 75.543C74.8193 75.4727 74.5732 75.417 74.2451 75.376C73.9229 75.335 73.6123 75.3145 73.3135 75.3145ZM79.2355 80.1572V80.3506C79.2355 81.0361 79.3352 81.6719 79.5344 82.2578C79.7336 82.8438 80.0207 83.3535 80.3957 83.7871C80.7648 84.2207 81.216 84.5605 81.7492 84.8066C82.2883 85.0527 82.8947 85.1758 83.5686 85.1758C84.2365 85.1758 84.8371 85.0527 85.3703 84.8066C85.9035 84.5605 86.3576 84.2207 86.7326 83.7871C87.1018 83.3535 87.3859 82.8438 87.5852 82.2578C87.7844 81.6719 87.884 81.0361 87.884 80.3506V80.1572C87.884 79.4717 87.7844 78.8359 87.5852 78.25C87.3859 77.6582 87.1018 77.1455 86.7326 76.7119C86.3576 76.2783 85.9006 75.9385 85.3615 75.6924C84.8283 75.4404 84.2248 75.3145 83.551 75.3145C82.883 75.3145 82.2824 75.4404 81.7492 75.6924C81.216 75.9385 80.7648 76.2783 80.3957 76.7119C80.0207 77.1455 79.7336 77.6582 79.5344 78.25C79.3352 78.8359 79.2355 79.4717 79.2355 80.1572ZM80.8615 80.3506V80.1572C80.8615 79.6943 80.9172 79.252 81.0285 78.8301C81.1398 78.4023 81.3098 78.0273 81.5383 77.7051C81.7609 77.3828 82.0393 77.1279 82.3732 76.9404C82.7072 76.7471 83.0998 76.6504 83.551 76.6504C84.0022 76.6504 84.3947 76.7471 84.7287 76.9404C85.0686 77.1279 85.3527 77.3828 85.5813 77.7051C85.8039 78.0273 85.9709 78.4023 86.0822 78.8301C86.1994 79.252 86.258 79.6943 86.258 80.1572V80.3506C86.258 80.8193 86.2023 81.2676 86.091 81.6953C85.9797 82.1172 85.8127 82.4893 85.59 82.8115C85.3615 83.1338 85.0773 83.3887 84.7375 83.5762C84.4035 83.7637 84.0139 83.8574 83.5686 83.8574C83.1174 83.8574 82.7219 83.7637 82.382 83.5762C82.0422 83.3887 81.7609 83.1338 81.5383 82.8115C81.3098 82.4893 81.1398 82.1172 81.0285 81.6953C80.9172 81.2676 80.8615 80.8193 80.8615 80.3506ZM91.9955 80.166V80.3506C91.9955 81.0303 92.0863 81.666 92.268 82.2578C92.4496 82.8438 92.7045 83.3535 93.0326 83.7871C93.3607 84.2207 93.7562 84.5605 94.2191 84.8066C94.6879 85.0527 95.2094 85.1758 95.7836 85.1758C96.3695 85.1758 96.8822 85.0762 97.3217 84.877C97.7611 84.6777 98.1391 84.3848 98.4555 83.998L98.5258 85H100.02V71.5H98.3939V76.4307C98.0834 76.0674 97.7143 75.792 97.2865 75.6045C96.8646 75.4111 96.3695 75.3145 95.8012 75.3145C95.2211 75.3145 94.6967 75.4346 94.2279 75.6748C93.7592 75.915 93.3607 76.249 93.0326 76.6768C92.6986 77.1045 92.4408 77.6172 92.2592 78.2148C92.0834 78.8066 91.9955 79.457 91.9955 80.166ZM93.6215 80.3506V80.166C93.6215 79.7031 93.6713 79.2637 93.7709 78.8477C93.8705 78.4258 94.0258 78.0537 94.2367 77.7314C94.4418 77.415 94.7055 77.1631 95.0277 76.9756C95.3559 76.7881 95.7484 76.6943 96.2055 76.6943C96.7387 76.6943 97.184 76.8203 97.5414 77.0723C97.8988 77.3184 98.183 77.6348 98.3939 78.0215V82.4336C98.183 82.8496 97.8988 83.1807 97.5414 83.4268C97.184 83.6729 96.7328 83.7959 96.1879 83.7959C95.7367 83.7959 95.35 83.7051 95.0277 83.5234C94.7055 83.3359 94.4418 83.084 94.2367 82.7676C94.0258 82.4512 93.8705 82.085 93.7709 81.6689C93.6713 81.2529 93.6215 80.8135 93.6215 80.3506ZM111.18 85H112.657V75.4902H111.022V82.3105C110.934 82.5156 110.823 82.7061 110.688 82.8818C110.559 83.0518 110.407 83.1982 110.231 83.3213C110.02 83.4736 109.771 83.5938 109.484 83.6816C109.197 83.7637 108.872 83.8047 108.508 83.8047C108.198 83.8047 107.922 83.7637 107.682 83.6816C107.448 83.5996 107.249 83.4561 107.085 83.251C106.921 83.0518 106.797 82.7822 106.715 82.4424C106.633 82.1025 106.592 81.6748 106.592 81.1592V75.4902H104.966V81.1416C104.966 81.8506 105.043 82.46 105.195 82.9697C105.353 83.4736 105.576 83.8896 105.863 84.2178C106.15 84.5459 106.496 84.7891 106.9 84.9473C107.304 85.0996 107.755 85.1758 108.254 85.1758C108.875 85.1758 109.422 85.0469 109.897 84.7891C110.372 84.5254 110.767 84.1592 111.084 83.6904L111.18 85ZM121.576 83.8574C121.066 83.8574 120.638 83.7578 120.293 83.5586C119.953 83.3535 119.68 83.0869 119.475 82.7588C119.264 82.4365 119.112 82.0732 119.018 81.6689C118.93 81.2588 118.887 80.8457 118.887 80.4297V80.0605C118.887 79.6504 118.93 79.2432 119.018 78.8389C119.112 78.4346 119.264 78.0684 119.475 77.7402C119.686 77.418 119.962 77.1572 120.302 76.958C120.647 76.7529 121.072 76.6504 121.576 76.6504C121.904 76.6504 122.209 76.7061 122.49 76.8174C122.777 76.9287 123.023 77.0811 123.228 77.2744C123.433 77.4678 123.595 77.6934 123.712 77.9512C123.835 78.2031 123.899 78.4727 123.905 78.7598H125.443C125.443 78.2793 125.346 77.8281 125.153 77.4062C124.96 76.9844 124.693 76.6182 124.353 76.3076C124.008 76.0029 123.597 75.7627 123.123 75.5869C122.654 75.4053 122.138 75.3145 121.576 75.3145C120.855 75.3145 120.225 75.4434 119.686 75.7012C119.147 75.959 118.699 76.3047 118.342 76.7383C117.978 77.1777 117.706 77.6846 117.524 78.2588C117.343 78.833 117.252 79.4336 117.252 80.0605V80.4297C117.252 81.0625 117.343 81.666 117.524 82.2402C117.706 82.8086 117.978 83.3096 118.342 83.7432C118.699 84.1826 119.147 84.5312 119.686 84.7891C120.225 85.0469 120.855 85.1758 121.576 85.1758C122.08 85.1758 122.563 85.0908 123.026 84.9209C123.489 84.7451 123.899 84.5107 124.257 84.2178C124.614 83.9307 124.898 83.5967 125.109 83.2158C125.326 82.8291 125.437 82.4248 125.443 82.0029H123.905C123.899 82.2666 123.829 82.5127 123.694 82.7412C123.565 82.9639 123.392 83.1572 123.176 83.3213C122.959 83.4912 122.71 83.623 122.429 83.7168C122.153 83.8105 121.869 83.8574 121.576 83.8574ZM133.984 73.1875H132.35V75.4902H129.854V76.7471H132.35V81.915C132.35 82.501 132.426 83.002 132.578 83.418C132.736 83.8281 132.95 84.1621 133.22 84.4199C133.489 84.6836 133.806 84.877 134.169 85C134.538 85.1172 134.934 85.1758 135.355 85.1758C135.607 85.1758 135.859 85.1641 136.111 85.1406C136.369 85.1172 136.612 85.082 136.841 85.0352C137.069 84.9941 137.28 84.9443 137.474 84.8857C137.667 84.8213 137.831 84.748 137.966 84.666L137.737 83.5146C137.638 83.5381 137.509 83.5674 137.351 83.6025C137.198 83.6318 137.034 83.6611 136.858 83.6904C136.677 83.7197 136.492 83.7461 136.305 83.7695C136.117 83.7871 135.936 83.7959 135.76 83.7959C135.52 83.7959 135.291 83.7666 135.074 83.708C134.863 83.6494 134.676 83.5469 134.512 83.4004C134.348 83.2598 134.219 83.0693 134.125 82.8291C134.031 82.5889 133.984 82.2842 133.984 81.915V76.7471H137.605V75.4902H133.984V73.1875ZM149.065 82.4775C149.065 82.6299 149.035 82.7734 148.977 82.9082C148.918 83.043 148.833 83.166 148.722 83.2773C148.54 83.459 148.288 83.6025 147.966 83.708C147.644 83.8076 147.266 83.8574 146.832 83.8574C146.557 83.8574 146.279 83.8281 145.997 83.7695C145.716 83.7109 145.461 83.6113 145.233 83.4707C144.998 83.3301 144.802 83.1455 144.644 82.917C144.491 82.6885 144.404 82.4072 144.38 82.0732H142.754C142.754 82.4775 142.845 82.8672 143.027 83.2422C143.214 83.6172 143.484 83.9453 143.835 84.2266C144.181 84.5137 144.606 84.7451 145.11 84.9209C145.613 85.0908 146.188 85.1758 146.832 85.1758C147.395 85.1758 147.913 85.1084 148.388 84.9736C148.863 84.8389 149.27 84.6484 149.61 84.4023C149.949 84.1562 150.213 83.8604 150.401 83.5146C150.594 83.1689 150.691 82.7852 150.691 82.3633C150.691 81.9707 150.606 81.625 150.436 81.3262C150.272 81.0273 150.031 80.7637 149.715 80.5352C149.399 80.3125 149.009 80.1221 148.546 79.9639C148.083 79.7998 147.559 79.6562 146.973 79.5332C146.528 79.4453 146.158 79.3545 145.865 79.2607C145.578 79.167 145.35 79.0615 145.18 78.9443C145.004 78.8271 144.881 78.6953 144.811 78.5488C144.74 78.4023 144.705 78.2354 144.705 78.0479C144.705 77.8662 144.749 77.6904 144.837 77.5205C144.925 77.3506 145.057 77.2012 145.233 77.0723C145.403 76.9434 145.616 76.8408 145.874 76.7646C146.138 76.6885 146.443 76.6504 146.788 76.6504C147.122 76.6504 147.421 76.6973 147.685 76.791C147.954 76.8848 148.183 77.0078 148.37 77.1602C148.558 77.3125 148.704 77.4883 148.81 77.6875C148.915 77.8809 148.968 78.0801 148.968 78.2852H150.594C150.594 77.8691 150.503 77.4824 150.321 77.125C150.146 76.7617 149.894 76.4453 149.566 76.1758C149.238 75.9062 148.839 75.6953 148.37 75.543C147.902 75.3906 147.374 75.3145 146.788 75.3145C146.243 75.3145 145.742 75.3877 145.285 75.5342C144.834 75.6807 144.445 75.8799 144.116 76.1318C143.788 76.3838 143.533 76.6797 143.352 77.0195C143.17 77.3535 143.079 77.7139 143.079 78.1006C143.079 78.4932 143.167 78.8389 143.343 79.1377C143.519 79.4307 143.768 79.6855 144.09 79.9023C144.406 80.125 144.787 80.3154 145.233 80.4736C145.684 80.6318 146.182 80.7666 146.727 80.8779C147.172 80.9658 147.544 81.0654 147.843 81.1768C148.142 81.2822 148.382 81.3994 148.564 81.5283C148.745 81.6572 148.874 81.8008 148.95 81.959C149.027 82.1113 149.065 82.2842 149.065 82.4775Z" fill="white"/>
</g>
<defs>
<clipPath id="clip0_1917_16816">
<rect width="359" height="174" fill="white"/>
</clipPath>
</defs>
</svg>
