<svg width="65" height="65" viewBox="0 0 65 65" fill="none" xmlns="http://www.w3.org/2000/svg">
<path fill-rule="evenodd" clip-rule="evenodd" d="M26.4807 58.6828C26.668 58.791 26.8805 58.848 27.0968 58.848C27.368 58.8479 27.6316 58.7584 27.8468 58.5932C28.062 58.428 28.2167 58.1964 28.2869 57.9343C28.3571 57.6721 28.3389 57.3942 28.2351 57.1435C28.1313 56.8928 27.9477 56.6833 27.7128 56.5476L9.64021 46.1079C9.1418 45.8195 8.65448 44.9756 8.65448 44.4018V42.6079L23.5514 51.2171C23.7386 51.3258 23.9511 51.383 24.1675 51.383C24.4389 51.3832 24.7028 51.2937 24.9182 51.1285C25.1336 50.9633 25.2885 50.7315 25.3587 50.4692C25.4289 50.2069 25.4106 49.9287 25.3066 49.6779C25.2027 49.427 25.0188 49.2176 24.7836 49.082L8.65448 39.7607V19.2749C8.65448 18.7004 9.14303 17.8554 9.64021 17.5687L31.3877 5.005C31.8868 4.71776 32.862 4.71776 33.3592 5.005L54.896 17.447L33.3404 30.4142C32.0965 31.1625 31.1589 32.8212 31.1589 34.2728V60.6731C31.1589 61 31.2887 61.3136 31.5197 61.5448C31.7508 61.776 32.0642 61.9059 32.391 61.9059C32.5529 61.906 32.7133 61.8743 32.8629 61.8124C33.0125 61.7505 33.1485 61.6597 33.2631 61.5452C33.3776 61.4308 33.4685 61.2948 33.5305 61.1451C33.5925 60.9955 33.6244 60.8351 33.6244 60.6731V34.2728C33.6244 33.6915 34.1117 32.8267 34.6101 32.5278L56.0924 19.6041V44.1121L50.8385 41.077C50.6983 40.9948 50.5433 40.9411 50.3823 40.9191C50.2213 40.8971 50.0575 40.9071 49.9004 40.9487C49.7433 40.9902 49.596 41.0625 49.4669 41.1612C49.3378 41.26 49.2296 41.3833 49.1483 41.5241C49.0671 41.6649 49.0144 41.8204 48.9935 41.9816C48.9726 42.1428 48.9837 42.3066 49.0263 42.4635C49.0688 42.6204 49.142 42.7673 49.2416 42.8958C49.3411 43.0243 49.4651 43.1318 49.6064 43.2122L55.1092 46.3902C55.9199 46.8593 56.7818 46.8994 57.4718 46.5006C58.1618 46.1018 58.558 45.3356 58.558 44.3981V19.2749C58.558 17.8147 57.6043 16.1634 56.3401 15.433L34.5926 2.86985C33.3265 2.13943 31.421 2.14005 30.1568 2.86985L8.40928 15.433C7.14386 16.1634 6.19141 17.8147 6.19141 19.2749V44.4018C6.19141 45.8614 7.14509 47.5133 8.40928 48.2431L26.4807 58.6828ZM25.8639 40.418V43.6732L13.2756 36.3999C12.9932 36.2449 12.6613 36.2066 12.3511 36.2934C12.0408 36.3802 11.7769 36.585 11.6158 36.8641C11.4547 37.1432 11.4092 37.4743 11.4892 37.7865C11.5691 38.0987 11.7681 38.3672 12.0434 38.5345L26.4806 46.8766C26.6678 46.985 26.8803 47.042 27.0967 47.0418V47.0424C27.4234 47.0424 27.7368 46.9125 27.9679 46.6813C28.199 46.4501 28.3288 46.1366 28.3288 45.8096V39.7846C28.332 39.7336 28.332 39.6825 28.3288 39.6316V33.6052C28.3288 33.3888 28.2719 33.1763 28.1637 32.9889C28.0556 32.8015 27.9 32.6459 27.7127 32.5377L13.2756 24.1961C13.1353 24.111 12.9795 24.0547 12.8172 24.0305C12.6549 24.0064 12.4894 24.015 12.3305 24.0557C12.1715 24.0965 12.0223 24.1685 11.8916 24.2677C11.7609 24.3669 11.6513 24.4913 11.5692 24.6334C11.4871 24.7756 11.4343 24.9327 11.4137 25.0955C11.3932 25.2584 11.4054 25.4237 11.4495 25.5818C11.4937 25.7399 11.569 25.8876 11.671 26.0162C11.773 26.1448 11.8996 26.2517 12.0434 26.3307L25.8639 34.3165V37.5708L13.2769 30.2977C12.9941 30.1368 12.6591 30.0944 12.3451 30.1797C12.0311 30.265 11.7636 30.4711 11.6009 30.753C11.4382 31.0349 11.3935 31.3698 11.4767 31.6845C11.5599 31.9992 11.7641 32.2682 12.0448 32.4329L25.8639 40.418ZM30.3276 27.7003C30.515 27.8083 30.7274 27.865 30.9437 27.8648C31.1597 27.8641 31.3717 27.8065 31.5585 27.6978L36.8759 24.6264C37.0633 24.5182 37.219 24.3626 37.3272 24.1751C37.4355 23.9876 37.4924 23.775 37.4924 23.5585C37.4924 23.342 37.4355 23.1293 37.3272 22.9419C37.219 22.7544 37.0633 22.5988 36.8759 22.4906L24.6554 15.4533L27.5084 13.8064L40.9629 21.5549C41.1502 21.6631 41.3627 21.7201 41.579 21.7201C41.7953 21.7201 42.0078 21.6631 42.1951 21.5549L47.5118 18.4841C47.699 18.3759 47.8544 18.2203 47.9624 18.0329C48.0705 17.8456 48.1273 17.6331 48.1273 17.4168C48.1273 17.2006 48.0705 16.9881 47.9624 16.8007C47.8544 16.6134 47.699 16.4578 47.5118 16.3496L33.4412 8.24351C33.158 8.08003 32.8215 8.03583 32.5056 8.12062C32.1898 8.20541 31.9206 8.41224 31.7572 8.69563C31.5938 8.97901 31.5496 9.31573 31.6344 9.6317C31.7191 9.94768 31.9258 10.217 32.2091 10.3805L44.4278 17.4196L41.5765 19.0666L28.1239 11.3156C27.9366 11.2074 27.7241 11.1504 27.5078 11.1504C27.2915 11.1504 27.079 11.2074 26.8917 11.3156L21.575 14.387C21.3875 14.4952 21.2319 14.6508 21.1236 14.8383C21.0154 15.0257 20.9584 15.2384 20.9584 15.4549C20.9584 15.6714 21.0154 15.8841 21.1236 16.0715C21.2319 16.259 21.3875 16.4146 21.575 16.5228L33.7943 23.5619L30.9431 25.2089L17.4879 17.4572C17.3476 17.3725 17.1917 17.3166 17.0295 17.2929C16.8672 17.2692 16.7019 17.2781 16.5432 17.3191C16.3844 17.3601 16.2355 17.4325 16.105 17.5318C15.9746 17.6312 15.8652 17.7556 15.7835 17.8977C15.7017 18.0399 15.6491 18.197 15.6287 18.3597C15.6084 18.5225 15.6207 18.6877 15.665 18.8456C15.7092 19.0036 15.7846 19.1511 15.8865 19.2795C15.9885 19.4079 16.1151 19.5147 16.2589 19.5936L30.3276 27.7003Z" fill="white" fill-opacity="0.8"/>
</svg>
