<svg width="921" height="921" viewBox="0 0 921 921" fill="none" xmlns="http://www.w3.org/2000/svg">
<g clip-path="url(#clip0_1187_7841)">
<path d="M172.124 615.62C171.028 609.864 170.484 604.294 177.044 601.113C177.318 600.995 177.537 600.778 177.657 600.505C177.778 600.233 177.791 599.925 177.695 599.643C177.613 599.353 177.588 599.05 177.624 598.752C180.485 579.861 173.354 563.456 164.807 547.416C164.691 547.203 164.343 547.122 164.094 546.98C166.099 547.14 166.768 548.815 167.739 550.161C171.768 555.997 175.886 561.745 179.727 567.733C180.255 568.683 181.049 569.458 182.012 569.961C182.975 570.465 184.065 570.675 185.146 570.567C199.933 570.415 214.729 570.335 229.524 570.406C232.091 570.406 233.571 569.399 234.979 567.466C239.667 561.023 244.489 554.67 249.24 548.281L249.079 548.165C249.775 550.785 247.823 552.576 246.904 554.643C244.231 560.711 241.2 566.646 238.571 572.741C237.35 575.566 235.737 576.626 232.563 576.591C216.279 576.421 199.986 576.59 183.702 576.43C180.137 576.43 179.103 577.535 179.246 580.966C179.487 586.731 179.317 592.55 179.299 598.279C179.299 599.616 179.023 600.783 181.082 600.953C186.127 601.443 188.132 605.034 188.435 609.507C188.72 613.544 187.49 617.313 183.283 618.926C179.077 620.539 175.44 619.559 172.695 615.834C172.543 615.638 172.222 615.566 171.991 615.442L172.124 615.62ZM174.344 609.953C174.255 614.675 176.287 617.349 179.968 617.322C183.533 617.322 185.539 614.764 185.565 610.318C185.592 605.871 183.587 603.243 180.119 603.136C176.652 603.029 174.424 605.551 174.344 609.953Z" fill="#F7F8F8"/>
<path d="M345.847 346.495C343.762 345.782 343.468 344.178 342.763 342.93C336.899 332.986 331.043 323.032 325.312 313.008C324.753 311.905 323.953 310.942 322.969 310.192C321.986 309.442 320.846 308.924 319.634 308.677C306.906 305.54 294.25 302.128 281.406 298.777C282.137 296.995 283.126 297.645 284.08 297.886C295.819 300.889 307.584 303.767 319.278 306.957C322.558 307.848 324.18 307.153 325.882 304.168C333.268 291.17 340.844 278.279 348.61 265.495C350.33 262.661 349.983 260.888 348.022 258.536C341.097 250.222 334.332 241.766 327.522 233.336C326.542 232.115 325.178 231.09 324.928 228.934C326.934 229.166 327.602 230.796 328.494 231.901C335.526 240.509 342.558 249.126 349.439 257.859C350.132 258.877 351.076 259.698 352.18 260.243C353.284 260.788 354.511 261.038 355.741 260.969C371.19 260.808 386.618 260.808 402.026 260.969C404.958 260.969 406.482 260.077 407.926 257.547C413.399 247.887 419.085 238.344 424.754 228.8C425.53 227.481 425.868 225.717 427.695 225.129C428.783 226.546 427.41 227.348 426.92 228.203C421.064 238.326 415.235 248.467 409.165 258.5C407.632 261.022 407.695 262.858 409.165 265.326C415.083 275.074 420.85 284.93 426.555 294.776C430.013 300.746 433.257 306.833 437.598 312.83C437.598 309.568 437.598 306.307 437.598 303.028C437.598 301.949 437.116 300.274 438.819 300.185C440.521 300.096 440.174 301.807 440.182 302.858C440.254 307.162 440.245 311.457 440.182 315.761C440.182 316.831 440.646 318.274 438.908 318.622C437.411 318.925 436.448 318.345 435.744 316.928C433.917 312.998 431.621 309.303 428.907 305.924C428.907 309.096 428.97 312.268 428.907 315.431C428.907 316.581 429.629 318.532 427.508 318.488C425.726 318.488 426.296 316.706 426.358 315.672C426.697 310.415 425.467 305.086 427.027 299.873C427.41 298.599 426.35 297.699 425.77 296.719C419.629 286.248 413.399 275.823 407.365 265.299C406.942 264.382 406.243 263.62 405.366 263.12C404.488 262.619 403.476 262.406 402.472 262.51C386.743 262.617 371.018 262.617 355.295 262.51C354.291 262.415 353.282 262.636 352.409 263.142C351.536 263.649 350.844 264.416 350.429 265.335C342.484 279.04 334.448 292.703 326.319 306.325C325.053 308.445 325.276 309.889 326.47 311.921C332.478 321.954 338.334 332.077 344.189 342.218C344.885 343.403 346.07 344.463 345.847 346.495Z" fill="#F7F8F8"/>
<path d="M631.126 347.029C631.277 345.336 632.276 344.008 633.078 342.574C638.773 332.701 644.388 322.765 650.244 312.99C651.715 310.522 651.893 308.766 650.369 306.191C642.508 292.95 634.801 279.622 627.249 266.208C625.921 263.864 624.512 262.84 621.723 262.849C606.155 262.926 590.578 262.869 574.992 262.679C572.247 262.679 570.749 263.57 569.43 265.95C563.485 276.705 557.353 287.336 551.23 298.029C550.232 299.666 549.724 301.556 549.768 303.473C549.875 307.474 549.857 311.493 549.768 315.485C549.768 316.661 550.419 318.301 548.369 318.684C546.479 319.04 545.775 317.793 545.071 316.43C543.288 312.865 541.408 309.363 539.197 305.113C537.994 309.212 538.752 312.678 538.493 316.055C538.413 317.018 538.796 318.417 537.334 318.541C535.374 318.702 535.926 317 535.908 315.984C535.837 311.529 535.846 307.073 535.908 302.618C535.908 301.727 535.534 300.426 537.022 300.114C537.66 299.914 538.35 299.966 538.95 300.26C539.55 300.553 540.015 301.065 540.249 301.691C542.139 305.478 544.144 309.194 546.158 313.026C546.64 312.571 547.05 312.366 546.987 312.223C545.374 303.509 549.982 296.772 554.011 289.813C558.69 281.74 563.164 273.559 567.942 265.549C569.403 263.089 569.466 261.245 567.942 258.741C562.006 248.832 556.355 238.78 550.552 228.774C549.866 227.579 549.305 226.314 548.476 224.666C550.846 224.835 551.034 226.368 551.613 227.339C557.424 237.319 563.271 247.281 568.895 257.377C570.357 260.051 571.944 261.129 575.081 261.111C590.53 260.986 605.959 261.034 621.366 261.253C624.593 261.298 626.393 260.362 627.998 257.475C635.315 244.43 642.864 231.518 650.387 218.597C651.171 217.243 651.59 215.55 653.489 214.588C654.13 216.512 652.776 217.644 652.08 218.865C644.335 232.347 636.607 245.838 628.71 259.231C627.338 261.565 627.284 263.276 628.71 265.638C636.598 279.004 644.246 292.566 652.143 305.968C653.578 308.41 653.836 310.21 652.285 312.785C646.046 323.202 640.101 333.788 633.987 344.267C633.327 345.39 633.194 347.377 631.01 346.851L631.126 347.029Z" fill="#F7F8F8"/>
<path d="M685.229 602.352C689.275 593.503 693.375 584.681 697.314 575.788C698.357 573.418 700.193 573.659 702.11 573.659C717.966 573.659 733.831 573.543 749.696 573.739C753.315 573.739 754.643 572.955 754.411 569.132C754.073 563.474 754.322 557.771 754.322 551.114C756.524 553.199 756.105 554.91 755.962 556.309C754.688 567.27 757.281 577.241 762.843 586.713C765.46 591.346 767.47 596.297 768.824 601.443C764.367 595.348 759.723 589.324 755.356 583.131C754.718 582.066 753.797 581.2 752.695 580.627C751.594 580.054 750.355 579.798 749.117 579.887C734.589 579.983 720.061 579.941 705.532 579.763C704.305 579.645 703.07 579.89 701.98 580.466C700.891 581.043 699.994 581.926 699.4 583.006C695.06 589.698 690.487 596.203 685.941 602.779L685.229 602.352Z" fill="#F7F8F8"/>
<path d="M232.946 320.172C228.828 327.016 225.762 334.385 222.589 341.674C220.806 345.835 218.587 347.519 213.792 347.404C198.23 347.038 182.659 347.404 167.096 347.181C163.478 347.127 162.56 348.268 162.738 351.636C163.005 356.662 162.854 361.706 162.738 366.74C162.738 368.112 163.3 369.654 161.107 371.757C161.107 367.792 160.866 364.691 161.107 361.634C162.101 352.025 160.006 342.349 155.126 334.011C152.526 329.316 150.58 324.289 149.342 319.067C152.978 324.414 156.989 329.493 160.162 335.107C162.925 339.972 166.401 341.514 171.918 341.344C185.386 340.872 198.889 341.112 212.375 341.193C213.455 341.296 214.543 341.094 215.515 340.611C216.487 340.127 217.304 339.381 217.874 338.457C221.662 332.977 225.682 327.657 229.71 322.346C230.477 321.322 230.833 319.308 232.946 320.217V320.172Z" fill="#F7F8F8"/>
<path d="M739.491 322.507C741.425 330.901 737.78 339.821 741.701 348.045C745.563 355.839 748.959 363.855 751.871 372.051C747.415 366.054 742.887 360.119 738.6 354.015C737.004 351.743 735.373 350.718 732.459 350.745C717.788 350.906 703.108 350.852 688.428 350.745C687.355 350.654 686.278 350.877 685.329 351.386C684.379 351.895 683.598 352.67 683.081 353.614C678.972 359.906 674.622 366.027 670.371 372.22L669.408 371.712C671.752 366.535 674.756 361.536 676.307 356.136C679.043 346.717 684.329 343.599 694.267 344.418C707.52 345.506 720.925 344.561 734.268 344.775C737.7 344.828 738.52 343.777 738.386 340.533C738.127 334.536 738.314 328.521 738.314 322.516L739.491 322.507Z" fill="#F7F8F8"/>
<path d="M344.385 459.208C349.1 465.036 353.788 470.89 358.53 476.7C362.185 481.155 365.09 487.268 369.814 489.541C374.538 491.813 381.125 490.298 386.891 490.325C397.721 490.378 408.559 490.236 419.388 490.414C422.329 490.467 423.845 489.469 425.297 486.929C430.699 477.226 436.323 467.647 441.92 458.058C442.705 456.704 443.213 455.064 444.781 454.164C445.815 456.044 444.318 457.069 443.649 458.237C437.856 468.404 431.911 478.482 426.233 488.703C424.798 491.278 423.167 492.142 420.271 492.116C404.539 491.973 388.808 492.116 373.085 491.973C370.144 491.973 368.629 492.935 367.194 495.439C359.766 508.592 352.211 521.661 344.528 534.647C342.906 537.401 342.745 539.45 344.457 542.266C350.277 551.899 355.821 561.7 361.391 571.476C362.069 572.67 363.37 573.721 362.924 575.708C361.142 575.37 360.848 573.819 360.25 572.723C354.439 562.743 348.663 552.754 342.941 542.711C342.403 541.597 341.617 540.621 340.644 539.857C339.671 539.092 338.536 538.56 337.326 538.301C325.819 535.556 314.393 532.473 302.949 529.488C301.719 529.167 300.524 528.686 298.84 528.124C300.239 526.725 301.273 527.278 302.334 527.554C313.921 530.575 325.508 533.533 337.094 536.599C339.768 537.311 341.497 537.08 343.093 534.21C350.589 520.755 358.334 507.478 366.169 494.174C367.63 491.706 367.381 490.191 365.598 488.052C358.958 480.033 352.541 471.906 346.079 463.788C345.089 462.603 343.69 461.605 344.385 459.208Z" fill="#F7F8F8"/>
<path d="M649.692 574.96C649.505 573.302 650.789 572.144 651.529 570.852C657.037 561.219 662.545 551.578 668.205 542.034C669.488 539.878 669.586 538.301 668.258 536.055C660.302 522.534 652.47 508.945 644.764 495.288C643.391 492.846 641.769 492.178 639.113 492.196C623.542 492.321 607.971 492.347 592.4 492.196C589.414 492.196 587.943 493.23 586.535 495.76C580.822 505.963 574.948 516.041 569.021 526.146C568.379 527.242 568.058 528.615 566.525 529.399C565.572 527.732 566.864 526.645 567.488 525.558C573.362 515.284 579.191 504.974 585.314 494.816C586.802 492.321 586.883 490.565 585.314 488.026C579.734 478.776 574.44 469.366 569.074 459.983C568.406 458.816 567.212 457.747 567.657 456.018C569.672 456.454 569.894 458.156 570.581 459.324C575.929 468.386 581.276 477.439 586.294 486.653C587.917 489.621 589.681 490.77 593.175 490.726C608.889 490.503 624.611 490.681 640.334 490.574C642.847 490.574 644.327 491.26 645.61 493.533C653.712 507.79 661.975 522.047 670.21 536.242C671.102 537.81 671.85 539.12 670.683 541.09C664.221 552.059 657.937 563.126 651.564 574.14C651.243 574.639 650.94 575.494 649.692 574.96Z" fill="#F7F8F8"/>
<path d="M445.459 623.542C443.445 622.864 443.186 621.261 442.491 620.067C436.831 610.336 431.136 600.632 425.645 590.812C424.246 588.317 422.722 587.301 419.763 587.346C406.999 587.533 394.236 587.435 381.437 587.408C379.931 587.408 378.309 587.747 376.98 585.956C378.478 585.885 379.975 585.76 381.437 585.751C394.352 585.751 407.285 585.689 420.173 585.751C422.535 585.751 423.863 585.1 425.057 582.98C430.94 572.524 436.944 562.128 443.07 551.792C444.755 548.958 443.881 546.053 444.033 543.175C444.211 539.922 444.033 536.652 444.104 533.373C444.104 532.321 443.605 530.86 445.397 530.557C446.939 530.29 447.839 530.967 448.534 532.339C450.37 536.037 452.322 539.673 454.559 543.923C455.985 539.994 455.067 536.51 455.379 533.159C455.468 532.197 455.058 530.789 456.502 530.655C458.436 530.477 457.964 532.161 457.973 533.195C458.044 537.65 458.026 542.106 457.973 546.561C457.973 547.702 458.178 549.011 456.369 549.145C455.788 549.229 455.196 549.11 454.691 548.811C454.187 548.511 453.801 548.047 453.597 547.497C451.68 543.718 449.675 539.985 447.518 535.868C447.095 536.461 446.805 537.138 446.67 537.853C446.535 538.569 446.556 539.305 446.734 540.011C447.562 546.169 445.316 551.364 442.224 556.497C436.876 565.363 431.84 574.434 426.537 583.345C425.902 584.231 425.561 585.294 425.561 586.384C425.561 587.473 425.902 588.536 426.537 589.422C432.366 599.224 438.026 609.124 443.703 619.015C444.514 620.343 445.682 621.412 445.459 623.542Z" fill="#F7F8F8"/>
<path d="M770.374 606.611C759.313 611.869 749.054 616.761 738.777 621.617C737.289 622.312 737.306 623.515 737.119 624.887C736.228 631.722 732.235 634.939 726.424 633.7C721.495 632.649 718.812 627.017 720.461 621.163C721.352 618.044 723.331 615.914 726.513 615.308C729.695 614.702 733.046 615.041 734.882 618.035C736.477 620.646 737.85 620.361 740.167 619.211C749.455 614.631 758.885 610.398 768.145 605.711C771.844 603.831 772.129 605.016 772.103 608.384C771.969 623.961 772.103 639.528 771.978 655.104C771.978 658.089 772.736 659.845 775.49 661.342C785.856 667.071 796.052 673.113 806.302 679.056C807.407 679.698 808.842 679.947 809.297 681.489C807.951 682.523 807.069 681.338 806.142 680.803C795.214 674.565 784.349 668.158 773.377 661.992C770.962 660.638 770.267 659.061 770.284 656.378C770.436 640.107 770.374 623.8 770.374 606.611ZM734.169 624.7C734.249 620.245 732.306 617.572 728.821 617.385C725.256 617.188 723.028 619.683 722.912 624.05C722.778 628.799 724.757 631.508 728.402 631.57C732.048 631.633 734.098 629.138 734.169 624.7Z" fill="#F7F8F8"/>
<path d="M146.972 317.321V291.898C146.972 283.299 146.909 274.691 147.016 266.057C147.016 263.633 146.544 262.02 144.191 260.71C132.693 254.259 121.293 247.629 109.929 240.955C108.566 240.153 108.022 240.144 106.828 241.338C105.45 242.807 103.598 243.744 101.598 243.983C99.5979 244.223 97.5774 243.75 95.8914 242.648C92.5312 240.384 91.1408 235.038 92.763 230.582C94.1177 226.84 97.7185 224.79 102.023 225.307C103.171 225.463 104.274 225.854 105.262 226.457C106.251 227.059 107.104 227.86 107.768 228.808C108.432 229.757 108.893 230.832 109.12 231.967C109.348 233.102 109.338 234.272 109.092 235.403C108.539 238.451 109.983 239.155 111.89 240.268C123.21 246.729 134.458 253.314 145.822 259.685C148.122 260.977 148.719 262.528 148.701 265.032C148.612 281.321 148.701 297.61 148.701 314.531L181.804 298.367L182.446 299.713L146.972 317.321ZM95.0714 234.806C95.1249 239.262 97.1838 241.748 100.749 241.703C104.314 241.659 106.293 239.101 106.311 234.664C106.329 230.226 104.296 227.606 100.811 227.535C97.1392 227.428 95.0179 230.128 95.0714 234.806Z" fill="#F7F8F8"/>
<path d="M567.426 551.284C569.591 551.542 569.761 553.28 570.429 554.411C575.67 563.322 580.973 572.233 585.92 581.34C587.703 584.61 589.655 585.92 593.478 585.795C605.484 585.519 617.49 585.68 629.496 585.715C630.931 585.715 632.428 585.332 633.952 586.268C632.776 588.05 631.029 587.328 629.612 587.337C617.133 587.39 604.709 587.435 592.257 587.337C591.177 587.222 590.089 587.449 589.145 587.986C588.201 588.523 587.45 589.344 586.999 590.331C580.599 601.66 574.084 612.926 567.452 624.13C566.436 625.849 566.739 626.669 567.755 628.22C572.078 634.787 568.771 643.137 561.855 643.582C556.373 643.939 552.746 640.49 552.505 634.671C552.265 628.853 555.963 624.361 561.418 625.083C564.841 625.538 565.795 624.023 567.14 621.635C573.014 611.2 578.959 600.783 585.118 590.509C586.802 587.702 586.695 585.644 585.047 582.899C579.547 573.783 574.351 564.498 569.003 555.276C568.388 554.099 567.345 552.994 567.426 551.284ZM566.739 634.154C566.686 629.699 564.609 627.177 561.071 627.204C557.532 627.231 555.411 629.949 555.518 634.68C555.625 639.064 557.782 641.542 561.374 641.381C564.966 641.221 566.802 638.592 566.739 634.128V634.154Z" fill="#F7F8F8"/>
<path d="M646.921 590.456C646.921 586.892 646.921 583.389 646.921 579.861C646.921 578.97 646.921 577.945 648.16 577.891C649.399 577.838 649.434 578.854 649.505 579.745C649.532 579.889 649.532 580.037 649.505 580.182C647.411 588.112 652.812 590.34 658.597 592.986C677.145 601.478 695.514 610.327 713.92 619.104C715.257 619.746 717.146 619.826 717.752 621.947C715.89 622.285 714.588 621.198 713.216 620.548C693.417 611.227 673.636 601.876 653.873 592.496C651.368 591.311 649.051 589.823 649.479 594.581C649.559 595.473 649.318 596.364 648.097 596.417C646.876 596.471 645.869 596.283 645.218 594.956C643.311 591.133 641.27 587.373 638.979 582.953C637.669 586.909 638.507 590.376 638.222 593.735C638.124 594.813 638.578 596.408 636.697 596.257C635.173 596.123 635.646 594.688 635.628 593.771C635.574 589.315 635.583 584.86 635.628 580.404C635.628 579.317 635.254 577.927 637.107 577.731C637.687 577.63 638.283 577.732 638.796 578.019C639.309 578.307 639.707 578.762 639.924 579.308C641.84 583.095 643.837 586.829 645.807 590.589L646.921 590.456Z" fill="#F7F8F8"/>
<path d="M720.764 393.473C719.739 391.459 721.325 390.853 722.627 390.229C732.752 385.382 742.939 380.65 753.02 375.696C756.175 374.154 756.032 375.82 756.024 378.039C756.024 394.079 756.077 410.029 755.943 426.024C755.943 428.76 756.772 430.23 759.143 431.558C769.464 437.332 779.643 443.311 789.911 449.263C791.132 449.976 792.736 450.279 793.253 451.937C791.702 452.979 790.722 451.616 789.688 451.046C778.903 444.87 768.19 438.571 757.352 432.484C754.954 431.13 754.241 429.553 754.268 426.871C754.401 411.615 754.268 396.36 754.393 381.104C754.393 377.54 753.671 377.103 750.542 378.69C740.684 383.706 730.702 388.491 720.764 393.357V393.473Z" fill="#F7F8F8"/>
<path d="M164.093 546.989C163.289 532.627 163.265 518.233 164.022 503.869C164.539 494.575 161.74 489.318 153.326 485.504C144.912 481.69 137.042 476.397 128.993 471.674C127.808 470.979 126.186 470.694 125.598 469.117C126.703 467.664 127.505 469.019 128.2 469.42C139.645 475.942 151.044 482.572 162.506 489.077C163.494 489.535 164.316 490.289 164.857 491.234C165.398 492.179 165.633 493.268 165.528 494.352C165.403 509.331 165.528 524.31 165.403 539.29C165.403 542.979 166.081 543.683 169.512 541.909C177.926 537.552 186.447 533.48 195.012 529.354C196.091 528.837 197.08 527.572 198.631 528.463C198.212 530.307 196.465 530.37 195.262 530.976C186.277 535.52 177.231 539.949 168.228 544.458C166.794 545.18 165.474 546.151 164.102 547.015L164.093 546.989Z" fill="#F7F8F8"/>
<path d="M548.644 396.208C548.341 394.381 549.651 393.17 550.427 391.806C556.229 381.666 561.934 371.454 568.039 361.509C569.911 358.462 569.563 356.35 567.887 353.552C562.183 344.044 556.684 334.403 551.14 324.797C550.454 323.594 549.277 322.507 549.634 320.769C551.586 321.17 551.826 322.836 552.512 324.013C558.128 333.574 563.778 343.135 569.18 352.821C570.677 355.495 572.433 356.386 575.419 356.386C587.425 356.216 599.484 356.305 611.445 356.332C612.969 356.332 614.583 356.002 616.641 357.223C614.672 358.337 613.076 358.007 611.623 358.016C599.769 358.016 587.906 358.159 576.052 357.945C572.763 357.892 571.096 359.041 569.545 361.839C563.725 372.309 557.655 382.637 551.586 392.965C550.846 394.221 550.694 396.333 548.457 396.155L548.644 396.208Z" fill="#F7F8F8"/>
<path d="M180.422 774.839C179.094 773.271 179.673 771.604 179.673 770.107C179.62 754.959 179.557 739.882 179.673 724.769C179.673 721.855 178.782 720.233 176.251 718.816C165.68 712.855 155.207 706.716 144.734 700.594C143.549 699.899 141.882 699.703 141.508 697.796C143.219 697.217 144.271 698.518 145.394 699.159C156.321 705.397 167.186 711.723 178.096 717.97C179.985 719.057 181.376 720.073 181.358 722.657C181.251 739.106 181.304 755.556 181.295 771.996C181.331 772.968 181.492 774.028 180.422 774.839Z" fill="#F7F8F8"/>
<path d="M737.787 145.341C739.445 147.23 738.856 148.906 738.865 150.456C738.865 166.006 738.954 181.546 738.865 197.095C738.865 199.769 739.659 201.319 742.074 202.656C752.146 208.261 762.102 214.088 772.075 219.881C773.394 220.656 775.141 220.994 775.756 222.741C774.615 224.06 773.787 222.741 773.082 222.376C761.914 215.978 750.8 209.49 739.641 203.083C738.126 202.192 737.163 201.355 737.172 199.368C737.261 181.902 737.243 164.428 737.279 146.954C737.384 146.398 737.555 145.857 737.787 145.341Z" fill="#F7F8F8"/>
<path d="M358.691 356.974C360.741 355.726 362.381 356.172 363.941 356.172C376.838 356.172 389.789 356.172 402.641 356.332C405.387 356.332 406.857 355.441 408.167 353.053C413.578 343.189 419.202 333.449 424.781 323.647C425.477 322.426 425.869 320.974 427.206 320.217C428.837 320.903 427.696 321.785 427.375 322.364C421.148 333.455 414.888 344.531 408.595 355.593C407.855 356.911 407.142 357.963 405.28 357.945C390.297 357.811 375.323 357.785 360.349 357.696C359.984 357.731 359.618 357.411 358.691 356.974Z" fill="#F7F8F8"/>
<path d="M289.268 513.493C288.76 507.531 288.216 501.624 287.762 495.671C287.182 488.284 286.719 480.897 286.113 473.51C285.943 471.46 285.943 469.945 288.305 468.912C300.374 463.663 312.371 458.219 324.394 452.872C324.863 452.751 325.345 452.682 325.829 452.667C325.571 454.806 323.788 454.833 322.656 455.341C312.148 460.135 301.639 464.92 291.051 469.5C288.502 470.605 287.619 471.754 287.895 474.722C289.036 487.108 289.803 499.53 290.694 511.951C290.73 512.539 290.81 513.225 289.268 513.493Z" fill="#F7F8F8"/>
<path d="M781.087 763.157C780.775 761.606 780.864 760.377 782.655 759.592C792.246 755.431 801.783 751.172 811.747 747.625C803.03 753.863 794.278 760.002 785.614 766.276C782.941 768.183 783.279 764.244 781.577 764.493C781.408 764.057 781.247 763.611 781.087 763.157Z" fill="#F7F8F8"/>
<path d="M777.886 288.494C769.357 294.571 760.764 300.55 752.342 306.77C749.793 308.65 749.374 306.663 748.625 305.255C747.787 303.66 745.497 301.878 748.946 300.408C754.222 298.153 759.445 295.756 764.704 293.422L777.539 287.772L777.886 288.494Z" fill="#F7F8F8"/>
<path d="M308.378 224.835L278.519 237.863C269.963 241.587 270.141 241.569 271.05 250.748C272.004 260.309 272.574 269.915 273.26 279.503C273.341 280.626 273.679 281.847 272.645 283.165C270.863 280.795 271.611 278.06 271.389 275.654C270.426 265.05 269.74 254.419 268.938 243.797C268.777 241.775 268.938 240.233 271.255 239.253C282.842 234.361 294.286 229.264 305.793 224.247C306.435 223.971 307.094 223.445 308.378 224.835Z" fill="#F7F8F8"/>
<path d="M794.047 518.037C785.395 524.198 776.741 530.352 768.083 536.501C765.017 538.666 765.284 535.119 764.277 534.041C762.931 532.598 762.495 531.083 765.044 529.996C771.577 527.233 778.039 524.284 784.528 521.414L793.69 517.369L794.047 518.037Z" fill="#F7F8F8"/>
<path d="M363.897 582.855C363.897 586.419 363.897 589.983 363.897 593.485C363.897 594.377 363.835 595.392 362.622 595.437C361.41 595.481 361.33 594.439 361.33 593.566C361.33 588.671 361.33 583.778 361.33 578.889C361.33 577.998 361.33 577.107 362.587 576.911C363.24 576.772 363.921 576.877 364.502 577.205C365.083 577.534 365.524 578.063 365.742 578.693C367.578 582.4 369.539 586.054 371.749 590.277C373.247 586.588 372.231 583.247 372.641 580.057C372.783 578.916 371.972 576.947 374.147 577.116C375.832 577.241 375.217 578.97 375.234 580.021C375.306 584.325 375.234 588.62 375.234 592.924C375.234 594.047 375.493 595.392 373.675 595.544C373.094 595.635 372.5 595.524 371.991 595.23C371.482 594.937 371.088 594.479 370.876 593.931C368.968 590.144 366.954 586.401 364.984 582.65L363.897 582.855Z" fill="#F7F8F8"/>
<path d="M630.993 346.905C632.589 352.563 631.376 358.337 631.688 364.049C631.688 364.94 631.466 365.831 630.262 365.885C629.686 365.999 629.088 365.912 628.569 365.638C628.05 365.364 627.64 364.919 627.41 364.379C625.503 360.565 623.471 356.814 621.109 352.314C619.932 356.404 620.672 359.87 620.414 363.238C620.342 364.2 620.734 365.591 619.282 365.724C617.312 365.911 617.847 364.218 617.829 363.194C617.766 358.738 617.775 354.283 617.829 349.872C617.829 348.776 617.499 347.404 619.344 347.252C619.925 347.16 620.519 347.27 621.029 347.563C621.538 347.857 621.931 348.316 622.143 348.865C624.016 352.84 626.349 356.581 629.095 360.012C629.095 356.885 629.095 353.775 629.095 350.638C629.095 349.07 628.649 347.208 631.136 347.074L630.993 346.905Z" fill="#F7F8F8"/>
<path d="M346.116 354.033C346.116 357.357 346.116 360.69 346.116 364.013C346.116 365.074 346.552 366.687 344.681 366.624C343.139 366.562 343.549 365.127 343.54 364.2C343.486 359.897 343.46 355.601 343.54 351.298C343.54 350.148 342.836 348.491 344.957 348.152C346.873 347.831 347.506 349.106 348.201 350.478C349.965 354.211 352.176 357.715 354.788 360.912C354.788 357.651 354.788 354.39 354.788 351.11C354.788 350.032 354.307 348.357 356.027 348.277C357.747 348.197 357.364 349.908 357.382 350.95C357.447 355.245 357.447 359.543 357.382 363.844C357.382 364.913 357.836 366.357 356.098 366.696C354.583 366.99 353.638 366.393 352.943 364.985C351.062 361.224 349.057 357.517 347.096 353.793L346.116 354.033Z" fill="#F7F8F8"/>
<path d="M556.079 448.043C556.079 444.478 556.079 440.976 556.079 437.439C556.079 436.547 556.079 435.523 557.327 435.478C558.575 435.434 558.655 436.459 558.655 437.341C558.655 442.236 558.655 447.131 558.655 452.026C558.655 452.917 558.566 453.808 557.363 453.986C556.711 454.137 556.025 454.037 555.443 453.707C554.86 453.377 554.423 452.841 554.217 452.204C552.387 448.291 550.095 444.611 547.389 441.244C547.389 444.576 547.389 447.909 547.389 451.233C547.389 452.302 547.817 453.906 545.936 453.826C544.403 453.746 544.822 452.302 544.813 451.384C544.76 446.929 544.76 442.473 544.813 438.018C544.813 436.94 544.403 435.523 546.257 435.345C546.836 435.232 547.437 435.326 547.954 435.609C548.472 435.892 548.874 436.347 549.092 436.895C551.017 440.691 553.013 444.434 554.983 448.194L556.079 448.043Z" fill="#F7F8F8"/>
<path d="M427.82 217.448C427.82 214.053 427.82 210.658 427.82 207.263C427.82 206.301 427.588 204.928 429.157 204.973C430.726 205.017 430.405 206.389 430.414 207.343C430.414 211.932 430.414 216.53 430.414 221.128C430.414 222.126 430.538 223.311 429.023 223.454C428.449 223.591 427.845 223.521 427.317 223.257C426.789 222.993 426.371 222.552 426.135 222.01C424.228 218.178 422.187 214.418 419.896 209.989C418.604 213.973 419.433 217.448 419.148 220.816C419.059 221.894 419.486 223.49 417.588 223.302C416.091 223.133 416.572 221.698 416.563 220.781C416.501 216.325 416.509 211.87 416.563 207.414C416.563 206.309 416.26 204.955 418.114 204.812C418.696 204.729 419.289 204.846 419.795 205.146C420.301 205.446 420.689 205.91 420.895 206.461C422.811 210.23 424.807 213.964 426.768 217.706L427.82 217.448Z" fill="#F7F8F8"/>
<path d="M286.443 521.388C286.443 524.872 286.443 528.365 286.443 531.849C286.443 532.865 286.523 534.112 284.955 533.979C283.698 533.872 283.876 532.758 283.867 531.929C283.831 527.331 283.831 522.733 283.867 518.135C283.867 517.048 283.502 515.649 285.356 515.462C285.937 515.362 286.535 515.467 287.048 515.757C287.562 516.048 287.959 516.507 288.172 517.057C290.046 521.041 292.386 524.789 295.142 528.222C295.142 524.792 295.142 521.37 295.142 517.948C295.142 516.986 294.901 515.605 296.435 515.596C297.968 515.587 297.727 516.95 297.736 517.913C297.736 522.368 297.789 526.823 297.736 531.279C297.736 532.348 298.164 533.783 296.399 534.086C294.866 534.353 293.957 533.703 293.27 532.304C291.425 528.597 289.464 524.943 287.548 521.272L286.443 521.388Z" fill="#F7F8F8"/>
<path d="M338.762 453.345C338.762 449.95 338.762 446.555 338.762 443.16C338.762 442.197 338.539 440.825 340.107 440.878C341.676 440.932 341.337 442.304 341.346 443.258C341.4 447.701 341.4 452.156 341.346 456.624C341.346 457.711 341.747 459.119 339.947 459.386C338.369 459.627 337.523 458.887 336.854 457.542C335.009 453.844 333.057 450.208 330.784 445.851C329.545 449.914 330.33 453.38 330.062 456.758C329.982 457.72 330.374 459.119 328.922 459.252C326.952 459.431 327.496 457.729 327.478 456.704C327.406 452.249 327.424 447.793 327.478 443.338C327.478 442.402 327.103 441.146 328.583 440.825C329.219 440.62 329.91 440.669 330.511 440.961C331.112 441.254 331.577 441.766 331.809 442.393C333.699 446.171 335.713 449.896 337.674 453.639L338.762 453.345Z" fill="#F7F8F8"/>
<path d="M268.644 291.72C268.644 294.447 268.822 297.182 268.572 299.882C268.43 301.397 269.811 304.257 267.217 304.159C265.007 304.079 266.148 301.263 266.068 299.704C265.881 296.309 265.916 292.887 266.068 289.483C266.068 288.209 265.176 286.338 267.44 285.919C269.704 285.5 270.114 287.149 270.89 288.592C272.603 292.199 274.759 295.578 277.307 298.652C277.307 295.4 277.307 292.147 277.307 288.895C277.307 287.826 276.817 286.151 278.51 286.035C280.346 285.91 279.874 287.639 279.892 288.708C279.963 292.86 279.981 297.013 279.892 301.183C279.892 302.359 280.569 304.008 278.644 304.498C276.549 305.033 275.845 303.544 275.079 302.03C273.296 298.537 271.433 295.088 269.615 291.622L268.644 291.72Z" fill="#F7F8F8"/>
<path d="M437.875 630.929C437.875 634.493 437.875 638.013 437.875 641.55C437.875 642.442 437.812 643.457 436.6 643.502C435.388 643.546 435.308 642.504 435.299 641.631C435.299 636.736 435.299 631.841 435.299 626.946C435.299 626.055 435.299 625.164 436.556 624.976C437.208 624.838 437.89 624.942 438.471 625.27C439.052 625.599 439.493 626.128 439.711 626.759C441.547 630.466 443.508 634.11 445.718 638.343C447.207 634.645 446.2 631.303 446.609 628.113C446.743 626.972 445.932 624.994 448.116 625.172C449.791 625.297 449.176 627.035 449.194 628.077C449.274 632.381 449.248 636.685 449.194 640.98C449.194 642.103 449.444 643.449 447.625 643.6C447.045 643.693 446.45 643.582 445.941 643.287C445.433 642.991 445.042 642.529 444.836 641.978C442.92 638.2 440.905 634.458 438.935 630.706L437.875 630.929Z" fill="#F7F8F8"/>
<path d="M312.272 216.958C312.272 220.281 312.317 223.614 312.272 226.929C312.272 227.998 312.709 229.602 310.838 229.549C309.296 229.495 309.706 228.052 309.697 227.125C309.643 222.83 309.616 218.526 309.697 214.222C309.697 213.073 308.993 211.424 311.105 211.077C313.021 210.756 313.663 212.03 314.358 213.402C316.121 217.135 318.333 220.639 320.945 223.837C320.945 220.576 320.945 217.314 320.945 214.035C320.945 212.966 320.464 211.282 322.184 211.201C323.904 211.121 323.521 212.832 323.539 213.875C323.598 218.176 323.598 222.477 323.539 226.778C323.539 227.847 323.993 229.29 322.255 229.629C320.749 229.923 319.804 229.335 319.1 227.927C317.219 224.158 315.214 220.46 313.253 216.726L312.272 216.958Z" fill="#F7F8F8"/>
<path d="M564.965 543.291C564.965 540.056 564.965 536.83 564.965 533.605C564.965 532.535 564.483 530.851 566.186 530.762C567.888 530.673 567.532 532.384 567.55 533.435C567.615 537.73 567.615 542.031 567.55 546.338C567.55 547.408 568.013 548.842 566.275 549.19C564.769 549.493 563.824 548.904 563.12 547.488C561.287 543.561 558.989 539.869 556.274 536.492C556.274 539.815 556.319 543.139 556.274 546.463C556.274 547.523 556.72 549.136 554.848 549.092C553.306 549.038 553.716 547.595 553.699 546.668C553.645 542.364 553.618 538.069 553.699 533.765C553.699 532.615 552.995 530.967 555.107 530.61C557.023 530.29 557.665 531.564 558.36 532.927C560.143 536.492 562.023 539.949 563.859 543.451L564.965 543.291Z" fill="#F7F8F8"/>
<path d="M775.188 316.902C775.081 319.575 776.524 321.01 777.861 322.712C780.491 326.142 780.607 330.108 778.753 333.984C777.148 337.263 774.296 338.519 770.731 338.306C766.061 338.038 763.003 334.643 762.79 329.395C762.585 324.28 765.463 320.19 769.92 319.762C772.006 319.539 774.127 319.807 775.188 316.902ZM776.97 329.003C776.97 324.547 774.956 321.954 771.471 321.874C767.986 321.794 765.802 324.316 765.74 328.726C765.66 333.44 767.727 336.105 771.408 336.051C774.911 336.007 776.926 333.449 776.935 329.003H776.97Z" fill="#F7F8F8"/>
<path d="M791.141 546.588C791.212 549.074 792.745 550.205 794.136 551.658C797.3 554.964 797.558 559.072 795.829 563.171C794.439 566.468 791.774 568.045 788.111 567.965C783.28 567.858 780.196 564.837 779.706 559.562C779.215 554.287 782.023 549.929 786.685 549.448C787.621 549.439 788.537 549.166 789.325 548.66C790.114 548.154 790.743 547.436 791.141 546.588ZM793.815 558.484C793.761 554.028 791.685 551.506 788.155 551.515C784.626 551.524 782.486 554.242 782.585 558.974C782.683 563.367 784.831 565.844 788.423 565.701C792.015 565.559 793.895 562.948 793.851 558.493L793.815 558.484Z" fill="#F7F8F8"/>
<path d="M808.878 776.185C808.967 778.689 810.482 779.811 811.899 781.255C815.09 784.534 815.366 788.642 813.682 792.759C812.309 796.056 809.68 797.669 806.008 797.615C801.15 797.535 798.057 794.541 797.54 789.275C797.024 784.008 799.778 779.633 804.457 779.107C805.389 779.064 806.292 778.77 807.07 778.255C807.849 777.741 808.473 777.025 808.878 776.185ZM811.659 788.054C811.578 783.598 809.466 781.103 805.928 781.166C802.389 781.228 800.312 783.955 800.437 788.695C800.553 793.08 802.746 795.539 806.355 795.343C809.823 795.165 811.73 792.536 811.659 788.054Z" fill="#F7F8F8"/>
<path d="M498.483 634.154C498.483 631.944 498.483 629.699 498.483 627.516C498.483 626.58 498.109 625.199 499.642 625.092C501.514 624.976 501.255 626.562 501.139 627.614C500.783 630.938 501.407 632.809 505.516 632.568C508.644 632.399 510.213 631.829 509.847 628.371C509.723 627.204 508.956 624.914 511.407 625.119C513.332 625.27 512.53 627.222 512.557 628.389C512.664 632.666 512.611 636.944 512.557 641.23C512.557 642.192 512.789 643.448 511.229 643.52C509.669 643.591 509.848 642.335 509.776 641.354C509.776 640.766 509.776 640.169 509.776 639.572C509.705 635.072 506.764 633.13 502.45 634.787C500.293 635.616 501.558 637.558 501.184 638.957C500.81 640.356 502.289 643.306 499.838 643.324C497.387 643.341 498.76 640.544 498.519 639.011C498.383 637.395 498.371 635.772 498.483 634.154Z" fill="#F7F8F8"/>
<path d="M468.063 634.128C468.063 636.498 468.063 638.859 468.063 641.256C468.063 642.219 468.304 643.475 466.744 643.555C465.184 643.636 465.353 642.388 465.282 641.399C465.282 640.811 465.282 640.214 465.282 639.617C465.211 635.099 462.305 633.174 457.965 634.823C455.799 635.643 457.073 637.585 456.69 638.984C456.307 640.383 457.795 643.333 455.353 643.359C452.911 643.386 454.123 640.57 454.034 639.064C453.829 635.233 453.945 631.392 454.034 627.552C454.034 626.661 453.651 625.235 455.175 625.128C457.046 624.994 456.734 626.554 456.699 627.641C456.61 630.421 456.342 632.773 460.612 632.613C464.132 632.479 465.87 631.793 465.38 627.961C465.237 626.865 464.738 624.914 466.949 625.11C468.731 625.262 468.072 626.892 468.116 627.961C468.179 629.993 468.072 632.069 468.063 634.128Z" fill="#F7F8F8"/>
<path d="M564.376 444.781C564.376 442.42 564.376 440.058 564.376 437.697C564.376 436.735 564.171 435.398 565.748 435.469C567.326 435.541 567.023 436.833 567.059 437.813C567.166 440.326 566.23 443.097 570.749 442.999C574.501 442.91 576.328 442.17 575.722 438.107C575.571 437.118 575.223 435.434 577.095 435.434C578.966 435.434 578.458 437.047 578.467 438.107C578.521 442.687 578.467 447.267 578.467 451.839C578.467 452.881 578.467 454.04 576.908 453.906C575.66 453.808 575.74 452.81 575.686 451.946C575.642 451.357 575.686 450.769 575.686 450.163C575.588 445.298 573.36 443.783 568.556 445.084C567.13 445.467 567.13 446.332 567.112 447.357C567.112 448.836 567.112 450.315 567.112 451.812C567.112 452.872 567.112 454.022 565.552 453.879C564.313 453.763 564.447 452.694 564.438 451.857C564.349 449.504 564.376 447.107 564.376 444.781Z" fill="#F7F8F8"/>
<path d="M494.766 308.873C494.766 311.235 494.766 313.605 494.766 316.002C494.766 316.893 494.605 317.784 493.375 317.784C492.145 317.784 492.038 316.893 491.994 316.002C491.994 315.414 491.994 314.826 491.994 314.22C491.878 309.069 490.113 307.804 485.024 308.953C483.651 309.265 483.419 309.969 483.419 311.083C483.487 312.27 483.487 313.46 483.419 314.647C483.286 315.806 484.115 317.775 482.029 317.713C479.943 317.65 480.799 315.708 480.763 314.567C480.656 310.587 480.656 306.601 480.763 302.609C480.763 301.468 479.997 299.534 481.975 299.41C484.097 299.276 483.526 301.308 483.384 302.404C482.911 305.968 484.444 306.859 487.84 306.859C491.094 306.859 492.457 305.968 492.092 302.609C491.976 301.513 491.307 299.499 493.304 299.419C495.764 299.312 494.703 301.531 494.81 302.76C494.988 304.81 494.864 306.886 494.864 308.953L494.766 308.873Z" fill="#F7F8F8"/>
<path d="M450.218 214.285V221.814C450.218 222.857 449.781 223.507 448.641 223.4C447.696 223.311 447.5 222.616 447.482 221.841C447.393 220.812 447.393 219.778 447.482 218.749C447.928 215.523 446.804 214.489 443.391 214.445C439.692 214.4 438.248 215.434 438.836 219.123C438.937 220.153 438.913 221.191 438.765 222.215C438.694 223.106 438.097 223.436 437.25 223.365C437.102 223.36 436.957 223.324 436.825 223.26C436.692 223.196 436.574 223.104 436.478 222.992C436.382 222.88 436.311 222.749 436.269 222.607C436.227 222.466 436.215 222.317 436.234 222.171C436.234 216.86 436.234 211.549 436.234 206.238C436.208 206.054 436.227 205.867 436.288 205.692C436.349 205.516 436.45 205.358 436.584 205.229C436.718 205.1 436.88 205.005 437.058 204.951C437.236 204.898 437.423 204.887 437.606 204.919C437.899 204.924 438.18 205.037 438.395 205.236C438.611 205.435 438.746 205.706 438.774 205.997C438.854 206.586 438.845 207.174 438.881 207.78C439.139 211.861 442.277 213.768 446.136 212.235C448.248 211.344 447.143 209.473 447.482 208.029C447.74 206.906 446.796 204.955 448.944 205.026C451.092 205.098 450.191 206.996 450.263 208.145C450.396 210.195 450.263 212.271 450.263 214.338L450.218 214.285Z" fill="#F7F8F8"/>
<path d="M498.482 539.183C498.482 536.821 498.482 534.46 498.482 532.098C498.482 531.136 498.241 529.8 499.81 529.817C501.379 529.835 501.12 531.118 501.165 532.116C501.272 534.611 500.273 537.463 504.801 537.338C508.456 537.258 510.47 536.661 509.828 532.509C509.677 531.519 509.302 529.835 511.147 529.835C512.992 529.835 512.556 531.395 512.574 532.446C512.627 536.872 512.627 541.3 512.574 545.732C512.574 546.792 512.983 548.352 511.067 548.281C509.525 548.218 509.882 546.899 509.793 545.937C509.739 545.358 509.793 544.761 509.793 544.155C509.739 539.958 506.227 537.81 502.279 539.539C501.209 540.002 501.254 540.831 501.227 541.687C501.227 543.166 501.227 544.636 501.227 546.142C501.227 547.184 501.227 548.361 499.712 548.263C498.473 548.183 498.562 547.131 498.544 546.285C498.482 543.905 498.482 541.562 498.482 539.183Z" fill="#F7F8F8"/>
<path d="M480.657 214.035C480.657 211.816 480.657 209.58 480.657 207.387C480.657 206.496 480.273 205.071 481.806 204.973C483.678 204.848 483.42 206.434 483.313 207.495C482.956 210.818 483.58 212.68 487.689 212.449C490.817 212.271 492.377 211.709 492.012 208.243C491.896 207.076 491.12 204.786 493.58 204.991C495.506 205.151 494.703 207.102 494.73 208.261C494.828 212.538 494.784 216.824 494.73 221.101C494.73 222.073 494.962 223.329 493.402 223.391C491.842 223.454 492.021 222.215 491.94 221.226C491.94 220.638 491.94 220.041 491.94 219.444C491.869 214.944 488.928 213.01 484.614 214.659C482.457 215.487 483.723 217.439 483.339 218.838C482.956 220.237 484.453 223.186 481.993 223.204C479.533 223.222 480.924 220.415 480.683 218.882C480.545 217.27 480.536 215.649 480.657 214.035Z" fill="#F7F8F8"/>
<path d="M512.574 444.648C512.574 447.16 512.574 449.673 512.574 452.177C512.574 453.068 512.378 453.959 511.157 453.959C509.936 453.959 509.855 453.015 509.802 452.124C509.802 451.536 509.802 450.939 509.802 450.342C509.695 445.245 507.841 443.935 502.805 445.12C501.424 445.441 501.237 446.171 501.228 447.276C501.228 448.747 501.228 450.226 501.228 451.732C501.228 452.73 501.344 454.004 499.793 453.933C498.242 453.861 498.554 452.534 498.545 451.589C498.503 447.021 498.503 442.444 498.545 437.858C498.545 436.967 498.242 435.532 499.793 435.523C501.656 435.523 501.139 437.091 501.228 438.196C501.575 442.5 504.187 444.166 508.358 442.839C510.479 442.17 509.553 440.486 509.873 439.194C510.194 437.902 508.982 435.63 511.157 435.63C513.67 435.63 512.485 438.036 512.645 439.408C512.745 441.189 512.745 442.974 512.645 444.755L512.574 444.648Z" fill="#F7F8F8"/>
<path d="M833.611 319.611C828.495 319.611 825.108 315.895 825.09 310.326C825.072 304.756 828.459 301.014 833.54 300.96C838.816 300.898 842.453 304.81 842.301 310.477C842.149 316.144 838.7 319.682 833.611 319.611ZM839.306 310.085C839.235 305.63 837.131 303.126 833.593 303.179C830.054 303.233 827.969 305.968 828.094 310.7C828.201 315.084 830.384 317.543 833.994 317.365C837.426 317.187 839.333 314.567 839.262 310.085H839.306Z" fill="#F7F8F8"/>
<path d="M113.059 141.59C107.952 141.59 104.556 137.856 104.547 132.296C104.538 126.736 107.925 122.993 113.005 122.94C118.282 122.886 121.918 126.807 121.767 132.465C121.615 138.124 118.193 141.626 113.059 141.59ZM118.763 132.447C118.834 127.992 116.874 125.319 113.415 125.158C109.85 124.98 107.64 127.484 107.533 131.859C107.408 136.609 109.396 139.3 113.05 139.345C116.704 139.389 118.701 136.885 118.79 132.447H118.763Z" fill="#F7F8F8"/>
<path d="M129.279 351.69C134.333 351.69 137.8 355.521 137.8 361.019C137.8 366.713 134.181 370.483 128.887 370.349C123.833 370.224 120.5 366.375 120.624 360.814C120.749 355.254 124.136 351.645 129.279 351.69ZM134.805 361.117C134.805 356.662 132.844 354.033 129.386 353.908C125.928 353.784 123.664 356.306 123.575 360.69C123.477 365.43 125.5 368.104 129.172 368.095C132.844 368.086 134.76 365.573 134.832 361.117H134.805Z" fill="#F7F8F8"/>
<path d="M52.8318 162.067C47.6177 162.156 44.2219 158.672 44.0436 153.058C43.8654 147.444 47.3592 143.399 52.6446 143.408C57.734 143.408 61.1922 147.141 61.2457 152.648C61.2992 158.155 57.832 161.96 52.8318 162.067ZM47.0205 152.532C46.9671 157.237 49.0616 159.893 52.7516 159.813C56.2722 159.741 58.2688 157.139 58.2599 152.684C58.251 148.229 56.2098 145.653 52.707 145.555C49.2042 145.457 47.0384 148.121 46.976 152.532H47.0205Z" fill="#F7F8F8"/>
<path d="M147.969 162.067C142.791 162.112 139.404 158.547 139.288 152.951C139.172 147.355 142.524 143.532 147.559 143.408C152.907 143.283 156.472 147.079 156.472 152.764C156.49 158.271 153.05 162.022 147.969 162.067ZM153.504 152.604C153.451 148.148 151.374 145.617 147.845 145.635C144.315 145.653 142.176 148.362 142.283 153.094C142.372 157.487 144.529 159.964 148.121 159.813C151.713 159.661 153.549 157.068 153.549 152.604H153.504Z" fill="#F7F8F8"/>
<path d="M68.3868 390.817C63.3243 390.737 59.9552 386.941 60.0265 381.39C60.0978 375.838 63.4758 372.167 68.6097 372.167C73.7436 372.167 77.4336 376.195 77.2286 381.835C77.0236 387.476 73.5742 390.906 68.3868 390.817ZM74.2427 381.532C74.2427 377.077 72.2462 374.475 68.7612 374.403C65.2762 374.332 63.0837 376.836 63.0124 381.238C62.9322 385.97 64.9821 388.625 68.6721 388.59C72.2106 388.536 74.2249 385.979 74.2249 381.532H74.2427Z" fill="#F7F8F8"/>
<path d="M156.072 386.718C155.965 384.366 155.047 382.12 155.519 379.679C156.41 375.223 158.924 372.55 162.97 372.176C167.159 371.846 170.181 373.494 171.732 377.46C173.514 381.915 172.124 387.182 168.755 389.498C167.122 390.529 165.201 391.008 163.275 390.864C161.349 390.719 159.52 389.959 158.059 388.696C157.319 388.028 156.651 387.28 155.938 386.567L156.072 386.718ZM169.53 381.372C169.477 376.916 167.391 374.403 163.862 374.421C160.332 374.439 158.202 377.166 158.309 381.897C158.407 386.29 160.573 388.759 164.165 388.607C167.757 388.456 169.593 385.809 169.53 381.336V381.372Z" fill="#F7F8F8"/>
<path d="M720.755 393.339C720.363 395.023 720.068 396.743 719.56 398.4C718.295 402.481 715.434 404.335 711.191 404.175C707.091 404.023 704.595 401.866 703.544 398.008C702.1 392.662 704.168 387.636 708.401 385.987C713.134 384.134 717.047 386.041 719.756 391.503C720.077 392.154 720.425 392.795 720.764 393.455C720.764 393.473 720.755 393.339 720.755 393.339ZM717.189 395.282C717.359 390.612 715.309 387.805 711.69 387.734C708.276 387.672 706.173 390.06 705.995 394.177C705.799 398.962 707.67 401.724 711.244 401.92C714.819 402.116 717.083 399.701 717.234 395.282H717.189Z" fill="#F7F8F8"/>
<path d="M548.502 396.075C550.98 399.808 553.012 403.613 551.239 408.336C549.759 412.31 546.996 414.164 542.789 413.968C538.716 413.78 536.238 411.624 535.213 407.783C532.842 398.873 538.529 393.945 548.645 396.199L548.502 396.075ZM548.939 404.567C548.939 400.111 546.853 397.554 543.342 397.527C539.687 397.527 537.62 400.2 537.709 404.923C537.78 409.325 539.901 411.82 543.475 411.713C547.05 411.606 548.957 409.022 548.939 404.567Z" fill="#F7F8F8"/>
<path d="M452.644 454.022C447.439 454.093 444.043 450.6 443.883 444.986C443.722 439.373 447.056 435.523 452.065 435.363C457.412 435.193 461.049 438.927 461.085 444.63C461.129 450.128 457.698 453.942 452.644 454.022ZM446.859 444.576C446.859 449.032 448.749 451.643 452.207 451.767C455.933 451.901 458.108 449.228 458.063 444.576C458.063 440.121 455.96 437.59 452.439 437.581C448.918 437.573 446.895 440.13 446.859 444.576Z" fill="#F7F8F8"/>
<path d="M207.501 533.239C202.34 533.239 198.989 529.586 198.953 523.99C198.953 518.242 202.518 514.464 207.813 514.58C212.831 514.687 216.271 518.59 216.164 524.07C216.057 529.55 212.626 533.257 207.501 533.239ZM213.178 523.838C213.178 519.383 211.102 516.825 207.59 516.808C203.936 516.808 201.868 519.481 201.948 524.195C202.028 528.597 204.141 531.092 207.724 530.985C211.307 530.878 213.205 528.294 213.178 523.838Z" fill="#F7F8F8"/>
<path d="M802.488 447.82C807.577 447.82 811.044 451.553 811.098 457.06C811.151 462.746 807.532 466.577 802.185 466.479C797.122 466.39 793.762 462.585 793.833 457.034C793.904 451.482 797.345 447.82 802.488 447.82ZM796.873 456.971C796.819 461.427 798.717 464.1 802.22 464.225C805.946 464.403 808.156 461.739 808.139 457.096C808.139 452.641 806.071 450.074 802.568 450.039C799.065 450.003 796.917 452.552 796.873 456.971Z" fill="#F7F8F8"/>
<path d="M116.632 454.057C121.748 454.057 125.215 457.675 125.322 463.2C125.438 468.876 121.855 472.77 116.561 472.708C111.463 472.654 108.085 468.912 108.111 463.351C108.138 457.791 111.516 454.084 116.632 454.057ZM122.337 463.485C122.337 459.03 120.376 456.356 116.918 456.276C113.459 456.196 111.195 458.664 111.106 463.057C111.008 467.789 113.031 470.462 116.713 470.462C120.26 470.453 122.301 467.932 122.354 463.485H122.337Z" fill="#F7F8F8"/>
<path d="M544.938 223.445C539.84 223.391 536.462 219.64 536.488 214.088C536.515 208.537 539.893 204.821 545.018 204.794C550.143 204.768 553.869 208.733 553.699 214.383C553.53 220.032 550.099 223.543 544.938 223.445ZM550.714 214.311C550.776 209.856 548.833 207.183 545.366 207.013C541.801 206.826 539.581 209.33 539.465 213.696C539.341 218.446 541.319 221.146 544.965 221.199C548.61 221.253 550.642 218.793 550.714 214.347V214.311Z" fill="#F7F8F8"/>
<path d="M755.285 530.602C760.374 530.602 763.841 534.326 763.895 539.842C763.948 545.527 760.33 549.359 755.035 549.261C749.964 549.163 746.604 545.367 746.675 539.807C746.746 534.246 750.142 530.593 755.285 530.602ZM749.661 539.949C749.661 544.404 751.657 546.953 755.169 547.007C758.681 547.06 760.82 544.574 760.891 540.127C760.963 535.485 758.814 532.749 755.133 532.829C751.613 532.901 749.661 535.485 749.661 539.949Z" fill="#F7F8F8"/>
<path d="M849.486 549.261C844.405 549.19 841.027 545.412 841.081 539.86C841.134 534.309 844.512 530.619 849.637 530.602C854.762 530.584 858.47 534.585 858.292 540.234C858.113 545.884 854.655 549.332 849.486 549.261ZM844.067 539.815C844.067 544.271 845.956 546.882 849.414 547.007C853.14 547.14 855.315 544.476 855.27 539.824C855.27 535.369 853.167 532.829 849.646 532.829C846.125 532.829 844.102 535.378 844.067 539.78V539.815Z" fill="#F7F8F8"/>
<path d="M785.48 218.179C790.596 218.179 794.064 221.823 794.162 227.348C794.26 233.024 790.668 236.9 785.373 236.838C780.284 236.767 776.906 233.015 776.942 227.455C776.977 221.894 780.355 218.196 785.48 218.179ZM791.158 227.294C791.087 222.839 788.974 220.344 785.436 220.406C781.897 220.469 779.821 223.195 779.945 227.936C780.061 232.32 782.245 234.779 785.855 234.583C789.34 234.405 791.247 231.777 791.167 227.294H791.158Z" fill="#F7F8F8"/>
<path d="M145.172 599.099C140.029 599.099 136.651 595.446 136.616 589.859C136.58 584.272 139.949 580.52 145.021 580.449C150.306 580.369 153.934 584.254 153.827 589.921C153.72 595.588 150.288 599.117 145.172 599.099ZM150.832 589.894C150.832 585.439 148.898 582.766 145.43 582.668C141.963 582.569 139.699 585.047 139.61 589.431C139.503 594.163 141.527 596.845 145.19 596.854C148.853 596.863 150.787 594.341 150.876 589.894H150.832Z" fill="#F7F8F8"/>
<path d="M84.8223 620.468C79.6171 620.539 76.2302 617.046 76.0608 611.432C75.8915 605.818 79.2338 601.969 84.2429 601.808C89.5907 601.639 93.2272 605.373 93.2718 611.076C93.3074 616.582 89.8759 620.396 84.8223 620.468ZM90.2681 611.067C90.2681 606.611 88.1824 604.054 84.6707 604.036C81.0164 604.036 78.9575 606.709 79.0378 611.423C79.1091 615.825 81.2303 618.32 84.8044 618.213C88.3785 618.106 90.2681 615.522 90.2681 611.067Z" fill="#F7F8F8"/>
<path d="M820.341 695.238C815.171 695.238 811.784 691.674 811.695 686.078C811.606 680.482 814.957 676.686 820.002 676.579C825.35 676.463 828.915 680.286 828.915 685.962C828.87 691.487 825.43 695.212 820.341 695.238ZM814.681 685.998C814.681 690.453 816.722 692.975 820.26 692.984C823.799 692.993 825.867 690.48 825.911 686.033C825.956 681.4 823.763 678.682 820.073 678.807C816.597 678.923 814.654 681.516 814.681 685.998Z" fill="#F7F8F8"/>
<path d="M132.685 702.358C127.542 702.358 124.173 698.687 124.147 693.091C124.12 687.495 127.498 683.77 132.569 683.699C137.855 683.628 141.482 687.53 141.358 693.198C141.26 698.731 137.81 702.376 132.685 702.358ZM127.132 692.815C127.07 697.511 129.165 700.175 132.855 700.104C136.42 700.041 138.372 697.43 138.372 692.975C138.372 688.52 136.331 685.944 132.837 685.846C129.343 685.748 127.195 688.404 127.132 692.815Z" fill="#F7F8F8"/>
<path d="M868.273 778.011C863.175 778.011 859.779 774.26 859.779 768.699C859.779 763.139 863.166 759.405 868.247 759.361C873.523 759.307 877.16 763.237 876.99 768.896C876.821 774.554 873.416 778.047 868.273 778.011ZM873.996 768.896C874.067 764.44 872.133 761.767 868.648 761.58C865.083 761.384 862.854 763.879 862.738 768.245C862.605 772.994 864.583 775.704 868.22 775.766C871.856 775.828 873.924 773.333 873.996 768.896Z" fill="#F7F8F8"/>
<path d="M781.087 763.157C781.248 763.611 781.408 764.048 781.577 764.502C782.397 767.381 783.03 770.214 781.934 773.208C780.463 777.227 777.7 779.098 773.458 778.902C769.358 778.715 766.889 776.532 765.864 772.665C764.669 768.102 765.998 763.522 769.269 761.526C773.591 758.889 777.46 760.27 781.087 763.157ZM768.368 769.394C768.306 774.099 770.4 776.755 774.099 776.684C777.611 776.603 779.617 774.01 779.608 769.555C779.599 765.1 777.558 762.524 774.055 762.426C770.552 762.328 768.422 764.957 768.368 769.368V769.394Z" fill="#F7F8F8"/>
<path d="M199.898 298.697C197.973 300.693 196.395 303.072 193.302 303.553C187.687 304.444 183.605 301.148 183.052 295.222C182.518 289.528 185.842 285.197 190.94 284.939C196.466 284.662 200.201 288.556 200.219 294.429C200.219 295.881 199.069 297.227 199.871 298.715L199.898 298.697ZM185.958 294.446C186.012 298.902 188.061 301.388 191.627 301.343C195.192 301.299 197.179 298.75 197.188 294.295C197.197 289.84 195.183 287.247 191.707 287.166C187.99 287.068 185.86 289.759 185.914 294.446H185.958Z" fill="#F7F8F8"/>
<path d="M739.275 300.969C744.356 300.969 747.823 304.721 747.859 310.227C747.859 315.921 744.294 319.726 738.946 319.62C733.883 319.521 730.532 315.708 730.621 310.147C730.71 304.587 734.133 300.969 739.275 300.969ZM744.855 310.504C744.935 306.048 742.992 303.375 739.507 303.188C735.942 302.992 733.714 305.487 733.598 309.862C733.464 314.612 735.443 317.312 739.088 317.374C742.734 317.436 744.784 314.932 744.855 310.495V310.504Z" fill="#F7F8F8"/>
<path d="M633.809 359.175L701.86 391.254C701.619 391.753 701.388 392.261 701.147 392.76L633.123 360.672C633.355 360.146 633.578 359.665 633.809 359.175Z" fill="#F7F8F8"/>
<path d="M199.826 298.715C210.12 305.095 221.217 310.049 231.752 315.913C233.535 316.902 234.898 315.761 236.289 315.022C243.615 311.145 250.906 307.207 258.224 303.322C259.587 302.591 261.022 301.976 262.68 301.165C262.68 303.473 261.094 303.616 260.095 304.159C252.163 308.472 244.177 312.687 236.235 316.973C234.863 317.722 233.053 318.096 232.893 320.154C232.893 320.154 232.964 320.154 232.982 320.208C232.438 318.426 231.101 317.463 229.417 316.643C220.349 311.986 211.32 307.254 202.33 302.448C200.913 301.691 198.605 301.352 199.772 298.733L199.826 298.715Z" fill="#F7F8F8"/>
<path d="M155.921 386.567C155.832 387.627 156.367 388.705 154.763 389.409C145.85 393.312 137.07 397.367 127.863 400.726C135.707 395.05 143.488 389.284 151.429 383.795C154.754 381.479 154.005 386.522 156.064 386.754L155.921 386.567Z" fill="#F7F8F8"/>
<path d="M111.561 171.165C119.306 165.551 126.998 159.875 134.806 154.35C137.408 152.514 137.542 155.509 138.424 156.685C139.307 157.861 140.439 159.1 138.121 160.133C129.378 164.009 120.67 167.948 111.953 171.86L111.561 171.165Z" fill="#F7F8F8"/>
<path d="M249.223 548.29C247.672 545.91 244.927 545.322 242.654 544.093C234.98 539.94 227.19 536.01 219.48 531.929C218.286 531.297 216.717 530.976 216.004 529.069C218.402 528.882 219.863 530.308 221.45 531.118C230.006 535.494 238.536 539.931 246.986 544.485C247.83 545.04 248.818 545.337 249.829 545.337C250.839 545.337 251.828 545.04 252.672 544.485C260.435 540.19 268.306 536.082 276.158 531.956C277.103 531.457 277.94 530.343 280.374 531.51L249.062 548.165L249.223 548.29Z" fill="#F7F8F8"/>
<path d="M172.009 615.522C171.858 616.368 173.079 617.304 171.448 618.062C162.874 621.867 154.353 625.787 145.279 628.755C152.838 623.301 160.271 617.67 168.007 612.501C170.806 610.639 170.316 615.085 172.125 615.647L172.009 615.522Z" fill="#F7F8F8"/>
<path d="M819.734 735.319C825.581 735.319 827.951 737.565 827.274 741.913C826.837 744.72 824.992 746.199 822.381 746.11C818.664 745.977 817.844 747.759 818.183 750.967C818.299 751.991 818.762 753.702 817.015 753.809C814.778 753.943 815.589 751.965 815.553 750.86C815.446 747.162 815.741 743.428 815.446 739.748C815.152 736.068 816.463 734.499 819.734 735.319ZM818.245 741.191C818.414 742.368 817.612 744.426 820.375 744.212C822.612 744.043 824.547 743.437 824.609 740.773C824.662 738.242 822.826 737.761 820.75 737.52C817.844 737.173 818.272 739.204 818.245 741.165V741.191Z" fill="#F7F8F8"/>
<path d="M127.079 636.57C127.079 635.233 127.079 633.896 127.079 632.568C127.079 627.329 127.079 627.329 133.032 627.623C137.239 627.828 139.147 629.842 138.879 633.691C138.665 636.748 136.874 638.432 134.022 638.387C130.457 638.334 129.387 639.884 129.752 643.19C129.868 644.295 130.439 646.273 128.237 646.104C126.499 645.97 127.168 644.277 127.114 643.235C127.007 641.016 127.079 638.788 127.079 636.57ZM132.747 629.877C131.089 629.637 129.521 629.779 129.868 631.936C130.127 633.504 128.362 636.088 131.535 636.454C133.719 636.694 135.786 636.07 136.143 633.468C136.482 631.036 134.895 630.082 132.747 629.877Z" fill="#F7F8F8"/>
<path d="M111.044 407.097V403.096C111.044 397.581 111.044 397.581 117.283 397.982C121.356 398.249 123.29 400.468 122.853 404.317C122.532 407.115 120.857 408.772 118.183 408.719C114.457 408.719 113.218 410.269 113.726 413.816C113.878 414.841 114.19 416.489 112.38 416.489C110.571 416.489 111.133 414.805 111.088 413.763C110.981 411.553 111.044 409.325 111.044 407.097ZM116.792 400.236C115.277 400.093 113.566 399.924 113.842 402.179C114.038 403.782 112.452 406.295 115.393 406.785C117.532 407.142 119.653 406.509 120.099 403.934C120.5 401.537 119.021 400.476 116.792 400.236Z" fill="#F7F8F8"/>
<path d="M95.0096 178.294V174.293C95.0096 168.804 95.0096 168.804 101.249 169.231C105.295 169.508 107.238 171.762 106.766 175.612C106.427 178.41 104.716 179.978 102.051 179.978C98.6907 179.978 97.1755 181.145 97.6479 184.665C97.7905 185.761 98.3787 187.801 96.2663 187.703C94.154 187.605 95.1076 185.672 95.0274 184.514C94.9115 182.455 95.0096 180.37 95.0096 178.294ZM97.7727 174.729C98.0401 175.932 96.8189 178.294 99.9385 178.107C102.193 177.955 104.092 177.278 104.11 174.605C104.11 172.074 102.211 171.646 100.188 171.406C97.6835 171.112 97.6657 172.724 97.7727 174.729Z" fill="#F7F8F8"/>
<path d="M784.823 276.019C788.602 275.885 791.953 276.153 792.515 280.474C792.978 283.887 791.703 286.569 787.951 286.712C784.386 286.828 782.88 288.138 783.495 291.764C783.655 292.789 783.985 294.438 782.211 294.509C780.437 294.58 780.874 292.878 780.856 291.836C780.785 287.977 781.026 284.11 780.758 280.252C780.473 276.856 781.498 275.235 784.823 276.019ZM783.512 281.686C783.744 282.889 782.737 285.197 785.83 284.894C787.907 284.689 789.698 284.074 789.867 281.704C790.063 278.924 788.085 278.389 785.83 278.184C783.236 277.97 783.512 279.77 783.512 281.713V281.686Z" fill="#F7F8F8"/>
<path d="M797.701 515.043C797.701 513.555 797.701 512.076 797.701 510.588C797.701 505.366 797.701 505.366 803.673 505.669C807.871 505.883 809.778 507.915 809.493 511.773C809.261 514.83 807.452 516.496 804.609 516.442C800.972 516.362 800.028 518.002 800.366 521.263C800.482 522.377 801.035 524.346 798.833 524.15C797.104 523.99 797.79 522.297 797.737 521.254C797.621 519.196 797.701 517.12 797.701 515.043ZM800.456 511.185C800.723 512.388 799.502 514.749 802.63 514.562C804.876 514.411 806.784 513.733 806.793 511.069C806.802 508.405 804.903 508.111 802.88 507.861C800.366 507.567 800.357 509.18 800.456 511.185Z" fill="#F7F8F8"/>
<path d="M771.434 824.036V782.377H772.271V824L771.434 824.036Z" fill="#F7F8F8"/>
<path d="M497.172 309.176H533.617C533.617 309.47 533.617 309.764 533.617 310.067H497.207L497.172 309.176Z" fill="#F7F8F8"/>
<path d="M412.918 578.355H380.777V577.642H412.918V578.355Z" fill="#F7F8F8"/>
<path d="M115.893 458.557C116.208 458.557 116.463 448.384 116.463 435.835C116.463 423.285 116.208 413.112 115.893 413.112C115.578 413.112 115.322 423.285 115.322 435.835C115.322 448.384 115.578 458.557 115.893 458.557Z" fill="#F7F8F8"/>
<path d="M395.172 349.498H363.156V348.66H395.154L395.172 349.498Z" fill="#F7F8F8"/>
<path d="M282.584 245.392C284.295 242.443 306.756 232.115 311.997 232.079L282.584 245.392Z" fill="#F7F8F8"/>
<path d="M131.49 680.571V648.893H132.382V680.616L131.49 680.571Z" fill="#F7F8F8"/>
<path d="M819.137 731.791V700.175H819.912V731.782L819.137 731.791Z" fill="#F7F8F8"/>
<path d="M576.427 592.265L560.143 620.325L558.717 619.505L574.992 591.445L576.427 592.265Z" fill="#F7F8F8"/>
<path d="M436.359 485.281L452.572 457.274L453.989 458.103C448.576 467.442 443.172 476.783 437.777 486.128L436.359 485.281Z" fill="#F7F8F8"/>
<path d="M642.169 504.012C647.516 513.297 652.894 522.585 658.301 531.876L656.866 532.696L640.725 504.814L642.169 504.012Z" fill="#F7F8F8"/>
<path d="M299.107 473.296L328.583 460.063L329.224 461.48L299.811 474.757L299.107 473.296Z" fill="#F7F8F8"/>
<path d="M786.426 240.937V272.562H785.535V240.964L786.426 240.937Z" fill="#F7F8F8"/>
<path d="M625.047 274.611L641.206 302.538L639.824 303.339L623.594 275.413L625.047 274.611Z" fill="#F7F8F8"/>
<path d="M335.793 303.099L352.024 275.056L353.45 275.876L337.246 303.892L335.793 303.099Z" fill="#F7F8F8"/>
<path d="M99.688 190.911V222.197H99.0195V190.911H99.688Z" fill="#F7F8F8"/>
<path d="M357.051 497.311L340.723 525.157L339.332 524.346L355.679 496.5L357.051 497.311Z" fill="#F7F8F8"/>
<path d="M541.568 390.122L557.799 362.08L559.225 362.9L542.959 390.969L541.568 390.122Z" fill="#F7F8F8"/>
<path d="M571.971 532.116L588.21 504.11L589.618 504.912C584.205 514.25 578.801 523.592 573.406 532.936L571.971 532.116Z" fill="#F7F8F8"/>
<path d="M420.664 303.749C415.281 294.447 409.891 285.15 404.496 275.859L405.922 275.03L422.099 302.992L420.664 303.749Z" fill="#F7F8F8"/>
<path d="M543.403 228.248L559.652 256.29L558.252 257.101C552.839 247.757 547.423 238.409 542.004 229.059L543.403 228.248Z" fill="#F7F8F8"/>
<path d="M107.059 400.503L80.5879 385.212L81.4079 383.813L107.897 399.06L107.059 400.503Z" fill="#F7F8F8"/>
<path d="M97.6838 612.724L123.995 627.872L123.184 629.307L96.8906 614.159L97.6838 612.724Z" fill="#F7F8F8"/>
<path d="M858.469 761.562L832.051 746.333L832.844 744.907L859.227 760.118L858.469 761.562Z" fill="#F7F8F8"/>
<path d="M103.236 406.34L76.7461 391.058L77.5304 389.677L104.145 404.941L103.236 406.34Z" fill="#F7F8F8"/>
<path d="M837.016 537.828L810.625 522.68L811.4 521.299L837.819 536.447L837.016 537.828Z" fill="#F7F8F8"/>
<path d="M840.741 531.956L814.314 516.736L815.143 515.311L841.553 530.539L840.741 531.956Z" fill="#F7F8F8"/>
<path d="M119.492 635.197L93.1543 620.049L93.9654 618.596C102.736 623.658 111.509 628.707 120.286 633.745L119.492 635.197Z" fill="#F7F8F8"/>
<path d="M64.7765 154.51L91.0164 169.659L90.232 171.049L63.9922 155.901L64.7765 154.51Z" fill="#F7F8F8"/>
<path d="M829.049 750.762C837.819 755.835 846.592 760.902 855.369 765.964L854.566 767.354L828.229 752.205L829.049 750.762Z" fill="#F7F8F8"/>
<path d="M799.074 285.74L825.429 300.889L824.645 302.288L798.334 287.14C798.584 286.712 798.851 286.213 799.074 285.74Z" fill="#F7F8F8"/>
<path d="M795.285 291.613L821.703 306.824L820.919 308.205L794.51 292.994L795.285 291.613Z" fill="#F7F8F8"/>
<path d="M61.0942 160.418L87.441 175.638L86.6477 177.01L60.2207 161.782L61.0942 160.418Z" fill="#F7F8F8"/>
<path d="M470.532 633.424H496.7V634.261H470.514L470.532 633.424Z" fill="#F7F8F8"/>
<path d="M369.057 508.681H343.477V507.79H369.11L369.057 508.681Z" fill="#F7F8F8"/>
<path d="M476.815 214.534H453.588C461.28 212.663 469.007 213.055 476.762 213.278L476.815 214.534Z" fill="#F7F8F8"/>
<path d="M146.516 149.966C146.817 149.966 147.06 136.075 147.06 118.939C147.06 101.802 146.817 87.9109 146.516 87.9109C146.216 87.9109 145.973 101.802 145.973 118.939C145.973 136.075 146.216 149.966 146.516 149.966Z" fill="#F7F8F8"/>
<path d="M802.417 470.4V502.247H801.65V470.4H802.417Z" fill="#F7F8F8"/>
</g>
<defs>
<clipPath id="clip0_1187_7841">
<rect width="833" height="727" fill="white" transform="translate(44 97)"/>
</clipPath>
</defs>
</svg>
