<svg width="1252" height="1252" viewBox="0 0 1252 1252" fill="none" xmlns="http://www.w3.org/2000/svg">
<g clip-path="url(#clip0_1187_7847)">
<path d="M1252 382.248C1232.4 376.841 1212.95 370.86 1193.13 366.165C1153.24 356.668 1113.09 348.673 1071.71 349.805C1041.91 350.61 1013.42 357.923 986.261 369.233C941.77 387.826 895.791 400.36 848.387 408.897C814.632 415.001 782.084 425.94 749.382 436.103C724.038 443.974 699.143 452.976 675.596 465.541C643.219 482.786 616.543 506.739 593.12 534.487C571.045 560.625 551.185 588.715 526.724 612.73C513.339 625.93 499.598 638.774 485.238 650.937C458.902 673.263 430.398 692.769 402.188 712.617C379.633 728.482 362.887 749.445 350.85 774.204C339.355 797.862 327.148 821.072 309.999 841.275C292.85 861.479 271.023 873.982 244.3 875.516C234.014 876.105 223.572 873.424 213.317 870.542C203.062 867.661 195.564 861.448 189.089 853.5C184.441 847.829 185.495 840.438 183.155 833.978C179.205 822.993 171.289 818.05 161.297 815.618C144.256 811.496 127.417 813.619 111.074 819.135C71.2764 832.521 39.5655 857.265 13.3231 889.522C11.7218 891.201 10.7811 893.402 10.6741 895.719L2.92836 905.016H-0.169922C3.33114 895.58 10.4572 888.623 16.8706 881.341C43.206 851.176 74.3283 827.594 112.917 815.029C126.138 810.587 140.099 808.771 154.016 809.684C174.867 811.233 190.018 821.056 196.153 842.034C201.141 859.077 215.362 863.88 230.141 867.428C249.18 871.999 266.933 866.592 283.602 857.931C294.136 852.446 302.888 843.987 310.154 834.69C322.931 818.194 333.754 800.272 342.407 781.284C356.349 750.948 376.178 724.841 404.59 706.187C428.493 690.492 451.714 673.651 473.929 655.833C495.862 637.915 516.564 618.54 535.895 597.84C558.435 574.042 576.715 546.789 598.821 522.666C625.079 494.034 654.807 470.236 690.422 454.324C735.037 434.384 782.146 421.989 829.225 409.687C862.825 400.887 897.758 397.618 930.771 386.292C951.963 379.025 972.876 370.953 993.852 363.052C1039.94 345.745 1086.92 343.08 1135.32 351.633C1172.4 357.977 1209.05 366.597 1245.08 377.445C1247.28 378.126 1249.57 378.545 1251.81 379.072L1252 382.248Z" fill="white"/>
<path d="M3.09766 905L10.8434 895.704C14.7007 894.79 16.5287 891.536 18.8989 888.856C43.4683 861.215 71.5697 838.904 108.207 829.345C114.445 827.656 120.922 827.022 127.37 827.47C142.056 828.601 147.385 837.154 141.854 850.711C140.359 854.261 139.147 857.923 138.229 861.664C134.666 876.74 138.229 877.344 149.801 883.913C173.674 897.517 200.923 901.669 227.754 902.32C245.6 902.753 263.384 896.246 279.077 885.571C305.908 867.428 324.513 842.483 340.686 815.292C348.835 801.596 356.178 787.404 363.273 773.134C375.929 747.957 395.247 728.513 418.097 712.338C430.49 703.553 442.883 694.737 454.92 685.503C477.816 667.933 499.086 648.504 520.325 628.951C548.751 602.752 570.687 571.192 595.319 541.862C628.036 502.896 668.965 478.339 718.971 468.33C749.83 462.133 780.689 456.26 811.92 452.976C850.524 448.901 885.876 435.422 920.143 418.053C947.253 404.311 973.774 389.514 1001.89 377.646C1046.82 358.698 1092.62 355.026 1140.41 362.571C1178.62 368.527 1216.04 378.771 1251.95 393.109V396.207C1236.17 390.676 1220.83 383.921 1204.74 379.165C1174.2 370.271 1143.05 365.22 1111.45 361.951C1060.49 356.683 1014.89 372.797 970.567 394.983C935.107 412.724 900.763 432.803 862.886 445.415C836.969 454.045 809.797 455.393 783.152 459.855C745.306 466.207 707.105 471.041 671.505 486.69C644.117 498.713 621.391 516.98 601.639 539.197C582.461 560.764 566.737 585.151 547.078 606.3C523.652 631.29 498.611 654.715 472.116 676.423C448.878 695.635 422.884 711.114 400.313 731.162C383.055 746.516 371.375 765.62 360.918 785.963C343.103 820.638 323.599 854.383 293.19 880.009C280.13 891.009 265.661 899.918 249.117 904.984H190.249C189.521 904.272 188.855 902.986 188.081 902.924C171.954 901.56 157.578 894.449 142.613 889.258C130.979 885.215 125.48 875.423 129.198 863.834C130.554 859.432 132.264 855.147 134.31 851.02C139.422 841.027 136.711 834.83 126.673 832.103C119.655 830.213 112.73 831.762 106.1 833.451C76.2171 841.027 52.3293 858.504 30.7653 879.699C29.7304 880.683 28.9425 881.898 28.466 883.244C27.9895 884.59 27.8378 886.03 28.0233 887.446C24.1505 893.999 16.7611 897.718 13.8177 905.031L3.09766 905Z" fill="white"/>
<path d="M393.078 905C399.941 887.43 411.668 873.161 423.844 859.139C439.165 841.616 458.576 829.376 477.398 816.377C511.742 792.656 544.878 766.937 581.392 746.656C608.068 731.875 624.551 710.928 632.699 682.218C636.278 669.29 641.243 656.786 647.509 644.925C653.755 633.101 663.554 623.536 675.524 617.579C687.495 611.622 701.034 609.574 714.23 611.723C721.858 613.001 729.409 614.702 736.848 616.82C773.516 627.355 807.799 621.112 840.191 602.194C866.666 586.701 892.707 570.541 919.197 555.202C954.006 535.06 990.907 519.954 1030.74 513.602C1053.86 509.915 1077.55 510.828 1098.9 520.729C1119.63 530.304 1137.63 547.61 1136.87 574.306C1136.28 596.926 1128.18 616.34 1118.42 635.428C1106.21 659.303 1093.41 682.9 1087.19 709.162C1079.56 741.244 1083.86 771.812 1100.06 800.868C1113.68 825.286 1133.49 843.521 1155.74 859.743C1169.41 869.513 1180.72 882.218 1188.84 896.928C1190.41 899.299 1191.32 902.049 1191.47 904.891H1188.38C1179.24 886.191 1165.23 872.2 1148.58 859.728C1123.05 840.609 1100.97 817.895 1088.67 787.605C1077.29 759.485 1076.5 731.255 1084.43 701.663C1090.87 677.586 1102.72 656.483 1113.51 634.606C1120.59 620.275 1127.28 605.339 1129.66 589.675C1131.63 576.676 1132.89 561.663 1124.63 550.291C1116.88 539.523 1107.42 529.328 1093.74 524.541C1065.02 514.501 1036.27 515.678 1007.2 522.743C967.174 532.489 931.296 551.453 896.1 572.013C874.752 584.5 854.273 598.352 832.259 609.786C799.108 626.829 765.104 629.633 729.722 618.028C717.183 613.825 703.784 612.871 690.776 615.255C667.152 619.64 652.931 634.994 644.473 656.406C639.469 669.095 634.822 681.955 630.701 694.97C623.823 716.661 610.361 732.681 590.748 744.038C557.504 763.312 526.552 786.056 495.105 808.026C477.382 820.421 458.994 831.979 442.558 846.031C425.3 860.797 410.196 877.607 400.56 898.71C399.253 900.922 397.727 902.999 396.006 904.907L393.078 905Z" fill="white"/>
<path d="M376.07 905C397.108 863.834 426.944 830.445 464.666 803.734C499.986 778.743 534.826 753.07 569.914 727.816C578.264 721.789 587.621 717.234 595.103 709.967C606.087 699.323 612.903 686.092 618.96 672.349C624.351 660.094 629.37 647.699 635.768 635.862C650.656 608.299 674.326 594.99 704.674 590.93C723.496 588.374 741.745 591.24 759.901 594.757C784.603 599.759 810.266 596.493 832.928 585.461C862.609 571.362 889.363 552.336 917.356 535.417C948.71 516.469 980.313 497.923 1015.32 486.551C1050.02 475.287 1085.41 468.934 1121.47 480.616C1142.06 487.294 1161.53 496.931 1175.69 513.401C1187.32 526.895 1192.33 543.892 1191.18 562.174C1189.63 585.631 1180.34 606.362 1169.76 626.906C1155.81 653.819 1137.98 678.825 1128.43 707.891C1121.79 727.204 1121 748.049 1126.18 767.805C1132.55 791.928 1145.19 812.132 1162.91 829.314C1169.73 835.914 1177.33 841.709 1184.35 848.092C1201.22 863.586 1211.86 882.333 1214.82 905.217H1211.72C1206.83 882.674 1196.57 863.307 1178.49 848.433C1164.37 836.813 1150.44 824.883 1140.29 809.467C1124.27 785.173 1115.89 759.004 1119.08 729.195C1121.92 702.577 1135.94 681.165 1147.65 658.405C1161.78 630.857 1180.18 605.169 1184.83 573.299C1188.86 546.216 1182.52 523.27 1160.49 506.305C1136 486.95 1105.25 477.268 1074.08 479.098C1022.54 481.701 977.648 503.129 934.334 528.801C905.086 546.139 876.303 564.251 846.947 581.386C826.421 593.363 804.253 601.528 780.102 600.164C765.261 599.343 750.544 596.09 735.781 593.859C715.01 590.644 693.754 593.328 674.435 601.606C657.255 608.841 646.039 622.367 637.255 638.341C627.403 656.189 622.027 676.098 611.493 693.637C604.781 704.993 595.567 714.669 584.554 721.928C536.623 753.628 490.738 788.225 445.348 823.365C417.355 845.055 396.457 873.223 380.656 905H376.07Z" fill="white"/>
<path d="M1159.14 905C1146.32 890.328 1130.14 879.823 1114.53 868.513C1097.49 856.226 1083.55 840.826 1070.07 824.743C1059.49 811.755 1051.48 796.876 1046.46 780.897C1038.71 757.656 1034.81 733.61 1037.6 708.759C1039.88 688.509 1044.32 668.816 1048.8 648.984C1052.22 633.832 1057.71 618.679 1056.54 602.504C1055.86 593.409 1043.62 576.831 1034.18 573.19C1008.18 563.166 982.434 566.079 956.718 573.825C923.69 583.757 893.203 599.142 864.312 617.719C848.077 628.161 831.517 638.015 813.454 645.235C786.421 656.081 758.97 657.63 730.807 651.076C721.775 649 712.728 646.769 703.557 645.529C681.575 642.539 666.998 651.727 659.221 672.69C655.15 683.827 651.792 695.212 649.167 706.775C642.599 734.772 627.479 754.976 600.88 768.006C568.271 783.964 538.14 804.509 507.808 824.495C495.136 832.846 482.526 841.306 469.792 849.595C447.701 863.989 429.514 882.131 416.362 905.093H411.715C426.292 876.523 450.18 857.388 476.639 840.717C506.693 821.769 535.863 801.41 566.644 783.623C577.132 777.55 587.109 770.284 598.2 765.697C625.899 754.248 640.027 732.851 646.75 704.932C649.387 693.932 652.577 683.073 656.309 672.395C664.798 648.21 683.465 637.907 708.577 642.958C724.734 646.165 740.628 650.612 757.22 651.526C790.666 653.385 819.867 641.408 847.504 624.396C871.407 609.693 894.876 594.323 920.592 582.765C938.912 574.524 957.982 568.065 977.539 563.476C987.081 561.229 997.259 561.306 1007.41 561.787C1016.81 562.14 1026.13 563.623 1035.18 566.203C1045.25 569.146 1051.08 575.793 1057.33 583.788C1068.55 598.104 1063.53 612.683 1060.32 626.999C1052.13 663.409 1039.26 699.044 1042.2 737.189C1044.17 762.614 1050.27 787.512 1063.89 808.956C1080.59 835.088 1102.73 857.314 1128.8 874.121C1139.7 880.989 1149.64 889.273 1158.37 898.756C1160.07 900.677 1161.96 902.49 1162.3 905.232L1159.14 905Z" fill="white"/>
<path d="M1120.46 905C1098.53 891.49 1076.36 878.057 1058.62 859.17C1037.97 837.154 1019.89 813.278 1008.46 784.801C1000.19 764.102 995.338 742.519 991.047 720.906C988.367 707.442 988.94 693.25 986.276 679.631C983.069 663.161 981.086 645.747 965.331 635.35C955.282 628.739 943.144 626.074 931.25 627.867C903.056 631.771 878.672 645.096 855.342 660.403C824.53 680.545 791.982 694.954 754.137 692.01C740.055 690.91 726.051 688.586 712.047 686.618C695.27 684.248 685.386 689.33 679.298 705.211C675.177 716.056 672.249 727.258 669.105 738.413C662.908 760.43 650.515 777.147 629.121 786.536C582.043 807.189 537.877 833.203 494.532 860.564C478.065 870.961 461.907 882.147 449.359 897.517C447.423 899.887 445.083 902.025 444.185 905.124H437.988C445.15 893.516 454.646 883.523 465.873 875.779C505.205 847.891 547.032 824 589.804 801.875C602.61 795.264 615.628 789.067 628.858 783.283C648.532 774.56 659.593 758.911 665.774 739.126C669.445 727.336 672.296 715.25 676.618 703.677C682.814 686.727 693.488 681.397 711.675 683.101C725.803 684.418 739.559 687.749 753.796 688.478C783.911 690.135 811.285 682.001 837.031 667.019C854.335 656.948 870.632 645.328 888.478 636.032C902.001 629.132 916.481 624.296 931.436 621.685C947.981 618.741 964.572 622.506 977.755 634.328C981.009 637.24 982.821 642.074 984.649 646.242C990.037 659.199 993.069 673.014 993.603 687.037C995.818 727.971 1002.5 768.114 1022.34 804.385C1040.36 837.571 1066.31 865.781 1097.88 886.501C1107.05 892.543 1117.78 896.401 1125.08 905.17L1120.46 905Z" fill="white"/>
<path d="M651.445 599.204C659.718 588.188 672.219 584.423 684.427 580.612C710.22 572.586 736.973 571.858 763.433 574.678C800.24 578.598 833.5 570.417 864.514 551.066C896.643 531.001 928.494 510.426 961.026 491.044C993.558 471.661 1027.89 455.176 1065.47 447.662C1090.66 442.595 1115.61 444.857 1140.29 452.31C1163.53 459.297 1185.36 468.593 1202.74 486.055C1220.46 503.857 1229.07 525.005 1228.27 550.663C1227.14 585.167 1212.45 614.605 1196.88 644.089C1185.73 665.238 1173.54 685.921 1165.76 708.681C1157.83 731.922 1159.27 754.759 1168.04 777.287C1175.78 797.335 1189.83 813.092 1204.91 827.935C1226.5 849.208 1234.34 875.531 1233.47 905.062H1230.37C1229.83 890.669 1227.26 876.425 1222.74 862.749C1218.21 849.564 1210.19 839.245 1200.65 829.779C1185.79 815.029 1172.27 799.412 1164.07 779.766C1151.94 750.669 1153.55 722.269 1166.83 693.9C1179.83 666.121 1195.66 639.828 1208.66 612.095C1220.12 587.677 1226.86 562.035 1223.42 534.952C1220.2 509.404 1205.71 490.222 1184.69 476.232C1163.67 462.241 1140.28 454.959 1115.69 450.791C1083.86 445.4 1053.85 452.496 1024.29 463.651C982.202 479.516 945.147 504.383 907.394 528.073C884.699 542.312 862.469 557.356 837.683 568C816.56 577.25 793.338 580.648 770.45 577.838C741.311 574.368 712.389 574.91 683.884 583.277C672.064 586.701 661.918 593.193 651.445 599.204Z" fill="white"/>
<path d="M1252 406.991C1240.88 402.343 1229.86 397.276 1218.62 392.907C1185.64 380.109 1151.12 374.687 1116.11 371.371C1064.38 366.475 1018.93 385.083 974.782 408.432C939.957 426.854 906.62 448.018 870.556 464.208C840.642 477.61 809.117 482.801 776.926 486.039C745.416 489.215 713.829 492.159 683.11 500.479C647.077 510.225 618.758 531.652 596.249 560.532C570.735 593.254 545.267 625.868 514.145 653.679C496.686 669.297 478.964 684.527 460.792 699.323C437.695 718.101 411.328 733.192 393.017 757.563C382.97 771.252 373.895 785.629 365.861 800.589C352.786 824.263 339.417 847.736 321.85 868.544C310.761 881.442 298.86 893.619 286.22 905H281.572C292.525 893.426 304.531 882.922 315.173 871.007C334.228 849.672 349.068 825.503 361.957 800.295C380.547 763.978 405.658 734.168 439.523 710.959C465.626 693.079 489.653 672.225 512.487 650.286C524.54 638.681 536.576 627.046 548.117 614.899C560.356 601.931 570.626 587.491 581.548 573.516C597.752 552.754 614.885 533 637.085 518.111C661.267 501.858 688.377 494.282 716.695 490.455C749.614 485.993 782.688 482.708 815.577 478.06C842.408 474.311 867.008 463.604 891.051 451.473C927.626 433.005 962.001 410.415 999.243 393.202C1034.98 376.655 1072.05 365.22 1111.99 368.412C1156.14 371.883 1199.41 379.536 1239.81 398.934C1243.74 400.825 1247.9 402.25 1251.95 403.892L1252 406.991Z" fill="white"/>
<path d="M1070.98 905C1046.66 889.507 1026.35 869.365 1007.96 847.504C991.884 828.384 979.677 806.492 967.888 784.414C959.647 768.92 954.395 752.063 945.054 737.406C937.788 726.003 932.242 712.322 917.975 706.869C908.122 703.104 898.332 701.678 887.859 705.319C867.116 712.508 849.456 725.802 829.1 733.858C810.418 741.264 791.425 743.015 771.782 742.256C755.702 741.621 739.483 738.599 723.589 744.115C718.372 745.754 713.954 749.278 711.195 754C707.803 759.763 704.007 765.326 701.049 771.306C696.425 780.994 689.901 789.652 681.863 796.767C673.826 803.882 664.441 809.307 654.264 812.72C610.069 828.488 567.523 848.545 527.235 872.603C511.744 881.729 496.562 891.459 484.355 905H478.158C482.356 898.679 488.321 894 494.331 889.847C542.695 856.459 595.025 830.724 650.283 811.016C672.157 803.269 688.919 789.945 698.802 768.471C701.863 761.951 705.519 755.727 709.724 749.879C719.019 736.771 733.085 736.446 747.244 736.848C766.748 737.391 786.251 739.668 805.693 735.997C821.308 733.037 835.127 725.91 848.79 718.163C861.927 710.68 874.614 701.678 888.696 696.736C904.435 691.205 922.932 693.962 936.626 712.555C946.789 726.359 952.97 741.992 960.08 757.207C975.494 790.286 991.605 822.869 1016.22 850.633C1033.04 869.613 1050.77 887.26 1072.18 901.018C1073 901.403 1073.72 901.963 1074.3 902.659C1074.89 903.355 1075.31 904.17 1075.54 905.046L1070.98 905Z" fill="white"/>
<path d="M1252 417.821C1236.79 410.895 1222.27 402.575 1206.36 397.013C1180.85 388.12 1154.45 384.308 1127.85 380.714C1073.03 373.308 1025.61 393.791 979.443 419.154C942.883 439.295 908.322 462.861 870.43 480.663C839.881 495.01 807.644 501.657 774.244 504.662C745.539 507.25 716.833 510.193 688.53 516.112C649.895 524.199 618.617 544.357 596.016 576.149C565.033 619.748 527.528 656.886 487.297 691.669C468.366 708.015 448.228 722.703 428.956 738.584C410.676 753.644 396.285 771.848 383.737 791.943C371.746 811.155 360.825 831.065 347.518 849.471C344.42 853.825 341.895 858.767 339.122 863.415L304.87 905.077H300.223C310.401 891.815 322.639 880.288 332.212 866.468C350.26 840.423 366.293 813.139 382.916 786.18C395.769 764.955 412.489 746.33 432.209 731.271C468.149 704.064 501.921 674.44 534.855 643.515C559.874 619.95 578.433 591.488 600.554 565.784C623.792 538.733 652.389 520.853 687.663 513.54C722.317 506.429 757.575 504.244 792.601 500.092C820.284 496.822 847.231 488.968 872.336 476.851C905.208 461.172 935.85 441.51 967.128 423.12C1000.12 403.737 1034.41 387.221 1072.33 379.474C1089.97 375.864 1107.74 376.376 1125.39 377.925C1157.59 380.683 1189.13 386.927 1219.36 398.903C1230.67 403.381 1240.94 409.873 1252 414.769V417.821Z" fill="white"/>
<path d="M342.019 866.344C354.134 852.508 362.638 836.209 372.63 820.932C388.556 796.592 403.939 771.864 425.627 751.955C439.104 739.56 453.836 728.715 468.104 717.358C492.425 697.898 514.904 676.315 538.079 655.538C561.254 634.761 579.038 610.111 597.426 585.632C623.498 550.973 658.865 532.953 701.11 525.826C734.432 520.249 768.141 518.622 801.541 513.989C831.377 509.853 858.704 498.93 884.978 484.846C917.695 467.292 948.198 446.112 980.219 427.334C1009.22 410.291 1039.35 395.913 1072.5 388.74C1103.96 381.907 1135.09 386.168 1166.04 392.086C1196.99 398.005 1226.02 408.866 1252 427.102V430.2C1206.84 399.399 1155.63 389.22 1102.34 388.166C1073.88 387.609 1047.1 397.106 1021.27 408.788C982.542 426.28 948.028 450.884 911.7 472.451C889.749 485.466 867.472 497.814 843.29 506.537C819.465 515.089 794.663 517.661 769.768 520.001C739.498 522.852 709.181 525.594 679.655 533.294C643.343 542.761 615.52 564.281 594.266 594.726C576.524 620.027 556.176 643.395 533.555 664.447C501.968 694.055 468.491 721.324 434.999 748.562C415.123 764.69 400.283 785.002 386.604 806.337C375.047 824.325 363.367 842.236 351.33 859.914C340.904 875.252 330.587 890.684 318.798 905.046H314.15C324.297 892.698 334.088 880.195 342.019 866.344Z" fill="white"/>
<path d="M1026.06 905C1006.82 890.25 989.607 873.254 971.962 856.707C959.104 844.622 948.245 830.584 933.946 819.863C920.329 809.637 905.736 807.05 889.625 810.567C870.4 814.796 851.005 815.881 831.687 812.317C816.757 809.643 801.693 807.781 786.561 806.74C771.262 805.639 756 809.326 742.891 817.291C720.974 830.371 697.272 840.193 672.529 846.45C637.059 855.593 602.835 869.021 570.611 886.439C560.526 891.831 549.728 896.401 541.626 905.031H535.43C538.048 899.36 543.873 897.532 548.597 894.759C585.682 872.794 625.56 855.934 667.153 844.637C693.194 837.649 718.151 828.663 741.125 814.146C761.604 801.193 784.501 800.728 807.66 804.354C823.152 806.771 838.72 809.002 854.367 808.599C866.131 808.262 877.696 805.476 888.324 800.419C895.187 797.18 903.165 798.513 910.012 800C927.409 803.734 940.174 815.184 951.684 828.245C971.59 850.819 992.364 872.541 1015.85 891.505C1021.04 895.704 1025.72 900.507 1030.63 905.031L1026.06 905Z" fill="white"/>
<path d="M328.092 905C331.81 895.549 338.703 888.081 344.172 879.761C361.305 853.732 379.09 828.152 396.672 802.433C416.424 773.537 442.682 751.304 470.163 730.186C489.311 715.452 507.343 699.292 525.39 683.101C540.882 669.157 557.334 656.266 570.78 640.122C581.19 627.634 590.268 614.155 599.641 600.923C625.542 564.359 661.777 545.782 704.982 538.376C734.261 533.356 763.85 532.303 793.283 529.483C827.442 526.214 858.177 513.525 887.409 496.513C900.763 488.766 913.744 480.384 926.974 472.281C929.375 470.809 931.621 469.182 934.72 468.841C933.704 470.304 932.501 471.627 931.141 472.776C901.94 491.167 873.033 510.101 840.238 521.845C817.155 530.103 793.097 532.256 768.977 533.898C742.007 535.727 715.098 537.943 688.685 544.295C649.693 553.591 619.47 575.39 597.673 608.717C579.905 635.939 558.217 659.179 533.647 680.39C515.171 696.328 496.773 712.405 478.451 728.622C467.53 738.305 455.214 746.485 443.983 755.874C423.581 772.917 407.702 793.524 392.164 814.827C371.499 843.134 353.715 873.347 333.157 901.684C332.414 902.722 331.841 903.9 331.175 905H328.092Z" fill="white"/>
<path d="M634.451 599.25C634.73 595.749 637.426 594.091 639.734 592.015C661.422 572.462 687.897 564.87 716.044 561.694C738.329 559.221 760.751 558.186 783.169 558.595C813.501 559.076 840.89 549.299 866.915 534.689C904.513 513.617 939.291 488.069 976.439 466.3C1006.35 448.793 1037.34 433.764 1071.48 426.172C1097.47 420.44 1123.13 422.547 1148.6 429.612C1167.19 434.771 1185.51 440.643 1202.3 450.745C1224.53 464.085 1240.8 482.212 1250.05 506.521C1250.59 507.962 1251.35 509.31 1252 510.705V524.649C1247.69 515.353 1246.35 504.972 1241.44 495.754C1227.65 469.833 1205.62 453.828 1179.13 443.076C1157.86 434.438 1135.47 428.897 1112.62 426.621C1089.62 424.328 1067.47 429.41 1046.01 436.801C1007.47 450.032 972.907 470.995 938.888 493.027C910.152 511.619 881.849 530.971 850.851 545.875C829.636 556.129 806.405 561.527 782.843 561.679C759.932 561.927 737.004 560.888 714.17 563.817C684.055 567.674 656.914 578.164 634.451 599.25Z" fill="white"/>
<path d="M968.739 905C957.027 896.2 943.069 895.595 929.7 896.742C905.673 898.771 883.226 895.193 861.848 884.099C833.065 869.241 802.717 863.601 770.573 868.606C733.641 874.307 696.617 879.56 660.739 890.297C648.005 894.124 634.837 897.207 623.637 905H614.342C636.944 892.605 661.482 885.68 686.33 880.21C717.678 873.116 749.375 867.67 781.293 863.896C799.745 861.622 818.472 863.555 836.07 869.551C849.641 874.199 862.839 880.102 876.023 885.819C891.514 892.512 907.563 892.528 923.659 890.467C943.1 888.019 960.513 892.59 976.686 903.11C977.274 903.497 977.584 904.334 978.018 904.969L968.739 905Z" fill="white"/>
<path d="M1252 583.261C1240.83 621.995 1220.49 657.01 1206.02 694.443C1197.13 717.451 1193.41 740.815 1202.66 764.272C1208.42 779.43 1216.6 793.556 1226.87 806.105C1251.43 835.357 1254.35 869.164 1247.35 904.985H1244.25C1248.72 878.646 1248.3 852.74 1236.28 828.167C1230.26 815.897 1220.24 806.291 1213.04 794.779C1198.46 771.446 1188.38 747.307 1194.45 718.504C1199.64 694.025 1210.73 672.024 1221.08 649.852C1231.09 628.347 1240.63 606.811 1247.41 584.082C1249.35 577.683 1248.41 570.711 1251.84 564.731L1252 583.261Z" fill="white"/>
<path d="M338.922 905C351.873 883.309 365.799 862.362 380.098 841.6C396.581 817.663 413.776 794.144 435.216 774.42C449.391 761.375 465.363 750.313 480.142 737.949C509.544 713.355 538.792 688.566 567.885 663.58C579.891 653.23 588.132 639.658 596.436 626.395C605.631 611.452 616.739 597.774 629.479 585.709C631.864 583.463 633.971 580.643 637.643 580.24C630.873 587.63 624.01 594.912 617.364 602.396C604.971 616.34 596.188 632.809 585.669 648.055C576.761 660.977 565.143 671.202 553.462 681.211C527.065 703.79 500.322 725.956 473.232 747.709C451.746 765 429.856 781.795 412.661 803.579C400.02 819.506 387.999 835.961 376.411 852.663C364.529 869.799 353.499 887.523 342.098 905H338.922Z" fill="white"/>
<path d="M349.75 905C364.792 879.482 381.724 855.266 399.214 831.359C424.093 797.273 457.043 772.375 489.792 746.919C518.235 724.81 546.119 701.988 574.035 679.166C585.576 669.746 593.105 656.979 600.695 644.383C608.131 631.988 615.102 619.361 624.506 608.33C627.124 605.231 628.998 601.296 633.475 600.242C616.001 621.344 604.46 646.366 588.442 668.414C579.627 680.53 567.265 689.314 555.569 698.642C517.336 729.102 478.793 759.175 441.32 790.549C415.883 811.853 397.03 839.168 378.332 866.359C369.701 878.855 361.712 891.783 354.397 905.093L349.75 905Z" fill="white"/>
<path d="M362.127 905C379.115 874.671 399.532 846.396 422.977 820.731C442.264 799.566 465.997 784.058 488.227 766.658C517.026 744.146 546.056 721.928 575.769 700.609C591.663 689.221 601.702 673.015 610.47 655.879C617.131 642.88 622.615 629.106 633.025 618.338C617.704 644.336 608.239 673.883 586.226 695.806C578.48 703.553 569.077 708.945 560.51 715.53C529.93 739.064 499.474 762.785 468.413 785.684C438.462 807.594 412.421 834.403 391.39 864.98C382.56 877.84 372.661 890.219 366.774 904.953L362.127 905Z" fill="white"/>
<path d="M897.619 504.415C899.71 500.076 904.249 498.852 907.874 496.59C940.608 476.123 971.838 453.208 1006.45 435.778C1039.15 419.324 1072.87 405.008 1110.24 407.053C1156.71 409.609 1201.02 420.036 1237.86 451.117C1242.75 455.253 1247.29 459.839 1251.98 464.208V468.857C1246.18 465.758 1243.06 459.778 1238.28 455.532C1219.39 438.815 1197.44 428.016 1173.41 420.966C1132.81 409.036 1092.16 405.147 1051.28 419.711C1023.65 429.677 997.19 442.64 972.381 458.367C950.569 472.048 929.005 486.132 907.317 500.014C904.327 501.935 901.446 504.244 897.619 504.415Z" fill="white"/>
<path d="M934.736 468.872C935.79 467.431 937.013 466.12 938.377 464.968C972.21 442.765 1006.43 421.4 1044.59 406.836C1084.31 391.683 1124.2 392.985 1164.71 401.909C1196.87 409.005 1226.81 420.61 1252 442.564V445.663C1225.37 423.646 1194.26 411.995 1160.96 404.001C1102.32 389.948 1048.8 402.188 997.709 431.517C978.933 442.363 960.406 453.425 942.389 465.386C940.172 467.173 937.54 468.372 934.736 468.872Z" fill="white"/>
<path d="M1252 657.537C1243.53 678.546 1235.97 699.819 1233.95 722.61C1232.4 740.443 1239.05 756.34 1246.19 772.035C1247.88 775.753 1250.05 779.254 1252 782.88V792.176C1239.61 772.639 1229.49 752.234 1229.1 728.529C1229 717.71 1230.73 706.951 1234.2 696.705C1239.59 680.375 1243.5 663.533 1252 648.334V657.537Z" fill="white"/>
<path d="M86.6585 905C80.5859 899.469 79.7958 890.746 84.5362 882.085C87.9908 875.779 91.7397 869.69 94.7605 863.121C98.2151 855.715 95.9379 851.423 88.8118 852.849C67.4412 856.903 48.406 868.92 35.5524 886.47L32.3147 888.345V888.236L32.1133 884.177C45.268 870.004 61.2906 858.796 79.1142 851.299C83.5813 849.303 88.4117 848.248 93.3043 848.201C102.196 848.325 105 852.291 101.592 860.596C99.6757 865.639 97.2189 870.459 94.2648 874.974C86.5191 886.129 86.2248 896.122 97.5025 905.062L86.6585 905Z" fill="white"/>
<path d="M52.6079 905C54.8696 899.593 57.3947 894.263 59.2846 888.716C60.2916 885.803 63.1265 882.24 60.0747 879.42C57.0229 876.6 53.7542 879.653 51.0277 881.186C40.1837 887.26 31.3846 895.719 23.1432 904.922H20.0449C22.2292 902.413 24.6149 900.042 26.5358 897.362C28.4568 894.681 33.5224 893.271 32.2367 888.267L35.4744 886.392C40.2767 886.222 42.8947 882.209 46.6282 880.195C50.5338 877.793 54.6325 875.72 58.8819 873.997C65.2179 871.813 68.5175 875.113 66.3487 881.481C63.6377 889.429 60.2606 897.145 57.1778 904.953L52.6079 905Z" fill="white"/>
<path d="M32.3315 888.236C26.1042 892.681 20.8881 898.395 17.026 905H13.9277C16.8711 897.687 24.2605 893.969 28.1334 887.415L32.1301 884.192L32.3315 888.236Z" fill="white"/>
<path d="M637.658 580.162C646.566 569.317 659.346 564.669 671.739 559.912C697.052 550.244 723.713 547.657 750.56 545.968C772.898 544.62 795.392 544.852 817.405 539.771C843.384 533.837 866.637 521.69 889.27 508.179C891.919 506.63 894.397 504.662 897.619 504.337C890.664 512.347 880.687 515.787 871.935 521.008C839.79 540.127 804.454 546.898 767.538 547.657C740.722 548.215 714.062 550.291 687.928 556.953C671.662 561.119 656.27 568.155 642.476 577.73C640.941 578.674 639.329 579.487 637.658 580.162Z" fill="white"/>
</g>
<defs>
<clipPath id="clip0_1187_7847">
<rect width="558" height="1252" fill="white" transform="translate(0 905) rotate(-90)"/>
</clipPath>
</defs>
</svg>
