<svg width="272" height="120" viewBox="0 0 272 120" fill="none" xmlns="http://www.w3.org/2000/svg">
<path d="M8.22656 15.7656C8.22656 16.1172 8.15039 16.4219 7.99805 16.6797C7.8457 16.9316 7.64941 17.1396 7.40918 17.3037C7.16895 17.4736 6.89355 17.5996 6.58301 17.6816C6.27832 17.7578 5.96777 17.7959 5.65137 17.7959C5.25293 17.7959 4.88379 17.7432 4.54395 17.6377C4.20996 17.5264 3.91406 17.3623 3.65625 17.1455C3.39844 16.9346 3.1875 16.6768 3.02344 16.3721C2.85938 16.0615 2.75098 15.707 2.69824 15.3086H1.03711C1.05469 15.8594 1.1748 16.3604 1.39746 16.8115C1.62598 17.2568 1.93359 17.6465 2.32031 17.9805C2.75391 18.3672 3.26367 18.6631 3.84961 18.8682C4.44141 19.0732 5.04199 19.1758 5.65137 19.1758C6.16113 19.1758 6.6709 19.1055 7.18066 18.9648C7.69043 18.8184 8.14746 18.6016 8.55176 18.3145C8.95605 18.0332 9.28418 17.6787 9.53613 17.251C9.79395 16.8232 9.92285 16.3223 9.92285 15.748C9.92285 15.1797 9.80273 14.6787 9.5625 14.2451C9.32812 13.8115 9.01758 13.4453 8.63086 13.1465C8.23828 12.8242 7.80469 12.5605 7.33008 12.3555C6.85547 12.1445 6.38086 11.9658 5.90625 11.8193C5.61914 11.7314 5.31152 11.6289 4.9834 11.5117C4.66113 11.3945 4.3623 11.248 4.08691 11.0723C3.80566 10.8965 3.57422 10.6826 3.39258 10.4307C3.21094 10.1729 3.11719 9.85938 3.11133 9.49023C3.11133 9.15039 3.17871 8.85156 3.31348 8.59375C3.4541 8.33594 3.6416 8.11914 3.87598 7.94336C4.10449 7.76758 4.36523 7.63574 4.6582 7.54785C4.95703 7.45996 5.26172 7.41602 5.57227 7.41602C5.95898 7.41602 6.30469 7.47754 6.60938 7.60059C6.91992 7.71777 7.18652 7.88477 7.40918 8.10156C7.63184 8.31836 7.81055 8.5791 7.94531 8.88379C8.08008 9.18262 8.1709 9.5166 8.21777 9.88574H9.8877C9.87598 9.2998 9.75 8.76953 9.50977 8.29492C9.26953 7.82031 8.9502 7.41602 8.55176 7.08203C8.15332 6.74805 7.69629 6.49023 7.18066 6.30859C6.66504 6.12109 6.12891 6.02734 5.57227 6.02734C5.06836 6.02734 4.56738 6.10645 4.06934 6.26465C3.57129 6.41699 3.12598 6.64258 2.7334 6.94141C2.34082 7.24023 2.02148 7.60645 1.77539 8.04004C1.53516 8.47363 1.41504 8.96582 1.41504 9.5166C1.41504 10.0674 1.53516 10.5479 1.77539 10.958C2.02148 11.3623 2.33789 11.7139 2.72461 12.0127C3.10547 12.3057 3.52734 12.5576 3.99023 12.7686C4.45898 12.9736 4.91895 13.1494 5.37012 13.2959C5.68066 13.3955 6.00293 13.5068 6.33691 13.6299C6.67676 13.7529 6.9873 13.9053 7.26855 14.0869C7.5498 14.2744 7.77832 14.5029 7.9541 14.7725C8.13574 15.042 8.22656 15.373 8.22656 15.7656ZM20.4064 19H21.883V9.49023H20.2482V16.3105C20.1604 16.5156 20.049 16.7061 19.9143 16.8818C19.7854 17.0518 19.633 17.1982 19.4572 17.3213C19.2463 17.4736 18.9973 17.5938 18.7102 17.6816C18.423 17.7637 18.0979 17.8047 17.7346 17.8047C17.424 17.8047 17.1486 17.7637 16.9084 17.6816C16.674 17.5996 16.4748 17.4561 16.3107 17.251C16.1467 17.0518 16.0236 16.7822 15.9416 16.4424C15.8596 16.1025 15.8186 15.6748 15.8186 15.1592V9.49023H14.1926V15.1416C14.1926 15.8506 14.2688 16.46 14.4211 16.9697C14.5793 17.4736 14.802 17.8896 15.0891 18.2178C15.3762 18.5459 15.7219 18.7891 16.1262 18.9473C16.5305 19.0996 16.9816 19.1758 17.4797 19.1758C18.1008 19.1758 18.6486 19.0469 19.1232 18.7891C19.5979 18.5254 19.9934 18.1592 20.3098 17.6904L20.4064 19ZM34.81 14.3506V14.166C34.81 13.668 34.7689 13.1963 34.6869 12.751C34.6049 12.2998 34.4848 11.8896 34.3266 11.5205C34.1742 11.1924 33.9984 10.8965 33.7992 10.6328C33.6 10.3633 33.3744 10.1348 33.1225 9.94727C32.8412 9.74805 32.5277 9.59277 32.182 9.48145C31.8363 9.37012 31.4584 9.31445 31.0482 9.31445C30.7201 9.31445 30.4154 9.34668 30.1342 9.41113C29.8529 9.47559 29.5951 9.56934 29.3607 9.69238C29.1732 9.79199 28.9975 9.91211 28.8334 10.0527C28.6693 10.1875 28.5199 10.3398 28.3852 10.5098V5.5H26.7592V19H28.2533L28.3324 17.9189C28.4379 18.0537 28.5492 18.1768 28.6664 18.2881C28.7836 18.3994 28.9066 18.502 29.0355 18.5957C29.3051 18.7832 29.6068 18.9268 29.9408 19.0264C30.2807 19.126 30.6557 19.1758 31.0658 19.1758C31.4232 19.1758 31.7543 19.1318 32.059 19.0439C32.3695 18.9561 32.6537 18.833 32.9115 18.6748C33.2689 18.4463 33.5736 18.1592 33.8256 17.8135C34.0834 17.4619 34.2914 17.0664 34.4496 16.627C34.5668 16.293 34.6547 15.9355 34.7133 15.5547C34.7777 15.168 34.81 14.7666 34.81 14.3506ZM33.184 14.166V14.3506C33.184 14.6318 33.1664 14.9072 33.1313 15.1768C33.0961 15.4463 33.0404 15.6982 32.9643 15.9326C32.8705 16.2432 32.7445 16.5244 32.5863 16.7764C32.4281 17.0283 32.2318 17.2363 31.9975 17.4004C31.8217 17.5293 31.6225 17.6289 31.3998 17.6992C31.1771 17.7637 30.9311 17.7959 30.6615 17.7959C30.3803 17.7959 30.1225 17.7607 29.8881 17.6904C29.6537 17.6143 29.4428 17.5088 29.2553 17.374C29.0678 17.2393 28.9008 17.084 28.7543 16.9082C28.6137 16.7266 28.4906 16.5303 28.3852 16.3193V12.1621C28.4848 11.9512 28.6049 11.7578 28.7455 11.582C28.892 11.4004 29.059 11.2422 29.2465 11.1074C29.4281 10.9785 29.6361 10.8789 29.8705 10.8086C30.1049 10.7324 30.3627 10.6943 30.6439 10.6943C30.9018 10.6943 31.1361 10.7236 31.3471 10.7822C31.558 10.8408 31.7484 10.9229 31.9184 11.0283C32.1645 11.1748 32.3725 11.377 32.5424 11.6348C32.7123 11.8926 32.85 12.1768 32.9555 12.4873C33.0316 12.7393 33.0873 13.0088 33.1225 13.2959C33.1635 13.5771 33.184 13.8672 33.184 14.166ZM45.6803 16.4775C45.6803 16.6299 45.651 16.7734 45.5924 16.9082C45.5338 17.043 45.4488 17.166 45.3375 17.2773C45.1559 17.459 44.9039 17.6025 44.5816 17.708C44.2594 17.8076 43.8814 17.8574 43.4479 17.8574C43.1725 17.8574 42.8941 17.8281 42.6129 17.7695C42.3316 17.7109 42.0768 17.6113 41.8482 17.4707C41.6139 17.3301 41.4176 17.1455 41.2594 16.917C41.107 16.6885 41.0191 16.4072 40.9957 16.0732H39.3697C39.3697 16.4775 39.4605 16.8672 39.6422 17.2422C39.8297 17.6172 40.0992 17.9453 40.4508 18.2266C40.7965 18.5137 41.2213 18.7451 41.7252 18.9209C42.2291 19.0908 42.8033 19.1758 43.4479 19.1758C44.0104 19.1758 44.5289 19.1084 45.0035 18.9736C45.4781 18.8389 45.8854 18.6484 46.2252 18.4023C46.565 18.1562 46.8287 17.8604 47.0162 17.5146C47.2096 17.1689 47.3063 16.7852 47.3063 16.3633C47.3063 15.9707 47.2213 15.625 47.0514 15.3262C46.8873 15.0273 46.6471 14.7637 46.3307 14.5352C46.0143 14.3125 45.6246 14.1221 45.1617 13.9639C44.6988 13.7998 44.1744 13.6562 43.5885 13.5332C43.1432 13.4453 42.774 13.3545 42.4811 13.2607C42.1939 13.167 41.9654 13.0615 41.7955 12.9443C41.6197 12.8271 41.4967 12.6953 41.4264 12.5488C41.3561 12.4023 41.3209 12.2354 41.3209 12.0479C41.3209 11.8662 41.3648 11.6904 41.4527 11.5205C41.5406 11.3506 41.6725 11.2012 41.8482 11.0723C42.0182 10.9434 42.232 10.8408 42.4898 10.7646C42.7535 10.6885 43.0582 10.6504 43.4039 10.6504C43.7379 10.6504 44.0367 10.6973 44.3004 10.791C44.5699 10.8848 44.7984 11.0078 44.9859 11.1602C45.1734 11.3125 45.3199 11.4883 45.4254 11.6875C45.5309 11.8809 45.5836 12.0801 45.5836 12.2852H47.2096C47.2096 11.8691 47.1188 11.4824 46.9371 11.125C46.7613 10.7617 46.5094 10.4453 46.1813 10.1758C45.8531 9.90625 45.4547 9.69531 44.9859 9.54297C44.5172 9.39062 43.9898 9.31445 43.4039 9.31445C42.859 9.31445 42.358 9.3877 41.901 9.53418C41.4498 9.68066 41.0602 9.87988 40.732 10.1318C40.4039 10.3838 40.149 10.6797 39.9674 11.0195C39.7857 11.3535 39.6949 11.7139 39.6949 12.1006C39.6949 12.4932 39.7828 12.8389 39.9586 13.1377C40.1344 13.4307 40.3834 13.6855 40.7057 13.9023C41.0221 14.125 41.4029 14.3154 41.8482 14.4736C42.2994 14.6318 42.7975 14.7666 43.3424 14.8779C43.7877 14.9658 44.1598 15.0654 44.4586 15.1768C44.7574 15.2822 44.9977 15.3994 45.1793 15.5283C45.3609 15.6572 45.4898 15.8008 45.566 15.959C45.6422 16.1113 45.6803 16.2842 45.6803 16.4775ZM55.8211 7.1875H54.1863V9.49023H51.6902V10.7471H54.1863V15.915C54.1863 16.501 54.2625 17.002 54.4148 17.418C54.573 17.8281 54.7869 18.1621 55.0564 18.4199C55.326 18.6836 55.6424 18.877 56.0057 19C56.3748 19.1172 56.7703 19.1758 57.1922 19.1758C57.4441 19.1758 57.6961 19.1641 57.948 19.1406C58.2059 19.1172 58.449 19.082 58.6775 19.0352C58.9061 18.9941 59.117 18.9443 59.3104 18.8857C59.5037 18.8213 59.6678 18.748 59.8025 18.666L59.574 17.5146C59.4744 17.5381 59.3455 17.5674 59.1873 17.6025C59.035 17.6318 58.8709 17.6611 58.6951 17.6904C58.5135 17.7197 58.3289 17.7461 58.1414 17.7695C57.9539 17.7871 57.7723 17.7959 57.5965 17.7959C57.3563 17.7959 57.1277 17.7666 56.9109 17.708C56.7 17.6494 56.5125 17.5469 56.3484 17.4004C56.1844 17.2598 56.0555 17.0693 55.9617 16.8291C55.868 16.5889 55.8211 16.2842 55.8211 15.915V10.7471H59.4422V9.49023H55.8211V7.1875ZM70.8311 19H72.5273V18.8594C72.4219 18.5957 72.3398 18.2881 72.2812 17.9365C72.2227 17.5791 72.1934 17.2422 72.1934 16.9258V12.5049C72.1934 11.9717 72.0967 11.5059 71.9033 11.1074C71.71 10.709 71.4463 10.375 71.1123 10.1055C70.7725 9.8418 70.3711 9.64551 69.9082 9.5166C69.4453 9.38184 68.9443 9.31445 68.4053 9.31445C67.8135 9.31445 67.2832 9.39648 66.8145 9.56055C66.3516 9.72461 65.959 9.93848 65.6367 10.2021C65.3086 10.4717 65.0566 10.7734 64.8809 11.1074C64.7109 11.4414 64.623 11.7812 64.6172 12.127H66.252C66.252 11.9277 66.2988 11.7373 66.3926 11.5557C66.4922 11.3682 66.6299 11.207 66.8057 11.0723C66.9814 10.9375 67.1953 10.8291 67.4473 10.7471C67.7051 10.665 67.9951 10.624 68.3174 10.624C68.6631 10.624 68.9736 10.668 69.249 10.7559C69.5303 10.8438 69.7676 10.9668 69.9609 11.125C70.1543 11.2891 70.3037 11.4854 70.4092 11.7139C70.5146 11.9424 70.5674 12.2002 70.5674 12.4873V13.2344H68.792C68.1299 13.2344 67.5293 13.2988 66.9902 13.4277C66.457 13.5566 66 13.75 65.6191 14.0078C65.2383 14.2715 64.9424 14.5996 64.7314 14.9922C64.5264 15.3848 64.4238 15.8418 64.4238 16.3633C64.4238 16.7617 64.5 17.1338 64.6523 17.4795C64.8105 17.8193 65.0332 18.1123 65.3203 18.3584C65.6016 18.6104 65.9443 18.8096 66.3486 18.9561C66.7588 19.1025 67.2158 19.1758 67.7197 19.1758C68.0303 19.1758 68.3232 19.1436 68.5986 19.0791C68.874 19.0146 69.1348 18.9268 69.3809 18.8154C69.6211 18.7041 69.8408 18.5752 70.04 18.4287C70.2451 18.2822 70.4297 18.127 70.5938 17.9629C70.6113 18.1621 70.6377 18.3555 70.6729 18.543C70.7139 18.7246 70.7666 18.877 70.8311 19ZM67.957 17.7607C67.6406 17.7607 67.3623 17.7197 67.1221 17.6377C66.8818 17.5557 66.6826 17.4414 66.5244 17.2949C66.3662 17.1543 66.2461 16.9844 66.1641 16.7852C66.0879 16.5859 66.0498 16.3691 66.0498 16.1348C66.0498 15.8887 66.0938 15.6689 66.1816 15.4756C66.2754 15.2822 66.4102 15.1152 66.5859 14.9746C66.832 14.7754 67.1631 14.6289 67.5791 14.5352C68.001 14.4355 68.4932 14.3857 69.0557 14.3857H70.5674V16.3105C70.4736 16.498 70.3447 16.6797 70.1807 16.8555C70.0166 17.0254 69.8232 17.1777 69.6006 17.3125C69.3721 17.4473 69.1201 17.5557 68.8447 17.6377C68.5693 17.7197 68.2734 17.7607 67.957 17.7607ZM77.1926 19H78.8186V12.1797C78.9299 11.9746 79.0588 11.7871 79.2053 11.6172C79.3576 11.4473 79.5217 11.2979 79.6975 11.1689C79.9143 11.0225 80.1516 10.9082 80.4094 10.8262C80.6672 10.7383 80.9455 10.6943 81.2443 10.6943C81.59 10.6943 81.8947 10.7354 82.1584 10.8174C82.4279 10.8994 82.6564 11.0312 82.8439 11.2129C83.0256 11.3945 83.1633 11.6318 83.257 11.9248C83.3508 12.2178 83.3977 12.5752 83.3977 12.9971V19H85.0236V12.9619C85.0236 12.3291 84.9445 11.7842 84.7863 11.3271C84.634 10.8643 84.4143 10.4834 84.1272 10.1846C83.84 9.88574 83.4914 9.66602 83.0813 9.52539C82.677 9.38477 82.2258 9.31445 81.7277 9.31445C81.3586 9.32031 81.007 9.37598 80.673 9.48145C80.3449 9.58105 80.0402 9.72461 79.759 9.91211C79.5715 10.0352 79.3928 10.1816 79.2229 10.3516C79.0588 10.5156 78.9064 10.6973 78.7658 10.8965L78.6516 9.49023H77.1926V19ZM93.8549 17.8574C93.3451 17.8574 92.9174 17.7578 92.5717 17.5586C92.2318 17.3535 91.9594 17.0869 91.7543 16.7588C91.5434 16.4365 91.391 16.0732 91.2973 15.6689C91.2094 15.2588 91.1654 14.8457 91.1654 14.4297V14.0605C91.1654 13.6504 91.2094 13.2432 91.2973 12.8389C91.391 12.4346 91.5434 12.0684 91.7543 11.7402C91.9652 11.418 92.2406 11.1572 92.5805 10.958C92.9262 10.7529 93.351 10.6504 93.8549 10.6504C94.183 10.6504 94.4877 10.7061 94.7689 10.8174C95.0561 10.9287 95.3021 11.0811 95.5072 11.2744C95.7123 11.4678 95.8734 11.6934 95.9906 11.9512C96.1137 12.2031 96.1781 12.4727 96.184 12.7598H97.7221C97.7221 12.2793 97.6254 11.8281 97.432 11.4062C97.2387 10.9844 96.9721 10.6182 96.6322 10.3076C96.2865 10.0029 95.8764 9.7627 95.4018 9.58691C94.933 9.40527 94.4174 9.31445 93.8549 9.31445C93.1342 9.31445 92.5043 9.44336 91.9652 9.70117C91.4262 9.95898 90.9779 10.3047 90.6205 10.7383C90.2572 11.1777 89.9848 11.6846 89.8031 12.2588C89.6215 12.833 89.5307 13.4336 89.5307 14.0605V14.4297C89.5307 15.0625 89.6215 15.666 89.8031 16.2402C89.9848 16.8086 90.2572 17.3096 90.6205 17.7432C90.9779 18.1826 91.4262 18.5312 91.9652 18.7891C92.5043 19.0469 93.1342 19.1758 93.8549 19.1758C94.3588 19.1758 94.8422 19.0908 95.3051 18.9209C95.768 18.7451 96.1781 18.5107 96.5355 18.2178C96.893 17.9307 97.1771 17.5967 97.3881 17.2158C97.6049 16.8291 97.7162 16.4248 97.7221 16.0029H96.184C96.1781 16.2666 96.1078 16.5127 95.973 16.7412C95.8441 16.9639 95.6713 17.1572 95.4545 17.3213C95.2377 17.4912 94.9887 17.623 94.7074 17.7168C94.432 17.8105 94.1479 17.8574 93.8549 17.8574ZM106.615 19.1758C107.541 19.1758 108.317 18.9912 108.944 18.6221C109.577 18.2471 110.051 17.8193 110.368 17.3389L109.375 16.5654C109.076 16.9521 108.701 17.2627 108.25 17.4971C107.798 17.7314 107.283 17.8486 106.703 17.8486C106.263 17.8486 105.862 17.7666 105.499 17.6025C105.135 17.4385 104.825 17.2129 104.567 16.9258C104.315 16.6562 104.116 16.3457 103.969 15.9941C103.829 15.6426 103.738 15.2354 103.697 14.7725V14.7109H110.491V13.9814C110.491 13.3193 110.406 12.7041 110.236 12.1357C110.072 11.5674 109.82 11.0723 109.48 10.6504C109.14 10.2344 108.713 9.90918 108.197 9.6748C107.687 9.43457 107.089 9.31445 106.404 9.31445C105.859 9.31445 105.326 9.42578 104.804 9.64844C104.289 9.87109 103.829 10.1904 103.424 10.6064C103.014 11.0283 102.686 11.5439 102.44 12.1533C102.194 12.7568 102.071 13.4424 102.071 14.21V14.5791C102.071 15.2412 102.182 15.8535 102.405 16.416C102.628 16.9785 102.938 17.4648 103.337 17.875C103.735 18.2852 104.213 18.6045 104.769 18.833C105.332 19.0615 105.947 19.1758 106.615 19.1758ZM106.404 10.6504C106.82 10.6504 107.177 10.7266 107.476 10.8789C107.781 11.0312 108.033 11.2305 108.232 11.4766C108.431 11.7227 108.587 12.0156 108.698 12.3555C108.809 12.6895 108.865 13.0029 108.865 13.2959V13.375H103.75C103.814 12.9355 103.925 12.5488 104.084 12.2148C104.248 11.875 104.447 11.5879 104.681 11.3535C104.916 11.125 105.179 10.9521 105.472 10.835C105.765 10.7119 106.076 10.6504 106.404 10.6504Z" fill="white"/>
<path d="M207.313 13.0078H209.275C209.721 13.0033 210.143 12.9349 210.539 12.8027C210.94 12.6706 211.291 12.4792 211.592 12.2285C211.893 11.9779 212.13 11.6702 212.303 11.3057C212.481 10.9365 212.57 10.5127 212.57 10.0342C212.57 9.55566 212.481 9.13184 212.303 8.7627C212.13 8.39355 211.893 8.08366 211.592 7.83301C211.291 7.58236 210.94 7.39095 210.539 7.25879C210.143 7.12663 209.721 7.05599 209.275 7.04688H206.048V17H207.313V13.0078ZM207.313 11.9688V8.08594H209.275C209.566 8.09049 209.835 8.13835 210.081 8.22949C210.332 8.32064 210.549 8.45052 210.731 8.61914C210.909 8.78776 211.048 8.99284 211.148 9.23438C211.253 9.47591 211.305 9.74707 211.305 10.0479C211.305 10.3486 211.253 10.6175 211.148 10.8545C211.048 11.0869 210.906 11.2852 210.724 11.4492C210.542 11.6133 210.328 11.7409 210.081 11.832C209.835 11.9186 209.566 11.9642 209.275 11.9688H207.313ZM220.587 9.4668C220.049 9.4668 219.568 9.58529 219.145 9.82227C218.725 10.0547 218.365 10.3737 218.064 10.7793L218.058 10.5947L218.003 9.60352H216.8V17H218.071V12.2559C218.153 12.028 218.256 11.8229 218.379 11.6406C218.507 11.4538 218.655 11.2965 218.823 11.1689C219.01 11.0231 219.229 10.9137 219.479 10.8408C219.73 10.7633 220.01 10.7246 220.32 10.7246C220.562 10.7246 220.792 10.7383 221.011 10.7656C221.234 10.7884 221.469 10.8271 221.715 10.8818L221.886 9.64453C221.758 9.58984 221.567 9.54655 221.312 9.51465C221.061 9.48275 220.819 9.4668 220.587 9.4668ZM225.193 13.2334V13.3838C225.193 13.917 225.27 14.4115 225.425 14.8672C225.58 15.3229 225.804 15.7194 226.095 16.0566C226.382 16.3939 226.733 16.6582 227.148 16.8496C227.567 17.041 228.039 17.1367 228.563 17.1367C229.083 17.1367 229.55 17.041 229.964 16.8496C230.379 16.6582 230.732 16.3939 231.024 16.0566C231.311 15.7194 231.532 15.3229 231.687 14.8672C231.842 14.4115 231.92 13.917 231.92 13.3838V13.2334C231.92 12.7002 231.842 12.2057 231.687 11.75C231.532 11.2897 231.311 10.891 231.024 10.5537C230.732 10.2165 230.377 9.95215 229.958 9.76074C229.543 9.56478 229.074 9.4668 228.549 9.4668C228.03 9.4668 227.563 9.56478 227.148 9.76074C226.733 9.95215 226.382 10.2165 226.095 10.5537C225.804 10.891 225.58 11.2897 225.425 11.75C225.27 12.2057 225.193 12.7002 225.193 13.2334ZM226.458 13.3838V13.2334C226.458 12.8734 226.501 12.5293 226.587 12.2012C226.674 11.8685 226.806 11.5768 226.984 11.3262C227.157 11.0755 227.374 10.8773 227.633 10.7314C227.893 10.5811 228.199 10.5059 228.549 10.5059C228.9 10.5059 229.206 10.5811 229.465 10.7314C229.73 10.8773 229.951 11.0755 230.129 11.3262C230.302 11.5768 230.432 11.8685 230.518 12.2012C230.609 12.5293 230.655 12.8734 230.655 13.2334V13.3838C230.655 13.7484 230.612 14.097 230.525 14.4297C230.438 14.7578 230.309 15.0472 230.135 15.2979C229.958 15.5485 229.737 15.7467 229.472 15.8926C229.212 16.0384 228.909 16.1113 228.563 16.1113C228.212 16.1113 227.905 16.0384 227.64 15.8926C227.376 15.7467 227.157 15.5485 226.984 15.2979C226.806 15.0472 226.674 14.7578 226.587 14.4297C226.501 14.097 226.458 13.7484 226.458 13.3838ZM238.351 7.8125H237.079V9.60352H235.138V10.5811H237.079V14.6006C237.079 15.0563 237.139 15.446 237.257 15.7695C237.38 16.0885 237.546 16.3483 237.756 16.5488C237.966 16.7539 238.212 16.9043 238.494 17C238.781 17.0911 239.089 17.1367 239.417 17.1367C239.613 17.1367 239.809 17.1276 240.005 17.1094C240.206 17.0911 240.395 17.0638 240.572 17.0273C240.75 16.9954 240.914 16.9567 241.065 16.9111C241.215 16.861 241.343 16.804 241.447 16.7402L241.27 15.8447C241.192 15.863 241.092 15.8857 240.969 15.9131C240.85 15.9359 240.723 15.9587 240.586 15.9814C240.445 16.0042 240.301 16.0247 240.155 16.043C240.01 16.0566 239.868 16.0635 239.732 16.0635C239.545 16.0635 239.367 16.0407 239.198 15.9951C239.034 15.9495 238.889 15.8698 238.761 15.7559C238.633 15.6465 238.533 15.4984 238.46 15.3115C238.387 15.1247 238.351 14.8877 238.351 14.6006V10.5811H241.167V9.60352H238.351V7.8125ZM248.432 17.1367C249.152 17.1367 249.756 16.9932 250.244 16.7061C250.736 16.4144 251.105 16.0817 251.351 15.708L250.579 15.1064C250.346 15.4072 250.055 15.6488 249.704 15.8311C249.353 16.0133 248.952 16.1045 248.501 16.1045C248.159 16.1045 247.847 16.0407 247.564 15.9131C247.282 15.7855 247.04 15.61 246.84 15.3867C246.644 15.1771 246.489 14.9355 246.375 14.6621C246.265 14.3887 246.195 14.0719 246.163 13.7119V13.6641H251.447V13.0967C251.447 12.5817 251.381 12.1032 251.249 11.6611C251.121 11.2191 250.925 10.834 250.661 10.5059C250.397 10.1823 250.064 9.92936 249.663 9.74707C249.266 9.56022 248.802 9.4668 248.268 9.4668C247.845 9.4668 247.43 9.55339 247.024 9.72656C246.623 9.89974 246.265 10.1481 245.951 10.4717C245.632 10.7998 245.377 11.2008 245.185 11.6748C244.994 12.1442 244.898 12.6774 244.898 13.2744V13.5615C244.898 14.0765 244.985 14.5527 245.158 14.9902C245.331 15.4277 245.573 15.806 245.883 16.125C246.193 16.444 246.564 16.6924 246.997 16.8701C247.434 17.0479 247.913 17.1367 248.432 17.1367ZM248.268 10.5059C248.592 10.5059 248.87 10.5651 249.102 10.6836C249.339 10.8021 249.535 10.957 249.69 11.1484C249.845 11.3398 249.966 11.5677 250.053 11.832C250.139 12.0918 250.182 12.3356 250.182 12.5635V12.625H246.204C246.254 12.2832 246.341 11.9824 246.464 11.7227C246.591 11.4583 246.746 11.235 246.929 11.0527C247.111 10.875 247.316 10.7406 247.544 10.6494C247.772 10.5537 248.013 10.5059 248.268 10.5059ZM255.171 9.60352V10.7041H257.687V15.9062H255.171V17H261.365V15.9062H258.952V9.60352H255.171ZM257.523 7.66211C257.523 7.86719 257.584 8.03809 257.707 8.1748C257.835 8.31152 258.026 8.37988 258.282 8.37988C258.532 8.37988 258.721 8.31152 258.849 8.1748C258.977 8.03809 259.04 7.86719 259.04 7.66211C259.04 7.54818 259.022 7.44336 258.986 7.34766C258.949 7.25195 258.895 7.1722 258.822 7.1084C258.762 7.04915 258.687 7.00358 258.596 6.97168C258.505 6.93522 258.4 6.91699 258.282 6.91699C258.163 6.91699 258.056 6.93522 257.96 6.97168C257.869 7.00358 257.794 7.04915 257.735 7.1084C257.662 7.17676 257.607 7.25879 257.571 7.35449C257.539 7.4502 257.523 7.55273 257.523 7.66211ZM264.781 17H266.046V11.6953C266.132 11.5358 266.233 11.39 266.347 11.2578C266.465 11.1257 266.593 11.0094 266.729 10.9092C266.898 10.7952 267.083 10.7064 267.283 10.6426C267.484 10.5742 267.7 10.54 267.933 10.54C268.201 10.54 268.438 10.5719 268.644 10.6357C268.853 10.6995 269.031 10.8021 269.177 10.9434C269.318 11.0846 269.425 11.2692 269.498 11.4971C269.571 11.7249 269.607 12.0029 269.607 12.3311V17H270.872V12.3037C270.872 11.8115 270.811 11.3877 270.688 11.0322C270.569 10.6722 270.398 10.376 270.175 10.1436C269.951 9.91113 269.68 9.74023 269.361 9.63086C269.047 9.52148 268.696 9.4668 268.309 9.4668C268.021 9.47135 267.748 9.51465 267.488 9.59668C267.233 9.67415 266.996 9.78581 266.777 9.93164C266.632 10.0273 266.493 10.1413 266.36 10.2734C266.233 10.401 266.114 10.5423 266.005 10.6973L265.916 9.60352H264.781V17Z" fill="white"/>
<path d="M10.1602 31.5918V30.2031H0.667969V31.5918H4.62305V43H6.20508V31.5918H10.1602ZM18.341 43.1758C19.2668 43.1758 20.0432 42.9912 20.6701 42.6221C21.3029 42.2471 21.7775 41.8193 22.0939 41.3389L21.1008 40.5654C20.802 40.9521 20.427 41.2627 19.9758 41.4971C19.5246 41.7314 19.009 41.8486 18.4289 41.8486C17.9895 41.8486 17.5881 41.7666 17.2248 41.6025C16.8615 41.4385 16.551 41.2129 16.2932 40.9258C16.0412 40.6562 15.842 40.3457 15.6955 39.9941C15.5549 39.6426 15.4641 39.2354 15.423 38.7725V38.7109H22.217V37.9814C22.217 37.3193 22.132 36.7041 21.9621 36.1357C21.798 35.5674 21.5461 35.0723 21.2063 34.6504C20.8664 34.2344 20.4387 33.9092 19.923 33.6748C19.4133 33.4346 18.8156 33.3145 18.1301 33.3145C17.5852 33.3145 17.052 33.4258 16.5305 33.6484C16.0148 33.8711 15.5549 34.1904 15.1506 34.6064C14.7404 35.0283 14.4123 35.5439 14.1662 36.1533C13.9201 36.7568 13.7971 37.4424 13.7971 38.21V38.5791C13.7971 39.2412 13.9084 39.8535 14.1311 40.416C14.3537 40.9785 14.6643 41.4648 15.0627 41.875C15.4611 42.2852 15.9387 42.6045 16.4953 42.833C17.0578 43.0615 17.673 43.1758 18.341 43.1758ZM18.1301 34.6504C18.5461 34.6504 18.9035 34.7266 19.2023 34.8789C19.507 35.0312 19.759 35.2305 19.9582 35.4766C20.1574 35.7227 20.3127 36.0156 20.424 36.3555C20.5354 36.6895 20.591 37.0029 20.591 37.2959V37.375H15.4758C15.5402 36.9355 15.6516 36.5488 15.8098 36.2148C15.9738 35.875 16.173 35.5879 16.4074 35.3535C16.6418 35.125 16.9055 34.9521 17.1984 34.835C17.4914 34.7119 17.802 34.6504 18.1301 34.6504ZM30.6791 37.0146L28.1654 33.4902H26.2846L29.8266 38.1924L26.1879 43H28.0863L30.7143 39.3789L33.3422 43H35.223L31.5844 38.1924L35.1264 33.4902H33.2191L30.6791 37.0146ZM43.2105 31.1875H41.5758V33.4902H39.0797V34.7471H41.5758V39.915C41.5758 40.501 41.652 41.002 41.8043 41.418C41.9625 41.8281 42.1764 42.1621 42.4459 42.4199C42.7154 42.6836 43.0318 42.877 43.3951 43C43.7643 43.1172 44.1598 43.1758 44.5816 43.1758C44.8336 43.1758 45.0855 43.1641 45.3375 43.1406C45.5953 43.1172 45.8385 43.082 46.067 43.0352C46.2955 42.9941 46.5064 42.9443 46.6998 42.8857C46.8932 42.8213 47.0572 42.748 47.192 42.666L46.9635 41.5146C46.8639 41.5381 46.735 41.5674 46.5768 41.6025C46.4244 41.6318 46.2604 41.6611 46.0846 41.6904C45.9029 41.7197 45.7184 41.7461 45.5309 41.7695C45.3434 41.7871 45.1617 41.7959 44.9859 41.7959C44.7457 41.7959 44.5172 41.7666 44.3004 41.708C44.0895 41.6494 43.902 41.5469 43.7379 41.4004C43.5738 41.2598 43.4449 41.0693 43.3512 40.8291C43.2574 40.5889 43.2105 40.2842 43.2105 39.915V34.7471H46.8316V33.4902H43.2105V31.1875ZM58.2381 43H59.7146V33.4902H58.0799V40.3105C57.992 40.5156 57.8807 40.7061 57.7459 40.8818C57.617 41.0518 57.4646 41.1982 57.2889 41.3213C57.0779 41.4736 56.8289 41.5938 56.5418 41.6816C56.2547 41.7637 55.9295 41.8047 55.5662 41.8047C55.2557 41.8047 54.9803 41.7637 54.74 41.6816C54.5057 41.5996 54.3064 41.4561 54.1424 41.251C53.9783 41.0518 53.8553 40.7822 53.7732 40.4424C53.6912 40.1025 53.6502 39.6748 53.6502 39.1592V33.4902H52.0242V39.1416C52.0242 39.8506 52.1004 40.46 52.2527 40.9697C52.4109 41.4736 52.6336 41.8896 52.9207 42.2178C53.2078 42.5459 53.5535 42.7891 53.9578 42.9473C54.3621 43.0996 54.8133 43.1758 55.3113 43.1758C55.9324 43.1758 56.4803 43.0469 56.9549 42.7891C57.4295 42.5254 57.825 42.1592 58.1414 41.6904L58.2381 43ZM70.8135 33.3145C70.1221 33.3145 69.5039 33.4668 68.959 33.7715C68.4199 34.0703 67.957 34.4805 67.5703 35.002L67.5615 34.7646L67.4912 33.4902H65.9443V43H67.5791V36.9004C67.6846 36.6074 67.8164 36.3438 67.9746 36.1094C68.1387 35.8691 68.3291 35.667 68.5459 35.5029C68.7861 35.3154 69.0674 35.1748 69.3896 35.0811C69.7119 34.9814 70.0723 34.9316 70.4707 34.9316C70.7812 34.9316 71.0771 34.9492 71.3584 34.9844C71.6455 35.0137 71.9473 35.0635 72.2637 35.1338L72.4834 33.543C72.3193 33.4727 72.0732 33.417 71.7451 33.376C71.4229 33.335 71.1123 33.3145 70.8135 33.3145ZM81.3938 43.1758C82.3195 43.1758 83.0959 42.9912 83.7229 42.6221C84.3557 42.2471 84.8303 41.8193 85.1467 41.3389L84.1535 40.5654C83.8547 40.9521 83.4797 41.2627 83.0285 41.4971C82.5773 41.7314 82.0617 41.8486 81.4816 41.8486C81.0422 41.8486 80.6408 41.7666 80.2775 41.6025C79.9143 41.4385 79.6037 41.2129 79.3459 40.9258C79.0939 40.6562 78.8947 40.3457 78.7482 39.9941C78.6076 39.6426 78.5168 39.2354 78.4758 38.7725V38.7109H85.2697V37.9814C85.2697 37.3193 85.1848 36.7041 85.0148 36.1357C84.8508 35.5674 84.5988 35.0723 84.259 34.6504C83.9191 34.2344 83.4914 33.9092 82.9758 33.6748C82.466 33.4346 81.8684 33.3145 81.1828 33.3145C80.6379 33.3145 80.1047 33.4258 79.5832 33.6484C79.0676 33.8711 78.6076 34.1904 78.2033 34.6064C77.7932 35.0283 77.465 35.5439 77.2189 36.1533C76.9729 36.7568 76.8498 37.4424 76.8498 38.21V38.5791C76.8498 39.2412 76.9611 39.8535 77.1838 40.416C77.4064 40.9785 77.717 41.4648 78.1154 41.875C78.5139 42.2852 78.9914 42.6045 79.548 42.833C80.1105 43.0615 80.7258 43.1758 81.3938 43.1758ZM81.1828 34.6504C81.5988 34.6504 81.9563 34.7266 82.2551 34.8789C82.5598 35.0312 82.8117 35.2305 83.0109 35.4766C83.2102 35.7227 83.3654 36.0156 83.4768 36.3555C83.5881 36.6895 83.6438 37.0029 83.6438 37.2959V37.375H78.5285C78.593 36.9355 78.7043 36.5488 78.8625 36.2148C79.0266 35.875 79.2258 35.5879 79.4602 35.3535C79.6945 35.125 79.9582 34.9521 80.2512 34.835C80.5441 34.7119 80.8547 34.6504 81.1828 34.6504Z" fill="white"/>
<path d="M173.146 38.0059H171.881C171.84 38.3066 171.769 38.5869 171.669 38.8467C171.569 39.1019 171.434 39.3229 171.266 39.5098C171.097 39.7012 170.89 39.8493 170.644 39.9541C170.402 40.0589 170.115 40.1113 169.782 40.1113C169.477 40.1113 169.21 40.0635 168.982 39.9678C168.755 39.8675 168.556 39.7308 168.388 39.5576C168.219 39.389 168.08 39.193 167.971 38.9697C167.861 38.7464 167.772 38.5072 167.704 38.252C167.636 38.0013 167.586 37.7461 167.554 37.4863C167.526 37.222 167.513 36.9668 167.513 36.7207V35.3193C167.513 35.0732 167.526 34.8203 167.554 34.5605C167.586 34.2962 167.636 34.0387 167.704 33.7881C167.772 33.5374 167.861 33.3005 167.971 33.0771C168.085 32.8538 168.226 32.6579 168.395 32.4893C168.559 32.3206 168.755 32.1885 168.982 32.0928C169.215 31.9925 169.481 31.9424 169.782 31.9424C170.115 31.9424 170.402 31.9993 170.644 32.1133C170.89 32.2227 171.097 32.3753 171.266 32.5713C171.434 32.7673 171.569 32.9951 171.669 33.2549C171.769 33.5146 171.84 33.7949 171.881 34.0957H173.146C173.091 33.6217 172.977 33.1888 172.804 32.7969C172.635 32.4049 172.41 32.0677 172.127 31.7852C171.844 31.5072 171.507 31.293 171.115 31.1426C170.723 30.9876 170.279 30.9102 169.782 30.9102C169.368 30.9102 168.994 30.9694 168.661 31.0879C168.328 31.2018 168.032 31.3613 167.772 31.5664C167.508 31.7715 167.28 32.0153 167.089 32.2979C166.902 32.5758 166.747 32.8789 166.624 33.207C166.496 33.5352 166.401 33.8792 166.337 34.2393C166.278 34.5993 166.246 34.9639 166.241 35.333V36.7207C166.246 37.0898 166.278 37.4544 166.337 37.8145C166.401 38.1745 166.496 38.5186 166.624 38.8467C166.747 39.1748 166.902 39.4779 167.089 39.7559C167.28 40.0339 167.508 40.2754 167.772 40.4805C168.032 40.6855 168.328 40.8473 168.661 40.9658C168.998 41.0798 169.372 41.1367 169.782 41.1367C170.261 41.1367 170.694 41.0615 171.081 40.9111C171.473 40.7562 171.812 40.5397 172.1 40.2617C172.382 39.9883 172.612 39.6602 172.79 39.2773C172.968 38.89 173.086 38.4661 173.146 38.0059ZM176.152 37.2334V37.3838C176.152 37.917 176.229 38.4115 176.384 38.8672C176.539 39.3229 176.763 39.7194 177.054 40.0566C177.341 40.3939 177.692 40.6582 178.107 40.8496C178.526 41.041 178.998 41.1367 179.522 41.1367C180.042 41.1367 180.509 41.041 180.923 40.8496C181.338 40.6582 181.691 40.3939 181.983 40.0566C182.27 39.7194 182.491 39.3229 182.646 38.8672C182.801 38.4115 182.879 37.917 182.879 37.3838V37.2334C182.879 36.7002 182.801 36.2057 182.646 35.75C182.491 35.2897 182.27 34.891 181.983 34.5537C181.691 34.2165 181.336 33.9521 180.917 33.7607C180.502 33.5648 180.032 33.4668 179.508 33.4668C178.989 33.4668 178.522 33.5648 178.107 33.7607C177.692 33.9521 177.341 34.2165 177.054 34.5537C176.763 34.891 176.539 35.2897 176.384 35.75C176.229 36.2057 176.152 36.7002 176.152 37.2334ZM177.417 37.3838V37.2334C177.417 36.8734 177.46 36.5293 177.546 36.2012C177.633 35.8685 177.765 35.5768 177.943 35.3262C178.116 35.0755 178.333 34.8773 178.592 34.7314C178.852 34.5811 179.157 34.5059 179.508 34.5059C179.859 34.5059 180.165 34.5811 180.424 34.7314C180.689 34.8773 180.91 35.0755 181.087 35.3262C181.261 35.5768 181.391 35.8685 181.477 36.2012C181.568 36.5293 181.614 36.8734 181.614 37.2334V37.3838C181.614 37.7484 181.571 38.097 181.484 38.4297C181.397 38.7578 181.268 39.0472 181.094 39.2979C180.917 39.5485 180.696 39.7467 180.431 39.8926C180.171 40.0384 179.868 40.1113 179.522 40.1113C179.171 40.1113 178.864 40.0384 178.599 39.8926C178.335 39.7467 178.116 39.5485 177.943 39.2979C177.765 39.0472 177.633 38.7578 177.546 38.4297C177.46 38.097 177.417 37.7484 177.417 37.3838ZM191.162 33.4668C190.625 33.4668 190.144 33.5853 189.72 33.8223C189.301 34.0547 188.941 34.3737 188.64 34.7793L188.633 34.5947L188.578 33.6035H187.375V41H188.647V36.2559C188.729 36.028 188.831 35.8229 188.954 35.6406C189.082 35.4538 189.23 35.2965 189.399 35.1689C189.585 35.0231 189.804 34.9137 190.055 34.8408C190.306 34.7633 190.586 34.7246 190.896 34.7246C191.137 34.7246 191.367 34.7383 191.586 34.7656C191.809 34.7884 192.044 34.8271 192.29 34.8818L192.461 33.6445C192.334 33.5898 192.142 33.5465 191.887 33.5146C191.636 33.4827 191.395 33.4668 191.162 33.4668ZM200.971 33.4668C200.433 33.4668 199.952 33.5853 199.528 33.8223C199.109 34.0547 198.749 34.3737 198.448 34.7793L198.441 34.5947L198.387 33.6035H197.183V41H198.455V36.2559C198.537 36.028 198.639 35.8229 198.763 35.6406C198.89 35.4538 199.038 35.2965 199.207 35.1689C199.394 35.0231 199.612 34.9137 199.863 34.8408C200.114 34.7633 200.394 34.7246 200.704 34.7246C200.945 34.7246 201.176 34.7383 201.394 34.7656C201.618 34.7884 201.852 34.8271 202.098 34.8818L202.269 33.6445C202.142 33.5898 201.95 33.5465 201.695 33.5146C201.444 33.4827 201.203 33.4668 200.971 33.4668ZM210.806 41H211.954V33.6035H210.683V38.9082C210.615 39.0677 210.528 39.2158 210.423 39.3525C210.323 39.4847 210.204 39.5986 210.068 39.6943C209.904 39.8128 209.71 39.9062 209.487 39.9746C209.263 40.0384 209.01 40.0703 208.728 40.0703C208.486 40.0703 208.272 40.0384 208.085 39.9746C207.903 39.9108 207.748 39.7992 207.621 39.6396C207.493 39.4847 207.397 39.2751 207.333 39.0107C207.27 38.7464 207.238 38.4137 207.238 38.0127V33.6035H205.973V37.999C205.973 38.5505 206.032 39.0244 206.151 39.4209C206.274 39.8128 206.447 40.1364 206.67 40.3916C206.894 40.6468 207.162 40.8359 207.477 40.959C207.791 41.0775 208.142 41.1367 208.53 41.1367C209.013 41.1367 209.439 41.0365 209.808 40.8359C210.177 40.6309 210.485 40.346 210.731 39.9814L210.806 41ZM215.508 37.2402V37.3838C215.508 37.9124 215.576 38.4069 215.713 38.8672C215.85 39.3229 216.046 39.7194 216.301 40.0566C216.551 40.3939 216.859 40.6582 217.224 40.8496C217.588 41.041 217.996 41.1367 218.447 41.1367C218.716 41.1367 218.967 41.1071 219.199 41.0479C219.432 40.9932 219.644 40.9134 219.835 40.8086C219.958 40.7402 220.072 40.6605 220.177 40.5693C220.286 40.4782 220.389 40.3779 220.484 40.2686V40.9043C220.484 41.2233 220.439 41.5059 220.348 41.752C220.257 41.998 220.127 42.2031 219.958 42.3672C219.785 42.5358 219.577 42.6634 219.336 42.75C219.094 42.8366 218.823 42.8799 218.522 42.8799C218.354 42.8799 218.185 42.8617 218.017 42.8252C217.848 42.7933 217.679 42.7386 217.511 42.6611C217.342 42.5837 217.176 42.4788 217.012 42.3467C216.848 42.2191 216.688 42.0618 216.533 41.875L215.877 42.6338C216.046 42.8753 216.246 43.0781 216.479 43.2422C216.715 43.4062 216.962 43.5361 217.217 43.6318C217.467 43.7321 217.716 43.8027 217.962 43.8438C218.208 43.8893 218.427 43.9121 218.618 43.9121C219.083 43.9121 219.507 43.8438 219.89 43.707C220.272 43.5703 220.603 43.3698 220.881 43.1055C221.154 42.8411 221.366 42.5199 221.517 42.1416C221.672 41.7633 221.749 41.3304 221.749 40.8428V33.6035H220.601L220.539 34.4102C220.452 34.3008 220.359 34.2005 220.259 34.1094C220.163 34.0182 220.061 33.9385 219.951 33.8701C219.751 33.738 219.525 33.6377 219.274 33.5693C219.028 33.501 218.757 33.4668 218.461 33.4668C218.001 33.4668 217.588 33.5602 217.224 33.7471C216.859 33.9339 216.549 34.1937 216.294 34.5264C216.039 34.859 215.843 35.2578 215.706 35.7227C215.574 36.1829 215.508 36.6888 215.508 37.2402ZM216.772 37.3838V37.2402C216.772 36.8802 216.809 36.5384 216.882 36.2148C216.959 35.8867 217.08 35.5973 217.244 35.3467C217.404 35.1006 217.609 34.9046 217.859 34.7588C218.115 34.613 218.42 34.54 218.775 34.54C218.985 34.54 219.176 34.5674 219.35 34.6221C219.523 34.6722 219.68 34.7428 219.821 34.834C219.963 34.9297 220.088 35.0413 220.197 35.1689C220.307 35.2965 220.402 35.4378 220.484 35.5928V38.9834C220.402 39.1429 220.307 39.2887 220.197 39.4209C220.088 39.5531 219.965 39.667 219.828 39.7627C219.687 39.8584 219.527 39.9336 219.35 39.9883C219.176 40.0384 218.98 40.0635 218.762 40.0635C218.411 40.0635 218.11 39.9928 217.859 39.8516C217.609 39.7057 217.404 39.5098 217.244 39.2637C217.08 39.0176 216.959 38.7327 216.882 38.4092C216.809 38.0856 216.772 37.7438 216.772 37.3838ZM230.409 41H231.728V40.8906C231.646 40.6855 231.582 40.4463 231.537 40.1729C231.491 39.8949 231.468 39.6328 231.468 39.3867V35.9482C231.468 35.5335 231.393 35.1712 231.243 34.8613C231.092 34.5514 230.887 34.2917 230.628 34.082C230.363 33.877 230.051 33.7243 229.691 33.624C229.331 33.5192 228.941 33.4668 228.522 33.4668C228.062 33.4668 227.649 33.5306 227.285 33.6582C226.925 33.7858 226.619 33.9521 226.369 34.1572C226.114 34.3669 225.918 34.6016 225.781 34.8613C225.649 35.1211 225.58 35.3854 225.576 35.6543H226.847C226.847 35.4993 226.884 35.3512 226.957 35.21C227.034 35.0641 227.141 34.9388 227.278 34.834C227.415 34.7292 227.581 34.6449 227.777 34.5811C227.977 34.5173 228.203 34.4854 228.454 34.4854C228.723 34.4854 228.964 34.5195 229.178 34.5879C229.397 34.6562 229.582 34.752 229.732 34.875C229.882 35.0026 229.999 35.1553 230.081 35.333C230.163 35.5107 230.204 35.7113 230.204 35.9346V36.5156H228.823C228.308 36.5156 227.841 36.5658 227.421 36.666C227.007 36.7663 226.651 36.9167 226.355 37.1172C226.059 37.3223 225.829 37.5775 225.665 37.8828C225.505 38.1882 225.425 38.5436 225.425 38.9492C225.425 39.2591 225.485 39.5485 225.603 39.8174C225.726 40.0817 225.899 40.3096 226.123 40.501C226.341 40.6969 226.608 40.8519 226.922 40.9658C227.241 41.0798 227.597 41.1367 227.989 41.1367C228.23 41.1367 228.458 41.1117 228.672 41.0615C228.887 41.0114 229.089 40.943 229.281 40.8564C229.468 40.7699 229.639 40.6696 229.794 40.5557C229.953 40.4417 230.097 40.321 230.224 40.1934C230.238 40.3483 230.258 40.4987 230.286 40.6445C230.318 40.7858 230.359 40.9043 230.409 41ZM228.173 40.0361C227.927 40.0361 227.711 40.0042 227.524 39.9404C227.337 39.8766 227.182 39.7878 227.059 39.6738C226.936 39.5645 226.843 39.4323 226.779 39.2773C226.72 39.1224 226.69 38.9538 226.69 38.7715C226.69 38.5801 226.724 38.4092 226.793 38.2588C226.865 38.1084 226.97 37.9785 227.107 37.8691C227.298 37.7142 227.556 37.6003 227.879 37.5273C228.208 37.4499 228.59 37.4111 229.028 37.4111H230.204V38.9082C230.131 39.054 230.031 39.1953 229.903 39.332C229.775 39.4642 229.625 39.5827 229.452 39.6875C229.274 39.7923 229.078 39.8766 228.864 39.9404C228.65 40.0042 228.42 40.0361 228.173 40.0361ZM238.351 31.8125H237.079V33.6035H235.138V34.5811H237.079V38.6006C237.079 39.0563 237.139 39.446 237.257 39.7695C237.38 40.0885 237.546 40.3483 237.756 40.5488C237.966 40.7539 238.212 40.9043 238.494 41C238.781 41.0911 239.089 41.1367 239.417 41.1367C239.613 41.1367 239.809 41.1276 240.005 41.1094C240.206 41.0911 240.395 41.0638 240.572 41.0273C240.75 40.9954 240.914 40.9567 241.065 40.9111C241.215 40.861 241.343 40.804 241.447 40.7402L241.27 39.8447C241.192 39.863 241.092 39.8857 240.969 39.9131C240.85 39.9359 240.723 39.9587 240.586 39.9814C240.445 40.0042 240.301 40.0247 240.155 40.043C240.01 40.0566 239.868 40.0635 239.732 40.0635C239.545 40.0635 239.367 40.0407 239.198 39.9951C239.034 39.9495 238.889 39.8698 238.761 39.7559C238.633 39.6465 238.533 39.4984 238.46 39.3115C238.387 39.1247 238.351 38.8877 238.351 38.6006V34.5811H241.167V33.6035H238.351V31.8125ZM245.363 33.6035V34.7041H247.879V39.9062H245.363V41H251.556V39.9062H249.143V33.6035H245.363ZM247.715 31.6621C247.715 31.8672 247.776 32.0381 247.899 32.1748C248.027 32.3115 248.218 32.3799 248.473 32.3799C248.724 32.3799 248.913 32.3115 249.041 32.1748C249.168 32.0381 249.232 31.8672 249.232 31.6621C249.232 31.5482 249.214 31.4434 249.178 31.3477C249.141 31.252 249.086 31.1722 249.013 31.1084C248.954 31.0492 248.879 31.0036 248.788 30.9717C248.697 30.9352 248.592 30.917 248.473 30.917C248.355 30.917 248.248 30.9352 248.152 30.9717C248.061 31.0036 247.986 31.0492 247.927 31.1084C247.854 31.1768 247.799 31.2588 247.762 31.3545C247.731 31.4502 247.715 31.5527 247.715 31.6621ZM254.618 37.2334V37.3838C254.618 37.917 254.695 38.4115 254.85 38.8672C255.005 39.3229 255.228 39.7194 255.52 40.0566C255.807 40.3939 256.158 40.6582 256.573 40.8496C256.992 41.041 257.464 41.1367 257.988 41.1367C258.507 41.1367 258.974 41.041 259.389 40.8496C259.804 40.6582 260.157 40.3939 260.449 40.0566C260.736 39.7194 260.957 39.3229 261.112 38.8672C261.267 38.4115 261.344 37.917 261.344 37.3838V37.2334C261.344 36.7002 261.267 36.2057 261.112 35.75C260.957 35.2897 260.736 34.891 260.449 34.5537C260.157 34.2165 259.801 33.9521 259.382 33.7607C258.968 33.5648 258.498 33.4668 257.974 33.4668C257.454 33.4668 256.987 33.5648 256.573 33.7607C256.158 33.9521 255.807 34.2165 255.52 34.5537C255.228 34.891 255.005 35.2897 254.85 35.75C254.695 36.2057 254.618 36.7002 254.618 37.2334ZM255.882 37.3838V37.2334C255.882 36.8734 255.926 36.5293 256.012 36.2012C256.099 35.8685 256.231 35.5768 256.409 35.3262C256.582 35.0755 256.798 34.8773 257.058 34.7314C257.318 34.5811 257.623 34.5059 257.974 34.5059C258.325 34.5059 258.63 34.5811 258.89 34.7314C259.154 34.8773 259.375 35.0755 259.553 35.3262C259.726 35.5768 259.856 35.8685 259.943 36.2012C260.034 36.5293 260.079 36.8734 260.079 37.2334V37.3838C260.079 37.7484 260.036 38.097 259.95 38.4297C259.863 38.7578 259.733 39.0472 259.56 39.2979C259.382 39.5485 259.161 39.7467 258.897 39.8926C258.637 40.0384 258.334 40.1113 257.988 40.1113C257.637 40.1113 257.329 40.0384 257.065 39.8926C256.801 39.7467 256.582 39.5485 256.409 39.2979C256.231 39.0472 256.099 38.7578 256.012 38.4297C255.926 38.097 255.882 37.7484 255.882 37.3838ZM264.781 41H266.046V35.6953C266.132 35.5358 266.233 35.39 266.347 35.2578C266.465 35.1257 266.593 35.0094 266.729 34.9092C266.898 34.7952 267.083 34.7064 267.283 34.6426C267.484 34.5742 267.7 34.54 267.933 34.54C268.201 34.54 268.438 34.5719 268.644 34.6357C268.853 34.6995 269.031 34.8021 269.177 34.9434C269.318 35.0846 269.425 35.2692 269.498 35.4971C269.571 35.7249 269.607 36.0029 269.607 36.3311V41H270.872V36.3037C270.872 35.8115 270.811 35.3877 270.688 35.0322C270.569 34.6722 270.398 34.376 270.175 34.1436C269.951 33.9111 269.68 33.7402 269.361 33.6309C269.047 33.5215 268.696 33.4668 268.309 33.4668C268.021 33.4714 267.748 33.5146 267.488 33.5967C267.233 33.6742 266.996 33.7858 266.777 33.9316C266.632 34.0273 266.493 34.1413 266.36 34.2734C266.233 34.401 266.114 34.5423 266.005 34.6973L265.916 33.6035H264.781V41Z" fill="white"/>
<path d="M1.5293 54.2031V55.6182H4.52637V65.5938H1.5293V67H9.26367V65.5938H6.19629V55.6182H9.26367V54.2031H1.5293ZM14.1398 67H15.7658V60.1797C15.8771 59.9746 16.0061 59.7871 16.1525 59.6172C16.3049 59.4473 16.4689 59.2979 16.6447 59.1689C16.8615 59.0225 17.0988 58.9082 17.3566 58.8262C17.6145 58.7383 17.8928 58.6943 18.1916 58.6943C18.5373 58.6943 18.842 58.7354 19.1057 58.8174C19.3752 58.8994 19.6037 59.0312 19.7912 59.2129C19.9729 59.3945 20.1105 59.6318 20.2043 59.9248C20.298 60.2178 20.3449 60.5752 20.3449 60.9971V67H21.9709V60.9619C21.9709 60.3291 21.8918 59.7842 21.7336 59.3271C21.5813 58.8643 21.3615 58.4834 21.0744 58.1846C20.7873 57.8857 20.4387 57.666 20.0285 57.5254C19.6242 57.3848 19.173 57.3145 18.675 57.3145C18.3059 57.3203 17.9543 57.376 17.6203 57.4814C17.2922 57.5811 16.9875 57.7246 16.7063 57.9121C16.5188 58.0352 16.34 58.1816 16.1701 58.3516C16.0061 58.5156 15.8537 58.6973 15.7131 58.8965L15.5988 57.4902H14.1398V67ZM26.4516 62.166V62.3506C26.4516 63.0303 26.5395 63.666 26.7152 64.2578C26.891 64.8438 27.143 65.3535 27.4711 65.7871C27.7934 66.2207 28.1889 66.5605 28.6576 66.8066C29.1264 67.0527 29.6508 67.1758 30.2309 67.1758C30.5766 67.1758 30.8988 67.1377 31.1977 67.0615C31.4965 66.9912 31.7689 66.8887 32.015 66.7539C32.1732 66.666 32.3197 66.5635 32.4545 66.4463C32.5951 66.3291 32.727 66.2002 32.85 66.0596V66.877C32.85 67.2871 32.7914 67.6504 32.6742 67.9668C32.557 68.2832 32.39 68.5469 32.1732 68.7578C31.9506 68.9746 31.684 69.1387 31.3734 69.25C31.0629 69.3613 30.7143 69.417 30.3275 69.417C30.1107 69.417 29.8939 69.3936 29.6771 69.3467C29.4604 69.3057 29.2436 69.2354 29.0268 69.1357C28.81 69.0361 28.5961 68.9014 28.3852 68.7314C28.1742 68.5674 27.9691 68.3652 27.7699 68.125L26.9262 69.1006C27.143 69.4111 27.4008 69.6719 27.6996 69.8828C28.0043 70.0938 28.3207 70.2607 28.6488 70.3838C28.9711 70.5127 29.2904 70.6035 29.6068 70.6562C29.9232 70.7148 30.2045 70.7441 30.4506 70.7441C31.0482 70.7441 31.5932 70.6562 32.0854 70.4805C32.5775 70.3047 33.0023 70.0469 33.3598 69.707C33.7113 69.3672 33.9838 68.9541 34.1771 68.4678C34.3764 67.9814 34.476 67.4248 34.476 66.7979V57.4902H32.9994L32.9203 58.5273C32.809 58.3867 32.6889 58.2578 32.56 58.1406C32.4369 58.0234 32.3051 57.9209 32.1645 57.833C31.9066 57.6631 31.6166 57.5342 31.2943 57.4463C30.9779 57.3584 30.6293 57.3145 30.2484 57.3145C29.6566 57.3145 29.1264 57.4346 28.6576 57.6748C28.1889 57.915 27.7904 58.249 27.4623 58.6768C27.1342 59.1045 26.8822 59.6172 26.7064 60.2148C26.5365 60.8066 26.4516 61.457 26.4516 62.166ZM28.0775 62.3506V62.166C28.0775 61.7031 28.1244 61.2637 28.2182 60.8477C28.3178 60.4258 28.473 60.0537 28.684 59.7314C28.8891 59.415 29.1527 59.1631 29.475 58.9756C29.8031 58.7881 30.1957 58.6943 30.6527 58.6943C30.9223 58.6943 31.1684 58.7295 31.391 58.7998C31.6137 58.8643 31.8158 58.9551 31.9975 59.0723C32.1791 59.1953 32.3402 59.3389 32.4809 59.5029C32.6215 59.667 32.7445 59.8486 32.85 60.0479V64.4072C32.7445 64.6123 32.6215 64.7998 32.4809 64.9697C32.3402 65.1396 32.182 65.2861 32.0063 65.4092C31.8246 65.5322 31.6195 65.6289 31.391 65.6992C31.1684 65.7637 30.9164 65.7959 30.6352 65.7959C30.184 65.7959 29.7973 65.7051 29.475 65.5234C29.1527 65.3359 28.8891 65.084 28.684 64.7676C28.473 64.4512 28.3178 64.085 28.2182 63.6689C28.1244 63.2529 28.0775 62.8135 28.0775 62.3506ZM45.5924 57.3145C44.901 57.3145 44.2828 57.4668 43.7379 57.7715C43.1988 58.0703 42.7359 58.4805 42.3492 59.002L42.3404 58.7646L42.2701 57.4902H40.7232V67H42.358V60.9004C42.4635 60.6074 42.5953 60.3438 42.7535 60.1094C42.9176 59.8691 43.108 59.667 43.3248 59.5029C43.565 59.3154 43.8463 59.1748 44.1686 59.0811C44.4908 58.9814 44.8512 58.9316 45.2496 58.9316C45.5602 58.9316 45.8561 58.9492 46.1373 58.9844C46.4244 59.0137 46.7262 59.0635 47.0426 59.1338L47.2623 57.543C47.0982 57.4727 46.8521 57.417 46.524 57.376C46.2018 57.335 45.8912 57.3145 45.5924 57.3145ZM56.1727 67.1758C57.0984 67.1758 57.8748 66.9912 58.5018 66.6221C59.1346 66.2471 59.6092 65.8193 59.9256 65.3389L58.9324 64.5654C58.6336 64.9521 58.2586 65.2627 57.8074 65.4971C57.3563 65.7314 56.8406 65.8486 56.2605 65.8486C55.8211 65.8486 55.4197 65.7666 55.0564 65.6025C54.6932 65.4385 54.3826 65.2129 54.1248 64.9258C53.8729 64.6562 53.6736 64.3457 53.5271 63.9941C53.3865 63.6426 53.2957 63.2354 53.2547 62.7725V62.7109H60.0486V61.9814C60.0486 61.3193 59.9637 60.7041 59.7938 60.1357C59.6297 59.5674 59.3777 59.0723 59.0379 58.6504C58.698 58.2344 58.2703 57.9092 57.7547 57.6748C57.2449 57.4346 56.6473 57.3145 55.9617 57.3145C55.4168 57.3145 54.8836 57.4258 54.3621 57.6484C53.8465 57.8711 53.3865 58.1904 52.9822 58.6064C52.5721 59.0283 52.2439 59.5439 51.9979 60.1533C51.7518 60.7568 51.6287 61.4424 51.6287 62.21V62.5791C51.6287 63.2412 51.74 63.8535 51.9627 64.416C52.1854 64.9785 52.4959 65.4648 52.8943 65.875C53.2928 66.2852 53.7703 66.6045 54.327 66.833C54.8895 67.0615 55.5047 67.1758 56.1727 67.1758ZM55.9617 58.6504C56.3777 58.6504 56.7352 58.7266 57.034 58.8789C57.3387 59.0312 57.5906 59.2305 57.7898 59.4766C57.9891 59.7227 58.1443 60.0156 58.2557 60.3555C58.367 60.6895 58.4227 61.0029 58.4227 61.2959V61.375H53.3074C53.3719 60.9355 53.4832 60.5488 53.6414 60.2148C53.8055 59.875 54.0047 59.5879 54.2391 59.3535C54.4734 59.125 54.7371 58.9521 55.0301 58.835C55.323 58.7119 55.6336 58.6504 55.9617 58.6504ZM64.2744 62.166V62.3506C64.2744 63.0303 64.3652 63.666 64.5469 64.2578C64.7285 64.8438 64.9834 65.3535 65.3115 65.7871C65.6396 66.2207 66.0352 66.5605 66.498 66.8066C66.9668 67.0527 67.4883 67.1758 68.0625 67.1758C68.6484 67.1758 69.1611 67.0762 69.6006 66.877C70.04 66.6777 70.418 66.3848 70.7344 65.998L70.8047 67H72.2988V53.5H70.6729V58.4307C70.3623 58.0674 69.9932 57.792 69.5654 57.6045C69.1436 57.4111 68.6484 57.3145 68.0801 57.3145C67.5 57.3145 66.9756 57.4346 66.5068 57.6748C66.0381 57.915 65.6396 58.249 65.3115 58.6768C64.9775 59.1045 64.7197 59.6172 64.5381 60.2148C64.3623 60.8066 64.2744 61.457 64.2744 62.166ZM65.9004 62.3506V62.166C65.9004 61.7031 65.9502 61.2637 66.0498 60.8477C66.1494 60.4258 66.3047 60.0537 66.5156 59.7314C66.7207 59.415 66.9844 59.1631 67.3066 58.9756C67.6348 58.7881 68.0273 58.6943 68.4844 58.6943C69.0176 58.6943 69.4629 58.8203 69.8203 59.0723C70.1777 59.3184 70.4619 59.6348 70.6729 60.0215V64.4336C70.4619 64.8496 70.1777 65.1807 69.8203 65.4268C69.4629 65.6729 69.0117 65.7959 68.4668 65.7959C68.0156 65.7959 67.6289 65.7051 67.3066 65.5234C66.9844 65.3359 66.7207 65.084 66.5156 64.7676C66.3047 64.4512 66.1494 64.085 66.0498 63.6689C65.9502 63.2529 65.9004 62.8135 65.9004 62.3506ZM77.4475 57.4902V58.9053H80.6818V65.5938H77.4475V67H85.4104V65.5938H82.3078V57.4902H77.4475ZM80.4709 54.9941C80.4709 55.2578 80.55 55.4775 80.7082 55.6533C80.8723 55.8291 81.1184 55.917 81.4465 55.917C81.7688 55.917 82.0119 55.8291 82.176 55.6533C82.34 55.4775 82.4221 55.2578 82.4221 54.9941C82.4221 54.8477 82.3986 54.7129 82.3518 54.5898C82.3049 54.4668 82.2346 54.3643 82.1408 54.2822C82.0647 54.2061 81.968 54.1475 81.8508 54.1064C81.7336 54.0596 81.5988 54.0361 81.4465 54.0361C81.2941 54.0361 81.1564 54.0596 81.0334 54.1064C80.9162 54.1475 80.8195 54.2061 80.7434 54.2822C80.6496 54.3701 80.5793 54.4756 80.5324 54.5986C80.4914 54.7217 80.4709 54.8535 80.4709 54.9941ZM94.0043 67.1758C94.9301 67.1758 95.7064 66.9912 96.3334 66.6221C96.9662 66.2471 97.4408 65.8193 97.7572 65.3389L96.7641 64.5654C96.4652 64.9521 96.0902 65.2627 95.6391 65.4971C95.1879 65.7314 94.6723 65.8486 94.0922 65.8486C93.6527 65.8486 93.2514 65.7666 92.8881 65.6025C92.5248 65.4385 92.2143 65.2129 91.9564 64.9258C91.7045 64.6562 91.5053 64.3457 91.3588 63.9941C91.2182 63.6426 91.1273 63.2354 91.0863 62.7725V62.7109H97.8803V61.9814C97.8803 61.3193 97.7953 60.7041 97.6254 60.1357C97.4613 59.5674 97.2094 59.0723 96.8695 58.6504C96.5297 58.2344 96.102 57.9092 95.5863 57.6748C95.0766 57.4346 94.4789 57.3145 93.7934 57.3145C93.2484 57.3145 92.7152 57.4258 92.1937 57.6484C91.6781 57.8711 91.2182 58.1904 90.8139 58.6064C90.4037 59.0283 90.0756 59.5439 89.8295 60.1533C89.5834 60.7568 89.4604 61.4424 89.4604 62.21V62.5791C89.4604 63.2412 89.5717 63.8535 89.7943 64.416C90.017 64.9785 90.3275 65.4648 90.726 65.875C91.1244 66.2852 91.602 66.6045 92.1586 66.833C92.7211 67.0615 93.3363 67.1758 94.0043 67.1758ZM93.7934 58.6504C94.2094 58.6504 94.5668 58.7266 94.8656 58.8789C95.1703 59.0312 95.4223 59.2305 95.6215 59.4766C95.8207 59.7227 95.976 60.0156 96.0873 60.3555C96.1986 60.6895 96.2543 61.0029 96.2543 61.2959V61.375H91.1391C91.2035 60.9355 91.3148 60.5488 91.473 60.2148C91.6371 59.875 91.8363 59.5879 92.0707 59.3535C92.3051 59.125 92.5687 58.9521 92.8617 58.835C93.1547 58.7119 93.4652 58.6504 93.7934 58.6504ZM102.414 67H104.04V60.1797C104.151 59.9746 104.28 59.7871 104.426 59.6172C104.579 59.4473 104.743 59.2979 104.919 59.1689C105.135 59.0225 105.373 58.9082 105.63 58.8262C105.888 58.7383 106.167 58.6943 106.465 58.6943C106.811 58.6943 107.116 58.7354 107.379 58.8174C107.649 58.8994 107.878 59.0312 108.065 59.2129C108.247 59.3945 108.384 59.6318 108.478 59.9248C108.572 60.2178 108.619 60.5752 108.619 60.9971V67H110.245V60.9619C110.245 60.3291 110.166 59.7842 110.007 59.3271C109.855 58.8643 109.635 58.4834 109.348 58.1846C109.061 57.8857 108.713 57.666 108.302 57.5254C107.898 57.3848 107.447 57.3145 106.949 57.3145C106.58 57.3203 106.228 57.376 105.894 57.4814C105.566 57.5811 105.261 57.7246 104.98 57.9121C104.793 58.0352 104.614 58.1816 104.444 58.3516C104.28 58.5156 104.128 58.6973 103.987 58.8965L103.873 57.4902H102.414V67ZM118.874 55.1875H117.239V57.4902H114.743V58.7471H117.239V63.915C117.239 64.501 117.315 65.002 117.468 65.418C117.626 65.8281 117.84 66.1621 118.109 66.4199C118.379 66.6836 118.695 66.877 119.058 67C119.428 67.1172 119.823 67.1758 120.245 67.1758C120.497 67.1758 120.749 67.1641 121.001 67.1406C121.259 67.1172 121.502 67.082 121.73 67.0352C121.959 66.9941 122.17 66.9443 122.363 66.8857C122.556 66.8213 122.721 66.748 122.855 66.666L122.627 65.5146C122.527 65.5381 122.398 65.5674 122.24 65.6025C122.088 65.6318 121.924 65.6611 121.748 65.6904C121.566 65.7197 121.382 65.7461 121.194 65.7695C121.007 65.7871 120.825 65.7959 120.649 65.7959C120.409 65.7959 120.18 65.7666 119.964 65.708C119.753 65.6494 119.565 65.5469 119.401 65.4004C119.237 65.2598 119.108 65.0693 119.014 64.8291C118.921 64.5889 118.874 64.2842 118.874 63.915V58.7471H122.495V57.4902H118.874V55.1875Z" fill="white"/>
<path d="M242.07 56.127V55.0469H234.687V56.127H237.763V65H238.993V56.127H242.07ZM250.039 65H251.187V57.6035H249.916V62.9082C249.847 63.0677 249.761 63.2158 249.656 63.3525C249.556 63.4847 249.437 63.5986 249.301 63.6943C249.137 63.8128 248.943 63.9062 248.72 63.9746C248.496 64.0384 248.243 64.0703 247.961 64.0703C247.719 64.0703 247.505 64.0384 247.318 63.9746C247.136 63.9108 246.981 63.7992 246.853 63.6396C246.726 63.4847 246.63 63.2751 246.566 63.0107C246.502 62.7464 246.471 62.4137 246.471 62.0127V57.6035H245.206V61.999C245.206 62.5505 245.265 63.0244 245.384 63.4209C245.507 63.8128 245.68 64.1364 245.903 64.3916C246.126 64.6468 246.395 64.8359 246.71 64.959C247.024 65.0775 247.375 65.1367 247.762 65.1367C248.246 65.1367 248.672 65.0365 249.041 64.8359C249.41 64.6309 249.718 64.346 249.964 63.9814L250.039 65ZM254.973 65H256.238V59.6953C256.324 59.5358 256.425 59.39 256.538 59.2578C256.657 59.1257 256.785 59.0094 256.921 58.9092C257.09 58.7952 257.274 58.7064 257.475 58.6426C257.676 58.5742 257.892 58.54 258.124 58.54C258.393 58.54 258.63 58.5719 258.835 58.6357C259.045 58.6995 259.223 58.8021 259.369 58.9434C259.51 59.0846 259.617 59.2692 259.69 59.4971C259.763 59.7249 259.799 60.0029 259.799 60.3311V65H261.064V60.3037C261.064 59.8115 261.002 59.3877 260.879 59.0322C260.761 58.6722 260.59 58.376 260.367 58.1436C260.143 57.9111 259.872 57.7402 259.553 57.6309C259.239 57.5215 258.888 57.4668 258.5 57.4668C258.213 57.4714 257.94 57.5146 257.68 57.5967C257.425 57.6742 257.188 57.7858 256.969 57.9316C256.823 58.0273 256.684 58.1413 256.552 58.2734C256.425 58.401 256.306 58.5423 256.197 58.6973L256.108 57.6035H254.973V65ZM269.642 65H270.961V64.8906C270.879 64.6855 270.815 64.4463 270.77 64.1729C270.724 63.8949 270.701 63.6328 270.701 63.3867V59.9482C270.701 59.5335 270.626 59.1712 270.476 58.8613C270.325 58.5514 270.12 58.2917 269.86 58.082C269.596 57.877 269.284 57.7243 268.924 57.624C268.564 57.5192 268.174 57.4668 267.755 57.4668C267.295 57.4668 266.882 57.5306 266.518 57.6582C266.158 57.7858 265.852 57.9521 265.602 58.1572C265.346 58.3669 265.15 58.6016 265.014 58.8613C264.882 59.1211 264.813 59.3854 264.809 59.6543H266.08C266.08 59.4993 266.117 59.3512 266.189 59.21C266.267 59.0641 266.374 58.9388 266.511 58.834C266.647 58.7292 266.814 58.6449 267.01 58.5811C267.21 58.5173 267.436 58.4854 267.687 58.4854C267.955 58.4854 268.197 58.5195 268.411 58.5879C268.63 58.6562 268.814 58.752 268.965 58.875C269.115 59.0026 269.231 59.1553 269.313 59.333C269.396 59.5107 269.437 59.7113 269.437 59.9346V60.5156H268.056C267.541 60.5156 267.074 60.5658 266.654 60.666C266.24 60.7663 265.884 60.9167 265.588 61.1172C265.292 61.3223 265.062 61.5775 264.897 61.8828C264.738 62.1882 264.658 62.5436 264.658 62.9492C264.658 63.2591 264.717 63.5485 264.836 63.8174C264.959 64.0817 265.132 64.3096 265.355 64.501C265.574 64.6969 265.841 64.8519 266.155 64.9658C266.474 65.0798 266.83 65.1367 267.222 65.1367C267.463 65.1367 267.691 65.1117 267.905 65.0615C268.119 65.0114 268.322 64.943 268.514 64.8564C268.701 64.7699 268.871 64.6696 269.026 64.5557C269.186 64.4417 269.329 64.321 269.457 64.1934C269.471 64.3483 269.491 64.4987 269.519 64.6445C269.55 64.7858 269.591 64.9043 269.642 65ZM267.406 64.0361C267.16 64.0361 266.944 64.0042 266.757 63.9404C266.57 63.8766 266.415 63.7878 266.292 63.6738C266.169 63.5645 266.076 63.4323 266.012 63.2773C265.952 63.1224 265.923 62.9538 265.923 62.7715C265.923 62.5801 265.957 62.4092 266.025 62.2588C266.098 62.1084 266.203 61.9785 266.34 61.8691C266.531 61.7142 266.789 61.6003 267.112 61.5273C267.44 61.4499 267.823 61.4111 268.261 61.4111H269.437V62.9082C269.364 63.054 269.263 63.1953 269.136 63.332C269.008 63.4642 268.858 63.5827 268.685 63.6875C268.507 63.7923 268.311 63.8766 268.097 63.9404C267.882 64.0042 267.652 64.0361 267.406 64.0361Z" fill="white"/>
<path d="M2.19727 91H3.86719L5.43164 81.9033L5.52832 81.3584L5.61621 81.8945L7.17188 91H8.83301L10.3887 78.2031H8.85059L7.92773 87.0098L7.875 87.5371L7.77832 87.0186L6.22266 78.2031H4.80762L3.26074 87.0098L3.16406 87.5371L3.11133 87.0273L2.18848 78.2031H0.641602L2.19727 91ZM18.341 91.1758C19.2668 91.1758 20.0432 90.9912 20.6701 90.6221C21.3029 90.2471 21.7775 89.8193 22.0939 89.3389L21.1008 88.5654C20.802 88.9521 20.427 89.2627 19.9758 89.4971C19.5246 89.7314 19.009 89.8486 18.4289 89.8486C17.9895 89.8486 17.5881 89.7666 17.2248 89.6025C16.8615 89.4385 16.551 89.2129 16.2932 88.9258C16.0412 88.6562 15.842 88.3457 15.6955 87.9941C15.5549 87.6426 15.4641 87.2354 15.423 86.7725V86.7109H22.217V85.9814C22.217 85.3193 22.132 84.7041 21.9621 84.1357C21.798 83.5674 21.5461 83.0723 21.2063 82.6504C20.8664 82.2344 20.4387 81.9092 19.923 81.6748C19.4133 81.4346 18.8156 81.3145 18.1301 81.3145C17.5852 81.3145 17.052 81.4258 16.5305 81.6484C16.0148 81.8711 15.5549 82.1904 15.1506 82.6064C14.7404 83.0283 14.4123 83.5439 14.1662 84.1533C13.9201 84.7568 13.7971 85.4424 13.7971 86.21V86.5791C13.7971 87.2412 13.9084 87.8535 14.1311 88.416C14.3537 88.9785 14.6643 89.4648 15.0627 89.875C15.4611 90.2852 15.9387 90.6045 16.4953 90.833C17.0578 91.0615 17.673 91.1758 18.341 91.1758ZM18.1301 82.6504C18.5461 82.6504 18.9035 82.7266 19.2023 82.8789C19.507 83.0312 19.759 83.2305 19.9582 83.4766C20.1574 83.7227 20.3127 84.0156 20.424 84.3555C20.5354 84.6895 20.591 85.0029 20.591 85.2959V85.375H15.4758C15.5402 84.9355 15.6516 84.5488 15.8098 84.2148C15.9738 83.875 16.173 83.5879 16.4074 83.3535C16.6418 83.125 16.9055 82.9521 17.1984 82.835C17.4914 82.7119 17.802 82.6504 18.1301 82.6504ZM27.0053 81.4902V82.9053H30.2396V89.5938H27.0053V91H34.9682V89.5938H31.8656V81.4902H27.0053ZM30.0287 78.9941C30.0287 79.2578 30.1078 79.4775 30.266 79.6533C30.4301 79.8291 30.6762 79.917 31.0043 79.917C31.3266 79.917 31.5697 79.8291 31.7338 79.6533C31.8979 79.4775 31.9799 79.2578 31.9799 78.9941C31.9799 78.8477 31.9564 78.7129 31.9096 78.5898C31.8627 78.4668 31.7924 78.3643 31.6986 78.2822C31.6225 78.2061 31.5258 78.1475 31.4086 78.1064C31.2914 78.0596 31.1566 78.0361 31.0043 78.0361C30.852 78.0361 30.7143 78.0596 30.5912 78.1064C30.474 78.1475 30.3773 78.2061 30.3012 78.2822C30.2074 78.3701 30.1371 78.4756 30.0902 78.5986C30.0492 78.7217 30.0287 78.8535 30.0287 78.9941ZM39.0621 86.166V86.3506C39.0621 87.0303 39.15 87.666 39.3258 88.2578C39.5016 88.8438 39.7535 89.3535 40.0816 89.7871C40.4039 90.2207 40.7994 90.5605 41.2682 90.8066C41.7369 91.0527 42.2613 91.1758 42.8414 91.1758C43.1871 91.1758 43.5094 91.1377 43.8082 91.0615C44.107 90.9912 44.3795 90.8887 44.6256 90.7539C44.7838 90.666 44.9303 90.5635 45.065 90.4463C45.2057 90.3291 45.3375 90.2002 45.4605 90.0596V90.877C45.4605 91.2871 45.402 91.6504 45.2848 91.9668C45.1676 92.2832 45.0006 92.5469 44.7838 92.7578C44.5611 92.9746 44.2945 93.1387 43.984 93.25C43.6734 93.3613 43.3248 93.417 42.9381 93.417C42.7213 93.417 42.5045 93.3936 42.2877 93.3467C42.0709 93.3057 41.8541 93.2354 41.6373 93.1357C41.4205 93.0361 41.2066 92.9014 40.9957 92.7314C40.7848 92.5674 40.5797 92.3652 40.3805 92.125L39.5367 93.1006C39.7535 93.4111 40.0113 93.6719 40.3102 93.8828C40.6148 94.0938 40.9313 94.2607 41.2594 94.3838C41.5816 94.5127 41.901 94.6035 42.2174 94.6562C42.5338 94.7148 42.815 94.7441 43.0611 94.7441C43.6588 94.7441 44.2037 94.6562 44.6959 94.4805C45.1881 94.3047 45.6129 94.0469 45.9703 93.707C46.3219 93.3672 46.5943 92.9541 46.7877 92.4678C46.9869 91.9814 47.0865 91.4248 47.0865 90.7979V81.4902H45.61L45.5309 82.5273C45.4195 82.3867 45.2994 82.2578 45.1705 82.1406C45.0475 82.0234 44.9156 81.9209 44.775 81.833C44.5172 81.6631 44.2271 81.5342 43.9049 81.4463C43.5885 81.3584 43.2398 81.3145 42.859 81.3145C42.2672 81.3145 41.7369 81.4346 41.2682 81.6748C40.7994 81.915 40.401 82.249 40.0729 82.6768C39.7447 83.1045 39.4928 83.6172 39.317 84.2148C39.1471 84.8066 39.0621 85.457 39.0621 86.166ZM40.6881 86.3506V86.166C40.6881 85.7031 40.735 85.2637 40.8287 84.8477C40.9283 84.4258 41.0836 84.0537 41.2945 83.7314C41.4996 83.415 41.7633 83.1631 42.0855 82.9756C42.4137 82.7881 42.8063 82.6943 43.2633 82.6943C43.5328 82.6943 43.7789 82.7295 44.0016 82.7998C44.2242 82.8643 44.4264 82.9551 44.608 83.0723C44.7896 83.1953 44.9508 83.3389 45.0914 83.5029C45.232 83.667 45.3551 83.8486 45.4605 84.0479V88.4072C45.3551 88.6123 45.232 88.7998 45.0914 88.9697C44.9508 89.1396 44.7926 89.2861 44.6168 89.4092C44.4352 89.5322 44.2301 89.6289 44.0016 89.6992C43.7789 89.7637 43.527 89.7959 43.2457 89.7959C42.7945 89.7959 42.4078 89.7051 42.0855 89.5234C41.7633 89.3359 41.4996 89.084 41.2945 88.7676C41.0836 88.4512 40.9283 88.085 40.8287 87.6689C40.735 87.2529 40.6881 86.8135 40.6881 86.3506ZM53.5975 82.9053V77.5H51.9715V91H53.5975V84.0918C53.7146 83.9043 53.8465 83.7344 53.993 83.582C54.1453 83.4238 54.3094 83.2861 54.4852 83.1689C54.7078 83.0166 54.951 82.8994 55.2146 82.8174C55.4783 82.7354 55.7566 82.6943 56.0496 82.6943C56.407 82.6885 56.7234 82.7383 56.9988 82.8438C57.2742 82.9434 57.5027 83.0957 57.6844 83.3008C57.8543 83.4883 57.9832 83.7256 58.0711 84.0127C58.159 84.2939 58.2029 84.6221 58.2029 84.9971V91H59.8289V85.0146C59.8289 84.376 59.7498 83.8252 59.5916 83.3623C59.4393 82.8936 59.2195 82.5068 58.9324 82.2021C58.6453 81.8975 58.2967 81.6748 57.8865 81.5342C57.4822 81.3877 57.0311 81.3145 56.533 81.3145C56.1521 81.3203 55.7918 81.376 55.452 81.4814C55.118 81.5869 54.8104 81.7422 54.5291 81.9473C54.3533 82.0703 54.1863 82.2139 54.0281 82.3779C53.8699 82.5361 53.7264 82.7119 53.5975 82.9053ZM68.4316 79.1875H66.7969V81.4902H64.3008V82.7471H66.7969V87.915C66.7969 88.501 66.873 89.002 67.0254 89.418C67.1836 89.8281 67.3975 90.1621 67.667 90.4199C67.9365 90.6836 68.2529 90.877 68.6162 91C68.9854 91.1172 69.3809 91.1758 69.8027 91.1758C70.0547 91.1758 70.3066 91.1641 70.5586 91.1406C70.8164 91.1172 71.0596 91.082 71.2881 91.0352C71.5166 90.9941 71.7275 90.9443 71.9209 90.8857C72.1143 90.8213 72.2783 90.748 72.4131 90.666L72.1846 89.5146C72.085 89.5381 71.9561 89.5674 71.7979 89.6025C71.6455 89.6318 71.4814 89.6611 71.3057 89.6904C71.124 89.7197 70.9395 89.7461 70.752 89.7695C70.5645 89.7871 70.3828 89.7959 70.207 89.7959C69.9668 89.7959 69.7383 89.7666 69.5215 89.708C69.3105 89.6494 69.123 89.5469 68.959 89.4004C68.7949 89.2598 68.666 89.0693 68.5723 88.8291C68.4785 88.5889 68.4316 88.2842 68.4316 87.915V82.7471H72.0527V81.4902H68.4316V79.1875Z" fill="white"/>
<path d="M261.078 89V87.9678H256.08L258.753 85.0693C259.004 84.7959 259.241 84.5225 259.464 84.249C259.692 83.971 259.893 83.6908 260.066 83.4082C260.234 83.1257 260.369 82.8408 260.469 82.5537C260.569 82.262 260.62 81.9681 260.62 81.6719C260.62 81.2754 260.549 80.9085 260.408 80.5713C260.271 80.234 260.073 79.9424 259.813 79.6963C259.553 79.4502 259.234 79.2588 258.856 79.1221C258.482 78.9808 258.061 78.9102 257.591 78.9102C257.081 78.9102 256.625 78.9922 256.224 79.1562C255.828 79.3203 255.493 79.5413 255.219 79.8193C254.941 80.0973 254.729 80.4232 254.583 80.7969C254.438 81.166 254.365 81.5602 254.365 81.9795H255.636C255.636 81.6696 255.675 81.3893 255.752 81.1387C255.834 80.888 255.957 80.6738 256.121 80.4961C256.281 80.3229 256.482 80.1885 256.723 80.0928C256.969 79.9971 257.259 79.9492 257.591 79.9492C257.865 79.9492 258.108 79.9971 258.323 80.0928C258.541 80.1839 258.728 80.3092 258.883 80.4688C259.034 80.6283 259.148 80.8174 259.225 81.0361C259.307 81.2503 259.348 81.4805 259.348 81.7266C259.348 81.9271 259.323 82.123 259.273 82.3145C259.223 82.5013 259.138 82.6995 259.02 82.9092C258.901 83.1234 258.744 83.3558 258.548 83.6064C258.352 83.8571 258.108 84.1442 257.817 84.4678L254.556 88.0908V89H261.078ZM271.029 85.1924V82.8613C271.029 82.2279 270.956 81.6673 270.811 81.1797C270.665 80.6875 270.455 80.2728 270.182 79.9355C269.904 79.5983 269.564 79.3431 269.163 79.1699C268.767 78.9922 268.313 78.9033 267.803 78.9033C267.297 78.9033 266.843 78.9922 266.442 79.1699C266.046 79.3431 265.711 79.5983 265.438 79.9355C265.16 80.2728 264.948 80.6875 264.802 81.1797C264.656 81.6673 264.583 82.2279 264.583 82.8613V85.1924C264.583 85.8258 264.656 86.3887 264.802 86.8809C264.948 87.3685 265.16 87.7786 265.438 88.1113C265.715 88.4531 266.055 88.7106 266.456 88.8838C266.857 89.0524 267.311 89.1367 267.816 89.1367C268.327 89.1367 268.78 89.0501 269.177 88.877C269.573 88.7038 269.908 88.4486 270.182 88.1113C270.455 87.7786 270.665 87.3685 270.811 86.8809C270.956 86.3887 271.029 85.8258 271.029 85.1924ZM265.854 84.9395C265.854 84.821 265.854 84.7048 265.854 84.5908C265.854 84.4769 265.854 84.363 265.854 84.249V82.5811C265.854 82.1162 265.9 81.7083 265.991 81.3574C266.087 81.002 266.23 80.7126 266.422 80.4893C266.581 80.3115 266.775 80.1771 267.003 80.0859C267.235 79.9902 267.502 79.9424 267.803 79.9424C268.099 79.9424 268.359 79.9857 268.582 80.0723C268.81 80.1589 269.001 80.2887 269.156 80.4619C269.316 80.6305 269.441 80.8424 269.532 81.0977C269.628 81.3483 269.694 81.6377 269.73 81.9658L265.854 84.9395ZM269.758 85.459C269.758 85.9466 269.708 86.3704 269.607 86.7305C269.512 87.0905 269.359 87.3822 269.149 87.6055C268.994 87.7695 268.805 87.8949 268.582 87.9814C268.359 88.068 268.104 88.1113 267.816 88.1113C267.543 88.1113 267.297 88.0726 267.078 87.9951C266.859 87.9131 266.673 87.7946 266.518 87.6396C266.349 87.4756 266.212 87.2682 266.107 87.0176C266.003 86.7624 265.93 86.4684 265.889 86.1357L269.758 83.1758C269.758 83.3034 269.758 83.4652 269.758 83.6611C269.758 83.8525 269.758 83.9824 269.758 84.0508V85.459Z" fill="white"/>
<path d="M6.24023 108.136V104.4H4.61426V108.136H1.0459V109.753H4.61426V113.717H6.24023V109.753H9.81738V108.136H6.24023Z" fill="white"/>
</svg>
