<svg width="272" height="120" viewBox="0 0 272 120" fill="none" xmlns="http://www.w3.org/2000/svg">
<path d="M8.22656 15.7656C8.22656 16.1172 8.15039 16.4219 7.99805 16.6797C7.8457 16.9316 7.64941 17.1396 7.40918 17.3037C7.16895 17.4736 6.89355 17.5996 6.58301 17.6816C6.27832 17.7578 5.96777 17.7959 5.65137 17.7959C5.25293 17.7959 4.88379 17.7432 4.54395 17.6377C4.20996 17.5264 3.91406 17.3623 3.65625 17.1455C3.39844 16.9346 3.1875 16.6768 3.02344 16.3721C2.85938 16.0615 2.75098 15.707 2.69824 15.3086H1.03711C1.05469 15.8594 1.1748 16.3604 1.39746 16.8115C1.62598 17.2568 1.93359 17.6465 2.32031 17.9805C2.75391 18.3672 3.26367 18.6631 3.84961 18.8682C4.44141 19.0732 5.04199 19.1758 5.65137 19.1758C6.16113 19.1758 6.6709 19.1055 7.18066 18.9648C7.69043 18.8184 8.14746 18.6016 8.55176 18.3145C8.95605 18.0332 9.28418 17.6787 9.53613 17.251C9.79395 16.8232 9.92285 16.3223 9.92285 15.748C9.92285 15.1797 9.80273 14.6787 9.5625 14.2451C9.32812 13.8115 9.01758 13.4453 8.63086 13.1465C8.23828 12.8242 7.80469 12.5605 7.33008 12.3555C6.85547 12.1445 6.38086 11.9658 5.90625 11.8193C5.61914 11.7314 5.31152 11.6289 4.9834 11.5117C4.66113 11.3945 4.3623 11.248 4.08691 11.0723C3.80566 10.8965 3.57422 10.6826 3.39258 10.4307C3.21094 10.1729 3.11719 9.85938 3.11133 9.49023C3.11133 9.15039 3.17871 8.85156 3.31348 8.59375C3.4541 8.33594 3.6416 8.11914 3.87598 7.94336C4.10449 7.76758 4.36523 7.63574 4.6582 7.54785C4.95703 7.45996 5.26172 7.41602 5.57227 7.41602C5.95898 7.41602 6.30469 7.47754 6.60938 7.60059C6.91992 7.71777 7.18652 7.88477 7.40918 8.10156C7.63184 8.31836 7.81055 8.5791 7.94531 8.88379C8.08008 9.18262 8.1709 9.5166 8.21777 9.88574H9.8877C9.87598 9.2998 9.75 8.76953 9.50977 8.29492C9.26953 7.82031 8.9502 7.41602 8.55176 7.08203C8.15332 6.74805 7.69629 6.49023 7.18066 6.30859C6.66504 6.12109 6.12891 6.02734 5.57227 6.02734C5.06836 6.02734 4.56738 6.10645 4.06934 6.26465C3.57129 6.41699 3.12598 6.64258 2.7334 6.94141C2.34082 7.24023 2.02148 7.60645 1.77539 8.04004C1.53516 8.47363 1.41504 8.96582 1.41504 9.5166C1.41504 10.0674 1.53516 10.5479 1.77539 10.958C2.02148 11.3623 2.33789 11.7139 2.72461 12.0127C3.10547 12.3057 3.52734 12.5576 3.99023 12.7686C4.45898 12.9736 4.91895 13.1494 5.37012 13.2959C5.68066 13.3955 6.00293 13.5068 6.33691 13.6299C6.67676 13.7529 6.9873 13.9053 7.26855 14.0869C7.5498 14.2744 7.77832 14.5029 7.9541 14.7725C8.13574 15.042 8.22656 15.373 8.22656 15.7656ZM17.9895 7.1875H16.3547V9.49023H13.8586V10.7471H16.3547V15.915C16.3547 16.501 16.4309 17.002 16.5832 17.418C16.7414 17.8281 16.9553 18.1621 17.2248 18.4199C17.4943 18.6836 17.8107 18.877 18.174 19C18.5432 19.1172 18.9387 19.1758 19.3605 19.1758C19.6125 19.1758 19.8645 19.1641 20.1164 19.1406C20.3742 19.1172 20.6174 19.082 20.8459 19.0352C21.0744 18.9941 21.2854 18.9443 21.4787 18.8857C21.6721 18.8213 21.8361 18.748 21.9709 18.666L21.7424 17.5146C21.6428 17.5381 21.5139 17.5674 21.3557 17.6025C21.2033 17.6318 21.0393 17.6611 20.8635 17.6904C20.6818 17.7197 20.4973 17.7461 20.3098 17.7695C20.1223 17.7871 19.9406 17.7959 19.7648 17.7959C19.5246 17.7959 19.2961 17.7666 19.0793 17.708C18.8684 17.6494 18.6809 17.5469 18.5168 17.4004C18.3527 17.2598 18.2238 17.0693 18.1301 16.8291C18.0363 16.5889 17.9895 16.2842 17.9895 15.915V10.7471H21.6105V9.49023H17.9895V7.1875ZM32.9818 9.31445C32.2904 9.31445 31.6723 9.4668 31.1273 9.77148C30.5883 10.0703 30.1254 10.4805 29.7387 11.002L29.7299 10.7646L29.6596 9.49023H28.1127V19H29.7475V12.9004C29.8529 12.6074 29.9848 12.3438 30.143 12.1094C30.307 11.8691 30.4975 11.667 30.7143 11.5029C30.9545 11.3154 31.2357 11.1748 31.558 11.0811C31.8803 10.9814 32.2406 10.9316 32.6391 10.9316C32.9496 10.9316 33.2455 10.9492 33.5268 10.9844C33.8139 11.0137 34.1156 11.0635 34.432 11.1338L34.6518 9.54297C34.4877 9.47266 34.2416 9.41699 33.9135 9.37598C33.5912 9.33496 33.2807 9.31445 32.9818 9.31445ZM45.6275 19H47.1041V9.49023H45.4693V16.3105C45.3814 16.5156 45.2701 16.7061 45.1354 16.8818C45.0064 17.0518 44.8541 17.1982 44.6783 17.3213C44.4674 17.4736 44.2184 17.5938 43.9313 17.6816C43.6441 17.7637 43.3189 17.8047 42.9557 17.8047C42.6451 17.8047 42.3697 17.7637 42.1295 17.6816C41.8951 17.5996 41.6959 17.4561 41.5318 17.251C41.3678 17.0518 41.2447 16.7822 41.1627 16.4424C41.0807 16.1025 41.0396 15.6748 41.0396 15.1592V9.49023H39.4137V15.1416C39.4137 15.8506 39.4898 16.46 39.6422 16.9697C39.8004 17.4736 40.023 17.8896 40.3102 18.2178C40.5973 18.5459 40.943 18.7891 41.3473 18.9473C41.7516 19.0996 42.2027 19.1758 42.7008 19.1758C43.3219 19.1758 43.8697 19.0469 44.3443 18.7891C44.8189 18.5254 45.2145 18.1592 45.5309 17.6904L45.6275 19ZM56.0232 17.8574C55.5135 17.8574 55.0857 17.7578 54.74 17.5586C54.4002 17.3535 54.1277 17.0869 53.9227 16.7588C53.7117 16.4365 53.5594 16.0732 53.4656 15.6689C53.3777 15.2588 53.3338 14.8457 53.3338 14.4297V14.0605C53.3338 13.6504 53.3777 13.2432 53.4656 12.8389C53.5594 12.4346 53.7117 12.0684 53.9227 11.7402C54.1336 11.418 54.409 11.1572 54.7488 10.958C55.0945 10.7529 55.5193 10.6504 56.0232 10.6504C56.3514 10.6504 56.6561 10.7061 56.9373 10.8174C57.2244 10.9287 57.4705 11.0811 57.6756 11.2744C57.8807 11.4678 58.0418 11.6934 58.159 11.9512C58.282 12.2031 58.3465 12.4727 58.3523 12.7598H59.8904C59.8904 12.2793 59.7938 11.8281 59.6004 11.4062C59.407 10.9844 59.1404 10.6182 58.8006 10.3076C58.4549 10.0029 58.0447 9.7627 57.5701 9.58691C57.1014 9.40527 56.5857 9.31445 56.0232 9.31445C55.3025 9.31445 54.6727 9.44336 54.1336 9.70117C53.5945 9.95898 53.1463 10.3047 52.7889 10.7383C52.4256 11.1777 52.1531 11.6846 51.9715 12.2588C51.7898 12.833 51.699 13.4336 51.699 14.0605V14.4297C51.699 15.0625 51.7898 15.666 51.9715 16.2402C52.1531 16.8086 52.4256 17.3096 52.7889 17.7432C53.1463 18.1826 53.5945 18.5312 54.1336 18.7891C54.6727 19.0469 55.3025 19.1758 56.0232 19.1758C56.5271 19.1758 57.0105 19.0908 57.4734 18.9209C57.9363 18.7451 58.3465 18.5107 58.7039 18.2178C59.0613 17.9307 59.3455 17.5967 59.5564 17.2158C59.7732 16.8291 59.8846 16.4248 59.8904 16.0029H58.3523C58.3465 16.2666 58.2762 16.5127 58.1414 16.7412C58.0125 16.9639 57.8396 17.1572 57.6229 17.3213C57.4061 17.4912 57.157 17.623 56.8758 17.7168C56.6004 17.8105 56.3162 17.8574 56.0232 17.8574ZM68.4316 7.1875H66.7969V9.49023H64.3008V10.7471H66.7969V15.915C66.7969 16.501 66.873 17.002 67.0254 17.418C67.1836 17.8281 67.3975 18.1621 67.667 18.4199C67.9365 18.6836 68.2529 18.877 68.6162 19C68.9854 19.1172 69.3809 19.1758 69.8027 19.1758C70.0547 19.1758 70.3066 19.1641 70.5586 19.1406C70.8164 19.1172 71.0596 19.082 71.2881 19.0352C71.5166 18.9941 71.7275 18.9443 71.9209 18.8857C72.1143 18.8213 72.2783 18.748 72.4131 18.666L72.1846 17.5146C72.085 17.5381 71.9561 17.5674 71.7979 17.6025C71.6455 17.6318 71.4814 17.6611 71.3057 17.6904C71.124 17.7197 70.9395 17.7461 70.752 17.7695C70.5645 17.7871 70.3828 17.7959 70.207 17.7959C69.9668 17.7959 69.7383 17.7666 69.5215 17.708C69.3105 17.6494 69.123 17.5469 68.959 17.4004C68.7949 17.2598 68.666 17.0693 68.5723 16.8291C68.4785 16.5889 68.4316 16.2842 68.4316 15.915V10.7471H72.0527V9.49023H68.4316V7.1875ZM83.4592 19H84.9357V9.49023H83.301V16.3105C83.2131 16.5156 83.1018 16.7061 82.967 16.8818C82.8381 17.0518 82.6857 17.1982 82.51 17.3213C82.299 17.4736 82.05 17.5938 81.7629 17.6816C81.4758 17.7637 81.1506 17.8047 80.7873 17.8047C80.4768 17.8047 80.2014 17.7637 79.9611 17.6816C79.7268 17.5996 79.5275 17.4561 79.3635 17.251C79.1994 17.0518 79.0764 16.7822 78.9943 16.4424C78.9123 16.1025 78.8713 15.6748 78.8713 15.1592V9.49023H77.2453V15.1416C77.2453 15.8506 77.3215 16.46 77.4738 16.9697C77.632 17.4736 77.8547 17.8896 78.1418 18.2178C78.4289 18.5459 78.7746 18.7891 79.1789 18.9473C79.5832 19.0996 80.0344 19.1758 80.5324 19.1758C81.1535 19.1758 81.7014 19.0469 82.176 18.7891C82.6506 18.5254 83.0461 18.1592 83.3625 17.6904L83.4592 19ZM96.0346 9.31445C95.3432 9.31445 94.725 9.4668 94.1801 9.77148C93.641 10.0703 93.1781 10.4805 92.7914 11.002L92.7826 10.7646L92.7123 9.49023H91.1654V19H92.8002V12.9004C92.9057 12.6074 93.0375 12.3438 93.1957 12.1094C93.3598 11.8691 93.5502 11.667 93.767 11.5029C94.0072 11.3154 94.2885 11.1748 94.6107 11.0811C94.933 10.9814 95.2934 10.9316 95.6918 10.9316C96.0023 10.9316 96.2982 10.9492 96.5795 10.9844C96.8666 11.0137 97.1684 11.0635 97.4848 11.1338L97.7045 9.54297C97.5404 9.47266 97.2943 9.41699 96.9662 9.37598C96.6439 9.33496 96.3334 9.31445 96.0346 9.31445ZM106.615 19.1758C107.541 19.1758 108.317 18.9912 108.944 18.6221C109.577 18.2471 110.051 17.8193 110.368 17.3389L109.375 16.5654C109.076 16.9521 108.701 17.2627 108.25 17.4971C107.798 17.7314 107.283 17.8486 106.703 17.8486C106.263 17.8486 105.862 17.7666 105.499 17.6025C105.135 17.4385 104.825 17.2129 104.567 16.9258C104.315 16.6562 104.116 16.3457 103.969 15.9941C103.829 15.6426 103.738 15.2354 103.697 14.7725V14.7109H110.491V13.9814C110.491 13.3193 110.406 12.7041 110.236 12.1357C110.072 11.5674 109.82 11.0723 109.48 10.6504C109.14 10.2344 108.713 9.90918 108.197 9.6748C107.687 9.43457 107.089 9.31445 106.404 9.31445C105.859 9.31445 105.326 9.42578 104.804 9.64844C104.289 9.87109 103.829 10.1904 103.424 10.6064C103.014 11.0283 102.686 11.5439 102.44 12.1533C102.194 12.7568 102.071 13.4424 102.071 14.21V14.5791C102.071 15.2412 102.182 15.8535 102.405 16.416C102.628 16.9785 102.938 17.4648 103.337 17.875C103.735 18.2852 104.213 18.6045 104.769 18.833C105.332 19.0615 105.947 19.1758 106.615 19.1758ZM106.404 10.6504C106.82 10.6504 107.177 10.7266 107.476 10.8789C107.781 11.0312 108.033 11.2305 108.232 11.4766C108.431 11.7227 108.587 12.0156 108.698 12.3555C108.809 12.6895 108.865 13.0029 108.865 13.2959V13.375H103.75C103.814 12.9355 103.925 12.5488 104.084 12.2148C104.248 11.875 104.447 11.5879 104.681 11.3535C104.916 11.125 105.179 10.9521 105.472 10.835C105.765 10.7119 106.076 10.6504 106.404 10.6504Z" fill="white"/>
<path d="M241.803 14.0059H240.538C240.497 14.3066 240.427 14.5869 240.326 14.8467C240.226 15.1019 240.092 15.3229 239.923 15.5098C239.754 15.7012 239.547 15.8493 239.301 15.9541C239.059 16.0589 238.772 16.1113 238.44 16.1113C238.134 16.1113 237.868 16.0635 237.64 15.9678C237.412 15.8675 237.214 15.7308 237.045 15.5576C236.876 15.389 236.737 15.193 236.628 14.9697C236.519 14.7464 236.43 14.5072 236.362 14.252C236.293 14.0013 236.243 13.7461 236.211 13.4863C236.184 13.222 236.17 12.9668 236.17 12.7207V11.3193C236.17 11.0732 236.184 10.8203 236.211 10.5605C236.243 10.2962 236.293 10.0387 236.362 9.78809C236.43 9.53743 236.519 9.30046 236.628 9.07715C236.742 8.85384 236.883 8.65788 237.052 8.48926C237.216 8.32064 237.412 8.18848 237.64 8.09277C237.872 7.99251 238.139 7.94238 238.44 7.94238C238.772 7.94238 239.059 7.99935 239.301 8.11328C239.547 8.22266 239.754 8.37533 239.923 8.57129C240.092 8.76725 240.226 8.99512 240.326 9.25488C240.427 9.51465 240.497 9.79492 240.538 10.0957H241.803C241.748 9.62174 241.634 9.1888 241.461 8.79688C241.293 8.40495 241.067 8.06771 240.784 7.78516C240.502 7.50716 240.165 7.29297 239.773 7.14258C239.381 6.98763 238.936 6.91016 238.44 6.91016C238.025 6.91016 237.651 6.9694 237.319 7.08789C236.986 7.20182 236.69 7.36133 236.43 7.56641C236.166 7.77148 235.938 8.0153 235.746 8.29785C235.559 8.57585 235.404 8.87891 235.281 9.20703C235.154 9.53516 235.058 9.87923 234.994 10.2393C234.935 10.5993 234.903 10.9639 234.899 11.333V12.7207C234.903 13.0898 234.935 13.4544 234.994 13.8145C235.058 14.1745 235.154 14.5186 235.281 14.8467C235.404 15.1748 235.559 15.4779 235.746 15.7559C235.938 16.0339 236.166 16.2754 236.43 16.4805C236.69 16.6855 236.986 16.8473 237.319 16.9658C237.656 17.0798 238.029 17.1367 238.44 17.1367C238.918 17.1367 239.351 17.0615 239.738 16.9111C240.13 16.7562 240.47 16.5397 240.757 16.2617C241.04 15.9883 241.27 15.6602 241.447 15.2773C241.625 14.89 241.744 14.4661 241.803 14.0059ZM250.039 17H251.187V9.60352H249.916V14.9082C249.847 15.0677 249.761 15.2158 249.656 15.3525C249.556 15.4847 249.437 15.5986 249.301 15.6943C249.137 15.8128 248.943 15.9062 248.72 15.9746C248.496 16.0384 248.243 16.0703 247.961 16.0703C247.719 16.0703 247.505 16.0384 247.318 15.9746C247.136 15.9108 246.981 15.7992 246.853 15.6396C246.726 15.4847 246.63 15.2751 246.566 15.0107C246.502 14.7464 246.471 14.4137 246.471 14.0127V9.60352H245.206V13.999C245.206 14.5505 245.265 15.0244 245.384 15.4209C245.507 15.8128 245.68 16.1364 245.903 16.3916C246.126 16.6468 246.395 16.8359 246.71 16.959C247.024 17.0775 247.375 17.1367 247.762 17.1367C248.246 17.1367 248.672 17.0365 249.041 16.8359C249.41 16.6309 249.718 16.346 249.964 15.9814L250.039 17ZM261.242 13.3838V13.2402C261.242 12.8529 261.21 12.486 261.146 12.1396C261.082 11.7887 260.989 11.4697 260.866 11.1826C260.747 10.9274 260.61 10.6973 260.455 10.4922C260.301 10.2826 260.125 10.1048 259.929 9.95898C259.71 9.80404 259.467 9.68327 259.198 9.59668C258.929 9.51009 258.635 9.4668 258.316 9.4668C258.061 9.4668 257.824 9.49186 257.605 9.54199C257.386 9.59212 257.186 9.66504 257.003 9.76074C256.857 9.83822 256.721 9.93164 256.593 10.041C256.466 10.1458 256.349 10.2643 256.245 10.3965V6.5H254.98V17H256.142L256.204 16.1592C256.286 16.264 256.372 16.3597 256.463 16.4463C256.554 16.5329 256.65 16.6126 256.75 16.6855C256.96 16.8314 257.195 16.943 257.454 17.0205C257.719 17.098 258.01 17.1367 258.329 17.1367C258.607 17.1367 258.865 17.1025 259.102 17.0342C259.343 16.9658 259.565 16.8701 259.765 16.7471C260.043 16.5693 260.28 16.346 260.476 16.0771C260.676 15.8037 260.838 15.4961 260.961 15.1543C261.052 14.8945 261.121 14.6165 261.166 14.3203C261.217 14.0195 261.242 13.7074 261.242 13.3838ZM259.977 13.2402V13.3838C259.977 13.6025 259.963 13.8167 259.936 14.0264C259.909 14.236 259.865 14.432 259.806 14.6143C259.733 14.8558 259.635 15.0745 259.512 15.2705C259.389 15.4665 259.236 15.6283 259.054 15.7559C258.917 15.8561 258.762 15.9336 258.589 15.9883C258.416 16.0384 258.225 16.0635 258.015 16.0635C257.796 16.0635 257.596 16.0361 257.413 15.9814C257.231 15.9222 257.067 15.8402 256.921 15.7354C256.775 15.6305 256.646 15.5098 256.532 15.373C256.422 15.2318 256.327 15.0791 256.245 14.915V11.6816C256.322 11.5176 256.415 11.3672 256.525 11.2305C256.639 11.0892 256.769 10.9661 256.914 10.8613C257.056 10.7611 257.218 10.6836 257.4 10.6289C257.582 10.5697 257.783 10.54 258.001 10.54C258.202 10.54 258.384 10.5628 258.548 10.6084C258.712 10.654 258.86 10.7178 258.993 10.7998C259.184 10.9137 259.346 11.071 259.478 11.2715C259.61 11.472 259.717 11.693 259.799 11.9346C259.858 12.1305 259.902 12.3402 259.929 12.5635C259.961 12.7822 259.977 13.0078 259.977 13.2402ZM268.049 17.1367C268.769 17.1367 269.373 16.9932 269.86 16.7061C270.353 16.4144 270.722 16.0817 270.968 15.708L270.195 15.1064C269.963 15.4072 269.671 15.6488 269.32 15.8311C268.969 16.0133 268.568 16.1045 268.117 16.1045C267.775 16.1045 267.463 16.0407 267.181 15.9131C266.898 15.7855 266.657 15.61 266.456 15.3867C266.26 15.1771 266.105 14.9355 265.991 14.6621C265.882 14.3887 265.811 14.0719 265.779 13.7119V13.6641H271.063V13.0967C271.063 12.5817 270.997 12.1032 270.865 11.6611C270.738 11.2191 270.542 10.834 270.277 10.5059C270.013 10.1823 269.68 9.92936 269.279 9.74707C268.883 9.56022 268.418 9.4668 267.885 9.4668C267.461 9.4668 267.046 9.55339 266.641 9.72656C266.24 9.89974 265.882 10.1481 265.567 10.4717C265.248 10.7998 264.993 11.2008 264.802 11.6748C264.61 12.1442 264.515 12.6774 264.515 13.2744V13.5615C264.515 14.0765 264.601 14.5527 264.774 14.9902C264.948 15.4277 265.189 15.806 265.499 16.125C265.809 16.444 266.18 16.6924 266.613 16.8701C267.051 17.0479 267.529 17.1367 268.049 17.1367ZM267.885 10.5059C268.208 10.5059 268.486 10.5651 268.719 10.6836C268.956 10.8021 269.152 10.957 269.307 11.1484C269.462 11.3398 269.582 11.5677 269.669 11.832C269.756 12.0918 269.799 12.3356 269.799 12.5635V12.625H265.82C265.87 12.2832 265.957 11.9824 266.08 11.7227C266.208 11.4583 266.363 11.235 266.545 11.0527C266.727 10.875 266.932 10.7406 267.16 10.6494C267.388 10.5537 267.63 10.5059 267.885 10.5059Z" fill="white"/>
<path d="M8.22656 39.7656C8.22656 40.1172 8.15039 40.4219 7.99805 40.6797C7.8457 40.9316 7.64941 41.1396 7.40918 41.3037C7.16895 41.4736 6.89355 41.5996 6.58301 41.6816C6.27832 41.7578 5.96777 41.7959 5.65137 41.7959C5.25293 41.7959 4.88379 41.7432 4.54395 41.6377C4.20996 41.5264 3.91406 41.3623 3.65625 41.1455C3.39844 40.9346 3.1875 40.6768 3.02344 40.3721C2.85938 40.0615 2.75098 39.707 2.69824 39.3086H1.03711C1.05469 39.8594 1.1748 40.3604 1.39746 40.8115C1.62598 41.2568 1.93359 41.6465 2.32031 41.9805C2.75391 42.3672 3.26367 42.6631 3.84961 42.8682C4.44141 43.0732 5.04199 43.1758 5.65137 43.1758C6.16113 43.1758 6.6709 43.1055 7.18066 42.9648C7.69043 42.8184 8.14746 42.6016 8.55176 42.3145C8.95605 42.0332 9.28418 41.6787 9.53613 41.251C9.79395 40.8232 9.92285 40.3223 9.92285 39.748C9.92285 39.1797 9.80273 38.6787 9.5625 38.2451C9.32812 37.8115 9.01758 37.4453 8.63086 37.1465C8.23828 36.8242 7.80469 36.5605 7.33008 36.3555C6.85547 36.1445 6.38086 35.9658 5.90625 35.8193C5.61914 35.7314 5.31152 35.6289 4.9834 35.5117C4.66113 35.3945 4.3623 35.248 4.08691 35.0723C3.80566 34.8965 3.57422 34.6826 3.39258 34.4307C3.21094 34.1729 3.11719 33.8594 3.11133 33.4902C3.11133 33.1504 3.17871 32.8516 3.31348 32.5938C3.4541 32.3359 3.6416 32.1191 3.87598 31.9434C4.10449 31.7676 4.36523 31.6357 4.6582 31.5479C4.95703 31.46 5.26172 31.416 5.57227 31.416C5.95898 31.416 6.30469 31.4775 6.60938 31.6006C6.91992 31.7178 7.18652 31.8848 7.40918 32.1016C7.63184 32.3184 7.81055 32.5791 7.94531 32.8838C8.08008 33.1826 8.1709 33.5166 8.21777 33.8857H9.8877C9.87598 33.2998 9.75 32.7695 9.50977 32.2949C9.26953 31.8203 8.9502 31.416 8.55176 31.082C8.15332 30.748 7.69629 30.4902 7.18066 30.3086C6.66504 30.1211 6.12891 30.0273 5.57227 30.0273C5.06836 30.0273 4.56738 30.1064 4.06934 30.2646C3.57129 30.417 3.12598 30.6426 2.7334 30.9414C2.34082 31.2402 2.02148 31.6064 1.77539 32.04C1.53516 32.4736 1.41504 32.9658 1.41504 33.5166C1.41504 34.0674 1.53516 34.5479 1.77539 34.958C2.02148 35.3623 2.33789 35.7139 2.72461 36.0127C3.10547 36.3057 3.52734 36.5576 3.99023 36.7686C4.45898 36.9736 4.91895 37.1494 5.37012 37.2959C5.68066 37.3955 6.00293 37.5068 6.33691 37.6299C6.67676 37.7529 6.9873 37.9053 7.26855 38.0869C7.5498 38.2744 7.77832 38.5029 7.9541 38.7725C8.13574 39.042 8.22656 39.373 8.22656 39.7656ZM18.341 43.1758C19.2668 43.1758 20.0432 42.9912 20.6701 42.6221C21.3029 42.2471 21.7775 41.8193 22.0939 41.3389L21.1008 40.5654C20.802 40.9521 20.427 41.2627 19.9758 41.4971C19.5246 41.7314 19.009 41.8486 18.4289 41.8486C17.9895 41.8486 17.5881 41.7666 17.2248 41.6025C16.8615 41.4385 16.551 41.2129 16.2932 40.9258C16.0412 40.6562 15.842 40.3457 15.6955 39.9941C15.5549 39.6426 15.4641 39.2354 15.423 38.7725V38.7109H22.217V37.9814C22.217 37.3193 22.132 36.7041 21.9621 36.1357C21.798 35.5674 21.5461 35.0723 21.2063 34.6504C20.8664 34.2344 20.4387 33.9092 19.923 33.6748C19.4133 33.4346 18.8156 33.3145 18.1301 33.3145C17.5852 33.3145 17.052 33.4258 16.5305 33.6484C16.0148 33.8711 15.5549 34.1904 15.1506 34.6064C14.7404 35.0283 14.4123 35.5439 14.1662 36.1533C13.9201 36.7568 13.7971 37.4424 13.7971 38.21V38.5791C13.7971 39.2412 13.9084 39.8535 14.1311 40.416C14.3537 40.9785 14.6643 41.4648 15.0627 41.875C15.4611 42.2852 15.9387 42.6045 16.4953 42.833C17.0578 43.0615 17.673 43.1758 18.341 43.1758ZM18.1301 34.6504C18.5461 34.6504 18.9035 34.7266 19.2023 34.8789C19.507 35.0312 19.759 35.2305 19.9582 35.4766C20.1574 35.7227 20.3127 36.0156 20.424 36.3555C20.5354 36.6895 20.591 37.0029 20.591 37.2959V37.375H15.4758C15.5402 36.9355 15.6516 36.5488 15.8098 36.2148C15.9738 35.875 16.173 35.5879 16.4074 35.3535C16.6418 35.125 16.9055 34.9521 17.1984 34.835C17.4914 34.7119 17.802 34.6504 18.1301 34.6504ZM30.6 31.1875H28.9652V33.4902H26.4691V34.7471H28.9652V39.915C28.9652 40.501 29.0414 41.002 29.1938 41.418C29.352 41.8281 29.5658 42.1621 29.8354 42.4199C30.1049 42.6836 30.4213 42.877 30.7846 43C31.1537 43.1172 31.5492 43.1758 31.9711 43.1758C32.223 43.1758 32.475 43.1641 32.727 43.1406C32.9848 43.1172 33.2279 43.082 33.4564 43.0352C33.685 42.9941 33.8959 42.9443 34.0893 42.8857C34.2826 42.8213 34.4467 42.748 34.5814 42.666L34.3529 41.5146C34.2533 41.5381 34.1244 41.5674 33.9662 41.6025C33.8139 41.6318 33.6498 41.6611 33.474 41.6904C33.2924 41.7197 33.1078 41.7461 32.9203 41.7695C32.7328 41.7871 32.5512 41.7959 32.3754 41.7959C32.1352 41.7959 31.9066 41.7666 31.6898 41.708C31.4789 41.6494 31.2914 41.5469 31.1273 41.4004C30.9633 41.2598 30.8344 41.0693 30.7406 40.8291C30.6469 40.5889 30.6 40.2842 30.6 39.915V34.7471H34.2211V33.4902H30.6V31.1875ZM51.9627 46.6562H53.5887V42.0859C53.7059 42.2148 53.8318 42.335 53.9666 42.4463C54.1014 42.5518 54.2449 42.6484 54.3973 42.7363C54.6492 42.877 54.9305 42.9854 55.241 43.0615C55.5574 43.1377 55.8973 43.1758 56.2605 43.1758C56.8582 43.1758 57.3885 43.0527 57.8514 42.8066C58.3201 42.5605 58.7127 42.2207 59.0291 41.7871C59.3455 41.3535 59.5857 40.8438 59.7498 40.2578C59.9139 39.666 59.9959 39.0303 59.9959 38.3506V38.166C59.9959 37.457 59.9139 36.8066 59.7498 36.2148C59.5857 35.6172 59.3455 35.1045 59.0291 34.6768C58.7127 34.249 58.3201 33.915 57.8514 33.6748C57.3826 33.4346 56.8436 33.3145 56.2342 33.3145C55.8885 33.3145 55.5633 33.3525 55.2586 33.4287C54.9598 33.499 54.6873 33.6045 54.4412 33.7451C54.2654 33.8389 54.1014 33.9531 53.949 34.0879C53.7967 34.2168 53.6561 34.3633 53.5271 34.5273L53.448 33.4902H51.9627V46.6562ZM58.3699 38.166V38.3506C58.3699 38.8135 58.3172 39.2559 58.2117 39.6777C58.1121 40.0996 57.9568 40.4717 57.7459 40.7939C57.535 41.1162 57.2654 41.374 56.9373 41.5674C56.6092 41.7549 56.2195 41.8486 55.7684 41.8486C55.4871 41.8486 55.2293 41.8135 54.9949 41.7432C54.7664 41.6729 54.5584 41.5762 54.3709 41.4531C54.2068 41.3477 54.0604 41.2188 53.9314 41.0664C53.8025 40.9141 53.6883 40.75 53.5887 40.5742V35.9951C53.7 35.7959 53.8289 35.6143 53.9754 35.4502C54.1219 35.2861 54.2889 35.1484 54.4764 35.0371C54.6463 34.9258 54.8367 34.8408 55.0477 34.7822C55.2645 34.7236 55.4988 34.6943 55.7508 34.6943C56.2078 34.6943 56.6004 34.7881 56.9285 34.9756C57.2566 35.1631 57.5291 35.415 57.7459 35.7314C57.9568 36.0537 58.1121 36.4258 58.2117 36.8477C58.3172 37.2637 58.3699 37.7031 58.3699 38.166ZM64.125 38.1572V38.3506C64.125 39.0361 64.2246 39.6719 64.4238 40.2578C64.623 40.8438 64.9102 41.3535 65.2852 41.7871C65.6543 42.2207 66.1055 42.5605 66.6387 42.8066C67.1777 43.0527 67.7842 43.1758 68.458 43.1758C69.126 43.1758 69.7266 43.0527 70.2598 42.8066C70.793 42.5605 71.2471 42.2207 71.6221 41.7871C71.9912 41.3535 72.2754 40.8438 72.4746 40.2578C72.6738 39.6719 72.7734 39.0361 72.7734 38.3506V38.1572C72.7734 37.4717 72.6738 36.8359 72.4746 36.25C72.2754 35.6582 71.9912 35.1455 71.6221 34.7119C71.2471 34.2783 70.79 33.9385 70.251 33.6924C69.7178 33.4404 69.1143 33.3145 68.4404 33.3145C67.7725 33.3145 67.1719 33.4404 66.6387 33.6924C66.1055 33.9385 65.6543 34.2783 65.2852 34.7119C64.9102 35.1455 64.623 35.6582 64.4238 36.25C64.2246 36.8359 64.125 37.4717 64.125 38.1572ZM65.751 38.3506V38.1572C65.751 37.6943 65.8066 37.252 65.918 36.8301C66.0293 36.4023 66.1992 36.0273 66.4277 35.7051C66.6504 35.3828 66.9287 35.1279 67.2627 34.9404C67.5967 34.7471 67.9893 34.6504 68.4404 34.6504C68.8916 34.6504 69.2842 34.7471 69.6182 34.9404C69.958 35.1279 70.2422 35.3828 70.4707 35.7051C70.6934 36.0273 70.8604 36.4023 70.9717 36.8301C71.0889 37.252 71.1475 37.6943 71.1475 38.1572V38.3506C71.1475 38.8193 71.0918 39.2676 70.9805 39.6953C70.8691 40.1172 70.7021 40.4893 70.4795 40.8115C70.251 41.1338 69.9668 41.3887 69.627 41.5762C69.293 41.7637 68.9033 41.8574 68.458 41.8574C68.0068 41.8574 67.6113 41.7637 67.2715 41.5762C66.9316 41.3887 66.6504 41.1338 66.4277 40.8115C66.1992 40.4893 66.0293 40.1172 65.918 39.6953C65.8066 39.2676 65.751 38.8193 65.751 38.3506ZM83.5119 40.4775C83.5119 40.6299 83.4826 40.7734 83.424 40.9082C83.3654 41.043 83.2805 41.166 83.1691 41.2773C82.9875 41.459 82.7355 41.6025 82.4133 41.708C82.091 41.8076 81.7131 41.8574 81.2795 41.8574C81.0041 41.8574 80.7258 41.8281 80.4445 41.7695C80.1633 41.7109 79.9084 41.6113 79.6799 41.4707C79.4455 41.3301 79.2492 41.1455 79.091 40.917C78.9387 40.6885 78.8508 40.4072 78.8273 40.0732H77.2014C77.2014 40.4775 77.2922 40.8672 77.4738 41.2422C77.6613 41.6172 77.9309 41.9453 78.2824 42.2266C78.6281 42.5137 79.0529 42.7451 79.5568 42.9209C80.0607 43.0908 80.635 43.1758 81.2795 43.1758C81.842 43.1758 82.3605 43.1084 82.8352 42.9736C83.3098 42.8389 83.717 42.6484 84.0568 42.4023C84.3967 42.1562 84.6604 41.8604 84.8479 41.5146C85.0412 41.1689 85.1379 40.7852 85.1379 40.3633C85.1379 39.9707 85.0529 39.625 84.883 39.3262C84.7189 39.0273 84.4787 38.7637 84.1623 38.5352C83.8459 38.3125 83.4563 38.1221 82.9934 37.9639C82.5305 37.7998 82.0061 37.6562 81.4201 37.5332C80.9748 37.4453 80.6057 37.3545 80.3127 37.2607C80.0256 37.167 79.7971 37.0615 79.6272 36.9443C79.4514 36.8271 79.3283 36.6953 79.258 36.5488C79.1877 36.4023 79.1525 36.2354 79.1525 36.0479C79.1525 35.8662 79.1965 35.6904 79.2844 35.5205C79.3723 35.3506 79.5041 35.2012 79.6799 35.0723C79.8498 34.9434 80.0637 34.8408 80.3215 34.7646C80.5852 34.6885 80.8898 34.6504 81.2355 34.6504C81.5695 34.6504 81.8684 34.6973 82.132 34.791C82.4016 34.8848 82.6301 35.0078 82.8176 35.1602C83.0051 35.3125 83.1516 35.4883 83.257 35.6875C83.3625 35.8809 83.4152 36.0801 83.4152 36.2852H85.0412C85.0412 35.8691 84.9504 35.4824 84.7688 35.125C84.593 34.7617 84.341 34.4453 84.0129 34.1758C83.6848 33.9062 83.2863 33.6953 82.8176 33.543C82.3488 33.3906 81.8215 33.3145 81.2355 33.3145C80.6906 33.3145 80.1897 33.3877 79.7326 33.5342C79.2814 33.6807 78.8918 33.8799 78.5637 34.1318C78.2355 34.3838 77.9807 34.6797 77.799 35.0195C77.6174 35.3535 77.5266 35.7139 77.5266 36.1006C77.5266 36.4932 77.6145 36.8389 77.7902 37.1377C77.966 37.4307 78.215 37.6855 78.5373 37.9023C78.8537 38.125 79.2346 38.3154 79.6799 38.4736C80.1311 38.6318 80.6291 38.7666 81.174 38.8779C81.6193 38.9658 81.9914 39.0654 82.2902 39.1768C82.5891 39.2822 82.8293 39.3994 83.0109 39.5283C83.1926 39.6572 83.3215 39.8008 83.3977 39.959C83.4738 40.1113 83.5119 40.2842 83.5119 40.4775ZM90.058 33.4902V34.9053H93.2924V41.5938H90.058V43H98.0209V41.5938H94.9184V33.4902H90.058ZM93.0814 30.9941C93.0814 31.2578 93.1605 31.4775 93.3187 31.6533C93.4828 31.8291 93.7289 31.917 94.057 31.917C94.3793 31.917 94.6225 31.8291 94.7865 31.6533C94.9506 31.4775 95.0326 31.2578 95.0326 30.9941C95.0326 30.8477 95.0092 30.7129 94.9623 30.5898C94.9154 30.4668 94.8451 30.3643 94.7514 30.2822C94.6752 30.2061 94.5785 30.1475 94.4613 30.1064C94.3441 30.0596 94.2094 30.0361 94.057 30.0361C93.9047 30.0361 93.767 30.0596 93.6439 30.1064C93.5268 30.1475 93.4301 30.2061 93.3539 30.2822C93.2602 30.3701 93.1898 30.4756 93.143 30.5986C93.102 30.7217 93.0814 30.8535 93.0814 30.9941ZM106.263 31.1875H104.629V33.4902H102.132V34.7471H104.629V39.915C104.629 40.501 104.705 41.002 104.857 41.418C105.015 41.8281 105.229 42.1621 105.499 42.4199C105.768 42.6836 106.085 42.877 106.448 43C106.817 43.1172 107.213 43.1758 107.634 43.1758C107.886 43.1758 108.138 43.1641 108.39 43.1406C108.648 43.1172 108.891 43.082 109.12 43.0352C109.348 42.9941 109.559 42.9443 109.753 42.8857C109.946 42.8213 110.11 42.748 110.245 42.666L110.016 41.5146C109.917 41.5381 109.788 41.5674 109.629 41.6025C109.477 41.6318 109.313 41.6611 109.137 41.6904C108.956 41.7197 108.771 41.7461 108.584 41.7695C108.396 41.7871 108.214 41.7959 108.039 41.7959C107.798 41.7959 107.57 41.7666 107.353 41.708C107.142 41.6494 106.955 41.5469 106.791 41.4004C106.627 41.2598 106.498 41.0693 106.404 40.8291C106.31 40.5889 106.263 40.2842 106.263 39.915V34.7471H109.884V33.4902H106.263V31.1875ZM115.279 33.4902V34.9053H118.513V41.5938H115.279V43H123.242V41.5938H120.139V33.4902H115.279ZM118.303 30.9941C118.303 31.2578 118.382 31.4775 118.54 31.6533C118.704 31.8291 118.95 31.917 119.278 31.917C119.6 31.917 119.844 31.8291 120.008 31.6533C120.172 31.4775 120.254 31.2578 120.254 30.9941C120.254 30.8477 120.23 30.7129 120.183 30.5898C120.137 30.4668 120.066 30.3643 119.972 30.2822C119.896 30.2061 119.8 30.1475 119.682 30.1064C119.565 30.0596 119.43 30.0361 119.278 30.0361C119.126 30.0361 118.988 30.0596 118.865 30.1064C118.748 30.1475 118.651 30.2061 118.575 30.2822C118.481 30.3701 118.411 30.4756 118.364 30.5986C118.323 30.7217 118.303 30.8535 118.303 30.9941ZM127.178 38.1572V38.3506C127.178 39.0361 127.277 39.6719 127.477 40.2578C127.676 40.8438 127.963 41.3535 128.338 41.7871C128.707 42.2207 129.158 42.5605 129.691 42.8066C130.23 43.0527 130.837 43.1758 131.511 43.1758C132.179 43.1758 132.779 43.0527 133.312 42.8066C133.846 42.5605 134.3 42.2207 134.675 41.7871C135.044 41.3535 135.328 40.8438 135.527 40.2578C135.727 39.6719 135.826 39.0361 135.826 38.3506V38.1572C135.826 37.4717 135.727 36.8359 135.527 36.25C135.328 35.6582 135.044 35.1455 134.675 34.7119C134.3 34.2783 133.843 33.9385 133.304 33.6924C132.771 33.4404 132.167 33.3145 131.493 33.3145C130.825 33.3145 130.225 33.4404 129.691 33.6924C129.158 33.9385 128.707 34.2783 128.338 34.7119C127.963 35.1455 127.676 35.6582 127.477 36.25C127.277 36.8359 127.178 37.4717 127.178 38.1572ZM128.804 38.3506V38.1572C128.804 37.6943 128.859 37.252 128.971 36.8301C129.082 36.4023 129.252 36.0273 129.48 35.7051C129.703 35.3828 129.981 35.1279 130.315 34.9404C130.649 34.7471 131.042 34.6504 131.493 34.6504C131.944 34.6504 132.337 34.7471 132.671 34.9404C133.011 35.1279 133.295 35.3828 133.523 35.7051C133.746 36.0273 133.913 36.4023 134.024 36.8301C134.142 37.252 134.2 37.6943 134.2 38.1572V38.3506C134.2 38.8193 134.145 39.2676 134.033 39.6953C133.922 40.1172 133.755 40.4893 133.532 40.8115C133.304 41.1338 133.02 41.3887 132.68 41.5762C132.346 41.7637 131.956 41.8574 131.511 41.8574C131.06 41.8574 130.664 41.7637 130.324 41.5762C129.984 41.3887 129.703 41.1338 129.48 40.8115C129.252 40.4893 129.082 40.1172 128.971 39.6953C128.859 39.2676 128.804 38.8193 128.804 38.3506ZM140.245 43H141.871V36.1797C141.983 35.9746 142.112 35.7871 142.258 35.6172C142.41 35.4473 142.574 35.2979 142.75 35.1689C142.967 35.0225 143.204 34.9082 143.462 34.8262C143.72 34.7383 143.998 34.6943 144.297 34.6943C144.643 34.6943 144.947 34.7354 145.211 34.8174C145.481 34.8994 145.709 35.0312 145.897 35.2129C146.078 35.3945 146.216 35.6318 146.31 35.9248C146.404 36.2178 146.45 36.5752 146.45 36.9971V43H148.076V36.9619C148.076 36.3291 147.997 35.7842 147.839 35.3271C147.687 34.8643 147.467 34.4834 147.18 34.1846C146.893 33.8857 146.544 33.666 146.134 33.5254C145.73 33.3848 145.279 33.3145 144.78 33.3145C144.411 33.3203 144.06 33.376 143.726 33.4814C143.398 33.5811 143.093 33.7246 142.812 33.9121C142.624 34.0352 142.446 34.1816 142.276 34.3516C142.112 34.5156 141.959 34.6973 141.819 34.8965L141.704 33.4902H140.245V43Z" fill="white"/>
<path d="M239.458 41V31.0469H239.356L235.589 32.4961V33.6514L238.194 32.6602V41H239.458ZM251.413 37.1924V34.8613C251.413 34.2279 251.34 33.6673 251.194 33.1797C251.048 32.6875 250.839 32.2728 250.565 31.9355C250.287 31.5983 249.948 31.3431 249.547 31.1699C249.15 30.9922 248.697 30.9033 248.186 30.9033C247.68 30.9033 247.227 30.9922 246.826 31.1699C246.429 31.3431 246.095 31.5983 245.821 31.9355C245.543 32.2728 245.331 32.6875 245.185 33.1797C245.04 33.6673 244.967 34.2279 244.967 34.8613V37.1924C244.967 37.8258 245.04 38.3887 245.185 38.8809C245.331 39.3685 245.543 39.7786 245.821 40.1113C246.099 40.4531 246.439 40.7106 246.84 40.8838C247.241 41.0524 247.694 41.1367 248.2 41.1367C248.71 41.1367 249.164 41.0501 249.56 40.877C249.957 40.7038 250.292 40.4486 250.565 40.1113C250.839 39.7786 251.048 39.3685 251.194 38.8809C251.34 38.3887 251.413 37.8258 251.413 37.1924ZM246.238 36.9395C246.238 36.821 246.238 36.7048 246.238 36.5908C246.238 36.4769 246.238 36.363 246.238 36.249V34.5811C246.238 34.1162 246.284 33.7083 246.375 33.3574C246.471 33.002 246.614 32.7126 246.805 32.4893C246.965 32.3115 247.159 32.1771 247.387 32.0859C247.619 31.9902 247.886 31.9424 248.186 31.9424C248.483 31.9424 248.742 31.9857 248.966 32.0723C249.193 32.1589 249.385 32.2887 249.54 32.4619C249.699 32.6305 249.825 32.8424 249.916 33.0977C250.012 33.3483 250.078 33.6377 250.114 33.9658L246.238 36.9395ZM250.141 37.459C250.141 37.9466 250.091 38.3704 249.991 38.7305C249.895 39.0905 249.743 39.3822 249.533 39.6055C249.378 39.7695 249.189 39.8949 248.966 39.9814C248.742 40.068 248.487 40.1113 248.2 40.1113C247.927 40.1113 247.68 40.0726 247.462 39.9951C247.243 39.9131 247.056 39.7946 246.901 39.6396C246.733 39.4756 246.596 39.2682 246.491 39.0176C246.386 38.7624 246.313 38.4684 246.272 38.1357L250.141 35.1758C250.141 35.3034 250.141 35.4652 250.141 35.6611C250.141 35.8525 250.141 35.9824 250.141 36.0508V37.459ZM258.179 40.7061V39.5029H256.805V40.7266C256.805 41.1139 256.76 41.4876 256.668 41.8477C256.577 42.2077 256.422 42.5472 256.204 42.8662L256.99 43.2969C257.354 42.9733 257.644 42.5745 257.858 42.1006C258.072 41.6266 258.179 41.1618 258.179 40.7061ZM271.029 37.1924V34.8613C271.029 34.2279 270.956 33.6673 270.811 33.1797C270.665 32.6875 270.455 32.2728 270.182 31.9355C269.904 31.5983 269.564 31.3431 269.163 31.1699C268.767 30.9922 268.313 30.9033 267.803 30.9033C267.297 30.9033 266.843 30.9922 266.442 31.1699C266.046 31.3431 265.711 31.5983 265.438 31.9355C265.16 32.2728 264.948 32.6875 264.802 33.1797C264.656 33.6673 264.583 34.2279 264.583 34.8613V37.1924C264.583 37.8258 264.656 38.3887 264.802 38.8809C264.948 39.3685 265.16 39.7786 265.438 40.1113C265.715 40.4531 266.055 40.7106 266.456 40.8838C266.857 41.0524 267.311 41.1367 267.816 41.1367C268.327 41.1367 268.78 41.0501 269.177 40.877C269.573 40.7038 269.908 40.4486 270.182 40.1113C270.455 39.7786 270.665 39.3685 270.811 38.8809C270.956 38.3887 271.029 37.8258 271.029 37.1924ZM265.854 36.9395C265.854 36.821 265.854 36.7048 265.854 36.5908C265.854 36.4769 265.854 36.363 265.854 36.249V34.5811C265.854 34.1162 265.9 33.7083 265.991 33.3574C266.087 33.002 266.23 32.7126 266.422 32.4893C266.581 32.3115 266.775 32.1771 267.003 32.0859C267.235 31.9902 267.502 31.9424 267.803 31.9424C268.099 31.9424 268.359 31.9857 268.582 32.0723C268.81 32.1589 269.001 32.2887 269.156 32.4619C269.316 32.6305 269.441 32.8424 269.532 33.0977C269.628 33.3483 269.694 33.6377 269.73 33.9658L265.854 36.9395ZM269.758 37.459C269.758 37.9466 269.708 38.3704 269.607 38.7305C269.512 39.0905 269.359 39.3822 269.149 39.6055C268.994 39.7695 268.805 39.8949 268.582 39.9814C268.359 40.068 268.104 40.1113 267.816 40.1113C267.543 40.1113 267.297 40.0726 267.078 39.9951C266.859 39.9131 266.673 39.7946 266.518 39.6396C266.349 39.4756 266.212 39.2682 266.107 39.0176C266.003 38.7624 265.93 38.4684 265.889 38.1357L269.758 35.1758C269.758 35.3034 269.758 35.4652 269.758 35.6611C269.758 35.8525 269.758 35.9824 269.758 36.0508V37.459Z" fill="white"/>
<path d="M2.19727 67H3.86719L5.43164 57.9033L5.52832 57.3584L5.61621 57.8945L7.17188 67H8.83301L10.3887 54.2031H8.85059L7.92773 63.0098L7.875 63.5371L7.77832 63.0186L6.22266 54.2031H4.80762L3.26074 63.0098L3.16406 63.5371L3.11133 63.0273L2.18848 54.2031H0.641602L2.19727 67ZM14.3947 57.4902V58.9053H17.6291V65.5938H14.3947V67H22.3576V65.5938H19.2551V57.4902H14.3947ZM17.4182 54.9941C17.4182 55.2578 17.4973 55.4775 17.6555 55.6533C17.8195 55.8291 18.0656 55.917 18.3938 55.917C18.716 55.917 18.9592 55.8291 19.1232 55.6533C19.2873 55.4775 19.3693 55.2578 19.3693 54.9941C19.3693 54.8477 19.3459 54.7129 19.299 54.5898C19.2521 54.4668 19.1818 54.3643 19.0881 54.2822C19.0119 54.2061 18.9152 54.1475 18.798 54.1064C18.6809 54.0596 18.5461 54.0361 18.3938 54.0361C18.2414 54.0361 18.1037 54.0596 17.9807 54.1064C17.8635 54.1475 17.7668 54.2061 17.6906 54.2822C17.5969 54.3701 17.5266 54.4756 17.4797 54.5986C17.4387 54.7217 17.4182 54.8535 17.4182 54.9941ZM26.4428 62.166V62.3506C26.4428 63.0303 26.5336 63.666 26.7152 64.2578C26.8969 64.8438 27.1518 65.3535 27.4799 65.7871C27.808 66.2207 28.2035 66.5605 28.6664 66.8066C29.1352 67.0527 29.6566 67.1758 30.2309 67.1758C30.8168 67.1758 31.3295 67.0762 31.7689 66.877C32.2084 66.6777 32.5863 66.3848 32.9027 65.998L32.973 67H34.4672V53.5H32.8412V58.4307C32.5307 58.0674 32.1615 57.792 31.7338 57.6045C31.3119 57.4111 30.8168 57.3145 30.2484 57.3145C29.6684 57.3145 29.1439 57.4346 28.6752 57.6748C28.2064 57.915 27.808 58.249 27.4799 58.6768C27.1459 59.1045 26.8881 59.6172 26.7064 60.2148C26.5307 60.8066 26.4428 61.457 26.4428 62.166ZM28.0688 62.3506V62.166C28.0688 61.7031 28.1186 61.2637 28.2182 60.8477C28.3178 60.4258 28.473 60.0537 28.684 59.7314C28.8891 59.415 29.1527 59.1631 29.475 58.9756C29.8031 58.7881 30.1957 58.6943 30.6527 58.6943C31.1859 58.6943 31.6313 58.8203 31.9887 59.0723C32.3461 59.3184 32.6303 59.6348 32.8412 60.0215V64.4336C32.6303 64.8496 32.3461 65.1807 31.9887 65.4268C31.6313 65.6729 31.1801 65.7959 30.6352 65.7959C30.184 65.7959 29.7973 65.7051 29.475 65.5234C29.1527 65.3359 28.8891 65.084 28.684 64.7676C28.473 64.4512 28.3178 64.085 28.2182 63.6689C28.1186 63.2529 28.0688 62.8135 28.0688 62.3506ZM43.2105 55.1875H41.5758V57.4902H39.0797V58.7471H41.5758V63.915C41.5758 64.501 41.652 65.002 41.8043 65.418C41.9625 65.8281 42.1764 66.1621 42.4459 66.4199C42.7154 66.6836 43.0318 66.877 43.3951 67C43.7643 67.1172 44.1598 67.1758 44.5816 67.1758C44.8336 67.1758 45.0855 67.1641 45.3375 67.1406C45.5953 67.1172 45.8385 67.082 46.067 67.0352C46.2955 66.9941 46.5064 66.9443 46.6998 66.8857C46.8932 66.8213 47.0572 66.748 47.192 66.666L46.9635 65.5146C46.8639 65.5381 46.735 65.5674 46.5768 65.6025C46.4244 65.6318 46.2604 65.6611 46.0846 65.6904C45.9029 65.7197 45.7184 65.7461 45.5309 65.7695C45.3434 65.7871 45.1617 65.7959 44.9859 65.7959C44.7457 65.7959 44.5172 65.7666 44.3004 65.708C44.0895 65.6494 43.902 65.5469 43.7379 65.4004C43.5738 65.2598 43.4449 65.0693 43.3512 64.8291C43.2574 64.5889 43.2105 64.2842 43.2105 63.915V58.7471H46.8316V57.4902H43.2105V55.1875ZM53.5975 58.9053V53.5H51.9715V67H53.5975V60.0918C53.7146 59.9043 53.8465 59.7344 53.993 59.582C54.1453 59.4238 54.3094 59.2861 54.4852 59.1689C54.7078 59.0166 54.951 58.8994 55.2146 58.8174C55.4783 58.7354 55.7566 58.6943 56.0496 58.6943C56.407 58.6885 56.7234 58.7383 56.9988 58.8438C57.2742 58.9434 57.5027 59.0957 57.6844 59.3008C57.8543 59.4883 57.9832 59.7256 58.0711 60.0127C58.159 60.2939 58.2029 60.6221 58.2029 60.9971V67H59.8289V61.0146C59.8289 60.376 59.7498 59.8252 59.5916 59.3623C59.4393 58.8936 59.2195 58.5068 58.9324 58.2021C58.6453 57.8975 58.2967 57.6748 57.8865 57.5342C57.4822 57.3877 57.0311 57.3145 56.533 57.3145C56.1521 57.3203 55.7918 57.376 55.452 57.4814C55.118 57.5869 54.8104 57.7422 54.5291 57.9473C54.3533 58.0703 54.1863 58.2139 54.0281 58.3779C53.8699 58.5361 53.7264 58.7119 53.5975 58.9053Z" fill="white"/>
<path d="M249.266 65V55.0469H249.164L245.397 56.4961V57.6514L248.002 56.6602V65H249.266ZM261.221 61.1924V58.8613C261.221 58.2279 261.148 57.6673 261.002 57.1797C260.857 56.6875 260.647 56.2728 260.373 55.9355C260.095 55.5983 259.756 55.3431 259.355 55.1699C258.958 54.9922 258.505 54.9033 257.995 54.9033C257.489 54.9033 257.035 54.9922 256.634 55.1699C256.238 55.3431 255.903 55.5983 255.629 55.9355C255.351 56.2728 255.139 56.6875 254.994 57.1797C254.848 57.6673 254.775 58.2279 254.775 58.8613V61.1924C254.775 61.8258 254.848 62.3887 254.994 62.8809C255.139 63.3685 255.351 63.7786 255.629 64.1113C255.907 64.4531 256.247 64.7106 256.648 64.8838C257.049 65.0524 257.502 65.1367 258.008 65.1367C258.519 65.1367 258.972 65.0501 259.369 64.877C259.765 64.7038 260.1 64.4486 260.373 64.1113C260.647 63.7786 260.857 63.3685 261.002 62.8809C261.148 62.3887 261.221 61.8258 261.221 61.1924ZM256.046 60.9395C256.046 60.821 256.046 60.7048 256.046 60.5908C256.046 60.4769 256.046 60.363 256.046 60.249V58.5811C256.046 58.1162 256.092 57.7083 256.183 57.3574C256.279 57.002 256.422 56.7126 256.614 56.4893C256.773 56.3115 256.967 56.1771 257.195 56.0859C257.427 55.9902 257.694 55.9424 257.995 55.9424C258.291 55.9424 258.551 55.9857 258.774 56.0723C259.002 56.1589 259.193 56.2887 259.348 56.4619C259.508 56.6305 259.633 56.8424 259.724 57.0977C259.82 57.3483 259.886 57.6377 259.922 57.9658L256.046 60.9395ZM259.95 61.459C259.95 61.9466 259.899 62.3704 259.799 62.7305C259.704 63.0905 259.551 63.3822 259.341 63.6055C259.186 63.7695 258.997 63.8949 258.774 63.9814C258.551 64.068 258.295 64.1113 258.008 64.1113C257.735 64.1113 257.489 64.0726 257.27 63.9951C257.051 63.9131 256.864 63.7946 256.709 63.6396C256.541 63.4756 256.404 63.2682 256.299 63.0176C256.194 62.7624 256.121 62.4684 256.08 62.1357L259.95 59.1758C259.95 59.3034 259.95 59.4652 259.95 59.6611C259.95 59.8525 259.95 59.9824 259.95 60.0508V61.459ZM271.029 61.1924V58.8613C271.029 58.2279 270.956 57.6673 270.811 57.1797C270.665 56.6875 270.455 56.2728 270.182 55.9355C269.904 55.5983 269.564 55.3431 269.163 55.1699C268.767 54.9922 268.313 54.9033 267.803 54.9033C267.297 54.9033 266.843 54.9922 266.442 55.1699C266.046 55.3431 265.711 55.5983 265.438 55.9355C265.16 56.2728 264.948 56.6875 264.802 57.1797C264.656 57.6673 264.583 58.2279 264.583 58.8613V61.1924C264.583 61.8258 264.656 62.3887 264.802 62.8809C264.948 63.3685 265.16 63.7786 265.438 64.1113C265.715 64.4531 266.055 64.7106 266.456 64.8838C266.857 65.0524 267.311 65.1367 267.816 65.1367C268.327 65.1367 268.78 65.0501 269.177 64.877C269.573 64.7038 269.908 64.4486 270.182 64.1113C270.455 63.7786 270.665 63.3685 270.811 62.8809C270.956 62.3887 271.029 61.8258 271.029 61.1924ZM265.854 60.9395C265.854 60.821 265.854 60.7048 265.854 60.5908C265.854 60.4769 265.854 60.363 265.854 60.249V58.5811C265.854 58.1162 265.9 57.7083 265.991 57.3574C266.087 57.002 266.23 56.7126 266.422 56.4893C266.581 56.3115 266.775 56.1771 267.003 56.0859C267.235 55.9902 267.502 55.9424 267.803 55.9424C268.099 55.9424 268.359 55.9857 268.582 56.0723C268.81 56.1589 269.001 56.2887 269.156 56.4619C269.316 56.6305 269.441 56.8424 269.532 57.0977C269.628 57.3483 269.694 57.6377 269.73 57.9658L265.854 60.9395ZM269.758 61.459C269.758 61.9466 269.708 62.3704 269.607 62.7305C269.512 63.0905 269.359 63.3822 269.149 63.6055C268.994 63.7695 268.805 63.8949 268.582 63.9814C268.359 64.068 268.104 64.1113 267.816 64.1113C267.543 64.1113 267.297 64.0726 267.078 63.9951C266.859 63.9131 266.673 63.7946 266.518 63.6396C266.349 63.4756 266.212 63.2682 266.107 63.0176C266.003 62.7624 265.93 62.4684 265.889 62.1357L269.758 59.1758C269.758 59.3034 269.758 59.4652 269.758 59.6611C269.758 59.8525 269.758 59.9824 269.758 60.0508V61.459Z" fill="white"/>
<path d="M9.55371 91V78.2031H8.01562V83.7051H2.76855V78.2031H1.23926V91H2.76855V85.085H8.01562V91H9.55371ZM18.341 91.1758C19.2668 91.1758 20.0432 90.9912 20.6701 90.6221C21.3029 90.2471 21.7775 89.8193 22.0939 89.3389L21.1008 88.5654C20.802 88.9521 20.427 89.2627 19.9758 89.4971C19.5246 89.7314 19.009 89.8486 18.4289 89.8486C17.9895 89.8486 17.5881 89.7666 17.2248 89.6025C16.8615 89.4385 16.551 89.2129 16.2932 88.9258C16.0412 88.6562 15.842 88.3457 15.6955 87.9941C15.5549 87.6426 15.4641 87.2354 15.423 86.7725V86.7109H22.217V85.9814C22.217 85.3193 22.132 84.7041 21.9621 84.1357C21.798 83.5674 21.5461 83.0723 21.2063 82.6504C20.8664 82.2344 20.4387 81.9092 19.923 81.6748C19.4133 81.4346 18.8156 81.3145 18.1301 81.3145C17.5852 81.3145 17.052 81.4258 16.5305 81.6484C16.0148 81.8711 15.5549 82.1904 15.1506 82.6064C14.7404 83.0283 14.4123 83.5439 14.1662 84.1533C13.9201 84.7568 13.7971 85.4424 13.7971 86.21V86.5791C13.7971 87.2412 13.9084 87.8535 14.1311 88.416C14.3537 88.9785 14.6643 89.4648 15.0627 89.875C15.4611 90.2852 15.9387 90.6045 16.4953 90.833C17.0578 91.0615 17.673 91.1758 18.341 91.1758ZM18.1301 82.6504C18.5461 82.6504 18.9035 82.7266 19.2023 82.8789C19.507 83.0312 19.759 83.2305 19.9582 83.4766C20.1574 83.7227 20.3127 84.0156 20.424 84.3555C20.5354 84.6895 20.591 85.0029 20.591 85.2959V85.375H15.4758C15.5402 84.9355 15.6516 84.5488 15.8098 84.2148C15.9738 83.875 16.173 83.5879 16.4074 83.3535C16.6418 83.125 16.9055 82.9521 17.1984 82.835C17.4914 82.7119 17.802 82.6504 18.1301 82.6504ZM27.0053 81.4902V82.9053H30.2396V89.5938H27.0053V91H34.9682V89.5938H31.8656V81.4902H27.0053ZM30.0287 78.9941C30.0287 79.2578 30.1078 79.4775 30.266 79.6533C30.4301 79.8291 30.6762 79.917 31.0043 79.917C31.3266 79.917 31.5697 79.8291 31.7338 79.6533C31.8979 79.4775 31.9799 79.2578 31.9799 78.9941C31.9799 78.8477 31.9564 78.7129 31.9096 78.5898C31.8627 78.4668 31.7924 78.3643 31.6986 78.2822C31.6225 78.2061 31.5258 78.1475 31.4086 78.1064C31.2914 78.0596 31.1566 78.0361 31.0043 78.0361C30.852 78.0361 30.7143 78.0596 30.5912 78.1064C30.474 78.1475 30.3773 78.2061 30.3012 78.2822C30.2074 78.3701 30.1371 78.4756 30.0902 78.5986C30.0492 78.7217 30.0287 78.8535 30.0287 78.9941ZM39.0621 86.166V86.3506C39.0621 87.0303 39.15 87.666 39.3258 88.2578C39.5016 88.8438 39.7535 89.3535 40.0816 89.7871C40.4039 90.2207 40.7994 90.5605 41.2682 90.8066C41.7369 91.0527 42.2613 91.1758 42.8414 91.1758C43.1871 91.1758 43.5094 91.1377 43.8082 91.0615C44.107 90.9912 44.3795 90.8887 44.6256 90.7539C44.7838 90.666 44.9303 90.5635 45.065 90.4463C45.2057 90.3291 45.3375 90.2002 45.4605 90.0596V90.877C45.4605 91.2871 45.402 91.6504 45.2848 91.9668C45.1676 92.2832 45.0006 92.5469 44.7838 92.7578C44.5611 92.9746 44.2945 93.1387 43.984 93.25C43.6734 93.3613 43.3248 93.417 42.9381 93.417C42.7213 93.417 42.5045 93.3936 42.2877 93.3467C42.0709 93.3057 41.8541 93.2354 41.6373 93.1357C41.4205 93.0361 41.2066 92.9014 40.9957 92.7314C40.7848 92.5674 40.5797 92.3652 40.3805 92.125L39.5367 93.1006C39.7535 93.4111 40.0113 93.6719 40.3102 93.8828C40.6148 94.0938 40.9313 94.2607 41.2594 94.3838C41.5816 94.5127 41.901 94.6035 42.2174 94.6562C42.5338 94.7148 42.815 94.7441 43.0611 94.7441C43.6588 94.7441 44.2037 94.6562 44.6959 94.4805C45.1881 94.3047 45.6129 94.0469 45.9703 93.707C46.3219 93.3672 46.5943 92.9541 46.7877 92.4678C46.9869 91.9814 47.0865 91.4248 47.0865 90.7979V81.4902H45.61L45.5309 82.5273C45.4195 82.3867 45.2994 82.2578 45.1705 82.1406C45.0475 82.0234 44.9156 81.9209 44.775 81.833C44.5172 81.6631 44.2271 81.5342 43.9049 81.4463C43.5885 81.3584 43.2398 81.3145 42.859 81.3145C42.2672 81.3145 41.7369 81.4346 41.2682 81.6748C40.7994 81.915 40.401 82.249 40.0729 82.6768C39.7447 83.1045 39.4928 83.6172 39.317 84.2148C39.1471 84.8066 39.0621 85.457 39.0621 86.166ZM40.6881 86.3506V86.166C40.6881 85.7031 40.735 85.2637 40.8287 84.8477C40.9283 84.4258 41.0836 84.0537 41.2945 83.7314C41.4996 83.415 41.7633 83.1631 42.0855 82.9756C42.4137 82.7881 42.8063 82.6943 43.2633 82.6943C43.5328 82.6943 43.7789 82.7295 44.0016 82.7998C44.2242 82.8643 44.4264 82.9551 44.608 83.0723C44.7896 83.1953 44.9508 83.3389 45.0914 83.5029C45.232 83.667 45.3551 83.8486 45.4605 84.0479V88.4072C45.3551 88.6123 45.232 88.7998 45.0914 88.9697C44.9508 89.1396 44.7926 89.2861 44.6168 89.4092C44.4352 89.5322 44.2301 89.6289 44.0016 89.6992C43.7789 89.7637 43.527 89.7959 43.2457 89.7959C42.7945 89.7959 42.4078 89.7051 42.0855 89.5234C41.7633 89.3359 41.4996 89.084 41.2945 88.7676C41.0836 88.4512 40.9283 88.085 40.8287 87.6689C40.735 87.2529 40.6881 86.8135 40.6881 86.3506ZM53.5975 82.9053V77.5H51.9715V91H53.5975V84.0918C53.7146 83.9043 53.8465 83.7344 53.993 83.582C54.1453 83.4238 54.3094 83.2861 54.4852 83.1689C54.7078 83.0166 54.951 82.8994 55.2146 82.8174C55.4783 82.7354 55.7566 82.6943 56.0496 82.6943C56.407 82.6885 56.7234 82.7383 56.9988 82.8438C57.2742 82.9434 57.5027 83.0957 57.6844 83.3008C57.8543 83.4883 57.9832 83.7256 58.0711 84.0127C58.159 84.2939 58.2029 84.6221 58.2029 84.9971V91H59.8289V85.0146C59.8289 84.376 59.7498 83.8252 59.5916 83.3623C59.4393 82.8936 59.2195 82.5068 58.9324 82.2021C58.6453 81.8975 58.2967 81.6748 57.8865 81.5342C57.4822 81.3877 57.0311 81.3145 56.533 81.3145C56.1521 81.3203 55.7918 81.376 55.452 81.4814C55.118 81.5869 54.8104 81.7422 54.5291 81.9473C54.3533 82.0703 54.1863 82.2139 54.0281 82.3779C53.8699 82.5361 53.7264 82.7119 53.5975 82.9053ZM68.4316 79.1875H66.7969V81.4902H64.3008V82.7471H66.7969V87.915C66.7969 88.501 66.873 89.002 67.0254 89.418C67.1836 89.8281 67.3975 90.1621 67.667 90.4199C67.9365 90.6836 68.2529 90.877 68.6162 91C68.9854 91.1172 69.3809 91.1758 69.8027 91.1758C70.0547 91.1758 70.3066 91.1641 70.5586 91.1406C70.8164 91.1172 71.0596 91.082 71.2881 91.0352C71.5166 90.9941 71.7275 90.9443 71.9209 90.8857C72.1143 90.8213 72.2783 90.748 72.4131 90.666L72.1846 89.5146C72.085 89.5381 71.9561 89.5674 71.7979 89.6025C71.6455 89.6318 71.4814 89.6611 71.3057 89.6904C71.124 89.7197 70.9395 89.7461 70.752 89.7695C70.5645 89.7871 70.3828 89.7959 70.207 89.7959C69.9668 89.7959 69.7383 89.7666 69.5215 89.708C69.3105 89.6494 69.123 89.5469 68.959 89.4004C68.7949 89.2598 68.666 89.0693 68.5723 88.8291C68.4785 88.5889 68.4316 88.2842 68.4316 87.915V82.7471H72.0527V81.4902H68.4316V79.1875Z" fill="white"/>
<path d="M249.266 89V79.0469H249.164L245.397 80.4961V81.6514L248.002 80.6602V89H249.266ZM255.424 84.0098L256.436 84.2695C256.55 84.1693 256.659 84.0804 256.764 84.0029C256.873 83.9255 256.99 83.8594 257.113 83.8047C257.236 83.75 257.372 83.709 257.523 83.6816C257.678 83.6497 257.86 83.6338 258.07 83.6338C258.389 83.6338 258.671 83.6908 258.917 83.8047C259.163 83.9186 259.371 84.0736 259.539 84.2695C259.708 84.4701 259.836 84.7048 259.922 84.9736C260.013 85.2425 260.059 85.5319 260.059 85.8418C260.059 86.1836 260.018 86.4935 259.936 86.7715C259.858 87.0495 259.742 87.2865 259.587 87.4824C259.428 87.6829 259.232 87.8379 258.999 87.9473C258.767 88.0521 258.5 88.1045 258.2 88.1045C257.666 88.1045 257.229 87.9587 256.887 87.667C256.55 87.3753 256.343 86.9469 256.265 86.3818H255.062C255.107 86.8421 255.219 87.2454 255.397 87.5918C255.579 87.9382 255.812 88.2253 256.094 88.4531C256.372 88.681 256.691 88.8519 257.051 88.9658C257.411 89.0798 257.794 89.1367 258.2 89.1367C258.728 89.1367 259.189 89.0547 259.58 88.8906C259.972 88.722 260.298 88.4896 260.558 88.1934C260.813 87.9017 261.005 87.5531 261.132 87.1475C261.26 86.7419 261.324 86.3021 261.324 85.8281C261.324 85.3268 261.255 84.8711 261.119 84.4609C260.982 84.0508 260.786 83.6999 260.531 83.4082C260.275 83.1211 259.966 82.8978 259.601 82.7383C259.236 82.5788 258.824 82.499 258.364 82.499C258.004 82.499 257.687 82.5423 257.413 82.6289C257.14 82.7155 256.905 82.8158 256.709 82.9297L256.99 80.2773H261.03V79.0469H255.923L255.424 84.0098ZM271.029 85.1924V82.8613C271.029 82.2279 270.956 81.6673 270.811 81.1797C270.665 80.6875 270.455 80.2728 270.182 79.9355C269.904 79.5983 269.564 79.3431 269.163 79.1699C268.767 78.9922 268.313 78.9033 267.803 78.9033C267.297 78.9033 266.843 78.9922 266.442 79.1699C266.046 79.3431 265.711 79.5983 265.438 79.9355C265.16 80.2728 264.948 80.6875 264.802 81.1797C264.656 81.6673 264.583 82.2279 264.583 82.8613V85.1924C264.583 85.8258 264.656 86.3887 264.802 86.8809C264.948 87.3685 265.16 87.7786 265.438 88.1113C265.715 88.4531 266.055 88.7106 266.456 88.8838C266.857 89.0524 267.311 89.1367 267.816 89.1367C268.327 89.1367 268.78 89.0501 269.177 88.877C269.573 88.7038 269.908 88.4486 270.182 88.1113C270.455 87.7786 270.665 87.3685 270.811 86.8809C270.956 86.3887 271.029 85.8258 271.029 85.1924ZM265.854 84.9395C265.854 84.821 265.854 84.7048 265.854 84.5908C265.854 84.4769 265.854 84.363 265.854 84.249V82.5811C265.854 82.1162 265.9 81.7083 265.991 81.3574C266.087 81.002 266.23 80.7126 266.422 80.4893C266.581 80.3115 266.775 80.1771 267.003 80.0859C267.235 79.9902 267.502 79.9424 267.803 79.9424C268.099 79.9424 268.359 79.9857 268.582 80.0723C268.81 80.1589 269.001 80.2887 269.156 80.4619C269.316 80.6305 269.441 80.8424 269.532 81.0977C269.628 81.3483 269.694 81.6377 269.73 81.9658L265.854 84.9395ZM269.758 85.459C269.758 85.9466 269.708 86.3704 269.607 86.7305C269.512 87.0905 269.359 87.3822 269.149 87.6055C268.994 87.7695 268.805 87.8949 268.582 87.9814C268.359 88.068 268.104 88.1113 267.816 88.1113C267.543 88.1113 267.297 88.0726 267.078 87.9951C266.859 87.9131 266.673 87.7946 266.518 87.6396C266.349 87.4756 266.212 87.2682 266.107 87.0176C266.003 86.7624 265.93 86.4684 265.889 86.1357L269.758 83.1758C269.758 83.3034 269.758 83.4652 269.758 83.6611C269.758 83.8525 269.758 83.9824 269.758 84.0508V85.459Z" fill="white"/>
<path d="M6.24023 108.136V104.4H4.61426V108.136H1.0459V109.753H4.61426V113.717H6.24023V109.753H9.81738V108.136H6.24023Z" fill="white"/>
</svg>
