<svg width="272" height="120" viewBox="0 0 272 120" fill="none" xmlns="http://www.w3.org/2000/svg">
<path d="M3.80469 13.8672H6.32715C6.90137 13.8613 7.44336 13.7734 7.95312 13.6035C8.46875 13.4336 8.91992 13.1875 9.30664 12.8652C9.69336 12.543 9.99805 12.1475 10.2207 11.6787C10.4492 11.2041 10.5635 10.6592 10.5635 10.0439C10.5635 9.42871 10.4492 8.88379 10.2207 8.40918C9.99805 7.93457 9.69336 7.53613 9.30664 7.21387C8.91992 6.8916 8.46875 6.64551 7.95312 6.47559C7.44336 6.30566 6.90137 6.21484 6.32715 6.20312H2.17871V19H3.80469V13.8672ZM3.80469 12.5312V7.53906H6.32715C6.70215 7.54492 7.04785 7.60645 7.36426 7.72363C7.68652 7.84082 7.96484 8.00781 8.19922 8.22461C8.42773 8.44141 8.60645 8.70508 8.73535 9.01562C8.87012 9.32617 8.9375 9.6748 8.9375 10.0615C8.9375 10.4482 8.87012 10.7939 8.73535 11.0986C8.60645 11.3975 8.4248 11.6523 8.19043 11.8633C7.95605 12.0742 7.68066 12.2383 7.36426 12.3555C7.04785 12.4668 6.70215 12.5254 6.32715 12.5312H3.80469ZM20.8713 9.31445C20.1799 9.31445 19.5617 9.4668 19.0168 9.77148C18.4777 10.0703 18.0148 10.4805 17.6281 11.002L17.6193 10.7646L17.549 9.49023H16.0021V19H17.6369V12.9004C17.7424 12.6074 17.8742 12.3438 18.0324 12.1094C18.1965 11.8691 18.3869 11.667 18.6037 11.5029C18.8439 11.3154 19.1252 11.1748 19.4475 11.0811C19.7697 10.9814 20.1301 10.9316 20.5285 10.9316C20.8391 10.9316 21.135 10.9492 21.4162 10.9844C21.7033 11.0137 22.0051 11.0635 22.3215 11.1338L22.5412 9.54297C22.3771 9.47266 22.1311 9.41699 21.8029 9.37598C21.4807 9.33496 21.1701 9.31445 20.8713 9.31445ZM27.5053 9.49023V10.9053H30.7396V17.5938H27.5053V19H35.4682V17.5938H32.3656V9.49023H27.5053ZM30.5287 6.99414C30.5287 7.25781 30.6078 7.47754 30.766 7.65332C30.9301 7.8291 31.1762 7.91699 31.5043 7.91699C31.8266 7.91699 32.0697 7.8291 32.2338 7.65332C32.3979 7.47754 32.4799 7.25781 32.4799 6.99414C32.4799 6.84766 32.4564 6.71289 32.4096 6.58984C32.3627 6.4668 32.2924 6.36426 32.1986 6.28223C32.1225 6.20605 32.0258 6.14746 31.9086 6.10645C31.7914 6.05957 31.6566 6.03613 31.5043 6.03613C31.352 6.03613 31.2143 6.05957 31.0912 6.10645C30.974 6.14746 30.8773 6.20605 30.8012 6.28223C30.7074 6.37012 30.6371 6.47559 30.5902 6.59863C30.5492 6.72168 30.5287 6.85352 30.5287 6.99414ZM39.8609 19H41.4869V12.1797C41.5982 11.9746 41.7271 11.7871 41.8736 11.6172C42.026 11.4473 42.19 11.2979 42.3658 11.1689C42.5826 11.0225 42.8199 10.9082 43.0777 10.8262C43.3355 10.7383 43.6139 10.6943 43.9127 10.6943C44.2584 10.6943 44.5631 10.7354 44.8268 10.8174C45.0963 10.8994 45.3248 11.0312 45.5123 11.2129C45.6939 11.3945 45.8316 11.6318 45.9254 11.9248C46.0191 12.2178 46.066 12.5752 46.066 12.9971V19H47.692V12.9619C47.692 12.3291 47.6129 11.7842 47.4547 11.3271C47.3023 10.8643 47.0826 10.4834 46.7955 10.1846C46.5084 9.88574 46.1598 9.66602 45.7496 9.52539C45.3453 9.38477 44.8941 9.31445 44.3961 9.31445C44.027 9.32031 43.6754 9.37598 43.3414 9.48145C43.0133 9.58105 42.7086 9.72461 42.4273 9.91211C42.2398 10.0352 42.0611 10.1816 41.8912 10.3516C41.7271 10.5156 41.5748 10.6973 41.4342 10.8965L41.3199 9.49023H39.8609V19ZM56.3211 7.1875H54.6863V9.49023H52.1902V10.7471H54.6863V15.915C54.6863 16.501 54.7625 17.002 54.9148 17.418C55.073 17.8281 55.2869 18.1621 55.5564 18.4199C55.826 18.6836 56.1424 18.877 56.5057 19C56.8748 19.1172 57.2703 19.1758 57.6922 19.1758C57.9441 19.1758 58.1961 19.1641 58.448 19.1406C58.7059 19.1172 58.949 19.082 59.1775 19.0352C59.4061 18.9941 59.617 18.9443 59.8104 18.8857C60.0037 18.8213 60.1678 18.748 60.3025 18.666L60.074 17.5146C59.9744 17.5381 59.8455 17.5674 59.6873 17.6025C59.535 17.6318 59.3709 17.6611 59.1951 17.6904C59.0135 17.7197 58.8289 17.7461 58.6414 17.7695C58.4539 17.7871 58.2723 17.7959 58.0965 17.7959C57.8563 17.7959 57.6277 17.7666 57.4109 17.708C57.2 17.6494 57.0125 17.5469 56.8484 17.4004C56.6844 17.2598 56.5555 17.0693 56.4617 16.8291C56.368 16.5889 56.3211 16.2842 56.3211 15.915V10.7471H59.9422V9.49023H56.3211V7.1875ZM81.5422 7.1875H79.9074V9.49023H77.4113V10.7471H79.9074V15.915C79.9074 16.501 79.9836 17.002 80.1359 17.418C80.2941 17.8281 80.508 18.1621 80.7775 18.4199C81.0471 18.6836 81.3635 18.877 81.7268 19C82.0959 19.1172 82.4914 19.1758 82.9133 19.1758C83.1652 19.1758 83.4172 19.1641 83.6691 19.1406C83.927 19.1172 84.1701 19.082 84.3986 19.0352C84.6272 18.9941 84.8381 18.9443 85.0314 18.8857C85.2248 18.8213 85.3889 18.748 85.5236 18.666L85.2951 17.5146C85.1955 17.5381 85.0666 17.5674 84.9084 17.6025C84.7561 17.6318 84.592 17.6611 84.4162 17.6904C84.2346 17.7197 84.05 17.7461 83.8625 17.7695C83.675 17.7871 83.4934 17.7959 83.3176 17.7959C83.0773 17.7959 82.8488 17.7666 82.632 17.708C82.4211 17.6494 82.2336 17.5469 82.0695 17.4004C81.9055 17.2598 81.7766 17.0693 81.6828 16.8291C81.5891 16.5889 81.5422 16.2842 81.5422 15.915V10.7471H85.1633V9.49023H81.5422V7.1875ZM90.558 9.49023V10.9053H93.7924V17.5938H90.558V19H98.5209V17.5938H95.4184V9.49023H90.558ZM93.5814 6.99414C93.5814 7.25781 93.6605 7.47754 93.8187 7.65332C93.9828 7.8291 94.2289 7.91699 94.557 7.91699C94.8793 7.91699 95.1225 7.8291 95.2865 7.65332C95.4506 7.47754 95.5326 7.25781 95.5326 6.99414C95.5326 6.84766 95.5092 6.71289 95.4623 6.58984C95.4154 6.4668 95.3451 6.36426 95.2514 6.28223C95.1752 6.20605 95.0785 6.14746 94.9613 6.10645C94.8441 6.05957 94.7094 6.03613 94.557 6.03613C94.4047 6.03613 94.267 6.05957 94.1439 6.10645C94.0268 6.14746 93.9301 6.20605 93.8539 6.28223C93.7602 6.37012 93.6898 6.47559 93.643 6.59863C93.602 6.72168 93.5814 6.85352 93.5814 6.99414ZM103.661 9.49023H102.202V19H103.749V11.4326C103.784 11.3389 103.828 11.251 103.88 11.1689C103.939 11.0869 104.006 11.0137 104.083 10.9492C104.182 10.8672 104.302 10.8057 104.443 10.7646C104.589 10.7178 104.759 10.6943 104.953 10.6943C105.129 10.6943 105.281 10.7178 105.41 10.7646C105.545 10.8057 105.656 10.873 105.744 10.9668C105.838 11.0664 105.905 11.1924 105.946 11.3447C105.993 11.4971 106.016 11.6729 106.016 11.8721V19H107.563V11.8809C107.563 11.8457 107.563 11.8164 107.563 11.793C107.563 11.7637 107.563 11.7344 107.563 11.7051C107.581 11.5586 107.616 11.4268 107.669 11.3096C107.721 11.1865 107.795 11.0781 107.888 10.9844C107.982 10.8965 108.099 10.8262 108.24 10.7734C108.38 10.7207 108.547 10.6943 108.741 10.6943C108.922 10.6943 109.081 10.7178 109.215 10.7646C109.356 10.8115 109.473 10.8818 109.567 10.9756C109.655 11.0752 109.722 11.2012 109.769 11.3535C109.816 11.5059 109.839 11.6816 109.839 11.8809V19H111.386V11.8984C111.386 11.4414 111.334 11.0459 111.228 10.7119C111.123 10.3721 110.97 10.0967 110.771 9.88574C110.589 9.69824 110.367 9.55762 110.103 9.46387C109.839 9.36426 109.544 9.31445 109.215 9.31445C108.975 9.32031 108.753 9.35254 108.547 9.41113C108.348 9.46973 108.167 9.54883 108.003 9.64844C107.874 9.73633 107.754 9.83887 107.642 9.95605C107.531 10.0732 107.434 10.1992 107.352 10.334C107.288 10.1875 107.209 10.0557 107.115 9.93848C107.027 9.82129 106.927 9.72168 106.816 9.63965C106.664 9.53418 106.485 9.45508 106.28 9.40234C106.081 9.34375 105.855 9.31445 105.603 9.31445C105.158 9.32031 104.777 9.41699 104.461 9.60449C104.15 9.79199 103.898 10.0527 103.705 10.3867L103.661 9.49023ZM119.725 19.1758C120.651 19.1758 121.428 18.9912 122.054 18.6221C122.687 18.2471 123.162 17.8193 123.478 17.3389L122.485 16.5654C122.186 16.9521 121.811 17.2627 121.36 17.4971C120.909 17.7314 120.393 17.8486 119.813 17.8486C119.374 17.8486 118.972 17.7666 118.609 17.6025C118.246 17.4385 117.935 17.2129 117.678 16.9258C117.426 16.6562 117.226 16.3457 117.08 15.9941C116.939 15.6426 116.848 15.2354 116.807 14.7725V14.7109H123.601V13.9814C123.601 13.3193 123.516 12.7041 123.346 12.1357C123.182 11.5674 122.93 11.0723 122.591 10.6504C122.251 10.2344 121.823 9.90918 121.307 9.6748C120.798 9.43457 120.2 9.31445 119.514 9.31445C118.97 9.31445 118.436 9.42578 117.915 9.64844C117.399 9.87109 116.939 10.1904 116.535 10.6064C116.125 11.0283 115.797 11.5439 115.551 12.1533C115.304 12.7568 115.181 13.4424 115.181 14.21V14.5791C115.181 15.2412 115.293 15.8535 115.515 16.416C115.738 16.9785 116.049 17.4648 116.447 17.875C116.846 18.2852 117.323 18.6045 117.88 18.833C118.442 19.0615 119.057 19.1758 119.725 19.1758ZM119.514 10.6504C119.93 10.6504 120.288 10.7266 120.587 10.8789C120.891 11.0312 121.143 11.2305 121.343 11.4766C121.542 11.7227 121.697 12.0156 121.808 12.3555C121.92 12.6895 121.975 13.0029 121.975 13.2959V13.375H116.86C116.925 12.9355 117.036 12.5488 117.194 12.2148C117.358 11.875 117.557 11.5879 117.792 11.3535C118.026 11.125 118.29 10.9521 118.583 10.835C118.876 10.7119 119.186 10.6504 119.514 10.6504Z" fill="white"/>
<path d="M250.769 17V15.9678H245.772L248.445 13.0693C248.696 12.7959 248.933 12.5225 249.156 12.249C249.384 11.971 249.584 11.6908 249.758 11.4082C249.926 11.1257 250.061 10.8408 250.161 10.5537C250.261 10.262 250.311 9.9681 250.311 9.67188C250.311 9.27539 250.241 8.90853 250.099 8.57129C249.963 8.23405 249.764 7.94238 249.505 7.69629C249.245 7.4502 248.926 7.25879 248.548 7.12207C248.174 6.98079 247.752 6.91016 247.283 6.91016C246.773 6.91016 246.317 6.99219 245.916 7.15625C245.519 7.32031 245.184 7.54134 244.911 7.81934C244.633 8.09733 244.421 8.42318 244.275 8.79688C244.129 9.16602 244.056 9.56022 244.056 9.97949H245.328C245.328 9.6696 245.367 9.38932 245.444 9.13867C245.526 8.88802 245.649 8.67383 245.813 8.49609C245.973 8.32292 246.173 8.18848 246.415 8.09277C246.661 7.99707 246.95 7.94922 247.283 7.94922C247.556 7.94922 247.8 7.99707 248.014 8.09277C248.233 8.18392 248.42 8.30924 248.575 8.46875C248.725 8.62826 248.839 8.81738 248.917 9.03613C248.999 9.25033 249.04 9.48047 249.04 9.72656C249.04 9.92708 249.015 10.123 248.965 10.3145C248.915 10.5013 248.83 10.6995 248.712 10.9092C248.593 11.1234 248.436 11.3558 248.24 11.6064C248.044 11.8571 247.8 12.1442 247.509 12.4678L244.248 16.0908V17H250.769ZM259.6 13.6572V7.04688H258.253L253.796 13.9443V14.6895H258.335V17H259.6V14.6895H260.988V13.6572H259.6ZM255.198 13.6572L258.13 9.11133L258.335 8.72852V13.6572H255.198ZM270.529 13.1924V10.8613C270.529 10.2279 270.456 9.66732 270.311 9.17969C270.165 8.6875 269.955 8.27279 269.682 7.93555C269.404 7.59831 269.064 7.3431 268.663 7.16992C268.267 6.99219 267.813 6.90332 267.303 6.90332C266.797 6.90332 266.343 6.99219 265.942 7.16992C265.546 7.3431 265.211 7.59831 264.938 7.93555C264.66 8.27279 264.448 8.6875 264.302 9.17969C264.156 9.66732 264.083 10.2279 264.083 10.8613V13.1924C264.083 13.8258 264.156 14.3887 264.302 14.8809C264.448 15.3685 264.66 15.7786 264.938 16.1113C265.215 16.4531 265.555 16.7106 265.956 16.8838C266.357 17.0524 266.811 17.1367 267.316 17.1367C267.827 17.1367 268.28 17.0501 268.677 16.877C269.073 16.7038 269.408 16.4486 269.682 16.1113C269.955 15.7786 270.165 15.3685 270.311 14.8809C270.456 14.3887 270.529 13.8258 270.529 13.1924ZM265.354 12.9395C265.354 12.821 265.354 12.7048 265.354 12.5908C265.354 12.4769 265.354 12.363 265.354 12.249V10.5811C265.354 10.1162 265.4 9.70833 265.491 9.35742C265.587 9.00195 265.73 8.71257 265.922 8.48926C266.081 8.31152 266.275 8.17708 266.503 8.08594C266.735 7.99023 267.002 7.94238 267.303 7.94238C267.599 7.94238 267.859 7.98568 268.082 8.07227C268.31 8.15885 268.501 8.28874 268.656 8.46191C268.816 8.63053 268.941 8.84245 269.032 9.09766C269.128 9.34831 269.194 9.6377 269.23 9.96582L265.354 12.9395ZM269.258 13.459C269.258 13.9466 269.208 14.3704 269.107 14.7305C269.012 15.0905 268.859 15.3822 268.649 15.6055C268.494 15.7695 268.305 15.8949 268.082 15.9814C267.859 16.068 267.604 16.1113 267.316 16.1113C267.043 16.1113 266.797 16.0726 266.578 15.9951C266.359 15.9131 266.173 15.7946 266.018 15.6396C265.849 15.4756 265.712 15.2682 265.607 15.0176C265.503 14.7624 265.43 14.4684 265.389 14.1357L269.258 11.1758C269.258 11.3034 269.258 11.4652 269.258 11.6611C269.258 11.8525 269.258 11.9824 269.258 12.0508V13.459Z" fill="white"/>
<path d="M3.31348 30.2031H1.30078V43H2.88281V37.8936L2.75098 32.7344L4.92188 39.4404H5.85352L8.21777 32.5498L8.08594 37.8936V43H9.66797V30.2031H7.64648L5.39648 36.6016L3.31348 30.2031ZM18.341 43.1758C19.2668 43.1758 20.0432 42.9912 20.6701 42.6221C21.3029 42.2471 21.7775 41.8193 22.0939 41.3389L21.1008 40.5654C20.802 40.9521 20.427 41.2627 19.9758 41.4971C19.5246 41.7314 19.009 41.8486 18.4289 41.8486C17.9895 41.8486 17.5881 41.7666 17.2248 41.6025C16.8615 41.4385 16.551 41.2129 16.2932 40.9258C16.0412 40.6562 15.842 40.3457 15.6955 39.9941C15.5549 39.6426 15.4641 39.2354 15.423 38.7725V38.7109H22.217V37.9814C22.217 37.3193 22.132 36.7041 21.9621 36.1357C21.798 35.5674 21.5461 35.0723 21.2063 34.6504C20.8664 34.2344 20.4387 33.9092 19.923 33.6748C19.4133 33.4346 18.8156 33.3145 18.1301 33.3145C17.5852 33.3145 17.052 33.4258 16.5305 33.6484C16.0148 33.8711 15.5549 34.1904 15.1506 34.6064C14.7404 35.0283 14.4123 35.5439 14.1662 36.1533C13.9201 36.7568 13.7971 37.4424 13.7971 38.21V38.5791C13.7971 39.2412 13.9084 39.8535 14.1311 40.416C14.3537 40.9785 14.6643 41.4648 15.0627 41.875C15.4611 42.2852 15.9387 42.6045 16.4953 42.833C17.0578 43.0615 17.673 43.1758 18.341 43.1758ZM18.1301 34.6504C18.5461 34.6504 18.9035 34.7266 19.2023 34.8789C19.507 35.0312 19.759 35.2305 19.9582 35.4766C20.1574 35.7227 20.3127 36.0156 20.424 36.3555C20.5354 36.6895 20.591 37.0029 20.591 37.2959V37.375H15.4758C15.5402 36.9355 15.6516 36.5488 15.8098 36.2148C15.9738 35.875 16.173 35.5879 16.4074 35.3535C16.6418 35.125 16.9055 34.9521 17.1984 34.835C17.4914 34.7119 17.802 34.6504 18.1301 34.6504ZM30.6 31.1875H28.9652V33.4902H26.4691V34.7471H28.9652V39.915C28.9652 40.501 29.0414 41.002 29.1938 41.418C29.352 41.8281 29.5658 42.1621 29.8354 42.4199C30.1049 42.6836 30.4213 42.877 30.7846 43C31.1537 43.1172 31.5492 43.1758 31.9711 43.1758C32.223 43.1758 32.475 43.1641 32.727 43.1406C32.9848 43.1172 33.2279 43.082 33.4564 43.0352C33.685 42.9941 33.8959 42.9443 34.0893 42.8857C34.2826 42.8213 34.4467 42.748 34.5814 42.666L34.3529 41.5146C34.2533 41.5381 34.1244 41.5674 33.9662 41.6025C33.8139 41.6318 33.6498 41.6611 33.474 41.6904C33.2924 41.7197 33.1078 41.7461 32.9203 41.7695C32.7328 41.7871 32.5512 41.7959 32.3754 41.7959C32.1352 41.7959 31.9066 41.7666 31.6898 41.708C31.4789 41.6494 31.2914 41.5469 31.1273 41.4004C30.9633 41.2598 30.8344 41.0693 30.7406 40.8291C30.6469 40.5889 30.6 40.2842 30.6 39.915V34.7471H34.2211V33.4902H30.6V31.1875ZM40.9869 34.9053V29.5H39.3609V43H40.9869V36.0918C41.1041 35.9043 41.2359 35.7344 41.3824 35.582C41.5348 35.4238 41.6988 35.2861 41.8746 35.1689C42.0973 35.0166 42.3404 34.8994 42.6041 34.8174C42.8678 34.7354 43.1461 34.6943 43.4391 34.6943C43.7965 34.6885 44.1129 34.7383 44.3883 34.8438C44.6637 34.9434 44.8922 35.0957 45.0738 35.3008C45.2438 35.4883 45.3727 35.7256 45.4605 36.0127C45.5484 36.2939 45.5924 36.6221 45.5924 36.9971V43H47.2184V37.0146C47.2184 36.376 47.1393 35.8252 46.9811 35.3623C46.8287 34.8936 46.609 34.5068 46.3219 34.2021C46.0348 33.8975 45.6861 33.6748 45.276 33.5342C44.8717 33.3877 44.4205 33.3145 43.9225 33.3145C43.5416 33.3203 43.1813 33.376 42.8414 33.4814C42.5074 33.5869 42.1998 33.7422 41.9186 33.9473C41.7428 34.0703 41.5758 34.2139 41.4176 34.3779C41.2594 34.5361 41.1158 34.7119 40.9869 34.9053ZM51.5145 38.1572V38.3506C51.5145 39.0361 51.6141 39.6719 51.8133 40.2578C52.0125 40.8438 52.2996 41.3535 52.6746 41.7871C53.0438 42.2207 53.4949 42.5605 54.0281 42.8066C54.5672 43.0527 55.1736 43.1758 55.8475 43.1758C56.5154 43.1758 57.116 43.0527 57.6492 42.8066C58.1824 42.5605 58.6365 42.2207 59.0115 41.7871C59.3807 41.3535 59.6648 40.8438 59.8641 40.2578C60.0633 39.6719 60.1629 39.0361 60.1629 38.3506V38.1572C60.1629 37.4717 60.0633 36.8359 59.8641 36.25C59.6648 35.6582 59.3807 35.1455 59.0115 34.7119C58.6365 34.2783 58.1795 33.9385 57.6404 33.6924C57.1072 33.4404 56.5037 33.3145 55.8299 33.3145C55.1619 33.3145 54.5613 33.4404 54.0281 33.6924C53.4949 33.9385 53.0438 34.2783 52.6746 34.7119C52.2996 35.1455 52.0125 35.6582 51.8133 36.25C51.6141 36.8359 51.5145 37.4717 51.5145 38.1572ZM53.1404 38.3506V38.1572C53.1404 37.6943 53.1961 37.252 53.3074 36.8301C53.4188 36.4023 53.5887 36.0273 53.8172 35.7051C54.0398 35.3828 54.3182 35.1279 54.6521 34.9404C54.9861 34.7471 55.3787 34.6504 55.8299 34.6504C56.2811 34.6504 56.6736 34.7471 57.0076 34.9404C57.3475 35.1279 57.6316 35.3828 57.8602 35.7051C58.0828 36.0273 58.2498 36.4023 58.3611 36.8301C58.4783 37.252 58.5369 37.6943 58.5369 38.1572V38.3506C58.5369 38.8193 58.4813 39.2676 58.3699 39.6953C58.2586 40.1172 58.0916 40.4893 57.8689 40.8115C57.6404 41.1338 57.3563 41.3887 57.0164 41.5762C56.6824 41.7637 56.2928 41.8574 55.8475 41.8574C55.3963 41.8574 55.0008 41.7637 54.6609 41.5762C54.3211 41.3887 54.0398 41.1338 53.8172 40.8115C53.5887 40.4893 53.4188 40.1172 53.3074 39.6953C53.1961 39.2676 53.1404 38.8193 53.1404 38.3506ZM64.2744 38.166V38.3506C64.2744 39.0303 64.3652 39.666 64.5469 40.2578C64.7285 40.8438 64.9834 41.3535 65.3115 41.7871C65.6396 42.2207 66.0352 42.5605 66.498 42.8066C66.9668 43.0527 67.4883 43.1758 68.0625 43.1758C68.6484 43.1758 69.1611 43.0762 69.6006 42.877C70.04 42.6777 70.418 42.3848 70.7344 41.998L70.8047 43H72.2988V29.5H70.6729V34.4307C70.3623 34.0674 69.9932 33.792 69.5654 33.6045C69.1436 33.4111 68.6484 33.3145 68.0801 33.3145C67.5 33.3145 66.9756 33.4346 66.5068 33.6748C66.0381 33.915 65.6396 34.249 65.3115 34.6768C64.9775 35.1045 64.7197 35.6172 64.5381 36.2148C64.3623 36.8066 64.2744 37.457 64.2744 38.166ZM65.9004 38.3506V38.166C65.9004 37.7031 65.9502 37.2637 66.0498 36.8477C66.1494 36.4258 66.3047 36.0537 66.5156 35.7314C66.7207 35.415 66.9844 35.1631 67.3066 34.9756C67.6348 34.7881 68.0273 34.6943 68.4844 34.6943C69.0176 34.6943 69.4629 34.8203 69.8203 35.0723C70.1777 35.3184 70.4619 35.6348 70.6729 36.0215V40.4336C70.4619 40.8496 70.1777 41.1807 69.8203 41.4268C69.4629 41.6729 69.0117 41.7959 68.4668 41.7959C68.0156 41.7959 67.6289 41.7051 67.3066 41.5234C66.9844 41.3359 66.7207 41.084 66.5156 40.7676C66.3047 40.4512 66.1494 40.085 66.0498 39.6689C65.9502 39.2529 65.9004 38.8135 65.9004 38.3506Z" fill="white"/>
<path d="M191.791 36.3994V35.3262H187.635V32.127H192.42V31.0469H186.37V41H192.482V39.9268H187.635V36.3994H191.791ZM199.179 36.3447L197.224 33.6035H195.762L198.516 37.2607L195.686 41H197.163L199.207 38.1836L201.251 41H202.714L199.884 37.2607L202.638 33.6035H201.155L199.179 36.3447ZM208.926 31.8125H207.655V33.6035H205.713V34.5811H207.655V38.6006C207.655 39.0563 207.714 39.446 207.832 39.7695C207.955 40.0885 208.122 40.3483 208.331 40.5488C208.541 40.7539 208.787 40.9043 209.07 41C209.357 41.0911 209.664 41.1367 209.993 41.1367C210.189 41.1367 210.385 41.1276 210.58 41.1094C210.781 41.0911 210.97 41.0638 211.148 41.0273C211.326 40.9954 211.49 40.9567 211.64 40.9111C211.79 40.861 211.918 40.804 212.023 40.7402L211.845 39.8447C211.768 39.863 211.667 39.8857 211.544 39.9131C211.426 39.9359 211.298 39.9587 211.162 39.9814C211.02 40.0042 210.877 40.0247 210.731 40.043C210.585 40.0566 210.444 40.0635 210.307 40.0635C210.12 40.0635 209.942 40.0407 209.774 39.9951C209.61 39.9495 209.464 39.8698 209.336 39.7559C209.209 39.6465 209.108 39.4984 209.036 39.3115C208.963 39.1247 208.926 38.8877 208.926 38.6006V34.5811H211.743V33.6035H208.926V31.8125ZM220.587 33.4668C220.049 33.4668 219.568 33.5853 219.145 33.8223C218.725 34.0547 218.365 34.3737 218.064 34.7793L218.058 34.5947L218.003 33.6035H216.8V41H218.071V36.2559C218.153 36.028 218.256 35.8229 218.379 35.6406C218.507 35.4538 218.655 35.2965 218.823 35.1689C219.01 35.0231 219.229 34.9137 219.479 34.8408C219.73 34.7633 220.01 34.7246 220.32 34.7246C220.562 34.7246 220.792 34.7383 221.011 34.7656C221.234 34.7884 221.469 34.8271 221.715 34.8818L221.886 33.6445C221.758 33.5898 221.567 33.5465 221.312 33.5146C221.061 33.4827 220.819 33.4668 220.587 33.4668ZM230.422 41H231.571V33.6035H230.299V38.9082C230.231 39.0677 230.144 39.2158 230.04 39.3525C229.939 39.4847 229.821 39.5986 229.684 39.6943C229.52 39.8128 229.326 39.9062 229.103 39.9746C228.88 40.0384 228.627 40.0703 228.344 40.0703C228.103 40.0703 227.889 40.0384 227.702 39.9746C227.519 39.9108 227.365 39.7992 227.237 39.6396C227.109 39.4847 227.014 39.2751 226.95 39.0107C226.886 38.7464 226.854 38.4137 226.854 38.0127V33.6035H225.589V37.999C225.589 38.5505 225.649 39.0244 225.767 39.4209C225.89 39.8128 226.063 40.1364 226.287 40.3916C226.51 40.6468 226.779 40.8359 227.093 40.959C227.408 41.0775 227.759 41.1367 228.146 41.1367C228.629 41.1367 229.055 41.0365 229.424 40.8359C229.794 40.6309 230.101 40.346 230.347 39.9814L230.422 41ZM240.272 39.0381C240.272 39.1566 240.249 39.2682 240.203 39.373C240.158 39.4779 240.092 39.5736 240.005 39.6602C239.864 39.8014 239.668 39.9131 239.417 39.9951C239.167 40.0726 238.873 40.1113 238.535 40.1113C238.321 40.1113 238.105 40.0885 237.886 40.043C237.667 39.9974 237.469 39.9199 237.291 39.8105C237.109 39.7012 236.956 39.5576 236.833 39.3799C236.715 39.2021 236.646 38.9834 236.628 38.7236H235.363C235.363 39.0381 235.434 39.3411 235.575 39.6328C235.721 39.9245 235.931 40.1797 236.204 40.3984C236.473 40.6217 236.804 40.8018 237.196 40.9385C237.587 41.0706 238.034 41.1367 238.535 41.1367C238.973 41.1367 239.376 41.0843 239.745 40.9795C240.114 40.8747 240.431 40.7266 240.696 40.5352C240.96 40.3438 241.165 40.1136 241.311 39.8447C241.461 39.5758 241.536 39.2773 241.536 38.9492C241.536 38.6439 241.47 38.375 241.338 38.1426C241.21 37.9102 241.024 37.7051 240.778 37.5273C240.531 37.3542 240.228 37.2061 239.868 37.083C239.508 36.9554 239.1 36.8438 238.645 36.748C238.298 36.6797 238.011 36.609 237.783 36.5361C237.56 36.4632 237.382 36.3812 237.25 36.29C237.113 36.1989 237.018 36.0964 236.963 35.9824C236.908 35.8685 236.881 35.7386 236.881 35.5928C236.881 35.4515 236.915 35.3148 236.984 35.1826C237.052 35.0505 237.154 34.9342 237.291 34.834C237.423 34.7337 237.59 34.654 237.79 34.5947C237.995 34.5355 238.232 34.5059 238.501 34.5059C238.761 34.5059 238.993 34.5423 239.198 34.6152C239.408 34.6882 239.586 34.7839 239.732 34.9023C239.877 35.0208 239.991 35.1576 240.073 35.3125C240.155 35.4629 240.196 35.6178 240.196 35.7773H241.461C241.461 35.4538 241.39 35.153 241.249 34.875C241.113 34.5924 240.917 34.3464 240.661 34.1367C240.406 33.9271 240.096 33.763 239.732 33.6445C239.367 33.526 238.957 33.4668 238.501 33.4668C238.077 33.4668 237.688 33.5238 237.332 33.6377C236.981 33.7516 236.678 33.9066 236.423 34.1025C236.168 34.2985 235.97 34.5286 235.828 34.793C235.687 35.0527 235.616 35.333 235.616 35.6338C235.616 35.9391 235.685 36.208 235.821 36.4404C235.958 36.6683 236.152 36.8665 236.403 37.0352C236.649 37.2083 236.945 37.3564 237.291 37.4795C237.642 37.6025 238.029 37.7074 238.453 37.7939C238.8 37.8623 239.089 37.9398 239.321 38.0264C239.554 38.1084 239.741 38.1995 239.882 38.2998C240.023 38.4001 240.124 38.5117 240.183 38.6348C240.242 38.7533 240.272 38.8877 240.272 39.0381ZM245.363 33.6035V34.7041H247.879V39.9062H245.363V41H251.556V39.9062H249.143V33.6035H245.363ZM247.715 31.6621C247.715 31.8672 247.776 32.0381 247.899 32.1748C248.027 32.3115 248.218 32.3799 248.473 32.3799C248.724 32.3799 248.913 32.3115 249.041 32.1748C249.168 32.0381 249.232 31.8672 249.232 31.6621C249.232 31.5482 249.214 31.4434 249.178 31.3477C249.141 31.252 249.086 31.1722 249.013 31.1084C248.954 31.0492 248.879 31.0036 248.788 30.9717C248.697 30.9352 248.592 30.917 248.473 30.917C248.355 30.917 248.248 30.9352 248.152 30.9717C248.061 31.0036 247.986 31.0492 247.927 31.1084C247.854 31.1768 247.799 31.2588 247.763 31.3545C247.731 31.4502 247.715 31.5527 247.715 31.6621ZM254.618 37.2334V37.3838C254.618 37.917 254.695 38.4115 254.85 38.8672C255.005 39.3229 255.228 39.7194 255.52 40.0566C255.807 40.3939 256.158 40.6582 256.573 40.8496C256.992 41.041 257.464 41.1367 257.988 41.1367C258.507 41.1367 258.974 41.041 259.389 40.8496C259.804 40.6582 260.157 40.3939 260.449 40.0566C260.736 39.7194 260.957 39.3229 261.112 38.8672C261.267 38.4115 261.344 37.917 261.344 37.3838V37.2334C261.344 36.7002 261.267 36.2057 261.112 35.75C260.957 35.2897 260.736 34.891 260.449 34.5537C260.157 34.2165 259.802 33.9521 259.382 33.7607C258.968 33.5648 258.498 33.4668 257.974 33.4668C257.454 33.4668 256.987 33.5648 256.573 33.7607C256.158 33.9521 255.807 34.2165 255.52 34.5537C255.228 34.891 255.005 35.2897 254.85 35.75C254.695 36.2057 254.618 36.7002 254.618 37.2334ZM255.882 37.3838V37.2334C255.882 36.8734 255.926 36.5293 256.012 36.2012C256.099 35.8685 256.231 35.5768 256.409 35.3262C256.582 35.0755 256.798 34.8773 257.058 34.7314C257.318 34.5811 257.623 34.5059 257.974 34.5059C258.325 34.5059 258.63 34.5811 258.89 34.7314C259.154 34.8773 259.375 35.0755 259.553 35.3262C259.726 35.5768 259.856 35.8685 259.943 36.2012C260.034 36.5293 260.079 36.8734 260.079 37.2334V37.3838C260.079 37.7484 260.036 38.097 259.95 38.4297C259.863 38.7578 259.733 39.0472 259.56 39.2979C259.382 39.5485 259.161 39.7467 258.897 39.8926C258.637 40.0384 258.334 40.1113 257.988 40.1113C257.637 40.1113 257.329 40.0384 257.065 39.8926C256.801 39.7467 256.582 39.5485 256.409 39.2979C256.231 39.0472 256.099 38.7578 256.012 38.4297C255.926 38.097 255.882 37.7484 255.882 37.3838ZM264.781 41H266.046V35.6953C266.132 35.5358 266.233 35.39 266.347 35.2578C266.465 35.1257 266.593 35.0094 266.729 34.9092C266.898 34.7952 267.083 34.7064 267.283 34.6426C267.484 34.5742 267.7 34.54 267.933 34.54C268.201 34.54 268.438 34.5719 268.644 34.6357C268.853 34.6995 269.031 34.8021 269.177 34.9434C269.318 35.0846 269.425 35.2692 269.498 35.4971C269.571 35.7249 269.607 36.0029 269.607 36.3311V41H270.872V36.3037C270.872 35.8115 270.811 35.3877 270.688 35.0322C270.569 34.6722 270.398 34.376 270.175 34.1436C269.951 33.9111 269.68 33.7402 269.361 33.6309C269.047 33.5215 268.696 33.4668 268.309 33.4668C268.021 33.4714 267.748 33.5146 267.488 33.5967C267.233 33.6742 266.996 33.7858 266.777 33.9316C266.632 34.0273 266.493 34.1413 266.36 34.2734C266.233 34.401 266.114 34.5423 266.005 34.6973L265.916 33.6035H264.781V41Z" fill="white"/>
<path d="M10.1602 55.5918V54.2031H0.667969V55.5918H4.62305V67H6.20508V55.5918H10.1602ZM18.341 67.1758C19.2668 67.1758 20.0432 66.9912 20.6701 66.6221C21.3029 66.2471 21.7775 65.8193 22.0939 65.3389L21.1008 64.5654C20.802 64.9521 20.427 65.2627 19.9758 65.4971C19.5246 65.7314 19.009 65.8486 18.4289 65.8486C17.9895 65.8486 17.5881 65.7666 17.2248 65.6025C16.8615 65.4385 16.551 65.2129 16.2932 64.9258C16.0412 64.6562 15.842 64.3457 15.6955 63.9941C15.5549 63.6426 15.4641 63.2354 15.423 62.7725V62.7109H22.217V61.9814C22.217 61.3193 22.132 60.7041 21.9621 60.1357C21.798 59.5674 21.5461 59.0723 21.2063 58.6504C20.8664 58.2344 20.4387 57.9092 19.923 57.6748C19.4133 57.4346 18.8156 57.3145 18.1301 57.3145C17.5852 57.3145 17.052 57.4258 16.5305 57.6484C16.0148 57.8711 15.5549 58.1904 15.1506 58.6064C14.7404 59.0283 14.4123 59.5439 14.1662 60.1533C13.9201 60.7568 13.7971 61.4424 13.7971 62.21V62.5791C13.7971 63.2412 13.9084 63.8535 14.1311 64.416C14.3537 64.9785 14.6643 65.4648 15.0627 65.875C15.4611 66.2852 15.9387 66.6045 16.4953 66.833C17.0578 67.0615 17.673 67.1758 18.341 67.1758ZM18.1301 58.6504C18.5461 58.6504 18.9035 58.7266 19.2023 58.8789C19.507 59.0312 19.759 59.2305 19.9582 59.4766C20.1574 59.7227 20.3127 60.0156 20.424 60.3555C20.5354 60.6895 20.591 61.0029 20.591 61.2959V61.375H15.4758C15.5402 60.9355 15.6516 60.5488 15.8098 60.2148C15.9738 59.875 16.173 59.5879 16.4074 59.3535C16.6418 59.125 16.9055 58.9521 17.1984 58.835C17.4914 58.7119 17.802 58.6504 18.1301 58.6504ZM27.4975 57.4902H26.0385V67H27.5854V59.4326C27.6205 59.3389 27.6645 59.251 27.7172 59.1689C27.7758 59.0869 27.8432 59.0137 27.9193 58.9492C28.0189 58.8672 28.1391 58.8057 28.2797 58.7646C28.4262 58.7178 28.5961 58.6943 28.7895 58.6943C28.9652 58.6943 29.1176 58.7178 29.2465 58.7646C29.3813 58.8057 29.4926 58.873 29.5805 58.9668C29.6742 59.0664 29.7416 59.1924 29.7826 59.3447C29.8295 59.4971 29.8529 59.6729 29.8529 59.8721V67H31.3998V59.8809C31.3998 59.8457 31.3998 59.8164 31.3998 59.793C31.3998 59.7637 31.3998 59.7344 31.3998 59.7051C31.4174 59.5586 31.4525 59.4268 31.5053 59.3096C31.558 59.1865 31.6313 59.0781 31.725 58.9844C31.8188 58.8965 31.9359 58.8262 32.0766 58.7734C32.2172 58.7207 32.3842 58.6943 32.5775 58.6943C32.7592 58.6943 32.9174 58.7178 33.0521 58.7646C33.1928 58.8115 33.31 58.8818 33.4037 58.9756C33.4916 59.0752 33.559 59.2012 33.6059 59.3535C33.6527 59.5059 33.6762 59.6816 33.6762 59.8809V67H35.223V59.8984C35.223 59.4414 35.1703 59.0459 35.0648 58.7119C34.9594 58.3721 34.807 58.0967 34.6078 57.8857C34.4262 57.6982 34.2035 57.5576 33.9398 57.4639C33.6762 57.3643 33.3803 57.3145 33.0521 57.3145C32.8119 57.3203 32.5893 57.3525 32.3842 57.4111C32.185 57.4697 32.0033 57.5488 31.8393 57.6484C31.7104 57.7363 31.5902 57.8389 31.4789 57.9561C31.3676 58.0732 31.2709 58.1992 31.1889 58.334C31.1244 58.1875 31.0453 58.0557 30.9516 57.9385C30.8637 57.8213 30.7641 57.7217 30.6527 57.6396C30.5004 57.5342 30.3217 57.4551 30.1166 57.4023C29.9174 57.3438 29.6918 57.3145 29.4398 57.3145C28.9945 57.3203 28.6137 57.417 28.2973 57.6045C27.9867 57.792 27.7348 58.0527 27.5414 58.3867L27.4975 57.4902ZM39.3521 70.6562H40.9781V66.0859C41.0953 66.2148 41.2213 66.335 41.3561 66.4463C41.4908 66.5518 41.6344 66.6484 41.7867 66.7363C42.0387 66.877 42.3199 66.9854 42.6305 67.0615C42.9469 67.1377 43.2867 67.1758 43.65 67.1758C44.2477 67.1758 44.7779 67.0527 45.2408 66.8066C45.7096 66.5605 46.1021 66.2207 46.4186 65.7871C46.735 65.3535 46.9752 64.8438 47.1393 64.2578C47.3033 63.666 47.3854 63.0303 47.3854 62.3506V62.166C47.3854 61.457 47.3033 60.8066 47.1393 60.2148C46.9752 59.6172 46.735 59.1045 46.4186 58.6768C46.1021 58.249 45.7096 57.915 45.2408 57.6748C44.7721 57.4346 44.233 57.3145 43.6236 57.3145C43.2779 57.3145 42.9527 57.3525 42.648 57.4287C42.3492 57.499 42.0768 57.6045 41.8307 57.7451C41.6549 57.8389 41.4908 57.9531 41.3385 58.0879C41.1861 58.2168 41.0455 58.3633 40.9166 58.5273L40.8375 57.4902H39.3521V70.6562ZM45.7594 62.166V62.3506C45.7594 62.8135 45.7066 63.2559 45.6012 63.6777C45.5016 64.0996 45.3463 64.4717 45.1354 64.7939C44.9244 65.1162 44.6549 65.374 44.3268 65.5674C43.9986 65.7549 43.609 65.8486 43.1578 65.8486C42.8766 65.8486 42.6188 65.8135 42.3844 65.7432C42.1559 65.6729 41.9479 65.5762 41.7604 65.4531C41.5963 65.3477 41.4498 65.2188 41.3209 65.0664C41.192 64.9141 41.0777 64.75 40.9781 64.5742V59.9951C41.0895 59.7959 41.2184 59.6143 41.3648 59.4502C41.5113 59.2861 41.6783 59.1484 41.8658 59.0371C42.0357 58.9258 42.2262 58.8408 42.4371 58.7822C42.6539 58.7236 42.8883 58.6943 43.1402 58.6943C43.5973 58.6943 43.9898 58.7881 44.318 58.9756C44.6461 59.1631 44.9186 59.415 45.1354 59.7314C45.3463 60.0537 45.5016 60.4258 45.6012 60.8477C45.7066 61.2637 45.7594 61.7031 45.7594 62.166ZM56.1727 67.1758C57.0984 67.1758 57.8748 66.9912 58.5018 66.6221C59.1346 66.2471 59.6092 65.8193 59.9256 65.3389L58.9324 64.5654C58.6336 64.9521 58.2586 65.2627 57.8074 65.4971C57.3563 65.7314 56.8406 65.8486 56.2605 65.8486C55.8211 65.8486 55.4197 65.7666 55.0564 65.6025C54.6932 65.4385 54.3826 65.2129 54.1248 64.9258C53.8729 64.6562 53.6736 64.3457 53.5271 63.9941C53.3865 63.6426 53.2957 63.2354 53.2547 62.7725V62.7109H60.0486V61.9814C60.0486 61.3193 59.9637 60.7041 59.7938 60.1357C59.6297 59.5674 59.3777 59.0723 59.0379 58.6504C58.698 58.2344 58.2703 57.9092 57.7547 57.6748C57.2449 57.4346 56.6473 57.3145 55.9617 57.3145C55.4168 57.3145 54.8836 57.4258 54.3621 57.6484C53.8465 57.8711 53.3865 58.1904 52.9822 58.6064C52.5721 59.0283 52.2439 59.5439 51.9979 60.1533C51.7518 60.7568 51.6287 61.4424 51.6287 62.21V62.5791C51.6287 63.2412 51.74 63.8535 51.9627 64.416C52.1854 64.9785 52.4959 65.4648 52.8943 65.875C53.2928 66.2852 53.7703 66.6045 54.327 66.833C54.8895 67.0615 55.5047 67.1758 56.1727 67.1758ZM55.9617 58.6504C56.3777 58.6504 56.7352 58.7266 57.034 58.8789C57.3387 59.0312 57.5906 59.2305 57.7898 59.4766C57.9891 59.7227 58.1443 60.0156 58.2557 60.3555C58.367 60.6895 58.4227 61.0029 58.4227 61.2959V61.375H53.3074C53.3719 60.9355 53.4832 60.5488 53.6414 60.2148C53.8055 59.875 54.0047 59.5879 54.2391 59.3535C54.4734 59.125 54.7371 58.9521 55.0301 58.835C55.323 58.7119 55.6336 58.6504 55.9617 58.6504ZM70.8135 57.3145C70.1221 57.3145 69.5039 57.4668 68.959 57.7715C68.4199 58.0703 67.957 58.4805 67.5703 59.002L67.5615 58.7646L67.4912 57.4902H65.9443V67H67.5791V60.9004C67.6846 60.6074 67.8164 60.3438 67.9746 60.1094C68.1387 59.8691 68.3291 59.667 68.5459 59.5029C68.7861 59.3154 69.0674 59.1748 69.3896 59.0811C69.7119 58.9814 70.0723 58.9316 70.4707 58.9316C70.7812 58.9316 71.0771 58.9492 71.3584 58.9844C71.6455 59.0137 71.9473 59.0635 72.2637 59.1338L72.4834 57.543C72.3193 57.4727 72.0732 57.417 71.7451 57.376C71.4229 57.335 71.1123 57.3145 70.8135 57.3145ZM83.4416 67H85.1379V66.8594C85.0324 66.5957 84.9504 66.2881 84.8918 65.9365C84.8332 65.5791 84.8039 65.2422 84.8039 64.9258V60.5049C84.8039 59.9717 84.7072 59.5059 84.5139 59.1074C84.3205 58.709 84.0568 58.375 83.7229 58.1055C83.383 57.8418 82.9816 57.6455 82.5188 57.5166C82.0559 57.3818 81.5549 57.3145 81.0158 57.3145C80.424 57.3145 79.8938 57.3965 79.425 57.5605C78.9621 57.7246 78.5695 57.9385 78.2473 58.2021C77.9191 58.4717 77.6672 58.7734 77.4914 59.1074C77.3215 59.4414 77.2336 59.7812 77.2277 60.127H78.8625C78.8625 59.9277 78.9094 59.7373 79.0031 59.5557C79.1027 59.3682 79.2404 59.207 79.4162 59.0723C79.592 58.9375 79.8059 58.8291 80.0578 58.7471C80.3156 58.665 80.6057 58.624 80.9279 58.624C81.2736 58.624 81.5842 58.668 81.8596 58.7559C82.1408 58.8438 82.3781 58.9668 82.5715 59.125C82.7648 59.2891 82.9143 59.4854 83.0197 59.7139C83.1252 59.9424 83.1779 60.2002 83.1779 60.4873V61.2344H81.4025C80.7404 61.2344 80.1398 61.2988 79.6008 61.4277C79.0676 61.5566 78.6105 61.75 78.2297 62.0078C77.8488 62.2715 77.5529 62.5996 77.342 62.9922C77.1369 63.3848 77.0344 63.8418 77.0344 64.3633C77.0344 64.7617 77.1105 65.1338 77.2629 65.4795C77.4211 65.8193 77.6438 66.1123 77.9309 66.3584C78.2121 66.6104 78.5549 66.8096 78.9592 66.9561C79.3693 67.1025 79.8264 67.1758 80.3303 67.1758C80.6408 67.1758 80.9338 67.1436 81.2092 67.0791C81.4846 67.0146 81.7453 66.9268 81.9914 66.8154C82.2316 66.7041 82.4514 66.5752 82.6506 66.4287C82.8557 66.2822 83.0402 66.127 83.2043 65.9629C83.2219 66.1621 83.2482 66.3555 83.2834 66.543C83.3244 66.7246 83.3772 66.877 83.4416 67ZM80.5676 65.7607C80.2512 65.7607 79.9729 65.7197 79.7326 65.6377C79.4924 65.5557 79.2932 65.4414 79.135 65.2949C78.9768 65.1543 78.8566 64.9844 78.7746 64.7852C78.6984 64.5859 78.6604 64.3691 78.6604 64.1348C78.6604 63.8887 78.7043 63.6689 78.7922 63.4756C78.8859 63.2822 79.0207 63.1152 79.1965 62.9746C79.4426 62.7754 79.7736 62.6289 80.1897 62.5352C80.6115 62.4355 81.1037 62.3857 81.6662 62.3857H83.1779V64.3105C83.0842 64.498 82.9553 64.6797 82.7912 64.8555C82.6272 65.0254 82.4338 65.1777 82.2111 65.3125C81.9826 65.4473 81.7307 65.5557 81.4553 65.6377C81.1799 65.7197 80.884 65.7607 80.5676 65.7607ZM93.6527 55.1875H92.018V57.4902H89.5219V58.7471H92.018V63.915C92.018 64.501 92.0941 65.002 92.2465 65.418C92.4047 65.8281 92.6186 66.1621 92.8881 66.4199C93.1576 66.6836 93.474 66.877 93.8373 67C94.2064 67.1172 94.602 67.1758 95.0238 67.1758C95.2758 67.1758 95.5277 67.1641 95.7797 67.1406C96.0375 67.1172 96.2807 67.082 96.5092 67.0352C96.7377 66.9941 96.9486 66.9443 97.142 66.8857C97.3354 66.8213 97.4994 66.748 97.6342 66.666L97.4057 65.5146C97.3061 65.5381 97.1771 65.5674 97.0189 65.6025C96.8666 65.6318 96.7025 65.6611 96.5268 65.6904C96.3451 65.7197 96.1605 65.7461 95.973 65.7695C95.7855 65.7871 95.6039 65.7959 95.4281 65.7959C95.1879 65.7959 94.9594 65.7666 94.7426 65.708C94.5316 65.6494 94.3441 65.5469 94.1801 65.4004C94.016 65.2598 93.8871 65.0693 93.7934 64.8291C93.6996 64.5889 93.6527 64.2842 93.6527 63.915V58.7471H97.2738V57.4902H93.6527V55.1875ZM108.68 67H110.157V57.4902H108.522V64.3105C108.434 64.5156 108.323 64.7061 108.188 64.8818C108.059 65.0518 107.907 65.1982 107.731 65.3213C107.52 65.4736 107.271 65.5938 106.984 65.6816C106.697 65.7637 106.372 65.8047 106.008 65.8047C105.698 65.8047 105.422 65.7637 105.182 65.6816C104.948 65.5996 104.749 65.4561 104.585 65.251C104.421 65.0518 104.297 64.7822 104.215 64.4424C104.133 64.1025 104.092 63.6748 104.092 63.1592V57.4902H102.466V63.1416C102.466 63.8506 102.543 64.46 102.695 64.9697C102.853 65.4736 103.076 65.8896 103.363 66.2178C103.65 66.5459 103.996 66.7891 104.4 66.9473C104.804 67.0996 105.255 67.1758 105.754 67.1758C106.375 67.1758 106.922 67.0469 107.397 66.7891C107.872 66.5254 108.267 66.1592 108.584 65.6904L108.68 67ZM121.256 57.3145C120.564 57.3145 119.946 57.4668 119.401 57.7715C118.862 58.0703 118.399 58.4805 118.012 59.002L118.004 58.7646L117.933 57.4902H116.387V67H118.021V60.9004C118.127 60.6074 118.259 60.3438 118.417 60.1094C118.581 59.8691 118.771 59.667 118.988 59.5029C119.228 59.3154 119.51 59.1748 119.832 59.0811C120.154 58.9814 120.514 58.9316 120.913 58.9316C121.223 58.9316 121.519 58.9492 121.801 58.9844C122.088 59.0137 122.389 59.0635 122.706 59.1338L122.926 57.543C122.762 57.4727 122.515 57.417 122.187 57.376C121.865 57.335 121.554 57.3145 121.256 57.3145ZM131.836 67.1758C132.762 67.1758 133.538 66.9912 134.165 66.6221C134.798 66.2471 135.272 65.8193 135.589 65.3389L134.596 64.5654C134.297 64.9521 133.922 65.2627 133.471 65.4971C133.02 65.7314 132.504 65.8486 131.924 65.8486C131.484 65.8486 131.083 65.7666 130.72 65.6025C130.356 65.4385 130.046 65.2129 129.788 64.9258C129.536 64.6562 129.337 64.3457 129.19 63.9941C129.05 63.6426 128.959 63.2354 128.918 62.7725V62.7109H135.712V61.9814C135.712 61.3193 135.627 60.7041 135.457 60.1357C135.293 59.5674 135.041 59.0723 134.701 58.6504C134.361 58.2344 133.934 57.9092 133.418 57.6748C132.908 57.4346 132.311 57.3145 131.625 57.3145C131.08 57.3145 130.547 57.4258 130.025 57.6484C129.51 57.8711 129.05 58.1904 128.646 58.6064C128.235 59.0283 127.907 59.5439 127.661 60.1533C127.415 60.7568 127.292 61.4424 127.292 62.21V62.5791C127.292 63.2412 127.403 63.8535 127.626 64.416C127.849 64.9785 128.159 65.4648 128.558 65.875C128.956 66.2852 129.434 66.6045 129.99 66.833C130.553 67.0615 131.168 67.1758 131.836 67.1758ZM131.625 58.6504C132.041 58.6504 132.398 58.7266 132.697 58.8789C133.002 59.0312 133.254 59.2305 133.453 59.4766C133.652 59.7227 133.808 60.0156 133.919 60.3555C134.03 60.6895 134.086 61.0029 134.086 61.2959V61.375H128.971C129.035 60.9355 129.146 60.5488 129.305 60.2148C129.469 59.875 129.668 59.5879 129.902 59.3535C130.137 59.125 130.4 58.9521 130.693 58.835C130.986 58.7119 131.297 58.6504 131.625 58.6504Z" fill="white"/>
<path d="M260.1 61.6572V55.0469H258.753L254.296 61.9443V62.6895H258.835V65H260.1V62.6895H261.488V61.6572H260.1ZM255.698 61.6572L258.63 57.1113L258.835 56.7285V61.6572H255.698ZM265.232 60.0098L266.244 60.2695C266.358 60.1693 266.467 60.0804 266.572 60.0029C266.682 59.9255 266.798 59.8594 266.921 59.8047C267.044 59.75 267.181 59.709 267.331 59.6816C267.486 59.6497 267.668 59.6338 267.878 59.6338C268.197 59.6338 268.479 59.6908 268.726 59.8047C268.972 59.9186 269.179 60.0736 269.348 60.2695C269.516 60.4701 269.644 60.7048 269.73 60.9736C269.822 61.2425 269.867 61.5319 269.867 61.8418C269.867 62.1836 269.826 62.4935 269.744 62.7715C269.667 63.0495 269.55 63.2865 269.396 63.4824C269.236 63.6829 269.04 63.8379 268.808 63.9473C268.575 64.0521 268.309 64.1045 268.008 64.1045C267.475 64.1045 267.037 63.9587 266.695 63.667C266.358 63.3753 266.151 62.9469 266.073 62.3818H264.87C264.916 62.8421 265.027 63.2454 265.205 63.5918C265.387 63.9382 265.62 64.2253 265.902 64.4531C266.18 64.681 266.499 64.8519 266.859 64.9658C267.219 65.0798 267.602 65.1367 268.008 65.1367C268.536 65.1367 268.997 65.0547 269.389 64.8906C269.781 64.722 270.106 64.4896 270.366 64.1934C270.621 63.9017 270.813 63.5531 270.94 63.1475C271.068 62.7419 271.132 62.3021 271.132 61.8281C271.132 61.3268 271.063 60.8711 270.927 60.4609C270.79 60.0508 270.594 59.6999 270.339 59.4082C270.084 59.1211 269.774 58.8978 269.409 58.7383C269.045 58.5788 268.632 58.499 268.172 58.499C267.812 58.499 267.495 58.5423 267.222 58.6289C266.948 58.7155 266.714 58.8158 266.518 58.9297L266.798 56.2773H270.838V55.0469H265.731L265.232 60.0098Z" fill="white"/>
<path d="M3.36621 89.6201V78.2031H1.74023V91H9.62402V89.6201H3.36621ZM20.3889 91H22.0852V90.8594C21.9797 90.5957 21.8977 90.2881 21.8391 89.9365C21.7805 89.5791 21.7512 89.2422 21.7512 88.9258V84.5049C21.7512 83.9717 21.6545 83.5059 21.4611 83.1074C21.2678 82.709 21.0041 82.375 20.6701 82.1055C20.3303 81.8418 19.9289 81.6455 19.466 81.5166C19.0031 81.3818 18.5021 81.3145 17.9631 81.3145C17.3713 81.3145 16.841 81.3965 16.3723 81.5605C15.9094 81.7246 15.5168 81.9385 15.1945 82.2021C14.8664 82.4717 14.6145 82.7734 14.4387 83.1074C14.2688 83.4414 14.1809 83.7812 14.175 84.127H15.8098C15.8098 83.9277 15.8566 83.7373 15.9504 83.5557C16.05 83.3682 16.1877 83.207 16.3635 83.0723C16.5393 82.9375 16.7531 82.8291 17.0051 82.7471C17.2629 82.665 17.5529 82.624 17.8752 82.624C18.2209 82.624 18.5314 82.668 18.8068 82.7559C19.0881 82.8438 19.3254 82.9668 19.5188 83.125C19.7121 83.2891 19.8615 83.4854 19.967 83.7139C20.0725 83.9424 20.1252 84.2002 20.1252 84.4873V85.2344H18.3498C17.6877 85.2344 17.0871 85.2988 16.548 85.4277C16.0148 85.5566 15.5578 85.75 15.177 86.0078C14.7961 86.2715 14.5002 86.5996 14.2893 86.9922C14.0842 87.3848 13.9816 87.8418 13.9816 88.3633C13.9816 88.7617 14.0578 89.1338 14.2102 89.4795C14.3684 89.8193 14.591 90.1123 14.8781 90.3584C15.1594 90.6104 15.5021 90.8096 15.9064 90.9561C16.3166 91.1025 16.7736 91.1758 17.2775 91.1758C17.5881 91.1758 17.8811 91.1436 18.1564 91.0791C18.4318 91.0146 18.6926 90.9268 18.9387 90.8154C19.1789 90.7041 19.3986 90.5752 19.5979 90.4287C19.8029 90.2822 19.9875 90.127 20.1516 89.9629C20.1691 90.1621 20.1955 90.3555 20.2307 90.543C20.2717 90.7246 20.3244 90.877 20.3889 91ZM17.5148 89.7607C17.1984 89.7607 16.9201 89.7197 16.6799 89.6377C16.4396 89.5557 16.2404 89.4414 16.0822 89.2949C15.924 89.1543 15.8039 88.9844 15.7219 88.7852C15.6457 88.5859 15.6076 88.3691 15.6076 88.1348C15.6076 87.8887 15.6516 87.6689 15.7395 87.4756C15.8332 87.2822 15.968 87.1152 16.1438 86.9746C16.3898 86.7754 16.7209 86.6289 17.1369 86.5352C17.5588 86.4355 18.051 86.3857 18.6135 86.3857H20.1252V88.3105C20.0314 88.498 19.9025 88.6797 19.7385 88.8555C19.5744 89.0254 19.3811 89.1777 19.1584 89.3125C18.9299 89.4473 18.6779 89.5557 18.4025 89.6377C18.1271 89.7197 17.8313 89.7607 17.5148 89.7607ZM27.515 94.8408C27.9428 94.8408 28.3207 94.7617 28.6488 94.6035C28.977 94.4453 29.2641 94.249 29.5102 94.0146C29.7563 93.7803 29.9643 93.5254 30.1342 93.25C30.31 92.9746 30.4535 92.7139 30.5648 92.4678L35.39 81.4902H33.5707L31.1186 87.6602L30.6703 88.7764L30.2484 87.625L27.6381 81.4902H25.8188L29.9145 90.5518L29.2641 91.8174C29.2055 91.9346 29.1234 92.084 29.018 92.2656C28.9184 92.4473 28.7982 92.623 28.6576 92.793C28.5111 92.9629 28.3441 93.1094 28.1566 93.2324C27.975 93.3555 27.7729 93.417 27.5502 93.417C27.4682 93.417 27.3539 93.4111 27.2074 93.3994C27.0668 93.3936 26.9232 93.3848 26.7768 93.373L26.5131 94.7002C26.6186 94.7236 26.7738 94.7529 26.9789 94.7881C27.184 94.8232 27.3627 94.8408 27.515 94.8408ZM43.5621 91.1758C44.4879 91.1758 45.2643 90.9912 45.8912 90.6221C46.524 90.2471 46.9986 89.8193 47.315 89.3389L46.3219 88.5654C46.023 88.9521 45.648 89.2627 45.1969 89.4971C44.7457 89.7314 44.2301 89.8486 43.65 89.8486C43.2105 89.8486 42.8092 89.7666 42.4459 89.6025C42.0826 89.4385 41.7721 89.2129 41.5143 88.9258C41.2623 88.6562 41.0631 88.3457 40.9166 87.9941C40.776 87.6426 40.6852 87.2354 40.6441 86.7725V86.7109H47.4381V85.9814C47.4381 85.3193 47.3531 84.7041 47.1832 84.1357C47.0191 83.5674 46.7672 83.0723 46.4273 82.6504C46.0875 82.2344 45.6598 81.9092 45.1441 81.6748C44.6344 81.4346 44.0367 81.3145 43.3512 81.3145C42.8063 81.3145 42.273 81.4258 41.7516 81.6484C41.2359 81.8711 40.776 82.1904 40.3717 82.6064C39.9615 83.0283 39.6334 83.5439 39.3873 84.1533C39.1412 84.7568 39.0182 85.4424 39.0182 86.21V86.5791C39.0182 87.2412 39.1295 87.8535 39.3521 88.416C39.5748 88.9785 39.8854 89.4648 40.2838 89.875C40.6822 90.2852 41.1598 90.6045 41.7164 90.833C42.2789 91.0615 42.8941 91.1758 43.5621 91.1758ZM43.3512 82.6504C43.7672 82.6504 44.1246 82.7266 44.4234 82.8789C44.7281 83.0312 44.9801 83.2305 45.1793 83.4766C45.3785 83.7227 45.5338 84.0156 45.6451 84.3555C45.7564 84.6895 45.8121 85.0029 45.8121 85.2959V85.375H40.6969C40.7613 84.9355 40.8727 84.5488 41.0309 84.2148C41.1949 83.875 41.3941 83.5879 41.6285 83.3535C41.8629 83.125 42.1266 82.9521 42.4195 82.835C42.7125 82.7119 43.023 82.6504 43.3512 82.6504ZM58.2029 81.3145C57.5115 81.3145 56.8934 81.4668 56.3484 81.7715C55.8094 82.0703 55.3465 82.4805 54.9598 83.002L54.951 82.7646L54.8807 81.4902H53.3338V91H54.9686V84.9004C55.074 84.6074 55.2059 84.3438 55.3641 84.1094C55.5281 83.8691 55.7186 83.667 55.9354 83.5029C56.1756 83.3154 56.4568 83.1748 56.7791 83.0811C57.1014 82.9814 57.4617 82.9316 57.8602 82.9316C58.1707 82.9316 58.4666 82.9492 58.7479 82.9844C59.035 83.0137 59.3367 83.0635 59.6531 83.1338L59.8729 81.543C59.7088 81.4727 59.4627 81.417 59.1346 81.376C58.8123 81.335 58.5018 81.3145 58.2029 81.3145ZM85.217 91V78.2031H83.6789V83.7051H78.4318V78.2031H76.9025V91H78.4318V85.085H83.6789V91H85.217ZM94.0043 91.1758C94.9301 91.1758 95.7064 90.9912 96.3334 90.6221C96.9662 90.2471 97.4408 89.8193 97.7572 89.3389L96.7641 88.5654C96.4652 88.9521 96.0902 89.2627 95.6391 89.4971C95.1879 89.7314 94.6723 89.8486 94.0922 89.8486C93.6527 89.8486 93.2514 89.7666 92.8881 89.6025C92.5248 89.4385 92.2143 89.2129 91.9564 88.9258C91.7045 88.6562 91.5053 88.3457 91.3588 87.9941C91.2182 87.6426 91.1273 87.2354 91.0863 86.7725V86.7109H97.8803V85.9814C97.8803 85.3193 97.7953 84.7041 97.6254 84.1357C97.4613 83.5674 97.2094 83.0723 96.8695 82.6504C96.5297 82.2344 96.102 81.9092 95.5863 81.6748C95.0766 81.4346 94.4789 81.3145 93.7934 81.3145C93.2484 81.3145 92.7152 81.4258 92.1937 81.6484C91.6781 81.8711 91.2182 82.1904 90.8139 82.6064C90.4037 83.0283 90.0756 83.5439 89.8295 84.1533C89.5834 84.7568 89.4604 85.4424 89.4604 86.21V86.5791C89.4604 87.2412 89.5717 87.8535 89.7943 88.416C90.017 88.9785 90.3275 89.4648 90.726 89.875C91.1244 90.2852 91.602 90.6045 92.1586 90.833C92.7211 91.0615 93.3363 91.1758 94.0043 91.1758ZM93.7934 82.6504C94.2094 82.6504 94.5668 82.7266 94.8656 82.8789C95.1703 83.0312 95.4223 83.2305 95.6215 83.4766C95.8207 83.7227 95.976 84.0156 96.0873 84.3555C96.1986 84.6895 96.2543 85.0029 96.2543 85.2959V85.375H91.1391C91.2035 84.9355 91.3148 84.5488 91.473 84.2148C91.6371 83.875 91.8363 83.5879 92.0707 83.3535C92.3051 83.125 92.5687 82.9521 92.8617 82.835C93.1547 82.7119 93.4652 82.6504 93.7934 82.6504ZM102.669 81.4902V82.9053H105.903V89.5938H102.669V91H110.631V89.5938H107.529V81.4902H102.669ZM105.692 78.9941C105.692 79.2578 105.771 79.4775 105.929 79.6533C106.093 79.8291 106.339 79.917 106.668 79.917C106.99 79.917 107.233 79.8291 107.397 79.6533C107.561 79.4775 107.643 79.2578 107.643 78.9941C107.643 78.8477 107.62 78.7129 107.573 78.5898C107.526 78.4668 107.456 78.3643 107.362 78.2822C107.286 78.2061 107.189 78.1475 107.072 78.1064C106.955 78.0596 106.82 78.0361 106.668 78.0361C106.515 78.0361 106.378 78.0596 106.254 78.1064C106.137 78.1475 106.041 78.2061 105.964 78.2822C105.871 78.3701 105.8 78.4756 105.754 78.5986C105.713 78.7217 105.692 78.8535 105.692 78.9941ZM114.725 86.166V86.3506C114.725 87.0303 114.813 87.666 114.989 88.2578C115.165 88.8438 115.417 89.3535 115.745 89.7871C116.067 90.2207 116.463 90.5605 116.931 90.8066C117.4 91.0527 117.925 91.1758 118.505 91.1758C118.85 91.1758 119.173 91.1377 119.471 91.0615C119.77 90.9912 120.043 90.8887 120.289 90.7539C120.447 90.666 120.594 90.5635 120.728 90.4463C120.869 90.3291 121.001 90.2002 121.124 90.0596V90.877C121.124 91.2871 121.065 91.6504 120.948 91.9668C120.831 92.2832 120.664 92.5469 120.447 92.7578C120.224 92.9746 119.958 93.1387 119.647 93.25C119.337 93.3613 118.988 93.417 118.601 93.417C118.385 93.417 118.168 93.3936 117.951 93.3467C117.734 93.3057 117.517 93.2354 117.301 93.1357C117.084 93.0361 116.87 92.9014 116.659 92.7314C116.448 92.5674 116.243 92.3652 116.044 92.125L115.2 93.1006C115.417 93.4111 115.675 93.6719 115.973 93.8828C116.278 94.0938 116.595 94.2607 116.923 94.3838C117.245 94.5127 117.564 94.6035 117.881 94.6562C118.197 94.7148 118.478 94.7441 118.724 94.7441C119.322 94.7441 119.867 94.6562 120.359 94.4805C120.851 94.3047 121.276 94.0469 121.634 93.707C121.985 93.3672 122.258 92.9541 122.451 92.4678C122.65 91.9814 122.75 91.4248 122.75 90.7979V81.4902H121.273L121.194 82.5273C121.083 82.3867 120.963 82.2578 120.834 82.1406C120.711 82.0234 120.579 81.9209 120.438 81.833C120.18 81.6631 119.89 81.5342 119.568 81.4463C119.252 81.3584 118.903 81.3145 118.522 81.3145C117.93 81.3145 117.4 81.4346 116.931 81.6748C116.463 81.915 116.064 82.249 115.736 82.6768C115.408 83.1045 115.156 83.6172 114.98 84.2148C114.81 84.8066 114.725 85.457 114.725 86.166ZM116.351 86.3506V86.166C116.351 85.7031 116.398 85.2637 116.492 84.8477C116.592 84.4258 116.747 84.0537 116.958 83.7314C117.163 83.415 117.427 83.1631 117.749 82.9756C118.077 82.7881 118.47 82.6943 118.927 82.6943C119.196 82.6943 119.442 82.7295 119.665 82.7998C119.887 82.8643 120.09 82.9551 120.271 83.0723C120.453 83.1953 120.614 83.3389 120.755 83.5029C120.895 83.667 121.018 83.8486 121.124 84.0479V88.4072C121.018 88.6123 120.895 88.7998 120.755 88.9697C120.614 89.1396 120.456 89.2861 120.28 89.4092C120.098 89.5322 119.893 89.6289 119.665 89.6992C119.442 89.7637 119.19 89.7959 118.909 89.7959C118.458 89.7959 118.071 89.7051 117.749 89.5234C117.427 89.3359 117.163 89.084 116.958 88.7676C116.747 88.4512 116.592 88.085 116.492 87.6689C116.398 87.2529 116.351 86.8135 116.351 86.3506ZM129.261 82.9053V77.5H127.635V91H129.261V84.0918C129.378 83.9043 129.51 83.7344 129.656 83.582C129.809 83.4238 129.973 83.2861 130.148 83.1689C130.371 83.0166 130.614 82.8994 130.878 82.8174C131.142 82.7354 131.42 82.6943 131.713 82.6943C132.07 82.6885 132.387 82.7383 132.662 82.8438C132.938 82.9434 133.166 83.0957 133.348 83.3008C133.518 83.4883 133.646 83.7256 133.734 84.0127C133.822 84.2939 133.866 84.6221 133.866 84.9971V91H135.492V85.0146C135.492 84.376 135.413 83.8252 135.255 83.3623C135.103 82.8936 134.883 82.5068 134.596 82.2021C134.309 81.8975 133.96 81.6748 133.55 81.5342C133.146 81.3877 132.694 81.3145 132.196 81.3145C131.815 81.3203 131.455 81.376 131.115 81.4814C130.781 81.5869 130.474 81.7422 130.192 81.9473C130.017 82.0703 129.85 82.2139 129.691 82.3779C129.533 82.5361 129.39 82.7119 129.261 82.9053ZM144.095 79.1875H142.46V81.4902H139.964V82.7471H142.46V87.915C142.46 88.501 142.536 89.002 142.689 89.418C142.847 89.8281 143.061 90.1621 143.33 90.4199C143.6 90.6836 143.916 90.877 144.279 91C144.649 91.1172 145.044 91.1758 145.466 91.1758C145.718 91.1758 145.97 91.1641 146.222 91.1406C146.48 91.1172 146.723 91.082 146.951 91.0352C147.18 90.9941 147.391 90.9443 147.584 90.8857C147.778 90.8213 147.942 90.748 148.076 90.666L147.848 89.5146C147.748 89.5381 147.619 89.5674 147.461 89.6025C147.309 89.6318 147.145 89.6611 146.969 89.6904C146.787 89.7197 146.603 89.7461 146.415 89.7695C146.228 89.7871 146.046 89.7959 145.87 89.7959C145.63 89.7959 145.402 89.7666 145.185 89.708C144.974 89.6494 144.786 89.5469 144.622 89.4004C144.458 89.2598 144.329 89.0693 144.236 88.8291C144.142 88.5889 144.095 88.2842 144.095 87.915V82.7471H147.716V81.4902H144.095V79.1875Z" fill="white"/>
<path d="M259.075 89V79.0469H258.972L255.205 80.4961V81.6514L257.81 80.6602V89H259.075ZM271.029 85.1924V82.8613C271.029 82.2279 270.956 81.6673 270.811 81.1797C270.665 80.6875 270.455 80.2728 270.182 79.9355C269.904 79.5983 269.564 79.3431 269.163 79.1699C268.767 78.9922 268.313 78.9033 267.803 78.9033C267.297 78.9033 266.843 78.9922 266.442 79.1699C266.046 79.3431 265.711 79.5983 265.438 79.9355C265.16 80.2728 264.948 80.6875 264.802 81.1797C264.656 81.6673 264.583 82.2279 264.583 82.8613V85.1924C264.583 85.8258 264.656 86.3887 264.802 86.8809C264.948 87.3685 265.16 87.7786 265.438 88.1113C265.715 88.4531 266.055 88.7106 266.456 88.8838C266.857 89.0524 267.311 89.1367 267.816 89.1367C268.327 89.1367 268.78 89.0501 269.177 88.877C269.573 88.7038 269.908 88.4486 270.182 88.1113C270.455 87.7786 270.665 87.3685 270.811 86.8809C270.956 86.3887 271.029 85.8258 271.029 85.1924ZM265.854 84.9395C265.854 84.821 265.854 84.7048 265.854 84.5908C265.854 84.4769 265.854 84.363 265.854 84.249V82.5811C265.854 82.1162 265.9 81.7083 265.991 81.3574C266.087 81.002 266.23 80.7126 266.422 80.4893C266.581 80.3115 266.775 80.1771 267.003 80.0859C267.235 79.9902 267.502 79.9424 267.803 79.9424C268.099 79.9424 268.359 79.9857 268.582 80.0723C268.81 80.1589 269.001 80.2887 269.156 80.4619C269.316 80.6305 269.441 80.8424 269.532 81.0977C269.628 81.3483 269.694 81.6377 269.73 81.9658L265.854 84.9395ZM269.758 85.459C269.758 85.9466 269.708 86.3704 269.607 86.7305C269.512 87.0905 269.359 87.3822 269.149 87.6055C268.994 87.7695 268.805 87.8949 268.582 87.9814C268.359 88.068 268.104 88.1113 267.816 88.1113C267.543 88.1113 267.297 88.0726 267.078 87.9951C266.859 87.9131 266.673 87.7946 266.518 87.6396C266.349 87.4756 266.212 87.2682 266.107 87.0176C266.003 86.7624 265.93 86.4684 265.889 86.1357L269.758 83.1758C269.758 83.3034 269.758 83.4652 269.758 83.6611C269.758 83.8525 269.758 83.9824 269.758 84.0508V85.459Z" fill="white"/>
<path d="M6.24023 108.136V104.4H4.61426V108.136H1.0459V109.753H4.61426V113.717H6.24023V109.753H9.81738V108.136H6.24023Z" fill="white"/>
</svg>
