<svg width="807" height="1118" viewBox="0 0 807 1118" fill="none" xmlns="http://www.w3.org/2000/svg">
<g clip-path="url(#clip0_2096_16802)">
<path d="M382.823 1015.3C368.231 1012.51 353.728 1016.25 339.243 1016.82C330 1017.15 320.784 1018.03 311.643 1019.45C282.193 1024.09 252.689 1027.85 225.338 1040.99C215.889 1045.55 208.629 1052.98 200.852 1059.35C192.168 1066.47 192.115 1072.12 203.183 1081.98C215.836 1093.26 232.1 1097.12 247.671 1101.3C269.149 1107.04 291.197 1110.19 313.512 1112.47C346.003 1116.13 378.689 1117.79 411.384 1117.45C433.04 1117.02 454.786 1116.1 476.318 1113.89C501.124 1111.26 526.037 1108.22 550.131 1101.44C566.502 1096.83 583.319 1092.42 596.398 1080.32C606.683 1070.88 601.345 1061.93 592.999 1056.04C581.041 1047.61 569.866 1038.45 555.487 1033.95C536.554 1028.01 517.193 1024.61 497.654 1021.37C473.435 1017.33 448.967 1016.98 424.695 1014.59C421.527 1014.27 418.057 1013.56 414.925 1015.38" stroke="white" stroke-opacity="0.6" stroke-linecap="round" stroke-linejoin="round"/>
<path d="M91.875 0.444824C97.3914 2.36603 97.0711 7.96956 98.993 12.0432C116.646 51.4042 134.162 90.8305 151.541 130.322C168.589 169.102 185.227 208.06 202.399 246.768C206.919 256.944 210.692 267.475 216.279 277.205C217.116 278.682 218.877 280.977 218.272 283.289C213.112 303.053 223.735 319.454 230.07 336.656C235.676 351.812 243.897 366.043 249.058 381.324C251.798 389.454 257.243 395.982 259.414 404.29C261.585 412.597 269.095 410.658 274.309 409.431C289.699 405.879 304.221 399.28 317.016 390.023C321.198 386.981 322.675 383.69 320.024 377.571C306.606 346.493 293.331 315.309 277.992 285.157C275.287 279.82 268.418 276.6 269.913 269.147" stroke="white" stroke-opacity="0.6" stroke-linecap="round" stroke-linejoin="round"/>
<path d="M-9.55469 1.33427C-4.83903 2.8997 -4.21621 7.54262 -2.43672 11.1538C12.5466 44.8816 27.3757 78.6806 42.0506 112.551C62.2182 158.802 82.3858 205.053 102.553 251.305C104.902 256.641 106.771 262.298 109.796 267.315C114.903 275.711 116.042 284.268 115.366 294.087C114.654 304.262 119.334 314.011 123.16 323.368C133.125 347.845 143.749 372.056 154.212 396.302C155.369 398.971 157.237 401.177 157.86 404.29C159.088 410.409 164.497 411.405 169.249 410.391C186.467 406.448 202.754 399.198 217.206 389.045C221.281 386.234 220.445 381.431 218.327 376.717C208.006 353.698 198.219 330.465 187.898 307.34C182.932 296.423 176.975 285.985 170.103 276.156C169.356 275.071 169.213 273.238 168.323 272.705C150.155 262.547 147.717 242.57 140.207 226.222C118.017 177.996 97.2149 129.112 75.8432 80.4951C64.6146 54.9858 53.1902 29.5475 42.2285 3.91366C41.9252 3.07776 41.4261 2.32664 40.7729 1.72313C40.1197 1.11963 39.3313 0.681302 38.4738 0.444824" stroke="white" stroke-opacity="0.6" stroke-linecap="round" stroke-linejoin="round"/>
<path d="M695.123 2.22363C682.074 31.5754 669.024 60.9272 655.974 90.2789C645.92 112.818 635.67 135.285 625.723 157.877C609.601 194.593 593.692 231.434 577.552 268.168C573.833 276.583 573.388 284.748 573.264 293.98C573.103 305.596 567.676 317.408 563.245 328.615C556.127 346.653 548.315 364.425 540.112 381.982C537.87 386.714 538.563 388.689 541.998 391.997C548.315 398.099 553.974 404.912 559.9 411.441" stroke="white" stroke-opacity="0.6" stroke-linecap="round" stroke-linejoin="round"/>
<path d="M796.555 2.22343C785.54 26.6832 775.201 51.4277 764.203 75.9053C752.405 102.322 740.803 128.827 728.969 155.226C711.044 195.204 693.249 235.229 675.585 275.302C674.355 277.467 673.739 279.928 673.805 282.417C677.364 303.088 667.346 320.503 660.174 338.399C651.384 360.333 640.938 381.591 632.129 403.507C629.709 409.519 625.35 411.263 621.257 410.249C601.682 405.41 582.588 399.006 568.281 383.405C580.738 355.032 592.073 326.747 605.651 299.53C611.843 287.078 617.911 273.879 630.777 265.109C638.518 259.772 639.532 248.405 643.465 239.706C658.436 206.583 673.265 173.377 687.952 140.088C705.907 99.1732 723.542 58.2586 741.444 17.344C743.882 11.7761 744.843 5.26534 750.341 1.33398" stroke="white" stroke-opacity="0.6" stroke-linecap="round" stroke-linejoin="round"/>
<path d="M139.922 0.444824C145.26 2.04583 145.26 7.4003 146.897 11.1182C163.144 47.4788 178.928 84.0529 195.104 120.449C211.635 157.806 228.505 195.074 244.77 232.519C248.88 242.019 252.831 251.589 257.226 260.982C258.184 263.318 259.801 265.325 261.88 266.759C263.959 268.193 266.41 268.992 268.935 269.058" stroke="white" stroke-opacity="0.6" stroke-linecap="round" stroke-linejoin="round"/>
<path d="M271.604 2.22363C271.604 87.3141 271.604 172.405 271.604 257.495C271.604 261.053 271.053 264.611 270.75 268.168" stroke="white" stroke-opacity="0.6" stroke-linecap="round" stroke-linejoin="round"/>
<path d="M316.094 2.22363C316.094 90.2789 316.094 178.334 316.094 266.39C316.094 268.008 315.097 269.823 317.054 270.801C323.087 273.879 322.215 280.354 322.962 285.032C325.738 302.643 327.981 320.397 326.824 338.399" stroke="white" stroke-opacity="0.6" stroke-linecap="round" stroke-linejoin="round"/>
<path d="M648.857 1.33398C640.422 9.78374 637.753 21.4533 633.251 31.7531C623.126 54.8787 613.018 78.0043 602.679 100.988C588.657 132.243 575.631 163.961 561.538 195.269C553.459 213.058 547.764 232.163 536.625 248.636C535.753 249.935 536.073 251.055 535.788 252.194C532.549 265.909 525.841 270.303 511.801 267.243C501.541 264.895 490.884 264.895 480.624 267.243C472.136 269.236 468.808 274.359 467.064 283.253C463.754 300.099 463.505 317.052 463.754 333.987C463.754 338.363 461.975 340.16 457.508 340.285C451.28 340.445 445.052 339.875 438.788 340.801C437.042 341.197 435.209 340.902 433.676 339.976C432.143 339.051 431.029 337.567 430.567 335.837C429.037 331.034 424.801 327.139 422.968 322.371C420.317 315.398 413.288 314.74 408.572 310.862" stroke="white" stroke-opacity="0.6" stroke-linecap="round" stroke-linejoin="round"/>
<path d="M526.073 0.444824C518.439 3.00643 515.663 7.7383 518.848 15.601C519.578 17.3799 518.955 19.7103 518.955 21.7916V212.133C518.955 215.798 519.258 219.498 517.176 222.807" stroke="white" stroke-opacity="0.6" stroke-linecap="round" stroke-linejoin="round"/>
<path d="M398.394 573.249C398.536 618.018 398.702 662.787 398.892 707.556C398.892 712.163 395.333 715.045 394.764 718.229C401.882 730.468 397.557 743.329 398.839 755.586" stroke="white" stroke-opacity="0.6" stroke-linecap="round" stroke-linejoin="round"/>
<path d="M471.797 62.7061C474.555 64.7518 474.484 67.687 474.484 70.7111C474.484 101.545 474.484 132.379 474.484 163.214C474.484 166.238 474.484 169.173 471.797 171.219" stroke="white" stroke-opacity="0.6" stroke-linecap="round" stroke-linejoin="round"/>
<path d="M380.154 19.123C367.982 23.9261 368.338 36.3072 364.281 45.8065C360.615 54.4875 360.384 63.8801 360.473 73.326C360.758 106.236 360.135 139.145 360.811 172.055C361.06 184.792 368.214 196.212 371.488 208.451C372.022 210.425 375.972 211.493 378.339 212.969" stroke="white" stroke-opacity="0.6" stroke-linecap="round" stroke-linejoin="round"/>
<path d="M206.652 440.721C208.432 437.163 209.998 434.993 214.785 437.821C218.806 440.205 224.02 439.921 228.896 439.903C254.396 439.76 279.914 440.063 305.414 439.76C327.177 439.511 324.811 440.009 333.886 419.357C334.359 417.928 334.686 416.456 334.865 414.963C334.242 411.939 330.647 411.974 329.526 409.626" stroke="white" stroke-opacity="0.6" stroke-linecap="round" stroke-linejoin="round"/>
<path d="M202.203 439.832C208.182 441.237 212.382 445.969 215.229 450.274C220.568 458.475 226.849 458.973 236.013 459.044C252.598 459.186 269.326 460.094 285.839 459.044C300.075 458.119 309.4 466.533 319.472 473.097C329.544 479.662 339.473 481.494 350.809 480.907C356.147 480.622 363.71 478.31 362.642 488.823C362.5 490.104 366.201 491.545 367.678 493.27C372.091 498.322 377.412 503.161 373.408 511.308C379.921 514.297 386.398 512.144 392.627 512.785C402.094 513.798 411.792 510.81 421.099 514.439C421.579 514.635 422.878 512.802 423.714 511.913" stroke="white" stroke-opacity="0.6" stroke-linecap="round" stroke-linejoin="round"/>
<path d="M404.177 715.561C407.505 718.407 407.736 722.178 407.736 726.234C407.736 743.72 407.736 761.225 407.736 778.711C407.736 786.965 404.64 791.164 398.839 791.164C393.038 791.164 389.941 786.965 389.941 778.711C389.941 763.004 389.941 747.278 389.941 731.571C389.941 727.515 390.208 723.743 393.5 720.897" stroke="white" stroke-opacity="0.6" stroke-linecap="round" stroke-linejoin="round"/>
<path d="M520.733 269.058C519.595 275.16 515.733 280.069 512.53 284.944C499.362 305.01 492.297 327.922 481.691 349.162C476.246 360.084 471.958 371.594 466.939 383.334C480.464 398.313 498.098 405.393 517.192 409.502C524.31 411.05 529.862 409.324 531.588 400.732C532.419 396.862 534.555 393.395 537.639 390.912" stroke="white" stroke-opacity="0.6" stroke-linecap="round" stroke-linejoin="round"/>
<path d="M434.429 481.636C424.98 479.733 415.441 480.782 405.957 480.853C392.023 480.96 378.037 479.661 364.139 481.636" stroke="white" stroke-opacity="0.6" stroke-linecap="round" stroke-linejoin="round"/>
<path d="M360.578 438.942C370.312 440.917 380.153 439.672 389.94 439.761C413.963 439.974 437.986 439.761 462.009 439.761" stroke="white" stroke-opacity="0.6" stroke-linecap="round" stroke-linejoin="round"/>
<path d="M474.467 465.626C453.113 463.633 431.759 464.825 410.405 465.057C405.244 465.057 400.671 470.749 394.389 469.255C390.688 468.365 385.955 471.158 383.57 465.697C383.232 464.896 380.759 464.754 379.282 464.772C357.643 465.27 335.951 463.616 314.33 465.626" stroke="white" stroke-opacity="0.6" stroke-linecap="round" stroke-linejoin="round"/>
<path d="M547.426 405.144C546.429 406.567 542.23 405.321 544.561 409.698C546.678 413.647 546.927 418.592 548.369 422.915C550.148 428.145 549.294 431.258 543.03 430.938C532.069 430.386 521.054 431.88 510.092 430.155C507.529 429.746 504.166 429.763 502.227 431.115C500.148 432.502 497.751 433.337 495.26 433.542C492.77 433.748 490.268 433.317 487.991 432.29C478.613 427.629 471.601 433.09 463.754 435.385" stroke="white" stroke-opacity="0.6" stroke-linecap="round" stroke-linejoin="round"/>
<path d="M413.074 116.962C405.956 99.956 410.761 80.2992 427.31 64.4849H361.469" stroke="white" stroke-opacity="0.6" stroke-linecap="round" stroke-linejoin="round"/>
<path d="M476.247 205.907C475.66 206.797 474.467 207.686 474.467 208.576C474.948 228.428 473.257 248.334 475.286 268.169" stroke="white" stroke-opacity="0.6" stroke-linecap="round" stroke-linejoin="round"/>
<path d="M523.402 265.5C516.159 241.61 497.777 225.866 481.513 208.575C473.309 199.894 464.376 191.907 455.781 183.671" stroke="white" stroke-opacity="0.6" stroke-linecap="round" stroke-linejoin="round"/>
<path d="M365.027 49.3643C377.733 51.3922 390.527 49.809 403.286 50.2181C410.689 50.4494 418.11 50.2181 425.53 50.2181" stroke="white" stroke-opacity="0.6" stroke-linecap="round" stroke-linejoin="round"/>
<path d="M365.027 183.671H425.53" stroke="white" stroke-opacity="0.6" stroke-linecap="round" stroke-linejoin="round"/>
<path d="M362.359 168.55H422.862" stroke="white" stroke-opacity="0.6" stroke-linecap="round" stroke-linejoin="round"/>
<path d="M581.238 436.274C583.391 438.409 584.281 441.041 582.056 443.39C577.536 448.032 572.323 452.07 568.016 456.891C565.525 459.684 562.82 459.435 559.884 459.453C538.53 459.453 517.176 459.933 495.822 459.222C487.334 458.937 483.188 465.305 477.315 468.668C466.016 475.107 455.695 483.112 441.548 480.835C438.7 480.373 434.91 481.636 435.586 484.286C437.366 491.402 430.533 492.131 427.97 495.76C424.037 501.275 423.237 503.232 427.312 510.151" stroke="white" stroke-opacity="0.6" stroke-linecap="round" stroke-linejoin="round"/>
<path d="M429.09 172.108C434.126 175.079 439.073 178.228 444.251 181.003C447.81 182.781 450.942 182.959 453.255 178.477C454.638 175.854 456.785 173.714 459.412 172.339C463.256 170.56 468.897 169.867 470.641 174.118C475.143 185.023 484.752 191.053 492.458 198.72C500.768 207.028 508.864 215.673 516.641 224.301C521.921 230.481 526.587 237.159 530.574 244.242C531.607 246.021 532.354 248.387 534.97 248.725" stroke="white" stroke-opacity="0.6" stroke-linecap="round" stroke-linejoin="round"/>
<path d="M516.286 11.1182C510.805 13.3418 508.527 18.7852 504.701 22.6632C495.27 32.2159 485.732 41.644 476.229 51.1255C474.716 52.3206 473.452 53.8015 472.51 55.4838C468.222 64.7874 461.62 65.837 455.997 57.1738C451.067 49.5423 446.725 50.7875 440.568 54.5766C435.23 57.8497 428.984 59.5753 425.496 65.3389" stroke="white" stroke-opacity="0.6" stroke-linecap="round" stroke-linejoin="round"/>
<path d="M276.055 285.958C259.417 297.823 241.728 307.198 220.891 309.083" stroke="white" stroke-opacity="0.6" stroke-linecap="round" stroke-linejoin="round"/>
<path d="M174.621 285.958C157.912 297.68 140.277 307.18 119.457 309.083" stroke="white" stroke-opacity="0.6" stroke-linecap="round" stroke-linejoin="round"/>
<path d="M426.42 492.309C409.515 492.309 392.61 492.309 375.705 492.309C374.132 492.647 372.628 493.248 371.256 494.088" stroke="white" stroke-opacity="0.6" stroke-linecap="round" stroke-linejoin="round"/>
<path d="M465.568 64.4849C466.867 75.0515 461.867 83.2344 455.834 91.1683C449.09 100.063 439.926 106.983 434.48 116.927" stroke="white" stroke-opacity="0.6" stroke-linecap="round" stroke-linejoin="round"/>
<path d="M366.809 353.555C365.332 367.786 363.25 382.018 362.52 396.249C361.524 416.724 358 437.057 358.801 457.621" stroke="white" stroke-opacity="0.6" stroke-linecap="round" stroke-linejoin="round"/>
<path d="M422.861 341.993C422.113 360.493 425.494 378.745 426.669 397.138C427.986 417.293 431.331 437.324 429.979 457.621" stroke="white" stroke-opacity="0.6" stroke-linecap="round" stroke-linejoin="round"/>
<path d="M622.164 411.37C616.825 427.042 609.191 433.517 593.692 432.396C584.901 431.774 578.62 437.84 570.559 438.053" stroke="white" stroke-opacity="0.6" stroke-linecap="round" stroke-linejoin="round"/>
<path d="M525.184 268.168C534.081 280.852 548.317 283.965 561.628 288.715C565.418 290.067 568.746 291.312 572.305 288.626" stroke="white" stroke-opacity="0.6" stroke-linecap="round" stroke-linejoin="round"/>
<path d="M465.569 170.329C467.58 158.286 461.103 148.982 454.732 140.212C449.607 133.097 443.076 126.995 437.08 120.538C433.859 117.069 418.43 113.814 414.925 116.179C413.597 117.054 412.482 118.213 411.66 119.574C410.838 120.934 410.33 122.461 410.174 124.042C407.878 140.373 414.195 153.572 423.751 165.882" stroke="white" stroke-opacity="0.6" stroke-linecap="round" stroke-linejoin="round"/>
<path d="M422.862 501.204C407.149 501.719 391.4 500.119 375.705 502.093" stroke="white" stroke-opacity="0.6" stroke-linecap="round" stroke-linejoin="round"/>
<path d="M627.504 269.947C638.483 282.097 653.716 285.762 668.432 290.262C669.909 290.707 671.991 289.213 673.771 288.626" stroke="white" stroke-opacity="0.6" stroke-linecap="round" stroke-linejoin="round"/>
<path d="M393.5 358.002C391.507 370.455 393.198 382.907 392.557 395.359C392.415 398.312 393.607 401.443 391.721 404.254" stroke="white" stroke-opacity="0.6" stroke-linecap="round" stroke-linejoin="round"/>
<path d="M397.059 358.002C398.518 373.385 398.518 388.871 397.059 404.254" stroke="white" stroke-opacity="0.6" stroke-linecap="round" stroke-linejoin="round"/>
<path d="M162.165 269.947C151.488 280.336 138.534 286.046 123.96 288.875C120.952 289.462 118.621 288.608 115.898 288.626" stroke="white" stroke-opacity="0.6" stroke-linecap="round" stroke-linejoin="round"/>
<path d="M263.597 269.947C252.92 280.336 239.965 286.046 225.391 288.875C222.384 289.462 220.053 288.608 217.33 288.626" stroke="white" stroke-opacity="0.6" stroke-linecap="round" stroke-linejoin="round"/>
<path d="M421.972 508.319C407.179 506.843 392.277 506.843 377.484 508.319" stroke="white" stroke-opacity="0.6" stroke-linecap="round" stroke-linejoin="round"/>
<path d="M167.504 412.259C170.921 423.715 182.825 434.708 197.755 432.894C201.51 432.431 207.08 430.35 208.432 437.163" stroke="white" stroke-opacity="0.6" stroke-linecap="round" stroke-linejoin="round"/>
<path d="M428.201 1027.76C420.087 1029.34 412.933 1023.29 413.022 1016.19C413.111 1009.1 410.673 1003.37 404.125 1000.18C396.224 996.412 387.611 1001.77 385.529 1011.69C383.749 1020 382.148 1028.13 371.293 1028.58" stroke="white" stroke-opacity="0.6" stroke-linecap="round" stroke-linejoin="round"/>
<path d="M314.312 268.168C299.399 264.61 284.558 264.201 269.824 269.058" stroke="white" stroke-opacity="0.6" stroke-linecap="round" stroke-linejoin="round"/>
<path d="M395.278 355.334C395.438 352.79 394.228 351.421 391.719 351.776C375.206 354.338 358.14 350.158 341.893 356.081C336.466 358.056 333.263 360.546 332.907 366.861C332.142 379.919 330.665 392.958 329.473 405.997" stroke="white" stroke-opacity="0.6" stroke-linecap="round" stroke-linejoin="round"/>
<path d="M457.562 363.339C454.483 374.404 459.501 385.202 458.754 396.267C458.629 399.244 458.826 402.226 459.341 405.161" stroke="white" stroke-opacity="0.6" stroke-linecap="round" stroke-linejoin="round"/>
<path d="M510.056 282.4C495.553 278.575 481.816 281.973 468.238 286.847" stroke="white" stroke-opacity="0.6" stroke-linecap="round" stroke-linejoin="round"/>
<path d="M241.353 405.144L245.767 407.1C244.681 412.935 241.745 418.45 241.211 424.694C240.891 428.661 241.211 431.115 245.802 430.938C257.654 430.457 269.576 431.969 281.392 430.048" stroke="white" stroke-opacity="0.6" stroke-linecap="round" stroke-linejoin="round"/>
<path d="M321.43 287.737C308.369 281.439 294.738 279.18 280.502 282.4" stroke="white" stroke-opacity="0.6" stroke-linecap="round" stroke-linejoin="round"/>
<path d="M380.154 310.862C370.117 314.758 365.206 323.616 360.811 332.315C357.821 338.221 355.17 339.822 348.123 339.804C335.969 339.804 323.797 339.804 311.643 339.413C309.784 339.684 307.981 340.255 306.305 341.103" stroke="white" stroke-opacity="0.6" stroke-linecap="round" stroke-linejoin="round"/>
<path d="M408.625 19.123C420.299 22.9121 420.957 34.1014 424.64 43.1737C426.776 48.5104 427.986 54.3985 429.623 60.0376" stroke="white" stroke-opacity="0.6" stroke-linecap="round" stroke-linejoin="round"/>
<path d="M375.705 513.656C376.275 527.069 388.161 532.53 395.457 541.069C397.735 543.737 401.828 540.784 404.035 539.29C408.75 536.052 410.992 528.741 415.139 526.838C421.278 523.92 421.42 520.505 421.082 515.542" stroke="white" stroke-opacity="0.6" stroke-linecap="round" stroke-linejoin="round"/>
<path d="M429.089 174.776C426.9 184.916 422.185 194.255 419.533 204.182C417.754 210.532 412.059 211.119 408.625 214.855" stroke="white" stroke-opacity="0.6" stroke-linecap="round" stroke-linejoin="round"/>
<path d="M506.499 1.3343C503.865 1.24536 502.62 3.32666 501.161 4.89209C486.925 20.9021 471.283 35.5069 455.766 50.2361" stroke="white" stroke-opacity="0.6" stroke-linecap="round" stroke-linejoin="round"/>
<path d="M502.938 461.179C502.333 465.893 503.08 469.255 509.184 468.294C512.134 467.864 515.131 467.864 518.081 468.294C524.185 469.184 524.932 465.822 524.327 461.179" stroke="white" stroke-opacity="0.6" stroke-linecap="round" stroke-linejoin="round"/>
<path d="M266.266 461.179C265.661 465.893 266.408 469.255 272.512 468.294C275.462 467.864 278.459 467.864 281.409 468.294C287.513 469.184 288.26 465.822 287.655 461.179" stroke="white" stroke-opacity="0.6" stroke-linecap="round" stroke-linejoin="round"/>
<path d="M470.019 391.802C465.197 395.769 466.282 401.817 464.681 407.011C452.58 405.09 440.373 406.424 428.219 406.033" stroke="white" stroke-opacity="0.6" stroke-linecap="round" stroke-linejoin="round"/>
<path d="M360.581 405.143C353.463 407.082 346.345 405.57 339.227 406.015C334.725 406.282 330.062 405.25 325.827 408.47C322.411 402.688 324.546 395.502 319.652 390.912" stroke="white" stroke-opacity="0.6" stroke-linecap="round" stroke-linejoin="round"/>
<path d="M426.421 405.144C405.067 406.922 383.713 405.41 362.359 406.033" stroke="white" stroke-opacity="0.6" stroke-linecap="round" stroke-linejoin="round"/>
<path d="M473.577 362.45C462.224 362.45 451.867 359.23 441.439 354.694C431.012 350.158 419.605 353.199 408.625 352.701C404.177 352.506 399.728 352.701 395.279 352.701V342.882" stroke="white" stroke-opacity="0.6" stroke-linecap="round" stroke-linejoin="round"/>
<path d="M329.438 439.832H358.799" stroke="white" stroke-opacity="0.6" stroke-linecap="round" stroke-linejoin="round"/>
<path d="M426.422 68.043C432.241 78.8587 441.53 85.8319 452.225 91.1686" stroke="white" stroke-opacity="0.6" stroke-linecap="round" stroke-linejoin="round"/>
<path d="M461.12 408.701C453.255 415.23 452.561 420.744 459.465 429.07C460.669 430.402 461.594 431.962 462.184 433.658C462.774 435.354 463.017 437.151 462.899 438.942" stroke="white" stroke-opacity="0.6" stroke-linecap="round" stroke-linejoin="round"/>
<path d="M457.561 147.204C447.899 152.736 437.595 157.521 432.648 168.55" stroke="white" stroke-opacity="0.6" stroke-linecap="round" stroke-linejoin="round"/>
<path d="M413.074 526.108C403.937 524.667 394.63 524.667 385.492 526.108" stroke="white" stroke-opacity="0.6" stroke-linecap="round" stroke-linejoin="round"/>
<path d="M474.468 2.22363C475.269 11.1181 472.689 20.2083 476.248 28.9071" stroke="white" stroke-opacity="0.6" stroke-linecap="round" stroke-linejoin="round"/>
<path d="M567.89 309.083C558.993 308.283 550.594 305.347 542.088 302.857" stroke="white" stroke-opacity="0.6" stroke-linecap="round" stroke-linejoin="round"/>
<path d="M669.322 309.083C660.425 308.283 652.025 305.347 643.52 302.857" stroke="white" stroke-opacity="0.6" stroke-linecap="round" stroke-linejoin="round"/>
<path d="M392.609 341.103C382.039 338.453 371.131 342.028 360.578 339.324" stroke="white" stroke-opacity="0.6" stroke-linecap="round" stroke-linejoin="round"/>
<path d="M268.936 411.37C274.274 426.775 282.549 433.25 297.407 432.627C311.91 432.023 319.455 424.96 324.1 409.591" stroke="white" stroke-opacity="0.6" stroke-linecap="round" stroke-linejoin="round"/>
<path d="M301.855 461.179C304.525 458.048 308.084 458.51 311.643 458.51C332.409 458.51 353.212 457.692 373.925 458.742C399.817 460.058 425.53 457.39 451.333 458.101C460.996 458.368 467.081 457.372 470.124 447.872C457.917 445.578 455.301 446.77 450.55 456.767" stroke="white" stroke-opacity="0.6" stroke-linecap="round" stroke-linejoin="round"/>
<path d="M572.34 390.023C569.101 393.883 566.592 398.17 567.001 403.347C567.339 406.78 565.524 408.684 563.442 410.462C554.954 417.791 554.723 422.808 562.553 430.92C564.599 433.019 566.699 435.065 568.781 437.146" stroke="white" stroke-opacity="0.6" stroke-linecap="round" stroke-linejoin="round"/>
<path d="M217.33 390.023C219.839 392.478 222.17 395.2 221.708 398.917C221.049 404.112 223.309 406.976 227.989 408.737C233.043 410.658 234.431 414.34 232.474 419.41C229.591 426.775 226.583 434.033 219.11 438.089" stroke="white" stroke-opacity="0.6" stroke-linecap="round" stroke-linejoin="round"/>
<path d="M464.68 407.812C466.459 416.261 472.776 422.434 476.246 430.048" stroke="white" stroke-opacity="0.6" stroke-linecap="round" stroke-linejoin="round"/>
<path d="M486.924 461.179C480.411 455.397 472.582 460.254 465.57 458.51" stroke="white" stroke-opacity="0.6" stroke-linecap="round" stroke-linejoin="round"/>
<path d="M570.56 447.837C558.281 446.183 556.608 446.965 551.875 456.731" stroke="white" stroke-opacity="0.6" stroke-linecap="round" stroke-linejoin="round"/>
<path d="M236.903 456.731C232.17 446.965 230.497 446.183 218.219 447.837" stroke="white" stroke-opacity="0.6" stroke-linecap="round" stroke-linejoin="round"/>
<path d="M250.251 390.023L231.566 408.701" stroke="white" stroke-opacity="0.6" stroke-linecap="round" stroke-linejoin="round"/>
<path d="M519.845 411.37C520.094 419.588 514.186 424.107 509.168 429.159" stroke="white" stroke-opacity="0.6" stroke-linecap="round" stroke-linejoin="round"/>
<path d="M567 412.259C569.847 419.374 575.897 424.106 580.346 430.048" stroke="white" stroke-opacity="0.6" stroke-linecap="round" stroke-linejoin="round"/>
<path d="M332.108 362.45C326.564 361.019 320.747 361.019 315.203 362.45" stroke="white" stroke-opacity="0.6" stroke-linecap="round" stroke-linejoin="round"/>
<path d="M454.003 141.867C447.543 143.646 442.312 147.666 437.098 151.651" stroke="white" stroke-opacity="0.6" stroke-linecap="round" stroke-linejoin="round"/>
<path d="M442.436 76.937C447.116 79.7299 451.137 83.6612 456.672 84.942" stroke="white" stroke-opacity="0.6" stroke-linecap="round" stroke-linejoin="round"/>
<path d="M222.667 409.591C220.318 417.027 217.542 424.16 210.211 428.269" stroke="white" stroke-opacity="0.6" stroke-linecap="round" stroke-linejoin="round"/>
<path d="M464.68 339.324C471.032 341.832 477.937 338.132 484.254 341.103" stroke="white" stroke-opacity="0.6" stroke-linecap="round" stroke-linejoin="round"/>
<path d="M330.327 446.058C327.017 448.104 323.013 446.058 318.707 447.606L325.825 457.621" stroke="white" stroke-opacity="0.6" stroke-linecap="round" stroke-linejoin="round"/>
<path d="M616.826 285.958C619.976 289.16 623.001 292.557 627.503 293.963" stroke="white" stroke-opacity="0.6" stroke-linecap="round" stroke-linejoin="round"/>
<path d="M515.395 285.958C518.544 289.16 521.569 292.557 526.071 293.963" stroke="white" stroke-opacity="0.6" stroke-linecap="round" stroke-linejoin="round"/>
<path d="M326.77 438.942C330.151 442.696 331.894 447.837 336.557 450.505C339.19 451.999 338.141 454.543 338.336 456.731" stroke="white" stroke-opacity="0.6" stroke-linecap="round" stroke-linejoin="round"/>
<path d="M366.809 341.993V351.777" stroke="white" stroke-opacity="0.6" stroke-linecap="round" stroke-linejoin="round"/>
<path d="M430.869 61.8164L437.097 71.6003" stroke="white" stroke-opacity="0.6" stroke-linecap="round" stroke-linejoin="round"/>
<path d="M431.759 156.987L425.531 165.882" stroke="white" stroke-opacity="0.6" stroke-linecap="round" stroke-linejoin="round"/>
<path d="M308.973 431.827L316.98 438.053" stroke="white" stroke-opacity="0.6" stroke-linecap="round" stroke-linejoin="round"/>
<path d="M218.219 422.932C220.639 425.316 222.863 427.984 226.226 429.158" stroke="white" stroke-opacity="0.6" stroke-linecap="round" stroke-linejoin="round"/>
<path d="M320.541 422.043L328.549 428.269" stroke="white" stroke-opacity="0.6" stroke-linecap="round" stroke-linejoin="round"/>
<path d="M430.868 339.324C428.661 340.943 426.099 339.805 423.75 340.214" stroke="white" stroke-opacity="0.6" stroke-linecap="round" stroke-linejoin="round"/>
<path d="M395.28 818.736C390.457 820.782 389.941 824.891 389.941 829.41C389.941 841.862 389.941 854.314 389.941 866.766C389.941 872.477 391.418 876.871 397.985 877.44C403.857 877.92 407.558 874.149 407.701 866.766C407.95 854.314 407.985 841.862 407.701 829.41C407.487 820.266 405.921 819.092 396.205 818.736" stroke="white" stroke-opacity="0.6" stroke-linecap="round" stroke-linejoin="round"/>
<path d="M396.169 934.365C387.93 940.698 386.453 950.375 392.61 956.636C393.304 957.456 394.158 958.127 395.118 958.608C396.079 959.089 397.128 959.371 398.2 959.435C399.273 959.5 400.348 959.347 401.36 958.985C402.371 958.623 403.299 958.06 404.088 957.33C409.159 953.203 407.985 947.279 406.988 941.462C405.992 935.645 402.415 933.92 397.094 934.347" stroke="white" stroke-opacity="0.6" stroke-linecap="round" stroke-linejoin="round"/>
</g>
<defs>
<clipPath id="clip0_2096_16802">
<rect width="807" height="1118" fill="white"/>
</clipPath>
</defs>
</svg>
