<svg width="743" height="1024" viewBox="0 0 743 1024" fill="none" xmlns="http://www.w3.org/2000/svg">
<g clip-path="url(#clip0_1173_9881)">
<path d="M318.823 974.305C304.231 971.512 289.728 975.247 275.243 975.817C266 976.15 256.784 977.029 247.643 978.449C218.193 983.092 188.689 986.846 161.338 999.992C151.889 1004.55 144.629 1011.98 136.852 1018.35C128.168 1025.47 128.115 1031.12 139.183 1040.98C151.836 1052.26 168.1 1056.12 183.671 1060.3C205.149 1066.04 227.197 1069.19 249.512 1071.47C282.003 1075.13 314.689 1076.79 347.384 1076.45C369.04 1076.02 390.786 1075.1 412.318 1072.89C437.124 1070.26 462.037 1067.22 486.131 1060.44C502.502 1055.83 519.319 1051.42 532.398 1039.32C542.683 1029.88 537.345 1020.93 528.999 1015.04C517.041 1006.61 505.866 997.448 491.487 992.947C472.554 987.006 453.193 983.608 433.654 980.371C409.435 976.332 384.967 975.977 360.695 973.593C357.527 973.273 354.057 972.561 350.925 974.376" stroke="white" stroke-opacity="0.6" stroke-linecap="round" stroke-linejoin="round"/>
<path d="M27.875 -40.5552C33.3914 -38.634 33.0711 -33.0304 34.993 -28.9568C52.6455 10.4042 70.1617 49.8305 87.5414 89.322C104.589 128.102 121.227 167.06 138.399 205.768C142.919 215.944 146.692 226.475 152.279 236.205C153.116 237.682 154.877 239.977 154.272 242.289C149.112 262.053 159.735 278.454 166.07 295.656C171.676 310.812 179.897 325.043 185.058 340.324C187.798 348.454 193.243 354.982 195.414 363.29C197.585 371.597 205.095 369.658 210.309 368.431C225.699 364.879 240.221 358.28 253.016 349.023C257.198 345.981 258.675 342.69 256.024 336.571C242.606 305.493 229.331 274.309 213.992 244.157C211.287 238.82 204.418 235.6 205.913 228.147" stroke="white" stroke-opacity="0.6" stroke-linecap="round" stroke-linejoin="round"/>
<path d="M-73.5547 -39.6657C-68.839 -38.1003 -68.2162 -33.4574 -66.4367 -29.8462C-51.4534 3.88163 -36.6243 37.6806 -21.9494 71.5508C-1.7818 117.802 18.3858 164.053 38.5534 210.305C40.9023 215.641 42.7708 221.298 45.7959 226.315C50.9031 234.711 52.0419 243.268 51.3657 253.087C50.6539 263.262 55.334 273.011 59.1599 282.368C69.1251 306.845 79.7487 331.056 90.2121 355.302C91.3688 357.971 93.2372 360.177 93.86 363.29C95.0879 369.409 100.497 370.405 105.249 369.391C122.467 365.448 138.754 358.198 153.206 348.045C157.281 345.234 156.445 340.431 154.327 335.717C144.006 312.698 134.219 289.465 123.898 266.34C118.932 255.423 112.975 244.985 106.103 235.156C105.356 234.071 105.213 232.238 104.323 231.705C86.1548 221.547 83.7169 201.57 76.2074 185.222C54.0171 136.996 33.2149 88.1123 11.8432 39.4951C0.614562 13.9858 -10.8098 -11.4525 -21.7715 -37.0863C-22.0748 -37.9222 -22.5739 -38.6734 -23.2271 -39.2769C-23.8803 -39.8804 -24.6687 -40.3187 -25.5262 -40.5552" stroke="white" stroke-opacity="0.6" stroke-linecap="round" stroke-linejoin="round"/>
<path d="M631.123 -38.7764C618.074 -9.4246 605.024 19.9272 591.974 49.2789C581.92 71.8176 571.67 94.285 561.723 116.877C545.601 153.593 529.692 190.434 513.552 227.168C509.833 235.583 509.388 243.748 509.264 252.98C509.103 264.596 503.676 276.408 499.245 287.615C492.127 305.653 484.315 323.425 476.112 340.982C473.87 345.714 474.563 347.689 477.998 350.997C484.315 357.099 489.974 363.912 495.9 370.441" stroke="white" stroke-opacity="0.6" stroke-linecap="round" stroke-linejoin="round"/>
<path d="M732.555 -38.7766C721.54 -14.3168 711.201 10.4277 700.203 34.9053C688.405 61.3219 676.803 87.8274 664.969 114.226C647.044 154.204 629.249 194.229 611.585 234.302C610.355 236.467 609.739 238.928 609.805 241.417C613.364 262.088 603.346 279.503 596.174 297.399C587.384 319.333 576.938 340.591 568.129 362.507C565.709 368.519 561.35 370.263 557.257 369.249C537.682 364.41 518.588 358.006 504.281 342.405C516.738 314.032 528.073 285.747 541.651 258.53C547.843 246.078 553.911 232.879 566.777 224.109C574.518 218.772 575.532 207.405 579.465 198.706C594.436 165.583 609.265 132.377 623.952 99.0878C641.907 58.1732 659.542 17.2586 677.444 -23.656C679.882 -29.2239 680.843 -35.7347 686.341 -39.666" stroke="white" stroke-opacity="0.6" stroke-linecap="round" stroke-linejoin="round"/>
<path d="M75.9219 -40.5552C81.2604 -38.9542 81.2603 -33.5997 82.8975 -29.8818C99.1442 6.47881 114.928 43.0529 131.104 79.4491C147.635 116.806 164.505 154.074 180.77 191.519C184.88 201.019 188.831 210.589 193.226 219.982C194.184 222.318 195.801 224.325 197.88 225.759C199.959 227.193 202.41 227.992 204.935 228.058" stroke="white" stroke-opacity="0.6" stroke-linecap="round" stroke-linejoin="round"/>
<path d="M207.604 -38.7764C207.604 46.3141 207.604 131.405 207.604 216.495C207.604 220.053 207.053 223.611 206.75 227.168" stroke="white" stroke-opacity="0.6" stroke-linecap="round" stroke-linejoin="round"/>
<path d="M252.094 -38.7764C252.094 49.2789 252.094 137.334 252.094 225.39C252.094 227.008 251.097 228.823 253.054 229.801C259.087 232.879 258.215 239.354 258.962 244.032C261.738 261.643 263.981 279.397 262.824 297.399" stroke="white" stroke-opacity="0.6" stroke-linecap="round" stroke-linejoin="round"/>
<path d="M584.857 -39.666C576.422 -31.2163 573.753 -19.5467 569.251 -9.2469C559.126 13.8787 549.018 37.0043 538.679 59.9877C524.657 91.2429 511.631 122.961 497.538 154.269C489.459 172.058 483.764 191.163 472.625 207.636C471.753 208.935 472.073 210.055 471.788 211.194C468.549 224.909 461.841 229.303 447.801 226.243C437.541 223.895 426.884 223.895 416.624 226.243C408.136 228.236 404.808 233.359 403.064 242.253C399.754 259.099 399.505 276.052 399.754 292.987C399.754 297.363 397.975 299.16 393.508 299.285C387.28 299.445 381.052 298.875 374.788 299.801C373.042 300.197 371.209 299.902 369.676 298.976C368.143 298.051 367.029 296.567 366.567 294.837C365.037 290.034 360.801 286.139 358.968 281.371C356.317 274.398 349.288 273.74 344.572 269.862" stroke="white" stroke-opacity="0.6" stroke-linecap="round" stroke-linejoin="round"/>
<path d="M462.073 -40.5552C454.439 -37.9936 451.663 -33.2617 454.848 -25.399C455.578 -23.6201 454.955 -21.2897 454.955 -19.2084V171.133C454.955 174.798 455.258 178.498 453.176 181.807" stroke="white" stroke-opacity="0.6" stroke-linecap="round" stroke-linejoin="round"/>
<path d="M334.394 532.249C334.536 577.018 334.702 621.787 334.892 666.556C334.892 671.163 331.333 674.045 330.764 677.229C337.882 689.468 333.557 702.329 334.839 714.586" stroke="white" stroke-opacity="0.6" stroke-linecap="round" stroke-linejoin="round"/>
<path d="M407.797 21.7061C410.555 23.7518 410.484 26.687 410.484 29.7111C410.484 60.5453 410.484 91.3794 410.484 122.214C410.484 125.238 410.484 128.173 407.797 130.219" stroke="white" stroke-opacity="0.6" stroke-linecap="round" stroke-linejoin="round"/>
<path d="M316.154 -21.877C303.982 -17.0739 304.338 -4.69283 300.281 4.80647C296.615 13.4875 296.384 22.8801 296.473 32.326C296.758 65.2355 296.135 98.1451 296.811 131.055C297.06 143.792 304.214 155.212 307.488 167.451C308.022 169.425 311.972 170.493 314.339 171.969" stroke="white" stroke-opacity="0.6" stroke-linecap="round" stroke-linejoin="round"/>
<path d="M142.652 399.721C144.432 396.163 145.998 393.993 150.785 396.821C154.806 399.205 160.02 398.921 164.896 398.903C190.396 398.76 215.914 399.063 241.414 398.76C263.177 398.511 260.811 399.009 269.886 378.357C270.359 376.928 270.686 375.456 270.865 373.963C270.242 370.939 266.647 370.974 265.526 368.626" stroke="white" stroke-opacity="0.6" stroke-linecap="round" stroke-linejoin="round"/>
<path d="M138.203 398.832C144.182 400.237 148.382 404.969 151.229 409.274C156.568 417.475 162.849 417.973 172.013 418.044C188.598 418.186 205.326 419.094 221.839 418.044C236.075 417.119 245.4 425.533 255.472 432.097C265.544 438.662 275.473 440.494 286.809 439.907C292.147 439.622 299.71 437.31 298.642 447.823C298.5 449.104 302.201 450.545 303.678 452.27C308.091 457.322 313.412 462.161 309.408 470.308C315.921 473.297 322.398 471.144 328.627 471.785C338.094 472.798 347.792 469.81 357.099 473.439C357.579 473.635 358.878 471.802 359.714 470.913" stroke="white" stroke-opacity="0.6" stroke-linecap="round" stroke-linejoin="round"/>
<path d="M340.177 674.561C343.505 677.407 343.736 681.178 343.736 685.234C343.736 702.72 343.736 720.225 343.736 737.711C343.736 745.965 340.64 750.164 334.839 750.164C329.038 750.164 325.941 745.965 325.941 737.711C325.941 722.004 325.941 706.278 325.941 690.571C325.941 686.515 326.208 682.743 329.5 679.897" stroke="white" stroke-opacity="0.6" stroke-linecap="round" stroke-linejoin="round"/>
<path d="M456.733 228.058C455.595 234.16 451.733 239.069 448.53 243.944C435.362 264.01 428.297 286.922 417.691 308.162C412.246 319.084 407.958 330.594 402.939 342.334C416.464 357.313 434.098 364.393 453.192 368.502C460.31 370.05 465.862 368.324 467.588 359.732C468.419 355.862 470.555 352.395 473.639 349.912" stroke="white" stroke-opacity="0.6" stroke-linecap="round" stroke-linejoin="round"/>
<path d="M370.429 440.636C360.98 438.733 351.441 439.782 341.957 439.853C328.023 439.96 314.037 438.661 300.139 440.636" stroke="white" stroke-opacity="0.6" stroke-linecap="round" stroke-linejoin="round"/>
<path d="M296.578 397.942C306.312 399.917 316.153 398.672 325.94 398.761C349.963 398.974 373.986 398.761 398.009 398.761" stroke="white" stroke-opacity="0.6" stroke-linecap="round" stroke-linejoin="round"/>
<path d="M410.467 424.626C389.113 422.633 367.759 423.825 346.405 424.057C341.244 424.057 336.671 429.749 330.389 428.255C326.688 427.365 321.955 430.158 319.57 424.697C319.232 423.896 316.759 423.754 315.282 423.772C293.643 424.27 271.951 422.616 250.33 424.626" stroke="white" stroke-opacity="0.6" stroke-linecap="round" stroke-linejoin="round"/>
<path d="M483.426 364.144C482.429 365.567 478.23 364.321 480.561 368.698C482.678 372.647 482.927 377.592 484.369 381.915C486.148 387.145 485.294 390.258 479.03 389.938C468.069 389.386 457.054 390.88 446.092 389.155C443.529 388.746 440.166 388.763 438.227 390.115C436.148 391.502 433.751 392.337 431.26 392.542C428.77 392.748 426.268 392.317 423.991 391.29C414.613 386.629 407.601 392.09 399.754 394.385" stroke="white" stroke-opacity="0.6" stroke-linecap="round" stroke-linejoin="round"/>
<path d="M349.074 75.9623C341.956 58.956 346.761 39.2992 363.31 23.4849H297.469" stroke="white" stroke-opacity="0.6" stroke-linecap="round" stroke-linejoin="round"/>
<path d="M412.247 164.907C411.66 165.797 410.467 166.686 410.467 167.576C410.948 187.428 409.257 207.334 411.286 227.169" stroke="white" stroke-opacity="0.6" stroke-linecap="round" stroke-linejoin="round"/>
<path d="M459.402 224.5C452.159 200.61 433.777 184.866 417.513 167.575C409.309 158.894 400.376 150.907 391.781 142.671" stroke="white" stroke-opacity="0.6" stroke-linecap="round" stroke-linejoin="round"/>
<path d="M301.027 8.36426C313.733 10.3922 326.527 8.80897 339.286 9.21812C346.689 9.44937 354.11 9.21812 361.53 9.21812" stroke="white" stroke-opacity="0.6" stroke-linecap="round" stroke-linejoin="round"/>
<path d="M301.027 142.671H361.53" stroke="white" stroke-opacity="0.6" stroke-linecap="round" stroke-linejoin="round"/>
<path d="M298.359 127.55H358.862" stroke="white" stroke-opacity="0.6" stroke-linecap="round" stroke-linejoin="round"/>
<path d="M517.238 395.274C519.391 397.409 520.281 400.041 518.056 402.39C513.536 407.032 508.323 411.07 504.016 415.891C501.525 418.684 498.82 418.435 495.884 418.453C474.53 418.453 453.176 418.933 431.822 418.222C423.334 417.937 419.188 424.305 413.315 427.668C402.016 434.107 391.695 442.112 377.548 439.835C374.7 439.373 370.91 440.636 371.586 443.286C373.366 450.402 366.533 451.131 363.97 454.76C360.037 460.275 359.237 462.232 363.312 469.151" stroke="white" stroke-opacity="0.6" stroke-linecap="round" stroke-linejoin="round"/>
<path d="M365.09 131.108C370.126 134.079 375.073 137.228 380.251 140.003C383.81 141.781 386.942 141.959 389.255 137.477C390.638 134.854 392.785 132.714 395.412 131.339C399.256 129.56 404.897 128.867 406.641 133.118C411.143 144.023 420.752 150.053 428.458 157.72C436.768 166.028 444.864 174.673 452.641 183.301C457.921 189.481 462.587 196.159 466.574 203.242C467.607 205.021 468.354 207.387 470.97 207.725" stroke="white" stroke-opacity="0.6" stroke-linecap="round" stroke-linejoin="round"/>
<path d="M452.286 -29.8818C446.805 -27.6582 444.527 -22.2148 440.701 -18.3368C431.27 -8.78413 421.732 0.644017 412.229 10.1255C410.716 11.3206 409.452 12.8015 408.51 14.4838C404.222 23.7874 397.62 24.837 391.997 16.1738C387.067 8.5423 382.725 9.78752 376.568 13.5766C371.23 16.8497 364.984 18.5753 361.496 24.3389" stroke="white" stroke-opacity="0.6" stroke-linecap="round" stroke-linejoin="round"/>
<path d="M212.055 244.958C195.417 256.823 177.728 266.198 156.891 268.083" stroke="white" stroke-opacity="0.6" stroke-linecap="round" stroke-linejoin="round"/>
<path d="M110.621 244.958C93.9119 256.68 76.2771 266.18 55.457 268.083" stroke="white" stroke-opacity="0.6" stroke-linecap="round" stroke-linejoin="round"/>
<path d="M362.42 451.309C345.515 451.309 328.61 451.309 311.705 451.309C310.132 451.647 308.628 452.248 307.256 453.088" stroke="white" stroke-opacity="0.6" stroke-linecap="round" stroke-linejoin="round"/>
<path d="M401.568 23.4849C402.867 34.0515 397.867 42.2344 391.834 50.1683C385.09 59.0628 375.926 65.9827 370.48 75.9267" stroke="white" stroke-opacity="0.6" stroke-linecap="round" stroke-linejoin="round"/>
<path d="M302.809 312.555C301.332 326.786 299.25 341.018 298.52 355.249C297.524 375.724 294 396.057 294.801 416.621" stroke="white" stroke-opacity="0.6" stroke-linecap="round" stroke-linejoin="round"/>
<path d="M358.861 300.993C358.113 319.493 361.494 337.745 362.669 356.138C363.986 376.293 367.331 396.324 365.979 416.621" stroke="white" stroke-opacity="0.6" stroke-linecap="round" stroke-linejoin="round"/>
<path d="M558.164 370.37C552.825 386.042 545.191 392.517 529.692 391.396C520.901 390.774 514.62 396.84 506.559 397.053" stroke="white" stroke-opacity="0.6" stroke-linecap="round" stroke-linejoin="round"/>
<path d="M461.184 227.168C470.081 239.852 484.317 242.965 497.628 247.715C501.418 249.067 504.746 250.312 508.305 247.626" stroke="white" stroke-opacity="0.6" stroke-linecap="round" stroke-linejoin="round"/>
<path d="M401.569 129.329C403.58 117.286 397.103 107.982 390.732 99.2124C385.607 92.0968 379.076 85.9952 373.08 79.5378C369.859 76.069 354.43 72.8136 350.925 75.1795C349.597 76.0538 348.482 77.2135 347.66 78.5738C346.838 79.9341 346.33 81.4607 346.174 83.0422C343.878 99.3725 350.195 112.572 359.751 124.882" stroke="white" stroke-opacity="0.6" stroke-linecap="round" stroke-linejoin="round"/>
<path d="M358.862 460.204C343.149 460.719 327.4 459.119 311.705 461.093" stroke="white" stroke-opacity="0.6" stroke-linecap="round" stroke-linejoin="round"/>
<path d="M563.504 228.947C574.483 241.097 589.716 244.762 604.432 249.262C605.909 249.707 607.991 248.213 609.771 247.626" stroke="white" stroke-opacity="0.6" stroke-linecap="round" stroke-linejoin="round"/>
<path d="M329.5 317.002C327.507 329.455 329.198 341.907 328.557 354.359C328.415 357.312 329.607 360.443 327.721 363.254" stroke="white" stroke-opacity="0.6" stroke-linecap="round" stroke-linejoin="round"/>
<path d="M333.059 317.002C334.518 332.385 334.518 347.871 333.059 363.254" stroke="white" stroke-opacity="0.6" stroke-linecap="round" stroke-linejoin="round"/>
<path d="M98.1653 228.947C87.4883 239.336 74.5336 245.046 59.9596 247.875C56.9522 248.462 54.6211 247.608 51.8984 247.626" stroke="white" stroke-opacity="0.6" stroke-linecap="round" stroke-linejoin="round"/>
<path d="M199.597 228.947C188.92 239.336 175.965 245.046 161.391 247.875C158.384 248.462 156.053 247.608 153.33 247.626" stroke="white" stroke-opacity="0.6" stroke-linecap="round" stroke-linejoin="round"/>
<path d="M357.972 467.319C343.179 465.843 328.277 465.843 313.484 467.319" stroke="white" stroke-opacity="0.6" stroke-linecap="round" stroke-linejoin="round"/>
<path d="M103.504 371.259C106.921 382.715 118.825 393.708 133.755 391.894C137.51 391.431 143.08 389.35 144.432 396.163" stroke="white" stroke-opacity="0.6" stroke-linecap="round" stroke-linejoin="round"/>
<path d="M364.201 986.757C356.087 988.34 348.933 982.292 349.022 975.194C349.111 968.096 346.673 962.368 340.125 959.184C332.224 955.412 323.611 960.767 321.529 970.693C319.749 979.001 318.148 987.13 307.293 987.575" stroke="white" stroke-opacity="0.6" stroke-linecap="round" stroke-linejoin="round"/>
<path d="M250.312 227.168C235.399 223.61 220.558 223.201 205.824 228.058" stroke="white" stroke-opacity="0.6" stroke-linecap="round" stroke-linejoin="round"/>
<path d="M331.278 314.334C331.438 311.79 330.228 310.421 327.719 310.776C311.206 313.338 294.14 309.158 277.893 315.081C272.466 317.056 269.263 319.546 268.907 325.861C268.142 338.919 266.665 351.958 265.473 364.997" stroke="white" stroke-opacity="0.6" stroke-linecap="round" stroke-linejoin="round"/>
<path d="M393.562 322.339C390.483 333.404 395.501 344.202 394.754 355.267C394.629 358.244 394.826 361.226 395.341 364.161" stroke="white" stroke-opacity="0.6" stroke-linecap="round" stroke-linejoin="round"/>
<path d="M446.056 241.4C431.553 237.575 417.816 240.973 404.238 245.847" stroke="white" stroke-opacity="0.6" stroke-linecap="round" stroke-linejoin="round"/>
<path d="M177.353 364.144L181.767 366.1C180.681 371.935 177.745 377.45 177.211 383.694C176.891 387.661 177.211 390.115 181.802 389.938C193.654 389.457 205.576 390.969 217.392 389.048" stroke="white" stroke-opacity="0.6" stroke-linecap="round" stroke-linejoin="round"/>
<path d="M257.43 246.737C244.369 240.439 230.738 238.18 216.502 241.4" stroke="white" stroke-opacity="0.6" stroke-linecap="round" stroke-linejoin="round"/>
<path d="M316.154 269.862C306.117 273.758 301.206 282.616 296.811 291.315C293.821 297.221 291.17 298.822 284.123 298.804C271.969 298.804 259.797 298.804 247.643 298.413C245.784 298.684 243.981 299.255 242.305 300.103" stroke="white" stroke-opacity="0.6" stroke-linecap="round" stroke-linejoin="round"/>
<path d="M344.625 -21.877C356.299 -18.0879 356.957 -6.89865 360.64 2.17372C362.776 7.5104 363.986 13.3985 365.623 19.0376" stroke="white" stroke-opacity="0.6" stroke-linecap="round" stroke-linejoin="round"/>
<path d="M311.705 472.656C312.275 486.069 324.161 491.53 331.457 500.069C333.735 502.737 337.828 499.784 340.035 498.29C344.75 495.052 346.992 487.741 351.139 485.838C357.278 482.92 357.42 479.505 357.082 474.542" stroke="white" stroke-opacity="0.6" stroke-linecap="round" stroke-linejoin="round"/>
<path d="M365.089 133.776C362.9 143.916 358.185 153.255 355.533 163.182C353.754 169.532 348.059 170.119 344.625 173.855" stroke="white" stroke-opacity="0.6" stroke-linecap="round" stroke-linejoin="round"/>
<path d="M442.499 -39.6657C439.865 -39.7546 438.62 -37.6733 437.161 -36.1079C422.925 -20.0979 407.283 -5.49311 391.766 9.23614" stroke="white" stroke-opacity="0.6" stroke-linecap="round" stroke-linejoin="round"/>
<path d="M438.938 420.179C438.333 424.893 439.08 428.255 445.184 427.294C448.134 426.864 451.131 426.864 454.081 427.294C460.185 428.184 460.932 424.822 460.327 420.179" stroke="white" stroke-opacity="0.6" stroke-linecap="round" stroke-linejoin="round"/>
<path d="M202.266 420.179C201.661 424.893 202.408 428.255 208.512 427.294C211.462 426.864 214.459 426.864 217.409 427.294C223.513 428.184 224.26 424.822 223.655 420.179" stroke="white" stroke-opacity="0.6" stroke-linecap="round" stroke-linejoin="round"/>
<path d="M406.019 350.802C401.197 354.769 402.282 360.817 400.681 366.011C388.58 364.09 376.373 365.424 364.219 365.033" stroke="white" stroke-opacity="0.6" stroke-linecap="round" stroke-linejoin="round"/>
<path d="M296.581 364.143C289.463 366.082 282.345 364.57 275.227 365.015C270.725 365.282 266.062 364.25 261.827 367.47C258.411 361.688 260.546 354.502 255.652 349.912" stroke="white" stroke-opacity="0.6" stroke-linecap="round" stroke-linejoin="round"/>
<path d="M362.421 364.144C341.067 365.922 319.713 364.41 298.359 365.033" stroke="white" stroke-opacity="0.6" stroke-linecap="round" stroke-linejoin="round"/>
<path d="M409.577 321.45C398.224 321.45 387.867 318.23 377.439 313.694C367.012 309.158 355.605 312.199 344.625 311.701C340.177 311.506 335.728 311.701 331.279 311.701V301.882" stroke="white" stroke-opacity="0.6" stroke-linecap="round" stroke-linejoin="round"/>
<path d="M265.438 398.832H294.799" stroke="white" stroke-opacity="0.6" stroke-linecap="round" stroke-linejoin="round"/>
<path d="M362.422 27.043C368.241 37.8587 377.53 44.8319 388.225 50.1686" stroke="white" stroke-opacity="0.6" stroke-linecap="round" stroke-linejoin="round"/>
<path d="M397.12 367.701C389.255 374.23 388.561 379.744 395.465 388.07C396.669 389.402 397.594 390.962 398.184 392.658C398.774 394.354 399.017 396.151 398.899 397.942" stroke="white" stroke-opacity="0.6" stroke-linecap="round" stroke-linejoin="round"/>
<path d="M393.561 106.204C383.899 111.736 373.595 116.521 368.648 127.55" stroke="white" stroke-opacity="0.6" stroke-linecap="round" stroke-linejoin="round"/>
<path d="M349.074 485.108C339.937 483.667 330.63 483.667 321.492 485.108" stroke="white" stroke-opacity="0.6" stroke-linecap="round" stroke-linejoin="round"/>
<path d="M503.89 268.083C494.993 267.283 486.594 264.347 478.088 261.857" stroke="white" stroke-opacity="0.6" stroke-linecap="round" stroke-linejoin="round"/>
<path d="M605.322 268.083C596.425 267.283 588.025 264.347 579.52 261.857" stroke="white" stroke-opacity="0.6" stroke-linecap="round" stroke-linejoin="round"/>
<path d="M328.609 300.103C318.039 297.453 307.131 301.028 296.578 298.324" stroke="white" stroke-opacity="0.6" stroke-linecap="round" stroke-linejoin="round"/>
<path d="M204.936 370.37C210.274 385.775 218.549 392.25 233.407 391.627C247.91 391.023 255.455 383.96 260.1 368.591" stroke="white" stroke-opacity="0.6" stroke-linecap="round" stroke-linejoin="round"/>
<path d="M237.855 420.179C240.525 417.048 244.084 417.51 247.643 417.51C268.409 417.51 289.212 416.692 309.925 417.742C335.817 419.058 361.53 416.39 387.333 417.101C396.996 417.368 403.081 416.372 406.124 406.872C393.917 404.578 391.301 405.77 386.55 415.767" stroke="white" stroke-opacity="0.6" stroke-linecap="round" stroke-linejoin="round"/>
<path d="M508.34 349.023C505.101 352.883 502.592 357.17 503.001 362.347C503.339 365.78 501.524 367.684 499.442 369.462C490.954 376.791 490.723 381.808 498.553 389.92C500.599 392.019 502.699 394.065 504.781 396.146" stroke="white" stroke-opacity="0.6" stroke-linecap="round" stroke-linejoin="round"/>
<path d="M153.33 349.023C155.839 351.478 158.17 354.2 157.708 357.917C157.049 363.112 159.309 365.976 163.989 367.737C169.043 369.658 170.431 373.34 168.474 378.41C165.591 385.775 162.583 393.033 155.11 397.089" stroke="white" stroke-opacity="0.6" stroke-linecap="round" stroke-linejoin="round"/>
<path d="M400.68 366.812C402.459 375.261 408.776 381.434 412.246 389.048" stroke="white" stroke-opacity="0.6" stroke-linecap="round" stroke-linejoin="round"/>
<path d="M422.924 420.179C416.411 414.397 408.582 419.254 401.57 417.51" stroke="white" stroke-opacity="0.6" stroke-linecap="round" stroke-linejoin="round"/>
<path d="M506.56 406.837C494.281 405.183 492.608 405.965 487.875 415.731" stroke="white" stroke-opacity="0.6" stroke-linecap="round" stroke-linejoin="round"/>
<path d="M172.903 415.731C168.17 405.965 166.497 405.183 154.219 406.837" stroke="white" stroke-opacity="0.6" stroke-linecap="round" stroke-linejoin="round"/>
<path d="M186.251 349.023L167.566 367.701" stroke="white" stroke-opacity="0.6" stroke-linecap="round" stroke-linejoin="round"/>
<path d="M455.845 370.37C456.094 378.588 450.186 383.107 445.168 388.159" stroke="white" stroke-opacity="0.6" stroke-linecap="round" stroke-linejoin="round"/>
<path d="M503 371.259C505.847 378.374 511.897 383.106 516.346 389.048" stroke="white" stroke-opacity="0.6" stroke-linecap="round" stroke-linejoin="round"/>
<path d="M268.108 321.45C262.564 320.019 256.747 320.019 251.203 321.45" stroke="white" stroke-opacity="0.6" stroke-linecap="round" stroke-linejoin="round"/>
<path d="M390.003 100.867C383.543 102.646 378.312 106.666 373.098 110.651" stroke="white" stroke-opacity="0.6" stroke-linecap="round" stroke-linejoin="round"/>
<path d="M378.436 35.937C383.116 38.7299 387.137 42.6612 392.672 43.942" stroke="white" stroke-opacity="0.6" stroke-linecap="round" stroke-linejoin="round"/>
<path d="M158.667 368.591C156.318 376.027 153.542 383.16 146.211 387.269" stroke="white" stroke-opacity="0.6" stroke-linecap="round" stroke-linejoin="round"/>
<path d="M400.68 298.324C407.032 300.832 413.937 297.132 420.254 300.103" stroke="white" stroke-opacity="0.6" stroke-linecap="round" stroke-linejoin="round"/>
<path d="M266.327 405.058C263.017 407.104 259.013 405.058 254.707 406.606L261.825 416.621" stroke="white" stroke-opacity="0.6" stroke-linecap="round" stroke-linejoin="round"/>
<path d="M552.826 244.958C555.976 248.16 559.001 251.557 563.503 252.963" stroke="white" stroke-opacity="0.6" stroke-linecap="round" stroke-linejoin="round"/>
<path d="M451.395 244.958C454.544 248.16 457.569 251.557 462.071 252.963" stroke="white" stroke-opacity="0.6" stroke-linecap="round" stroke-linejoin="round"/>
<path d="M262.77 397.942C266.151 401.696 267.894 406.837 272.557 409.505C275.19 410.999 274.141 413.543 274.336 415.731" stroke="white" stroke-opacity="0.6" stroke-linecap="round" stroke-linejoin="round"/>
<path d="M302.809 300.993V310.777" stroke="white" stroke-opacity="0.6" stroke-linecap="round" stroke-linejoin="round"/>
<path d="M366.869 20.8164L373.097 30.6003" stroke="white" stroke-opacity="0.6" stroke-linecap="round" stroke-linejoin="round"/>
<path d="M367.759 115.987L361.531 124.882" stroke="white" stroke-opacity="0.6" stroke-linecap="round" stroke-linejoin="round"/>
<path d="M244.973 390.827L252.98 397.053" stroke="white" stroke-opacity="0.6" stroke-linecap="round" stroke-linejoin="round"/>
<path d="M154.219 381.932C156.639 384.316 158.863 386.984 162.226 388.158" stroke="white" stroke-opacity="0.6" stroke-linecap="round" stroke-linejoin="round"/>
<path d="M256.541 381.043L264.549 387.269" stroke="white" stroke-opacity="0.6" stroke-linecap="round" stroke-linejoin="round"/>
<path d="M366.868 298.324C364.661 299.943 362.099 298.805 359.75 299.214" stroke="white" stroke-opacity="0.6" stroke-linecap="round" stroke-linejoin="round"/>
<path d="M331.28 777.736C326.457 779.782 325.941 783.891 325.941 788.41C325.941 800.862 325.941 813.314 325.941 825.766C325.941 831.477 327.418 835.871 333.985 836.44C339.857 836.92 343.558 833.149 343.701 825.766C343.95 813.314 343.985 800.862 343.701 788.41C343.487 779.266 341.921 778.092 332.205 777.736" stroke="white" stroke-opacity="0.6" stroke-linecap="round" stroke-linejoin="round"/>
<path d="M332.169 893.365C323.93 899.698 322.453 909.375 328.61 915.636C329.304 916.456 330.158 917.127 331.118 917.608C332.079 918.089 333.128 918.371 334.2 918.435C335.273 918.5 336.348 918.347 337.36 917.985C338.371 917.623 339.299 917.06 340.088 916.33C345.159 912.203 343.985 906.279 342.988 900.462C341.992 894.645 338.415 892.92 333.094 893.347" stroke="white" stroke-opacity="0.6" stroke-linecap="round" stroke-linejoin="round"/>
</g>
<defs>
<clipPath id="clip0_1173_9881">
<rect width="807" height="1118" fill="white" transform="translate(-64 -41)"/>
</clipPath>
</defs>
</svg>
