<svg width="65" height="105" viewBox="0 0 65 105" fill="none" xmlns="http://www.w3.org/2000/svg">
<path fill-rule="evenodd" clip-rule="evenodd" d="M26.4807 58.682C26.668 58.7902 26.8805 58.8472 27.0968 58.8472C27.368 58.8472 27.6316 58.7577 27.8468 58.5925C28.062 58.4273 28.2167 58.1957 28.2869 57.9335C28.3571 57.6714 28.3389 57.3934 28.2351 57.1427C28.1313 56.892 27.9477 56.6826 27.7128 56.5469L9.64021 46.1072C9.1418 45.8187 8.65448 44.9749 8.65448 44.401V42.6072L23.5514 51.2164C23.7386 51.3251 23.9511 51.3823 24.1675 51.3822C24.4389 51.3825 24.7028 51.293 24.9182 51.1278C25.1336 50.9625 25.2885 50.7308 25.3587 50.4685C25.4289 50.2061 25.4106 49.928 25.3066 49.6771C25.2027 49.4263 25.0188 49.2168 24.7836 49.0813L8.65448 39.76V19.2742C8.65448 18.6997 9.14303 17.8546 9.64021 17.568L31.3877 5.00427C31.8868 4.71703 32.862 4.71703 33.3592 5.00427L54.896 17.4463L33.3404 30.4135C32.0965 31.1618 31.1589 32.8205 31.1589 34.272V60.6724C31.1589 60.9993 31.2887 61.3129 31.5198 61.5441C31.7508 61.7752 32.0642 61.9051 32.391 61.9051C32.5529 61.9053 32.7133 61.8735 32.8629 61.8116C33.0126 61.7498 33.1485 61.659 33.2631 61.5445C33.3776 61.43 33.4685 61.2941 33.5305 61.1444C33.5925 60.9948 33.6244 60.8344 33.6244 60.6724V34.272C33.6244 33.6908 34.1117 32.826 34.6101 32.5271L56.0924 19.6034V44.1113L50.8385 41.0763C50.6983 40.994 50.5433 40.9404 50.3823 40.9184C50.2213 40.8963 50.0575 40.9064 49.9004 40.9479C49.7433 40.9895 49.596 41.0617 49.4669 41.1605C49.3378 41.2592 49.2296 41.3826 49.1483 41.5234C49.0671 41.6642 49.0144 41.8196 48.9935 41.9809C48.9726 42.1421 48.9837 42.3059 49.0263 42.4628C49.0688 42.6197 49.142 42.7666 49.2416 42.8951C49.3411 43.0236 49.4651 43.1311 49.6064 43.2114L55.1092 46.3895C55.9199 46.8586 56.7818 46.8986 57.4718 46.4998C58.1618 46.101 58.558 45.3349 58.558 44.3973V19.2742C58.558 17.814 57.6043 16.1627 56.3401 15.4322L34.5926 2.86911C33.3265 2.1387 31.421 2.13931 30.1568 2.86911L8.40928 15.4322C7.14386 16.1627 6.19141 17.814 6.19141 19.2742V44.401C6.19141 45.8606 7.14509 47.5126 8.40928 48.2423L26.4807 58.682ZM25.8639 40.4172V43.6725L13.2756 36.3992C12.9932 36.2441 12.6613 36.2059 12.3511 36.2927C12.0408 36.3794 11.7769 36.5843 11.6158 36.8634C11.4547 37.1425 11.4092 37.4736 11.4892 37.7858C11.5691 38.098 11.7681 38.3665 12.0434 38.5337L26.4806 46.8759C26.6678 46.9843 26.8803 47.0413 27.0967 47.041V47.0417C27.4234 47.0417 27.7368 46.9118 27.9679 46.6806C28.199 46.4494 28.3288 46.1358 28.3288 45.8089V39.7839C28.332 39.7328 28.332 39.6817 28.3288 39.6308V33.6045C28.3288 33.3881 28.2719 33.1755 28.1637 32.9881C28.0556 32.8007 27.9 32.6451 27.7127 32.5369L13.2756 24.1954C13.1353 24.1102 12.9795 24.0539 12.8172 24.0298C12.6549 24.0057 12.4894 24.0143 12.3305 24.055C12.1715 24.0957 12.0223 24.1678 11.8916 24.267C11.7609 24.3662 11.6513 24.4905 11.5692 24.6327C11.4871 24.7748 11.4343 24.9319 11.4137 25.0948C11.3932 25.2577 11.4054 25.423 11.4495 25.5811C11.4937 25.7392 11.569 25.8869 11.671 26.0155C11.773 26.144 11.8996 26.251 12.0434 26.3299L25.8639 34.3158V37.57L13.2769 30.297C12.9941 30.1361 12.6591 30.0937 12.3451 30.179C12.0311 30.2642 11.7636 30.4703 11.6009 30.7523C11.4382 31.0342 11.3935 31.369 11.4767 31.6838C11.5599 31.9985 11.7641 32.2675 12.0448 32.4321L25.8639 40.4172ZM30.3276 27.6995C30.515 27.8075 30.7274 27.8643 30.9437 27.8641C31.1597 27.8633 31.3717 27.8057 31.5585 27.6971L36.8759 24.6256C37.0633 24.5175 37.219 24.3618 37.3272 24.1744C37.4355 23.9869 37.4924 23.7742 37.4924 23.5578C37.4924 23.3413 37.4355 23.1286 37.3272 22.9411C37.219 22.7537 37.0633 22.598 36.8759 22.4899L24.6554 15.4526L27.5084 13.8056L40.9629 21.5542C41.1502 21.6624 41.3627 21.7194 41.579 21.7194C41.7953 21.7194 42.0078 21.6624 42.1951 21.5542L47.5118 18.4834C47.699 18.3751 47.8544 18.2195 47.9624 18.0322C48.0705 17.8449 48.1273 17.6324 48.1273 17.4161C48.1273 17.1998 48.0705 16.9873 47.9624 16.8C47.8544 16.6127 47.699 16.4571 47.5118 16.3488L33.4412 8.24277C33.158 8.0793 32.8215 8.03509 32.5056 8.11988C32.1898 8.20467 31.9206 8.41151 31.7572 8.69489C31.5938 8.97828 31.5496 9.31499 31.6344 9.63097C31.7191 9.94695 31.9259 10.2163 32.2091 10.3798L44.4278 17.4189L41.5766 19.0659L28.1239 11.3148C27.9366 11.2066 27.7241 11.1497 27.5078 11.1497C27.2915 11.1497 27.079 11.2066 26.8917 11.3148L21.575 14.3863C21.3875 14.4944 21.2319 14.6501 21.1236 14.8375C21.0154 15.025 20.9584 15.2377 20.9584 15.4542C20.9584 15.6706 21.0154 15.8833 21.1236 16.0708C21.2319 16.2582 21.3875 16.4139 21.575 16.522L33.7943 23.5611L30.9431 25.2081L17.4879 17.4565C17.3476 17.3717 17.1917 17.3159 17.0295 17.2922C16.8672 17.2684 16.7019 17.2774 16.5432 17.3184C16.3844 17.3594 16.2355 17.4317 16.105 17.5311C15.9746 17.6304 15.8652 17.7548 15.7835 17.897C15.7017 18.0392 15.6491 18.1962 15.6287 18.359C15.6084 18.5218 15.6207 18.6869 15.665 18.8449C15.7092 19.0028 15.7846 19.1503 15.8865 19.2788C15.9885 19.4072 16.1151 19.514 16.2589 19.5929L30.3276 27.6995Z" fill="#C4C4C4"/>
<g clip-path="url(#clip0_868_3554)">
<path d="M14.5962 95.9375L7.71927 99.9454L7.61457 89.2945L15.8664 84.4848C16.1521 84.3158 16.3599 84.0396 16.4445 83.7164C16.5291 83.3933 16.4837 83.0495 16.3182 82.7601C16.1526 82.4706 15.8803 82.259 15.5608 82.1714C15.2413 82.0839 14.9004 82.1274 14.6125 82.2926L7.58635 86.3878L7.51551 79.1651L15.6175 74.4434C15.7613 74.3609 15.8874 74.2505 15.9888 74.1186C16.0901 73.9867 16.1645 73.8358 16.2079 73.6747C16.2512 73.5136 16.2625 73.3455 16.2412 73.18C16.2199 73.0144 16.1664 72.8548 16.0837 72.7102C16.001 72.5657 15.8908 72.4391 15.7594 72.3377C15.6281 72.2363 15.4781 72.1621 15.3183 72.1194C15.1584 72.0768 14.9918 72.0664 14.8279 72.0891C14.6641 72.1117 14.5063 72.1668 14.3636 72.2512L5.63091 77.3425C5.43845 77.4546 5.27897 77.6164 5.16881 77.8112C5.05865 78.006 5.00176 78.2269 5.00397 78.4512L5.23594 102.138C5.23813 102.359 5.29766 102.575 5.4086 102.766C5.51955 102.957 5.67804 103.115 5.86829 103.224C6.05854 103.334 6.27391 103.391 6.49295 103.391C6.712 103.39 6.92708 103.332 7.11677 103.221L15.8501 98.1297C15.9939 98.0472 16.12 97.9368 16.2214 97.8049C16.3227 97.673 16.3971 97.5221 16.4405 97.3611C16.4838 97.2 16.4951 97.0318 16.4738 96.8663C16.4525 96.7008 16.399 96.5411 16.3163 96.3966C16.2336 96.252 16.1234 96.1254 15.992 96.024C15.8607 95.9226 15.7107 95.8484 15.5509 95.8058C15.391 95.7631 15.2243 95.7528 15.0605 95.7754C14.8967 95.798 14.7389 95.8531 14.5962 95.9375Z" fill="#C4C4C4"/>
<path d="M20.5097 104.792C20.1772 104.792 19.8583 104.659 19.6231 104.422C19.388 104.184 19.2559 103.862 19.2559 103.527V78.4387C19.256 78.2166 19.314 77.9985 19.424 77.8062C19.5341 77.6139 19.6923 77.4542 19.8828 77.3432L27.3008 73.0126C27.4914 72.9015 27.7075 72.843 27.9276 72.843C28.1476 72.843 28.3638 72.9014 28.5544 73.0124C28.745 73.1234 28.9033 73.2831 29.0134 73.4754C29.1235 73.6678 29.1815 73.8859 29.1816 74.1081V92.7392C29.1813 92.961 29.1232 93.1789 29.0132 93.3709C28.9031 93.563 28.745 93.7225 28.5547 93.8334L24.8263 96.0192C24.5387 96.1878 24.1965 96.2342 23.8751 96.1482C23.5536 96.0621 23.2792 95.8507 23.1122 95.5604C22.9452 95.2701 22.8992 94.9248 22.9845 94.6003C23.0697 94.2758 23.2792 93.9988 23.5667 93.8302L26.6714 92.0101V76.3021L21.7599 79.169V103.527C21.7599 103.862 21.6283 104.183 21.394 104.42C21.1596 104.658 20.8416 104.791 20.5097 104.792Z" fill="#C4C4C4"/>
<path d="M42.5339 84.1184C42.7541 84.1182 42.9703 84.0595 43.1609 83.9481L51.3212 79.1821C51.6014 79.0104 51.8039 78.7348 51.8852 78.4142C51.9666 78.0937 51.9203 77.7537 51.7564 77.4672C51.5924 77.1806 51.3238 76.9703 51.0081 76.8812C50.6924 76.7921 50.3547 76.8314 50.0673 76.9906L41.9051 81.7585C41.6664 81.8979 41.4799 82.1129 41.3745 82.3702C41.2691 82.6275 41.2506 82.9127 41.322 83.1816C41.3934 83.4505 41.5507 83.6882 41.7695 83.8578C41.9882 84.0273 42.2562 84.1194 42.532 84.1196L42.5339 84.1184Z" fill="#C4C4C4"/>
<path d="M58.9399 101.289L51.6084 97.7943C51.4203 97.6916 51.2092 97.6392 50.9954 97.6421C50.7815 97.6449 50.5719 97.703 50.3865 97.8107L43.8412 101.626L43.8274 97.7322L54.957 91.4082C55.1518 91.298 55.314 91.1374 55.4268 90.9428C55.5395 90.7482 55.5987 90.5267 55.5983 90.3013L55.5689 80.6934C55.5681 80.4716 55.5096 80.2539 55.3992 80.0621C55.2888 79.8703 55.1305 79.7111 54.94 79.6006C54.7495 79.49 54.5336 79.4319 54.3139 79.4321C54.0941 79.4323 53.8783 79.4908 53.688 79.6017L41.9121 86.4599C41.7209 86.5714 41.5621 86.7318 41.4521 86.9251C41.342 87.1183 41.2844 87.3375 41.2852 87.5604L41.304 92.2189C41.2833 92.3514 41.2833 92.4863 41.304 92.6188L41.341 103.541C41.3417 103.838 41.447 104.126 41.6381 104.353C41.6381 104.358 41.6425 104.364 41.6457 104.369C41.8119 104.66 42.0858 104.872 42.407 104.959C42.7282 105.046 43.0705 105 43.3585 104.832L51.0699 100.339L57.8704 103.58C58.0193 103.652 58.1807 103.693 58.3454 103.701C58.51 103.709 58.6746 103.685 58.8299 103.629C58.9851 103.573 59.1278 103.486 59.25 103.374C59.3721 103.263 59.4712 103.128 59.5415 102.977C59.6119 102.827 59.6522 102.664 59.6602 102.498C59.6681 102.331 59.6435 102.165 59.5877 102.009C59.5319 101.852 59.4461 101.708 59.3352 101.585C59.2243 101.462 59.0904 101.362 58.9412 101.291L58.9399 101.289ZM43.818 94.8338L43.8118 93.1352L53.0799 87.7338L53.0855 89.5691L43.818 94.8338ZM53.0648 82.8862L53.0711 84.8151L43.8023 90.2171L43.7954 88.2882L53.0648 82.8862Z" fill="#C4C4C4"/>
<path d="M59.2489 75.8459L50.7976 72.1058C50.2915 71.977 49.7583 72.0084 49.2704 72.1956L35.0131 80.5049C34.8693 80.5875 34.7431 80.6978 34.6418 80.8298C34.5405 80.9617 34.466 81.1125 34.4227 81.2736C34.3794 81.4347 34.3681 81.6029 34.3894 81.7684C34.4107 81.9339 34.4642 82.0936 34.5469 82.2381C34.6296 82.3827 34.7398 82.5093 34.8711 82.6107C35.0025 82.7121 35.1524 82.7862 35.3123 82.8289C35.4722 82.8716 35.6388 82.8819 35.8027 82.8593C35.9665 82.8367 36.1243 82.7816 36.2669 82.6971L50.172 74.5967L58.242 78.1678C58.5466 78.3026 58.8918 78.3097 59.2016 78.1876C59.5114 78.0655 59.7605 77.8241 59.894 77.5166C60.0275 77.2091 60.0346 76.8607 59.9136 76.548C59.7926 76.2353 59.5535 75.9838 59.2489 75.8491V75.8459Z" fill="#C4C4C4"/>
</g>
<defs>
<clipPath id="clip0_868_3554">
<rect width="55" height="33" fill="white" transform="translate(5 72)"/>
</clipPath>
</defs>
</svg>
