<svg width="151" height="90" viewBox="0 0 151 90" fill="none" xmlns="http://www.w3.org/2000/svg">
<g clip-path="url(#clip0_823_3209)">
<path d="M26.3431 65.2843L7.46271 76.2148L7.17526 47.1669L29.8303 34.0496C30.6146 33.5886 31.1851 32.8353 31.4175 31.9541C31.6498 31.0728 31.5251 30.1352 31.0706 29.3457C30.616 28.5563 29.8686 27.9792 28.9913 27.7404C28.114 27.5016 27.1781 27.6204 26.3878 28.0709L7.09781 39.2396L6.90331 19.5413L29.147 6.6639C29.5417 6.4389 29.8881 6.13783 30.1662 5.77805C30.4444 5.41826 30.6488 5.00686 30.7678 4.56753C30.8867 4.12819 30.9178 3.6696 30.8593 3.21816C30.8008 2.76672 30.6538 2.33134 30.4268 1.9371C30.1998 1.54285 29.8973 1.19753 29.5366 0.921C29.176 0.644472 28.7644 0.442206 28.3254 0.325846C27.8865 0.209487 27.429 0.181332 26.9792 0.243003C26.5294 0.304674 26.0962 0.454952 25.7045 0.685187L1.72923 14.5705C1.20083 14.8764 0.762991 15.3176 0.460545 15.8489C0.1581 16.3802 0.0019145 16.9826 0.00798282 17.5944L0.644845 82.1935C0.650857 82.7965 0.814298 83.3874 1.11889 83.9073C1.42349 84.4273 1.85861 84.8582 2.38093 85.157C2.90325 85.4559 3.49454 85.6124 4.09592 85.6109C4.69731 85.6093 5.28779 85.4498 5.80859 85.1483L29.7856 71.263C30.1803 71.038 30.5266 70.7369 30.8048 70.3771C31.083 70.0173 31.2874 69.6059 31.4064 69.1666C31.5253 68.7273 31.5564 68.2687 31.4979 67.8173C31.4394 67.3658 31.2924 66.9304 31.0654 66.5362C30.8384 66.1419 30.5358 65.7966 30.1752 65.5201C29.8146 65.2436 29.4029 65.0413 28.964 64.9249C28.5251 64.8086 28.0676 64.7804 27.6178 64.8421C27.168 64.9038 26.7347 65.054 26.3431 65.2843Z" fill="#C4C4C4"/>
<path d="M42.5831 89.4339C41.6701 89.4339 40.7945 89.0702 40.1489 88.4229C39.5033 87.7755 39.1406 86.8975 39.1406 85.982V17.5599C39.1409 16.9543 39.3002 16.3594 39.6023 15.835C39.9044 15.3106 40.3388 14.8751 40.8619 14.5723L61.2277 2.76154C61.7509 2.45865 62.3444 2.29915 62.9485 2.29907C63.5526 2.29899 64.1461 2.45833 64.6694 2.76109C65.1927 3.06384 65.6273 3.49935 65.9295 4.02385C66.2318 4.54836 66.3911 5.14339 66.3914 5.74917V56.5613C66.3905 57.1664 66.231 57.7605 65.9289 58.2843C65.6268 58.8081 65.1927 59.243 64.6702 59.5455L54.4339 65.507C53.6444 65.9668 52.705 66.0933 51.8225 65.8586C50.94 65.6239 50.1866 65.0473 49.728 64.2556C49.2695 63.464 49.1433 62.522 49.3774 61.6371C49.6114 60.7522 50.1864 59.9967 50.9759 59.5369L59.4996 54.573V11.7331L46.0153 19.5516V85.982C46.0153 86.8957 45.654 87.7721 45.0107 88.4192C44.3673 89.0663 43.4943 89.4312 42.5831 89.4339Z" fill="#C4C4C4"/>
<path d="M103.048 33.0503C103.653 33.0498 104.246 32.8897 104.769 32.5861L127.173 19.5879C127.942 19.1196 128.498 18.3678 128.722 17.4936C128.945 16.6194 128.818 15.6922 128.368 14.9107C127.918 14.1293 127.18 13.5556 126.314 13.3126C125.447 13.0697 124.52 13.1767 123.731 13.6109L101.322 26.6143C100.666 26.9946 100.154 27.581 99.8648 28.2827C99.5754 28.9844 99.5248 29.7621 99.7209 30.4955C99.9169 31.229 100.349 31.8771 100.949 32.3396C101.55 32.8021 102.286 33.0531 103.043 33.0538L103.048 33.0503Z" fill="#C4C4C4"/>
<path d="M148.088 79.879L127.959 70.3483C127.443 70.0682 126.863 69.9253 126.276 69.9332C125.689 69.941 125.114 70.0994 124.605 70.3931L106.635 80.7972L106.597 70.1791L137.152 52.9316C137.687 52.6313 138.133 52.1931 138.442 51.6624C138.752 51.1317 138.914 50.5278 138.913 49.9129L138.832 23.7095C138.83 23.1046 138.67 22.5108 138.367 21.9878C138.064 21.4647 137.629 21.0307 137.106 20.7291C136.583 20.4276 135.99 20.2692 135.387 20.2697C134.784 20.2703 134.191 20.4297 133.669 20.7322L101.338 39.4364C100.813 39.7404 100.378 40.178 100.075 40.7051C99.7732 41.2321 99.6151 41.8299 99.6172 42.4378L99.6688 55.1426C99.6121 55.504 99.6121 55.872 99.6688 56.2334L99.7704 86.0199C99.7723 86.8322 100.061 87.6174 100.586 88.2361C100.586 88.2499 100.598 88.2654 100.607 88.2792C101.063 89.072 101.815 89.6505 102.697 89.8875C103.579 90.1244 104.519 90.0004 105.309 89.5426L126.481 77.2883L145.151 86.1287C145.56 86.3232 146.003 86.4349 146.455 86.4575C146.907 86.48 147.359 86.413 147.785 86.2602C148.212 86.1074 148.603 85.8719 148.939 85.5671C149.274 85.2623 149.546 84.8941 149.739 84.4838C149.933 84.0734 150.043 83.6289 150.065 83.1756C150.087 82.7223 150.019 82.2692 149.866 81.8421C149.713 81.4151 149.477 81.0225 149.173 80.6868C148.868 80.3511 148.501 80.079 148.091 79.8859L148.088 79.879ZM106.571 62.2742L106.554 57.6418L131.999 42.9107L132.015 47.916L106.571 62.2742ZM131.958 29.6899L131.975 34.9506L106.528 49.6834L106.509 44.4227L131.958 29.6899Z" fill="#C4C4C4"/>
<path d="M148.938 10.4887L125.735 0.288258C124.345 -0.0628754 122.882 0.0226809 121.542 0.533343L82.3992 23.1952C82.0046 23.4202 81.6582 23.7212 81.38 24.081C81.1019 24.4408 80.8974 24.8522 80.7785 25.2915C80.6595 25.7309 80.6284 26.1895 80.6869 26.6409C80.7454 27.0923 80.8924 27.5277 81.1194 27.922C81.3464 28.3162 81.649 28.6615 82.0096 28.9381C82.3702 29.2146 82.7819 29.4169 83.2208 29.5332C83.6597 29.6496 84.1172 29.6777 84.5671 29.6161C85.0169 29.5544 85.4501 29.4041 85.8417 29.1739L124.017 7.08162L146.173 16.8212C147.01 17.1888 147.957 17.2082 148.808 16.8751C149.658 16.542 150.342 15.8838 150.709 15.0452C151.075 14.2066 151.095 13.2563 150.762 12.4034C150.43 11.5505 149.774 10.8649 148.938 10.4973V10.4887Z" fill="#C4C4C4"/>
</g>
<defs>
<clipPath id="clip0_823_3209">
<rect width="151" height="90" fill="white"/>
</clipPath>
</defs>
</svg>
