<svg width="24" height="24" viewBox="0 0 24 24" fill="none" xmlns="http://www.w3.org/2000/svg">
<path d="M9.5005 4C10.7441 3.99997 11.9615 4.35667 13.0084 5.02777C14.0554 5.69886 14.8878 6.65619 15.407 7.78618C15.9262 8.91616 16.1104 10.1714 15.9376 11.4029C15.7649 12.6344 15.2425 13.7905 14.4325 14.734L20.0765 20.378L19.3695 21.085L13.7245 15.44C12.9284 16.1208 11.9795 16.5991 10.9587 16.8342C9.93786 17.0693 8.87535 17.0542 7.86163 16.7901C6.84792 16.5261 5.91304 16.021 5.13661 15.3178C4.36018 14.6146 3.76521 13.7341 3.40237 12.7514C3.03953 11.7687 2.91958 10.7129 3.05271 9.67387C3.18585 8.63483 3.56814 7.64336 4.16703 6.7839C4.76591 5.92444 5.56364 5.22246 6.49229 4.73774C7.42093 4.25302 8.45297 3.99992 9.5005 4V4ZM9.5005 5C8.04181 5 6.64286 5.57946 5.61141 6.61091C4.57996 7.64236 4.0005 9.04131 4.0005 10.5C4.0005 11.9587 4.57996 13.3576 5.61141 14.3891C6.64286 15.4205 8.04181 16 9.5005 16C10.9592 16 12.3581 15.4205 13.3896 14.3891C14.421 13.3576 15.0005 11.9587 15.0005 10.5C15.0005 9.04131 14.421 7.64236 13.3896 6.61091C12.3581 5.57946 10.9592 5 9.5005 5Z" fill="#575757"/>
</svg>
