<svg width="24" height="24" viewBox="0 0 24 24" fill="none" xmlns="http://www.w3.org/2000/svg">
<path d="M18.0939 22.6666H5.90724C5.6507 22.6605 5.39787 22.604 5.16319 22.5002C4.92851 22.3964 4.71659 22.2473 4.53952 22.0616C4.36246 21.8759 4.22373 21.6571 4.13125 21.4177C4.03877 21.1784 3.99437 20.9231 4.00057 20.6666V7.48657H5.3339V20.6666C5.32754 20.748 5.33734 20.83 5.36275 20.9076C5.38816 20.9853 5.42866 21.0572 5.48195 21.1191C5.53523 21.1811 5.60023 21.2319 5.67322 21.2686C5.7462 21.3054 5.82574 21.3273 5.90724 21.3332H18.0939C18.1754 21.3273 18.2549 21.3054 18.3279 21.2686C18.4009 21.2319 18.4659 21.1811 18.5192 21.1191C18.5725 21.0572 18.613 20.9853 18.6384 20.9076C18.6638 20.83 18.6736 20.748 18.6672 20.6666V7.48657H20.0006V20.6666C20.0068 20.9231 19.9624 21.1784 19.8699 21.4177C19.7774 21.6571 19.6387 21.8759 19.4616 22.0616C19.2846 22.2473 19.0726 22.3964 18.8379 22.5002C18.6033 22.604 18.3504 22.6605 18.0939 22.6666Z" fill="#575757"/>
<path d="M20.5194 6.00008H3.33268C3.15587 6.00008 2.9863 5.92984 2.86128 5.80482C2.73625 5.67979 2.66602 5.51023 2.66602 5.33341C2.66602 5.1566 2.73625 4.98703 2.86128 4.86201C2.9863 4.73699 3.15587 4.66675 3.33268 4.66675H20.5194C20.6962 4.66675 20.8657 4.73699 20.9908 4.86201C21.1158 4.98703 21.186 5.1566 21.186 5.33341C21.186 5.51023 21.1158 5.67979 20.9908 5.80482C20.8657 5.92984 20.6962 6.00008 20.5194 6.00008Z" fill="#575757"/>
<path d="M14 8.66675H15.3333V18.6667H14V8.66675Z" fill="#575757"/>
<path d="M8.66602 8.66675H9.99935V18.6667H8.66602V8.66675Z" fill="#575757"/>
<path d="M15.3327 3.90658H14.066V2.66659H9.93268V3.90658H8.66602V2.66659C8.66559 2.32422 8.79688 1.9948 9.03268 1.74658C9.26849 1.49837 9.59074 1.35037 9.93268 1.33325H14.066C14.408 1.35037 14.7302 1.49837 14.966 1.74658C15.2018 1.9948 15.3331 2.32422 15.3327 2.66659V3.90658Z" fill="#575757"/>
</svg>
