<svg width="30" height="30" viewBox="0 0 30 30" fill="none" xmlns="http://www.w3.org/2000/svg">
<path d="M27.999 6.93655C27.042 7.36155 26.014 7.64755 24.935 7.77655C26.037 7.11655 26.882 6.07155 27.28 4.82555C26.25 5.43655 25.108 5.88055 23.892 6.12055C22.919 5.08355 21.533 4.43555 19.999 4.43555C17.053 4.43555 14.665 6.82455 14.665 9.76955C14.665 10.1875 14.713 10.5955 14.803 10.9845C10.37 10.7625 6.44005 8.63855 3.80805 5.41055C3.35005 6.19855 3.08705 7.11455 3.08705 8.09355C3.08705 9.94355 4.02805 11.5765 5.45905 12.5325C4.58505 12.5045 3.76205 12.2645 3.04305 11.8655C3.04305 11.8885 3.04305 11.9095 3.04305 11.9325C3.04305 14.5175 4.88105 16.6735 7.32205 17.1625C6.87505 17.2845 6.40305 17.3495 5.91605 17.3495C5.57305 17.3495 5.23805 17.3155 4.91305 17.2545C5.59205 19.3735 7.56205 20.9165 9.89605 20.9595C8.07105 22.3905 5.77105 23.2435 3.27105 23.2435C2.84105 23.2435 2.41605 23.2185 1.99805 23.1685C4.35905 24.6815 7.16205 25.5645 10.175 25.5645C19.987 25.5645 25.351 17.4365 25.351 10.3875C25.351 10.1565 25.346 9.92655 25.336 9.69755C26.379 8.94455 27.284 8.00555 27.999 6.93655Z" fill="white" fill-opacity="0.8"/>
</svg>
