<svg width="40" height="40" viewBox="0 0 40 40" fill="none" xmlns="http://www.w3.org/2000/svg">
<path d="M0 20C0 8.95431 8.95431 0 20 0C31.0457 0 40 8.95431 40 20C40 31.0457 31.0457 40 20 40C8.95431 40 0 31.0457 0 20Z" fill="#B03342"/>
<path d="M25 26C25.5304 26 26.0391 26.2107 26.4142 26.5858C26.7893 26.9609 27 27.4696 27 28C27 28.5304 26.7893 29.0391 26.4142 29.4142C26.0391 29.7893 25.5304 30 25 30C24.4696 30 23.9609 29.7893 23.5858 29.4142C23.2107 29.0391 23 28.5304 23 28C23 27.4696 23.2107 26.9609 23.5858 26.5858C23.9609 26.2107 24.4696 26 25 26ZM25 27C24.7348 27 24.4804 27.1054 24.2929 27.2929C24.1054 27.4804 24 27.7348 24 28C24 28.2652 24.1054 28.5196 24.2929 28.7071C24.4804 28.8946 24.7348 29 25 29C25.2652 29 25.5196 28.8946 25.7071 28.7071C25.8946 28.5196 26 28.2652 26 28C26 27.7348 25.8946 27.4804 25.7071 27.2929C25.5196 27.1054 25.2652 27 25 27ZM16 26C16.5304 26 17.0391 26.2107 17.4142 26.5858C17.7893 26.9609 18 27.4696 18 28C18 28.5304 17.7893 29.0391 17.4142 29.4142C17.0391 29.7893 16.5304 30 16 30C15.4696 30 14.9609 29.7893 14.5858 29.4142C14.2107 29.0391 14 28.5304 14 28C14 27.4696 14.2107 26.9609 14.5858 26.5858C14.9609 26.2107 15.4696 26 16 26ZM16 27C15.7348 27 15.4804 27.1054 15.2929 27.2929C15.1054 27.4804 15 27.7348 15 28C15 28.2652 15.1054 28.5196 15.2929 28.7071C15.4804 28.8946 15.7348 29 16 29C16.2652 29 16.5196 28.8946 16.7071 28.7071C16.8946 28.5196 17 28.2652 17 28C17 27.7348 16.8946 27.4804 16.7071 27.2929C16.5196 27.1054 16.2652 27 16 27ZM27 14H13.273L15.82 20H24C24.1555 20.0002 24.3089 19.964 24.4478 19.8942C24.5868 19.8244 24.7074 19.7229 24.8 19.598L27.8 15.598H27.801C27.9119 15.4494 27.9793 15.2728 27.9956 15.0881C28.012 14.9033 27.9766 14.7177 27.8935 14.5519C27.8104 14.3861 27.6828 14.2467 27.525 14.1492C27.3672 14.0518 27.1855 14.0001 27 14ZM24 21H15.866L15.1 22.56L15 23C15 23.2652 15.1054 23.5196 15.2929 23.7071C15.4804 23.8946 15.7348 24 16 24H27V25H16C15.6518 25.0002 15.3095 24.9094 15.0071 24.7367C14.7047 24.564 14.4527 24.3153 14.2759 24.0153C14.0991 23.7153 14.0037 23.3743 13.9992 23.0261C13.9947 22.6779 14.0811 22.3345 14.25 22.03L14.97 20.556L11.338 12H10V11H12L12.849 13H27C27.3779 13 27.748 13.1071 28.0675 13.3089C28.3871 13.5106 28.6429 13.7987 28.8054 14.1399C28.9679 14.481 29.0305 14.8612 28.9858 15.2364C28.9411 15.6117 28.7911 15.9665 28.553 16.26L25.639 20.146C25.4548 20.4098 25.2095 20.6252 24.9242 20.7739C24.6388 20.9226 24.3218 21.0001 24 21Z" fill="white"/>
</svg>
