<svg width="60" height="20" viewBox="0 0 60 20" fill="none" xmlns="http://www.w3.org/2000/svg">
<path d="M0 10C0 4.47715 4.47715 0 10 0H50C55.5228 0 60 4.47715 60 10V10C60 15.5228 55.5228 20 50 20H10C4.47715 20 0 15.5228 0 10V10Z" fill="#841D29"/>
<path d="M10.9887 10.7227L11.8559 10.9453C11.9535 10.8594 12.0473 10.7832 12.1371 10.7168C12.2309 10.6504 12.3305 10.5938 12.4359 10.5469C12.5414 10.5 12.6586 10.4648 12.7875 10.4414C12.9203 10.4141 13.0766 10.4004 13.2563 10.4004C13.5297 10.4004 13.7719 10.4492 13.9828 10.5469C14.1938 10.6445 14.3715 10.7773 14.516 10.9453C14.6605 11.1172 14.7699 11.3184 14.8441 11.5488C14.9223 11.7793 14.9613 12.0273 14.9613 12.293C14.9613 12.5859 14.9262 12.8516 14.8559 13.0898C14.7895 13.3281 14.6898 13.5312 14.557 13.6992C14.4203 13.8711 14.2523 14.0039 14.0531 14.0977C13.8539 14.1875 13.6254 14.2324 13.3676 14.2324C12.9105 14.2324 12.5355 14.1074 12.2426 13.8574C11.9535 13.6074 11.7758 13.2402 11.7094 12.7559H10.6781C10.7172 13.1504 10.8129 13.4961 10.9652 13.793C11.1215 14.0898 11.3207 14.3359 11.5629 14.5312C11.8012 14.7266 12.0746 14.873 12.3832 14.9707C12.6918 15.0684 13.0199 15.1172 13.3676 15.1172C13.8207 15.1172 14.2152 15.0469 14.5512 14.9062C14.8871 14.7617 15.1664 14.5625 15.3891 14.3086C15.6078 14.0586 15.7719 13.7598 15.8813 13.4121C15.9906 13.0645 16.0453 12.6875 16.0453 12.2812C16.0453 11.8516 15.9867 11.4609 15.8695 11.1094C15.7523 10.7578 15.5844 10.457 15.3656 10.207C15.1469 9.96094 14.8813 9.76953 14.5688 9.63281C14.2563 9.49609 13.9027 9.42773 13.5082 9.42773C13.1996 9.42773 12.9281 9.46484 12.6938 9.53906C12.4594 9.61328 12.2582 9.69922 12.0902 9.79688L12.3305 7.52344H15.7934V6.46875H11.4164L10.9887 10.7227ZM18.2473 8.00391V8.45508C18.2473 8.67773 18.2805 8.88867 18.3469 9.08789C18.4172 9.28711 18.5188 9.46094 18.6516 9.60938C18.7844 9.76172 18.9484 9.88281 19.1438 9.97266C19.343 10.0586 19.5695 10.1016 19.8234 10.1016C20.0773 10.1016 20.302 10.0586 20.4973 9.97266C20.6926 9.88281 20.8566 9.76172 20.9895 9.60938C21.1184 9.46094 21.216 9.28711 21.2824 9.08789C21.3527 8.88867 21.3879 8.67773 21.3879 8.45508V8.00391C21.3879 7.78125 21.3527 7.57031 21.2824 7.37109C21.216 7.16797 21.1184 6.99023 20.9895 6.83789C20.8566 6.68555 20.6906 6.56641 20.4914 6.48047C20.2961 6.39062 20.0695 6.3457 19.8117 6.3457C19.5578 6.3457 19.3332 6.39062 19.1379 6.48047C18.9426 6.56641 18.7805 6.68555 18.6516 6.83789C18.5188 6.99023 18.4172 7.16797 18.3469 7.37109C18.2805 7.57031 18.2473 7.78125 18.2473 8.00391ZM19.0559 8.45508V8.00391C19.0559 7.88281 19.0695 7.76562 19.0969 7.65234C19.1242 7.53516 19.1691 7.43164 19.2316 7.3418C19.2902 7.25586 19.3664 7.1875 19.4602 7.13672C19.5578 7.08203 19.675 7.05469 19.8117 7.05469C19.9523 7.05469 20.0695 7.08203 20.1633 7.13672C20.2609 7.1875 20.341 7.25586 20.4035 7.3418C20.4621 7.43164 20.5051 7.53516 20.5324 7.65234C20.5637 7.76562 20.5793 7.88281 20.5793 8.00391V8.45508C20.5793 8.57617 20.5637 8.69336 20.5324 8.80664C20.5051 8.91602 20.4621 9.01367 20.4035 9.09961C20.3449 9.18945 20.2668 9.26172 20.1691 9.31641C20.0754 9.36719 19.9602 9.39258 19.8234 9.39258C19.6828 9.39258 19.5637 9.36719 19.466 9.31641C19.3723 9.26172 19.2941 9.18945 19.2316 9.09961C19.1691 9.01367 19.1242 8.91602 19.0969 8.80664C19.0695 8.69336 19.0559 8.57617 19.0559 8.45508ZM21.7688 13.0195V13.4766C21.7688 13.6992 21.802 13.9102 21.8684 14.1094C21.9387 14.3086 22.0402 14.4824 22.173 14.6309C22.3059 14.7832 22.4699 14.9043 22.6652 14.9941C22.8645 15.0801 23.093 15.123 23.3508 15.123C23.6047 15.123 23.8273 15.0801 24.0188 14.9941C24.2141 14.9043 24.3781 14.7832 24.5109 14.6309C24.6438 14.4824 24.7434 14.3086 24.8098 14.1094C24.8801 13.9102 24.9152 13.6992 24.9152 13.4766V13.0195C24.9152 12.7969 24.8801 12.5859 24.8098 12.3867C24.7434 12.1875 24.6438 12.0117 24.5109 11.8594C24.3781 11.707 24.2141 11.5879 24.0188 11.502C23.8234 11.4121 23.5969 11.3672 23.3391 11.3672C23.0852 11.3672 22.8605 11.4121 22.6652 11.502C22.4699 11.5879 22.3059 11.707 22.173 11.8594C22.0402 12.0117 21.9387 12.1875 21.8684 12.3867C21.802 12.5859 21.7688 12.7969 21.7688 13.0195ZM22.5773 13.4766V13.0195C22.5773 12.8984 22.591 12.7812 22.6184 12.668C22.6457 12.5547 22.6906 12.4531 22.7531 12.3633C22.8117 12.2773 22.8879 12.209 22.9816 12.1582C23.0793 12.1035 23.1984 12.0762 23.3391 12.0762C23.4758 12.0762 23.593 12.1035 23.6906 12.1582C23.7883 12.209 23.8684 12.2773 23.9309 12.3633C23.9895 12.4531 24.0324 12.5547 24.0598 12.668C24.0871 12.7812 24.1008 12.8984 24.1008 13.0195V13.4766C24.1008 13.5977 24.0871 13.7148 24.0598 13.8281C24.0324 13.9414 23.9895 14.041 23.9309 14.127C23.8723 14.2168 23.7941 14.2891 23.6965 14.3438C23.6027 14.3945 23.4875 14.4199 23.3508 14.4199C23.2102 14.4199 23.091 14.3945 22.9934 14.3438C22.8957 14.2891 22.8176 14.2168 22.759 14.127C22.6965 14.041 22.6496 13.9414 22.6184 13.8281C22.591 13.7148 22.5773 13.5977 22.5773 13.4766ZM20.3215 13.8984L23.6438 7.82227L22.9934 7.45898L19.6711 13.5352L20.3215 13.8984ZM32.9648 11.2266V10.2539C32.9609 9.94922 32.9336 9.64062 32.8828 9.32812C32.8359 9.01562 32.7617 8.71484 32.6602 8.42578C32.5547 8.13672 32.4219 7.86719 32.2617 7.61719C32.1055 7.36328 31.918 7.14258 31.6992 6.95508C31.4805 6.76758 31.2285 6.62109 30.9434 6.51562C30.6582 6.40625 30.3398 6.35156 29.9883 6.35156C29.6367 6.35156 29.3184 6.40625 29.0332 6.51562C28.752 6.62109 28.502 6.76758 28.2832 6.95508C28.0645 7.14648 27.875 7.36914 27.7148 7.62305C27.5586 7.87305 27.4297 8.14258 27.3281 8.43164C27.2227 8.7207 27.1445 9.02148 27.0938 9.33398C27.0469 9.64258 27.0215 9.94922 27.0176 10.2539V11.2266C27.0215 11.5312 27.0488 11.8379 27.0996 12.1465C27.1504 12.4551 27.2285 12.7539 27.334 13.043C27.4355 13.332 27.5664 13.6035 27.7266 13.8574C27.8867 14.1074 28.0762 14.3262 28.2949 14.5137C28.5137 14.7012 28.7637 14.8496 29.0449 14.959C29.3301 15.0645 29.6484 15.1172 30 15.1172C30.3516 15.1172 30.668 15.0645 30.9492 14.959C31.2344 14.8496 31.4863 14.7012 31.7051 14.5137C31.9238 14.3262 32.1113 14.1074 32.2676 13.8574C32.4277 13.6074 32.5586 13.3379 32.6602 13.0488C32.7617 12.7598 32.8359 12.4609 32.8828 12.1523C32.9336 11.8398 32.9609 11.5312 32.9648 11.2266ZM31.8926 10.2422V11.2266C31.8887 11.4297 31.875 11.6426 31.8516 11.8652C31.832 12.0879 31.7949 12.3066 31.7402 12.5215C31.6816 12.7402 31.6055 12.9492 31.5117 13.1484C31.4219 13.3438 31.3086 13.5156 31.1719 13.6641C31.0312 13.8164 30.8633 13.9375 30.668 14.0273C30.4766 14.1172 30.2539 14.1621 30 14.1621C29.7461 14.1621 29.5234 14.1172 29.332 14.0273C29.1406 13.9375 28.9746 13.8164 28.834 13.6641C28.6934 13.5156 28.5762 13.3418 28.4824 13.1426C28.3887 12.9434 28.3125 12.7344 28.2539 12.5156C28.1953 12.3008 28.1523 12.082 28.125 11.8594C28.1016 11.6367 28.0879 11.4258 28.084 11.2266V10.2422C28.0879 10.043 28.1016 9.83398 28.125 9.61523C28.1523 9.39258 28.1953 9.17188 28.2539 8.95312C28.3086 8.73828 28.3828 8.5332 28.4766 8.33789C28.5703 8.13867 28.6875 7.96289 28.8281 7.81055C28.9688 7.66211 29.1348 7.54297 29.3262 7.45312C29.5176 7.36328 29.7383 7.31836 29.9883 7.31836C30.2422 7.31836 30.4648 7.36328 30.6562 7.45312C30.8477 7.53906 31.0137 7.65625 31.1543 7.80469C31.2949 7.95703 31.4121 8.13281 31.5059 8.33203C31.5996 8.52734 31.6758 8.73242 31.7344 8.94727C31.7891 9.16602 31.8281 9.38672 31.8516 9.60938C31.875 9.82812 31.8887 10.0391 31.8926 10.2422ZM37.4402 15H38.5301V9.49805H40.9734V8.66016H38.5301V8.21484C38.5301 7.94922 38.5633 7.7168 38.6297 7.51758C38.7 7.31836 38.8016 7.15625 38.9344 7.03125C39.0594 6.91016 39.2156 6.82031 39.4031 6.76172C39.5945 6.69922 39.8133 6.66797 40.0594 6.66797C40.3016 6.66797 40.5281 6.68945 40.7391 6.73242C40.9539 6.77148 41.1414 6.81836 41.3016 6.87305L41.4305 5.97656C41.3289 5.94922 41.2293 5.92578 41.1316 5.90625C41.034 5.88281 40.9363 5.86133 40.8387 5.8418C40.6902 5.81445 40.5398 5.79297 40.3875 5.77734C40.2352 5.75781 40.0809 5.74805 39.9246 5.74805C39.5496 5.74805 39.2098 5.80078 38.9051 5.90625C38.6004 6.01172 38.3406 6.16797 38.1258 6.375C37.907 6.58203 37.7371 6.83984 37.616 7.14844C37.4988 7.45312 37.4402 7.80859 37.4402 8.21484V8.66016H35.6941V9.49805H37.4402V15ZM45.8473 15H46.9371V9.49805H49.3805V8.66016H46.9371V8.21484C46.9371 7.94922 46.9703 7.7168 47.0367 7.51758C47.107 7.31836 47.2086 7.15625 47.3414 7.03125C47.4664 6.91016 47.6227 6.82031 47.8102 6.76172C48.0016 6.69922 48.2203 6.66797 48.4664 6.66797C48.7086 6.66797 48.9352 6.68945 49.1461 6.73242C49.3609 6.77148 49.5484 6.81836 49.7086 6.87305L49.8375 5.97656C49.7359 5.94922 49.6363 5.92578 49.5387 5.90625C49.441 5.88281 49.3434 5.86133 49.2457 5.8418C49.0973 5.81445 48.9469 5.79297 48.7945 5.77734C48.6422 5.75781 48.4879 5.74805 48.3316 5.74805C47.9566 5.74805 47.6168 5.80078 47.3121 5.90625C47.0074 6.01172 46.7477 6.16797 46.5328 6.375C46.3141 6.58203 46.1441 6.83984 46.023 7.14844C45.9059 7.45312 45.8473 7.80859 45.8473 8.21484V8.66016H44.1012V9.49805H45.8473V15Z" fill="white"/>
</svg>
