<svg width="60" height="20" viewBox="0 0 60 20" fill="none" xmlns="http://www.w3.org/2000/svg">
<path d="M0 10C0 4.47715 4.47715 0 10 0H50C55.5228 0 60 4.47715 60 10V10C60 15.5228 55.5228 20 50 20H10C4.47715 20 0 15.5228 0 10V10Z" fill="#841D29"/>
<path d="M9.91406 15V6.46875H9.82617L6.59766 7.71094V8.70117L8.83008 7.85156V15H9.91406ZM15.1922 10.7227L16.0594 10.9453C16.157 10.8594 16.2508 10.7832 16.3406 10.7168C16.4344 10.6504 16.534 10.5938 16.6395 10.5469C16.7449 10.5 16.8621 10.4648 16.991 10.4414C17.1238 10.4141 17.2801 10.4004 17.4598 10.4004C17.7332 10.4004 17.9754 10.4492 18.1863 10.5469C18.3973 10.6445 18.575 10.7773 18.7195 10.9453C18.8641 11.1172 18.9734 11.3184 19.0477 11.5488C19.1258 11.7793 19.1648 12.0273 19.1648 12.293C19.1648 12.5859 19.1297 12.8516 19.0594 13.0898C18.993 13.3281 18.8934 13.5312 18.7605 13.6992C18.6238 13.8711 18.4559 14.0039 18.2566 14.0977C18.0574 14.1875 17.8289 14.2324 17.5711 14.2324C17.1141 14.2324 16.7391 14.1074 16.4461 13.8574C16.157 13.6074 15.9793 13.2402 15.9129 12.7559H14.8816C14.9207 13.1504 15.0164 13.4961 15.1687 13.793C15.325 14.0898 15.5242 14.3359 15.7664 14.5312C16.0047 14.7266 16.2781 14.873 16.5867 14.9707C16.8953 15.0684 17.2234 15.1172 17.5711 15.1172C18.0242 15.1172 18.4187 15.0469 18.7547 14.9062C19.0906 14.7617 19.3699 14.5625 19.5926 14.3086C19.8113 14.0586 19.9754 13.7598 20.0848 13.4121C20.1941 13.0645 20.2488 12.6875 20.2488 12.2812C20.2488 11.8516 20.1902 11.4609 20.073 11.1094C19.9559 10.7578 19.7879 10.457 19.5691 10.207C19.3504 9.96094 19.0848 9.76953 18.7723 9.63281C18.4598 9.49609 18.1062 9.42773 17.7117 9.42773C17.4031 9.42773 17.1316 9.46484 16.8973 9.53906C16.6629 9.61328 16.4617 9.69922 16.2937 9.79688L16.534 7.52344H19.9969V6.46875H15.6199L15.1922 10.7227ZM22.4508 8.00391V8.45508C22.4508 8.67773 22.484 8.88867 22.5504 9.08789C22.6207 9.28711 22.7223 9.46094 22.8551 9.60938C22.9879 9.76172 23.152 9.88281 23.3473 9.97266C23.5465 10.0586 23.773 10.1016 24.027 10.1016C24.2809 10.1016 24.5055 10.0586 24.7008 9.97266C24.8961 9.88281 25.0602 9.76172 25.193 9.60938C25.3219 9.46094 25.4195 9.28711 25.4859 9.08789C25.5562 8.88867 25.5914 8.67773 25.5914 8.45508V8.00391C25.5914 7.78125 25.5562 7.57031 25.4859 7.37109C25.4195 7.16797 25.3219 6.99023 25.193 6.83789C25.0602 6.68555 24.8941 6.56641 24.6949 6.48047C24.4996 6.39062 24.273 6.3457 24.0152 6.3457C23.7613 6.3457 23.5367 6.39062 23.3414 6.48047C23.1461 6.56641 22.984 6.68555 22.8551 6.83789C22.7223 6.99023 22.6207 7.16797 22.5504 7.37109C22.484 7.57031 22.4508 7.78125 22.4508 8.00391ZM23.2594 8.45508V8.00391C23.2594 7.88281 23.273 7.76562 23.3004 7.65234C23.3277 7.53516 23.3727 7.43164 23.4352 7.3418C23.4937 7.25586 23.5699 7.1875 23.6637 7.13672C23.7613 7.08203 23.8785 7.05469 24.0152 7.05469C24.1559 7.05469 24.273 7.08203 24.3668 7.13672C24.4645 7.1875 24.5445 7.25586 24.607 7.3418C24.6656 7.43164 24.7086 7.53516 24.7359 7.65234C24.7672 7.76562 24.7828 7.88281 24.7828 8.00391V8.45508C24.7828 8.57617 24.7672 8.69336 24.7359 8.80664C24.7086 8.91602 24.6656 9.01367 24.607 9.09961C24.5484 9.18945 24.4703 9.26172 24.3727 9.31641C24.2789 9.36719 24.1637 9.39258 24.027 9.39258C23.8863 9.39258 23.7672 9.36719 23.6695 9.31641C23.5758 9.26172 23.4977 9.18945 23.4352 9.09961C23.3727 9.01367 23.3277 8.91602 23.3004 8.80664C23.273 8.69336 23.2594 8.57617 23.2594 8.45508ZM25.9723 13.0195V13.4766C25.9723 13.6992 26.0055 13.9102 26.0719 14.1094C26.1422 14.3086 26.2437 14.4824 26.3766 14.6309C26.5094 14.7832 26.6734 14.9043 26.8687 14.9941C27.068 15.0801 27.2965 15.123 27.5543 15.123C27.8082 15.123 28.0309 15.0801 28.2223 14.9941C28.4176 14.9043 28.5816 14.7832 28.7145 14.6309C28.8473 14.4824 28.9469 14.3086 29.0133 14.1094C29.0836 13.9102 29.1187 13.6992 29.1187 13.4766V13.0195C29.1187 12.7969 29.0836 12.5859 29.0133 12.3867C28.9469 12.1875 28.8473 12.0117 28.7145 11.8594C28.5816 11.707 28.4176 11.5879 28.2223 11.502C28.027 11.4121 27.8004 11.3672 27.5426 11.3672C27.2887 11.3672 27.0641 11.4121 26.8687 11.502C26.6734 11.5879 26.5094 11.707 26.3766 11.8594C26.2437 12.0117 26.1422 12.1875 26.0719 12.3867C26.0055 12.5859 25.9723 12.7969 25.9723 13.0195ZM26.7809 13.4766V13.0195C26.7809 12.8984 26.7945 12.7812 26.8219 12.668C26.8492 12.5547 26.8941 12.4531 26.9566 12.3633C27.0152 12.2773 27.0914 12.209 27.1852 12.1582C27.2828 12.1035 27.402 12.0762 27.5426 12.0762C27.6793 12.0762 27.7965 12.1035 27.8941 12.1582C27.9918 12.209 28.0719 12.2773 28.1344 12.3633C28.193 12.4531 28.2359 12.5547 28.2633 12.668C28.2906 12.7812 28.3043 12.8984 28.3043 13.0195V13.4766C28.3043 13.5977 28.2906 13.7148 28.2633 13.8281C28.2359 13.9414 28.193 14.041 28.1344 14.127C28.0758 14.2168 27.9977 14.2891 27.9 14.3438C27.8062 14.3945 27.691 14.4199 27.5543 14.4199C27.4137 14.4199 27.2945 14.3945 27.1969 14.3438C27.0992 14.2891 27.0211 14.2168 26.9625 14.127C26.9 14.041 26.8531 13.9414 26.8219 13.8281C26.7945 13.7148 26.7809 13.5977 26.7809 13.4766ZM24.525 13.8984L27.8473 7.82227L27.1969 7.45898L23.8746 13.5352L24.525 13.8984ZM37.1684 11.2266V10.2539C37.1645 9.94922 37.1371 9.64062 37.0863 9.32812C37.0395 9.01562 36.9652 8.71484 36.8637 8.42578C36.7582 8.13672 36.6254 7.86719 36.4652 7.61719C36.309 7.36328 36.1215 7.14258 35.9027 6.95508C35.684 6.76758 35.432 6.62109 35.1469 6.51562C34.8617 6.40625 34.5434 6.35156 34.1918 6.35156C33.8402 6.35156 33.5219 6.40625 33.2367 6.51562C32.9555 6.62109 32.7055 6.76758 32.4867 6.95508C32.268 7.14648 32.0785 7.36914 31.9184 7.62305C31.7621 7.87305 31.6332 8.14258 31.5316 8.43164C31.4262 8.7207 31.348 9.02148 31.2973 9.33398C31.2504 9.64258 31.225 9.94922 31.2211 10.2539V11.2266C31.225 11.5312 31.2523 11.8379 31.3031 12.1465C31.3539 12.4551 31.432 12.7539 31.5375 13.043C31.6391 13.332 31.7699 13.6035 31.9301 13.8574C32.0902 14.1074 32.2797 14.3262 32.4984 14.5137C32.7172 14.7012 32.9672 14.8496 33.2484 14.959C33.5336 15.0645 33.852 15.1172 34.2035 15.1172C34.5551 15.1172 34.8715 15.0645 35.1527 14.959C35.4379 14.8496 35.6898 14.7012 35.9086 14.5137C36.1273 14.3262 36.3148 14.1074 36.4711 13.8574C36.6313 13.6074 36.7621 13.3379 36.8637 13.0488C36.9652 12.7598 37.0395 12.4609 37.0863 12.1523C37.1371 11.8398 37.1645 11.5312 37.1684 11.2266ZM36.0961 10.2422V11.2266C36.0922 11.4297 36.0785 11.6426 36.0551 11.8652C36.0355 12.0879 35.9984 12.3066 35.9438 12.5215C35.8852 12.7402 35.809 12.9492 35.7152 13.1484C35.6254 13.3438 35.5121 13.5156 35.3754 13.6641C35.2348 13.8164 35.0668 13.9375 34.8715 14.0273C34.6801 14.1172 34.4574 14.1621 34.2035 14.1621C33.9496 14.1621 33.727 14.1172 33.5355 14.0273C33.3441 13.9375 33.1781 13.8164 33.0375 13.6641C32.8969 13.5156 32.7797 13.3418 32.6859 13.1426C32.5922 12.9434 32.516 12.7344 32.4574 12.5156C32.3988 12.3008 32.3559 12.082 32.3285 11.8594C32.3051 11.6367 32.2914 11.4258 32.2875 11.2266V10.2422C32.2914 10.043 32.3051 9.83398 32.3285 9.61523C32.3559 9.39258 32.3988 9.17188 32.4574 8.95312C32.5121 8.73828 32.5863 8.5332 32.6801 8.33789C32.7738 8.13867 32.891 7.96289 33.0316 7.81055C33.1723 7.66211 33.3383 7.54297 33.5297 7.45312C33.7211 7.36328 33.9418 7.31836 34.1918 7.31836C34.4457 7.31836 34.6684 7.36328 34.8598 7.45312C35.0512 7.53906 35.2172 7.65625 35.3578 7.80469C35.4984 7.95703 35.6156 8.13281 35.7094 8.33203C35.8031 8.52734 35.8793 8.73242 35.9379 8.94727C35.9926 9.16602 36.0316 9.38672 36.0551 9.60938C36.0785 9.82812 36.0922 10.0391 36.0961 10.2422ZM41.6437 15H42.7336V9.49805H45.177V8.66016H42.7336V8.21484C42.7336 7.94922 42.7668 7.7168 42.8332 7.51758C42.9035 7.31836 43.0051 7.15625 43.1379 7.03125C43.2629 6.91016 43.4191 6.82031 43.6066 6.76172C43.798 6.69922 44.0168 6.66797 44.2629 6.66797C44.5051 6.66797 44.7316 6.68945 44.9426 6.73242C45.1574 6.77148 45.3449 6.81836 45.5051 6.87305L45.634 5.97656C45.5324 5.94922 45.4328 5.92578 45.3352 5.90625C45.2375 5.88281 45.1398 5.86133 45.0422 5.8418C44.8937 5.81445 44.7434 5.79297 44.591 5.77734C44.4387 5.75781 44.2844 5.74805 44.1281 5.74805C43.7531 5.74805 43.4133 5.80078 43.1086 5.90625C42.8039 6.01172 42.5441 6.16797 42.3293 6.375C42.1105 6.58203 41.9406 6.83984 41.8195 7.14844C41.7023 7.45312 41.6437 7.80859 41.6437 8.21484V8.66016H39.8977V9.49805H41.6437V15ZM50.0508 15H51.1406V9.49805H53.584V8.66016H51.1406V8.21484C51.1406 7.94922 51.1738 7.7168 51.2402 7.51758C51.3105 7.31836 51.4121 7.15625 51.5449 7.03125C51.6699 6.91016 51.8262 6.82031 52.0137 6.76172C52.2051 6.69922 52.4238 6.66797 52.6699 6.66797C52.9121 6.66797 53.1387 6.68945 53.3496 6.73242C53.5645 6.77148 53.752 6.81836 53.9121 6.87305L54.041 5.97656C53.9395 5.94922 53.8398 5.92578 53.7422 5.90625C53.6445 5.88281 53.5469 5.86133 53.4492 5.8418C53.3008 5.81445 53.1504 5.79297 52.998 5.77734C52.8457 5.75781 52.6914 5.74805 52.5352 5.74805C52.1602 5.74805 51.8203 5.80078 51.5156 5.90625C51.2109 6.01172 50.9512 6.16797 50.7363 6.375C50.5176 6.58203 50.3477 6.83984 50.2266 7.14844C50.1094 7.45312 50.0508 7.80859 50.0508 8.21484V8.66016H48.3047V9.49805H50.0508V15Z" fill="white"/>
</svg>
