<svg width="24" height="24" viewBox="0 0 24 24" fill="none" xmlns="http://www.w3.org/2000/svg">
<path d="M4.24403 12.2522C3.81568 11.8237 3.48389 11.3086 3.2709 10.7414C3.05792 10.1742 2.96866 9.56807 3.00911 8.96357C3.04957 8.35906 3.2188 7.77019 3.50547 7.23644C3.79213 6.7027 4.1896 6.23641 4.67123 5.86884C5.15285 5.50128 5.70749 5.24094 6.29796 5.10527C6.88844 4.96961 7.50109 4.96176 8.09485 5.08225C8.6886 5.20274 9.24974 5.44878 9.74062 5.80389C10.2315 6.15899 10.6408 6.61494 10.941 7.14117H12.059C12.3593 6.61494 12.7686 6.15899 13.2595 5.80389C13.7503 5.44878 14.3115 5.20274 14.9052 5.08225C15.499 4.96176 16.1116 4.96961 16.7021 5.10527C17.2926 5.24094 17.8472 5.50128 18.3288 5.86884C18.8105 6.23641 19.2079 6.7027 19.4946 7.23644C19.7813 7.77019 19.9505 8.35906 19.991 8.96357C20.0314 9.56807 19.9422 10.1742 19.7292 10.7414C19.5162 11.3086 19.1844 11.8237 18.756 12.2522L11.5 19.5102L4.24403 12.2532V12.2522ZM19.462 12.9622C19.9742 12.45 20.3748 11.8374 20.6387 11.1629C20.9026 10.4884 21.0241 9.76653 20.9955 9.0428C20.9669 8.31906 20.7889 7.60907 20.4726 6.95747C20.1563 6.30587 19.7086 5.72677 19.1577 5.25658C18.6067 4.7864 17.9645 4.43529 17.2713 4.22536C16.578 4.01543 15.8489 3.9512 15.1297 4.03673C14.4104 4.12225 13.7167 4.35568 13.092 4.72232C12.4674 5.08896 11.9253 5.58089 11.5 6.16717C11.0747 5.58089 10.5327 5.08896 9.90805 4.72232C9.2834 4.35568 8.58964 4.12225 7.87041 4.03673C7.15117 3.9512 6.42202 4.01543 5.72881 4.22536C5.0356 4.43529 4.39333 4.7864 3.84239 5.25658C3.29145 5.72677 2.84376 6.30587 2.52748 6.95747C2.2112 7.60907 2.03317 8.31906 2.00458 9.0428C1.97599 9.76653 2.09747 10.4884 2.36137 11.1629C2.62528 11.8374 3.0259 12.45 3.53803 12.9622L11.5 20.9232L19.462 12.9632V12.9622Z" fill="black"/>
</svg>
