<svg width="35" height="20" viewBox="0 0 35 20" fill="none" xmlns="http://www.w3.org/2000/svg">
<path d="M0 10C0 4.47715 4.47715 0 10 0H25C30.5228 0 35 4.47715 35 10V10C35 15.5228 30.5228 20 25 20H10C4.47715 20 0 15.5228 0 10V10Z" fill="#841D29"/>
<path d="M11.8586 15V6.46875H10.8332V10.1367H7.33516V6.46875H6.31563V15H7.33516V11.0566H10.8332V15H11.8586ZM14.6113 11.7715V11.9004C14.6113 12.3574 14.6777 12.7812 14.8105 13.1719C14.9434 13.5625 15.1348 13.9023 15.3848 14.1914C15.6309 14.4805 15.9316 14.707 16.2871 14.8711C16.6465 15.0352 17.0508 15.1172 17.5 15.1172C17.9453 15.1172 18.3457 15.0352 18.7012 14.8711C19.0566 14.707 19.3594 14.4805 19.6094 14.1914C19.8555 13.9023 20.0449 13.5625 20.1777 13.1719C20.3105 12.7812 20.377 12.3574 20.377 11.9004V11.7715C20.377 11.3145 20.3105 10.8906 20.1777 10.5C20.0449 10.1055 19.8555 9.76367 19.6094 9.47461C19.3594 9.18555 19.0547 8.95898 18.6953 8.79492C18.3398 8.62695 17.9375 8.54297 17.4883 8.54297C17.043 8.54297 16.6426 8.62695 16.2871 8.79492C15.9316 8.95898 15.6309 9.18555 15.3848 9.47461C15.1348 9.76367 14.9434 10.1055 14.8105 10.5C14.6777 10.8906 14.6113 11.3145 14.6113 11.7715ZM15.6953 11.9004V11.7715C15.6953 11.4629 15.7324 11.168 15.8066 10.8867C15.8809 10.6016 15.9941 10.3516 16.1465 10.1367C16.2949 9.92188 16.4805 9.75195 16.7031 9.62695C16.9258 9.49805 17.1875 9.43359 17.4883 9.43359C17.7891 9.43359 18.0508 9.49805 18.2734 9.62695C18.5 9.75195 18.6895 9.92188 18.8418 10.1367C18.9902 10.3516 19.1016 10.6016 19.1758 10.8867C19.2539 11.168 19.293 11.4629 19.293 11.7715V11.9004C19.293 12.2129 19.2559 12.5117 19.1816 12.7969C19.1074 13.0781 18.9961 13.3262 18.8477 13.541C18.6953 13.7559 18.5059 13.9258 18.2793 14.0508C18.0566 14.1758 17.7969 14.2383 17.5 14.2383C17.1992 14.2383 16.9355 14.1758 16.709 14.0508C16.4824 13.9258 16.2949 13.7559 16.1465 13.541C15.9941 13.3262 15.8809 13.0781 15.8066 12.7969C15.7324 12.5117 15.6953 12.2129 15.6953 11.9004ZM25.8895 7.125H24.7996V8.66016H23.1355V9.49805H24.7996V12.9434C24.7996 13.334 24.8504 13.668 24.952 13.9453C25.0574 14.2188 25.2 14.4414 25.3797 14.6133C25.5594 14.7891 25.7703 14.918 26.0125 15C26.2586 15.0781 26.5223 15.1172 26.8035 15.1172C26.9715 15.1172 27.1395 15.1094 27.3074 15.0938C27.4793 15.0781 27.6414 15.0547 27.7938 15.0234C27.9461 14.9961 28.0867 14.9629 28.2156 14.9238C28.3445 14.8809 28.4539 14.832 28.5438 14.7773L28.3914 14.0098C28.325 14.0254 28.2391 14.0449 28.1336 14.0684C28.032 14.0879 27.9227 14.1074 27.8055 14.127C27.6844 14.1465 27.5613 14.1641 27.4363 14.1797C27.3113 14.1914 27.1902 14.1973 27.073 14.1973C26.9129 14.1973 26.7605 14.1777 26.616 14.1387C26.4754 14.0996 26.3504 14.0312 26.241 13.9336C26.1316 13.8398 26.0457 13.7129 25.9832 13.5527C25.9207 13.3926 25.8895 13.1895 25.8895 12.9434V9.49805H28.3035V8.66016H25.8895V7.125Z" fill="white"/>
</svg>
