<svg width="35" height="20" viewBox="0 0 35 20" fill="none" xmlns="http://www.w3.org/2000/svg">
<path d="M0 10C0 4.47715 4.47715 0 10 0H25C30.5228 0 35 4.47715 35 10V10C35 15.5228 30.5228 20 25 20H10C4.47715 20 0 15.5228 0 10V10Z" fill="#841D29"/>
<path d="M11.8527 15V6.46875H10.757L10.7395 12.832L7.42891 6.46875H6.32734V15H7.42305L7.44063 8.625L10.7512 15H11.8527ZM17.7168 15.1172C18.334 15.1172 18.8516 14.9941 19.2695 14.748C19.6914 14.498 20.0078 14.2129 20.2188 13.8926L19.5566 13.377C19.3574 13.6348 19.1074 13.8418 18.8066 13.998C18.5059 14.1543 18.1621 14.2324 17.7754 14.2324C17.4824 14.2324 17.2148 14.1777 16.9727 14.0684C16.7305 13.959 16.5234 13.8086 16.3516 13.6172C16.1836 13.4375 16.0508 13.2305 15.9531 12.9961C15.8594 12.7617 15.7988 12.4902 15.7715 12.1816V12.1406H20.3008V11.6543C20.3008 11.2129 20.2441 10.8027 20.1309 10.4238C20.0215 10.0449 19.8535 9.71484 19.627 9.43359C19.4004 9.15625 19.1152 8.93945 18.7715 8.7832C18.4316 8.62305 18.0332 8.54297 17.5762 8.54297C17.2129 8.54297 16.8574 8.61719 16.5098 8.76562C16.166 8.91406 15.8594 9.12695 15.5898 9.4043C15.3164 9.68555 15.0977 10.0293 14.9336 10.4355C14.7695 10.8379 14.6875 11.2949 14.6875 11.8066V12.0527C14.6875 12.4941 14.7617 12.9023 14.9102 13.2773C15.0586 13.6523 15.2656 13.9766 15.5312 14.25C15.7969 14.5234 16.1152 14.7363 16.4863 14.8887C16.8613 15.041 17.2715 15.1172 17.7168 15.1172ZM17.5762 9.43359C17.8535 9.43359 18.0918 9.48438 18.291 9.58594C18.4941 9.6875 18.6621 9.82031 18.7949 9.98438C18.9277 10.1484 19.0312 10.3438 19.1055 10.5703C19.1797 10.793 19.2168 11.002 19.2168 11.1973V11.25H15.8066C15.8496 10.957 15.9238 10.6992 16.0293 10.4766C16.1387 10.25 16.2715 10.0586 16.4277 9.90234C16.584 9.75 16.7598 9.63477 16.9551 9.55664C17.1504 9.47461 17.3574 9.43359 17.5762 9.43359ZM23.9324 15H24.7879L25.7664 11.1152L25.9246 10.1309L26.0887 11.1152L27.0789 15H27.9344L29.282 8.66016H28.3211L27.618 12.7031L27.4598 13.6992L27.2898 12.7031L26.282 8.66016H25.5848L24.5711 12.7031L24.4129 13.6113L24.284 12.7031L23.5457 8.66016H22.5848L23.9324 15Z" fill="white"/>
</svg>
