<svg width="24" height="24" viewBox="0 0 24 24" fill="none" xmlns="http://www.w3.org/2000/svg">
<path d="M18.0934 22.6666H5.90675C5.65021 22.6605 5.39738 22.604 5.1627 22.5002C4.92803 22.3964 4.7161 22.2473 4.53903 22.0616C4.36197 21.8759 4.22324 21.6571 4.13076 21.4177C4.03829 21.1784 3.99388 20.9231 4.00008 20.6666V7.48657H5.33342V20.6666C5.32705 20.748 5.33685 20.83 5.36226 20.9076C5.38767 20.9853 5.42818 21.0572 5.48146 21.1191C5.53474 21.1811 5.59974 21.2319 5.67273 21.2686C5.74572 21.3054 5.82525 21.3273 5.90675 21.3332H18.0934C18.1749 21.3273 18.2544 21.3054 18.3274 21.2686C18.4004 21.2319 18.4654 21.1811 18.5187 21.1191C18.572 21.0572 18.6125 20.9853 18.6379 20.9076C18.6633 20.83 18.6731 20.748 18.6667 20.6666V7.48657H20.0001V20.6666C20.0063 20.9231 19.9619 21.1784 19.8694 21.4177C19.7769 21.6571 19.6382 21.8759 19.4611 22.0616C19.2841 22.2473 19.0721 22.3964 18.8375 22.5002C18.6028 22.604 18.35 22.6605 18.0934 22.6666Z" fill="#575757"/>
<path d="M20.5198 6.00008H3.33317C3.15636 6.00008 2.98679 5.92984 2.86177 5.80482C2.73674 5.67979 2.6665 5.51023 2.6665 5.33341C2.6665 5.1566 2.73674 4.98703 2.86177 4.86201C2.98679 4.73699 3.15636 4.66675 3.33317 4.66675H20.5198C20.6967 4.66675 20.8662 4.73699 20.9912 4.86201C21.1163 4.98703 21.1865 5.1566 21.1865 5.33341C21.1865 5.51023 21.1163 5.67979 20.9912 5.80482C20.8662 5.92984 20.6967 6.00008 20.5198 6.00008Z" fill="#575757"/>
<path d="M14 8.66675H15.3333V18.6667H14V8.66675Z" fill="#575757"/>
<path d="M8.6665 8.66675H9.99984V18.6667H8.6665V8.66675Z" fill="#575757"/>
<path d="M15.3332 3.90658H14.0665V2.66659H9.93317V3.90658H8.6665V2.66659C8.66608 2.32422 8.79736 1.9948 9.03317 1.74658C9.26898 1.49837 9.59123 1.35037 9.93317 1.33325H14.0665C14.4084 1.35037 14.7307 1.49837 14.9665 1.74658C15.2023 1.9948 15.3336 2.32422 15.3332 2.66659V3.90658Z" fill="#575757"/>
</svg>
