<svg width="434" height="404" viewBox="0 0 434 404" fill="none" xmlns="http://www.w3.org/2000/svg">
<path d="M65.9097 117.077L213 32.1547L360.09 117.077V286.923L213 371.845L65.9097 286.923V117.077Z" stroke="black" stroke-opacity="0.2" stroke-width="2" stroke-linejoin="round"/>
<path d="M102.283 138.077L213 74.1547L323.717 138.077V265.923L213 329.845L102.283 265.923V138.077Z" stroke="black" stroke-opacity="0.2" stroke-width="2" stroke-linejoin="round"/>
<path d="M136.924 158.077L213 114.155L289.076 158.077V245.923L213 289.845L136.924 245.923V158.077Z" stroke="black" stroke-opacity="0.2" stroke-width="2" stroke-linejoin="round"/>
<path d="M171.565 178.077L213 154.155L254.435 178.077V225.923L213 249.845L171.565 225.923V178.077Z" stroke="black" stroke-opacity="0.2" stroke-width="2" stroke-linejoin="round"/>
<path d="M190.398 11.4844C190.398 11.7578 190.339 11.9948 190.221 12.1953C190.102 12.3913 189.95 12.5531 189.763 12.6807C189.576 12.8128 189.362 12.9108 189.12 12.9746C188.883 13.0339 188.642 13.0635 188.396 13.0635C188.086 13.0635 187.799 13.0225 187.534 12.9404C187.274 12.8538 187.044 12.7262 186.844 12.5576C186.643 12.3936 186.479 12.193 186.352 11.9561C186.224 11.7145 186.14 11.4388 186.099 11.1289H184.807C184.82 11.5573 184.914 11.9469 185.087 12.2979C185.265 12.6442 185.504 12.9473 185.805 13.207C186.142 13.5078 186.538 13.738 186.994 13.8975C187.454 14.057 187.922 14.1367 188.396 14.1367C188.792 14.1367 189.188 14.082 189.585 13.9727C189.981 13.8587 190.337 13.6901 190.651 13.4668C190.966 13.248 191.221 12.9723 191.417 12.6396C191.618 12.307 191.718 11.9173 191.718 11.4707C191.718 11.0286 191.624 10.639 191.438 10.3018C191.255 9.96452 191.014 9.67969 190.713 9.44727C190.408 9.19661 190.07 8.99154 189.701 8.83203C189.332 8.66797 188.963 8.52897 188.594 8.41504C188.37 8.34668 188.131 8.26693 187.876 8.17578C187.625 8.08464 187.393 7.9707 187.179 7.83398C186.96 7.69727 186.78 7.53092 186.639 7.33496C186.497 7.13444 186.424 6.89062 186.42 6.60352C186.42 6.33919 186.472 6.10677 186.577 5.90625C186.687 5.70573 186.832 5.53711 187.015 5.40039C187.192 5.26367 187.395 5.16113 187.623 5.09277C187.855 5.02441 188.092 4.99023 188.334 4.99023C188.635 4.99023 188.904 5.03809 189.141 5.13379C189.382 5.22493 189.59 5.35482 189.763 5.52344C189.936 5.69206 190.075 5.89486 190.18 6.13184C190.285 6.36426 190.355 6.62402 190.392 6.91113H191.69C191.681 6.4554 191.583 6.04297 191.396 5.67383C191.21 5.30469 190.961 4.99023 190.651 4.73047C190.341 4.4707 189.986 4.27018 189.585 4.12891C189.184 3.98307 188.767 3.91016 188.334 3.91016C187.942 3.91016 187.552 3.97168 187.165 4.09473C186.778 4.21322 186.431 4.38867 186.126 4.62109C185.821 4.85352 185.572 5.13835 185.381 5.47559C185.194 5.81283 185.101 6.19564 185.101 6.62402C185.101 7.05241 185.194 7.42611 185.381 7.74512C185.572 8.05957 185.818 8.33301 186.119 8.56543C186.415 8.79329 186.743 8.98926 187.104 9.15332C187.468 9.31283 187.826 9.44954 188.177 9.56348C188.418 9.64095 188.669 9.72754 188.929 9.82324C189.193 9.91895 189.435 10.0374 189.653 10.1787C189.872 10.3245 190.05 10.5023 190.187 10.7119C190.328 10.9215 190.398 11.179 190.398 11.4844ZM201.246 4.04688H200.022L200.002 10.7871C199.992 11.0833 199.945 11.3682 199.858 11.6416C199.771 11.915 199.646 12.1566 199.482 12.3662C199.313 12.5804 199.106 12.7513 198.86 12.8789C198.614 13.002 198.329 13.0635 198.005 13.0635C197.682 13.0635 197.395 12.9997 197.144 12.8721C196.898 12.7445 196.693 12.5758 196.529 12.3662C196.36 12.1566 196.23 11.915 196.139 11.6416C196.053 11.3682 196.007 11.0833 196.003 10.7871L195.975 4.04688H194.772L194.758 10.7871C194.763 11.252 194.845 11.6895 195.004 12.0996C195.164 12.5052 195.385 12.8584 195.668 13.1592C195.95 13.4645 196.29 13.7038 196.686 13.877C197.083 14.0501 197.522 14.1367 198.005 14.1367C198.479 14.1367 198.915 14.0501 199.311 13.877C199.708 13.6992 200.049 13.4577 200.337 13.1523C200.624 12.8516 200.849 12.4984 201.013 12.0928C201.177 11.6872 201.259 11.252 201.259 10.7871L201.246 4.04688ZM211.245 12.6943L211.225 9.04395H207.998V10.1104H210.022L210.008 12.3457C209.903 12.4961 209.773 12.6191 209.618 12.7148C209.463 12.806 209.297 12.8789 209.119 12.9336C208.942 12.9883 208.757 13.0247 208.566 13.043C208.379 13.0612 208.199 13.068 208.026 13.0635C207.725 13.0589 207.456 13.0065 207.219 12.9062C206.982 12.8014 206.775 12.6624 206.597 12.4893C206.415 12.3161 206.26 12.1156 206.132 11.8877C206.004 11.6598 205.9 11.4183 205.818 11.1631C205.736 10.9079 205.674 10.6481 205.633 10.3838C205.597 10.1149 205.576 9.85514 205.571 9.60449V8.43555C205.571 8.18945 205.587 7.93424 205.619 7.66992C205.651 7.4056 205.704 7.14583 205.777 6.89062C205.849 6.63542 205.943 6.39388 206.057 6.16602C206.171 5.93359 206.314 5.73079 206.487 5.55762C206.661 5.38444 206.863 5.24772 207.096 5.14746C207.328 5.04264 207.595 4.99023 207.896 4.99023C208.21 4.99023 208.486 5.04036 208.723 5.14062C208.96 5.23633 209.165 5.37077 209.338 5.54395C209.507 5.71712 209.643 5.92676 209.748 6.17285C209.853 6.41439 209.931 6.67871 209.981 6.96582H211.232C211.191 6.50098 211.081 6.08171 210.904 5.70801C210.726 5.32975 210.491 5.00618 210.199 4.7373C209.908 4.47298 209.566 4.27018 209.174 4.12891C208.782 3.98307 208.354 3.91016 207.889 3.91016C207.47 3.91016 207.091 3.97168 206.754 4.09473C206.417 4.21777 206.116 4.38411 205.852 4.59375C205.583 4.80794 205.353 5.06087 205.161 5.35254C204.97 5.63965 204.81 5.95182 204.683 6.28906C204.555 6.6263 204.46 6.97949 204.396 7.34863C204.336 7.71322 204.305 8.08008 204.3 8.44922V9.60449C204.305 9.97819 204.341 10.3496 204.409 10.7188C204.482 11.0833 204.589 11.432 204.731 11.7646C204.867 12.1019 205.038 12.4141 205.243 12.7012C205.448 12.9883 205.688 13.2367 205.961 13.4463C206.235 13.6605 206.542 13.8291 206.884 13.9521C207.23 14.0706 207.609 14.1322 208.019 14.1367C208.424 14.1413 208.812 14.0957 209.181 14C209.55 13.9089 209.894 13.7676 210.213 13.5762C210.4 13.4668 210.58 13.3392 210.753 13.1934C210.926 13.043 211.09 12.8766 211.245 12.6943ZM219.365 11.4229L220.151 14H221.409L218.251 4.04688H217.191L213.978 14H215.243L216.043 11.4229H219.365ZM216.385 10.3223L217.718 6.00195L219.03 10.3223H216.385ZM227.717 9.93945L229.672 14H231.005L231.012 13.918L228.9 9.66602C229.173 9.54753 229.424 9.40397 229.652 9.23535C229.88 9.06673 230.076 8.87305 230.24 8.6543C230.404 8.43555 230.531 8.19173 230.622 7.92285C230.718 7.65397 230.766 7.35775 230.766 7.03418C230.766 6.53288 230.677 6.09766 230.499 5.72852C230.326 5.35482 230.087 5.04492 229.782 4.79883C229.472 4.55273 229.112 4.36816 228.702 4.24512C228.291 4.12207 227.854 4.05599 227.389 4.04688H224.47V14H225.728V9.93945H227.717ZM225.728 8.90039V5.08594H227.389C227.694 5.09049 227.975 5.13379 228.23 5.21582C228.49 5.29785 228.713 5.41862 228.9 5.57812C229.087 5.74219 229.232 5.94499 229.337 6.18652C229.442 6.4235 229.495 6.7015 229.495 7.02051C229.495 7.32129 229.44 7.58789 229.33 7.82031C229.221 8.04818 229.073 8.24186 228.886 8.40137C228.695 8.56087 228.474 8.68392 228.223 8.77051C227.972 8.85254 227.706 8.89583 227.423 8.90039H225.728ZM239.439 11.4844C239.439 11.7578 239.38 11.9948 239.262 12.1953C239.143 12.3913 238.991 12.5531 238.804 12.6807C238.617 12.8128 238.403 12.9108 238.161 12.9746C237.924 13.0339 237.683 13.0635 237.437 13.0635C237.127 13.0635 236.84 13.0225 236.575 12.9404C236.315 12.8538 236.085 12.7262 235.885 12.5576C235.684 12.3936 235.52 12.193 235.393 11.9561C235.265 11.7145 235.181 11.4388 235.14 11.1289H233.848C233.861 11.5573 233.955 11.9469 234.128 12.2979C234.306 12.6442 234.545 12.9473 234.846 13.207C235.183 13.5078 235.579 13.738 236.035 13.8975C236.495 14.057 236.963 14.1367 237.437 14.1367C237.833 14.1367 238.229 14.082 238.626 13.9727C239.022 13.8587 239.378 13.6901 239.692 13.4668C240.007 13.248 240.262 12.9723 240.458 12.6396C240.659 12.307 240.759 11.9173 240.759 11.4707C240.759 11.0286 240.665 10.639 240.479 10.3018C240.296 9.96452 240.055 9.67969 239.754 9.44727C239.449 9.19661 239.111 8.99154 238.742 8.83203C238.373 8.66797 238.004 8.52897 237.635 8.41504C237.411 8.34668 237.172 8.26693 236.917 8.17578C236.666 8.08464 236.434 7.9707 236.22 7.83398C236.001 7.69727 235.821 7.53092 235.68 7.33496C235.538 7.13444 235.465 6.89062 235.461 6.60352C235.461 6.33919 235.513 6.10677 235.618 5.90625C235.728 5.70573 235.873 5.53711 236.056 5.40039C236.233 5.26367 236.436 5.16113 236.664 5.09277C236.896 5.02441 237.133 4.99023 237.375 4.99023C237.676 4.99023 237.945 5.03809 238.182 5.13379C238.423 5.22493 238.631 5.35482 238.804 5.52344C238.977 5.69206 239.116 5.89486 239.221 6.13184C239.326 6.36426 239.396 6.62402 239.433 6.91113H240.731C240.722 6.4554 240.624 6.04297 240.438 5.67383C240.251 5.30469 240.002 4.99023 239.692 4.73047C239.382 4.4707 239.027 4.27018 238.626 4.12891C238.225 3.98307 237.808 3.91016 237.375 3.91016C236.983 3.91016 236.593 3.97168 236.206 4.09473C235.819 4.21322 235.472 4.38867 235.167 4.62109C234.862 4.85352 234.613 5.13835 234.422 5.47559C234.235 5.81283 234.142 6.19564 234.142 6.62402C234.142 7.05241 234.235 7.42611 234.422 7.74512C234.613 8.05957 234.859 8.33301 235.16 8.56543C235.456 8.79329 235.785 8.98926 236.145 9.15332C236.509 9.31283 236.867 9.44954 237.218 9.56348C237.459 9.64095 237.71 9.72754 237.97 9.82324C238.234 9.91895 238.476 10.0374 238.694 10.1787C238.913 10.3245 239.091 10.5023 239.228 10.7119C239.369 10.9215 239.439 11.179 239.439 11.4844Z" fill="black" fill-opacity="0.7"/>
<path d="M181.636 397.006H180.371C180.33 397.307 180.259 397.587 180.159 397.847C180.059 398.102 179.924 398.323 179.756 398.51C179.587 398.701 179.38 398.849 179.134 398.954C178.892 399.059 178.605 399.111 178.272 399.111C177.967 399.111 177.701 399.063 177.473 398.968C177.245 398.868 177.047 398.731 176.878 398.558C176.709 398.389 176.57 398.193 176.461 397.97C176.352 397.746 176.263 397.507 176.194 397.252C176.126 397.001 176.076 396.746 176.044 396.486C176.017 396.222 176.003 395.967 176.003 395.721V394.319C176.003 394.073 176.017 393.82 176.044 393.561C176.076 393.296 176.126 393.039 176.194 392.788C176.263 392.537 176.352 392.3 176.461 392.077C176.575 391.854 176.716 391.658 176.885 391.489C177.049 391.321 177.245 391.188 177.473 391.093C177.705 390.993 177.972 390.942 178.272 390.942C178.605 390.942 178.892 390.999 179.134 391.113C179.38 391.223 179.587 391.375 179.756 391.571C179.924 391.767 180.059 391.995 180.159 392.255C180.259 392.515 180.33 392.795 180.371 393.096H181.636C181.581 392.622 181.467 392.189 181.294 391.797C181.125 391.405 180.9 391.068 180.617 390.785C180.335 390.507 179.997 390.293 179.605 390.143C179.214 389.988 178.769 389.91 178.272 389.91C177.858 389.91 177.484 389.969 177.151 390.088C176.819 390.202 176.522 390.361 176.263 390.566C175.998 390.771 175.771 391.015 175.579 391.298C175.392 391.576 175.237 391.879 175.114 392.207C174.987 392.535 174.891 392.879 174.827 393.239C174.768 393.599 174.736 393.964 174.731 394.333V395.721C174.736 396.09 174.768 396.454 174.827 396.814C174.891 397.174 174.987 397.519 175.114 397.847C175.237 398.175 175.392 398.478 175.579 398.756C175.771 399.034 175.998 399.275 176.263 399.48C176.522 399.686 176.819 399.847 177.151 399.966C177.489 400.08 177.862 400.137 178.272 400.137C178.751 400.137 179.184 400.062 179.571 399.911C179.963 399.756 180.303 399.54 180.59 399.262C180.872 398.988 181.103 398.66 181.28 398.277C181.458 397.89 181.576 397.466 181.636 397.006ZM189.749 397.423L190.535 400H191.793L188.634 390.047H187.575L184.362 400H185.627L186.426 397.423H189.749ZM186.768 396.322L188.101 392.002L189.414 396.322H186.768ZM196.235 398.927V390.047H194.97V400H201.102V398.927H196.235ZM211.088 395.598V394.463C211.083 394.107 211.051 393.747 210.992 393.383C210.937 393.018 210.851 392.667 210.732 392.33C210.609 391.993 210.454 391.678 210.267 391.387C210.085 391.09 209.866 390.833 209.611 390.614C209.356 390.396 209.062 390.225 208.729 390.102C208.397 389.974 208.025 389.91 207.615 389.91C207.205 389.91 206.833 389.974 206.501 390.102C206.173 390.225 205.881 390.396 205.626 390.614C205.371 390.838 205.15 391.097 204.963 391.394C204.78 391.685 204.63 392 204.512 392.337C204.388 392.674 204.297 393.025 204.238 393.39C204.183 393.75 204.154 394.107 204.149 394.463V395.598C204.154 395.953 204.186 396.311 204.245 396.671C204.304 397.031 204.395 397.38 204.518 397.717C204.637 398.054 204.79 398.371 204.976 398.667C205.163 398.959 205.384 399.214 205.639 399.433C205.895 399.651 206.186 399.825 206.514 399.952C206.847 400.075 207.219 400.137 207.629 400.137C208.039 400.137 208.408 400.075 208.736 399.952C209.069 399.825 209.363 399.651 209.618 399.433C209.873 399.214 210.092 398.959 210.274 398.667C210.461 398.375 210.614 398.061 210.732 397.724C210.851 397.386 210.937 397.038 210.992 396.678C211.051 396.313 211.083 395.953 211.088 395.598ZM209.837 394.449V395.598C209.832 395.835 209.816 396.083 209.789 396.343C209.766 396.603 209.723 396.858 209.659 397.108C209.591 397.364 209.502 397.607 209.392 397.84C209.288 398.068 209.155 398.268 208.996 398.441C208.832 398.619 208.636 398.76 208.408 398.865C208.185 398.97 207.925 399.022 207.629 399.022C207.332 399.022 207.073 398.97 206.849 398.865C206.626 398.76 206.432 398.619 206.268 398.441C206.104 398.268 205.968 398.065 205.858 397.833C205.749 397.601 205.66 397.357 205.592 397.102C205.523 396.851 205.473 396.596 205.441 396.336C205.414 396.076 205.398 395.83 205.393 395.598V394.449C205.398 394.217 205.414 393.973 205.441 393.718C205.473 393.458 205.523 393.201 205.592 392.945C205.655 392.695 205.742 392.455 205.851 392.228C205.961 391.995 206.097 391.79 206.262 391.612C206.426 391.439 206.619 391.3 206.843 391.195C207.066 391.09 207.323 391.038 207.615 391.038C207.911 391.038 208.171 391.09 208.394 391.195C208.618 391.296 208.811 391.432 208.975 391.605C209.139 391.783 209.276 391.988 209.386 392.221C209.495 392.449 209.584 392.688 209.652 392.938C209.716 393.194 209.762 393.451 209.789 393.711C209.816 393.966 209.832 394.212 209.837 394.449ZM217.717 395.939L219.672 400H221.005L221.012 399.918L218.9 395.666C219.173 395.548 219.424 395.404 219.652 395.235C219.88 395.067 220.076 394.873 220.24 394.654C220.404 394.436 220.531 394.192 220.622 393.923C220.718 393.654 220.766 393.358 220.766 393.034C220.766 392.533 220.677 392.098 220.499 391.729C220.326 391.355 220.087 391.045 219.782 390.799C219.472 390.553 219.112 390.368 218.702 390.245C218.291 390.122 217.854 390.056 217.389 390.047H214.47V400H215.728V395.939H217.717ZM215.728 394.9V391.086H217.389C217.694 391.09 217.975 391.134 218.23 391.216C218.49 391.298 218.713 391.419 218.9 391.578C219.087 391.742 219.232 391.945 219.337 392.187C219.442 392.424 219.495 392.701 219.495 393.021C219.495 393.321 219.44 393.588 219.33 393.82C219.221 394.048 219.073 394.242 218.886 394.401C218.695 394.561 218.474 394.684 218.223 394.771C217.972 394.853 217.706 394.896 217.423 394.9H215.728ZM224.23 390.047V391.147H226.562V398.906H224.23V400H230.246V398.906H227.86V391.147H230.246V390.047H224.23ZM239.514 395.399V394.326H235.358V391.127H240.143V390.047H234.093V400H240.205V398.927H235.358V395.399H239.514ZM249.056 397.484C249.056 397.758 248.997 397.995 248.878 398.195C248.76 398.391 248.607 398.553 248.42 398.681C248.233 398.813 248.019 398.911 247.778 398.975C247.541 399.034 247.299 399.063 247.053 399.063C246.743 399.063 246.456 399.022 246.192 398.94C245.932 398.854 245.702 398.726 245.501 398.558C245.301 398.394 245.137 398.193 245.009 397.956C244.881 397.715 244.797 397.439 244.756 397.129H243.464C243.478 397.557 243.571 397.947 243.744 398.298C243.922 398.644 244.161 398.947 244.462 399.207C244.799 399.508 245.196 399.738 245.652 399.897C246.112 400.057 246.579 400.137 247.053 400.137C247.449 400.137 247.846 400.082 248.242 399.973C248.639 399.859 248.994 399.69 249.309 399.467C249.623 399.248 249.878 398.972 250.074 398.64C250.275 398.307 250.375 397.917 250.375 397.471C250.375 397.029 250.282 396.639 250.095 396.302C249.913 395.965 249.671 395.68 249.37 395.447C249.065 395.197 248.728 394.992 248.359 394.832C247.989 394.668 247.62 394.529 247.251 394.415C247.028 394.347 246.789 394.267 246.533 394.176C246.283 394.085 246.05 393.971 245.836 393.834C245.617 393.697 245.437 393.531 245.296 393.335C245.155 393.134 245.082 392.891 245.077 392.604C245.077 392.339 245.13 392.107 245.235 391.906C245.344 391.706 245.49 391.537 245.672 391.4C245.85 391.264 246.053 391.161 246.28 391.093C246.513 391.024 246.75 390.99 246.991 390.99C247.292 390.99 247.561 391.038 247.798 391.134C248.04 391.225 248.247 391.355 248.42 391.523C248.593 391.692 248.732 391.895 248.837 392.132C248.942 392.364 249.013 392.624 249.049 392.911H250.348C250.339 392.455 250.241 392.043 250.054 391.674C249.867 391.305 249.619 390.99 249.309 390.73C248.999 390.471 248.643 390.27 248.242 390.129C247.841 389.983 247.424 389.91 246.991 389.91C246.599 389.91 246.21 389.972 245.822 390.095C245.435 390.213 245.089 390.389 244.783 390.621C244.478 390.854 244.23 391.138 244.038 391.476C243.851 391.813 243.758 392.196 243.758 392.624C243.758 393.052 243.851 393.426 244.038 393.745C244.23 394.06 244.476 394.333 244.777 394.565C245.073 394.793 245.401 394.989 245.761 395.153C246.126 395.313 246.483 395.45 246.834 395.563C247.076 395.641 247.326 395.728 247.586 395.823C247.85 395.919 248.092 396.037 248.311 396.179C248.529 396.325 248.707 396.502 248.844 396.712C248.985 396.922 249.056 397.179 249.056 397.484Z" fill="black" fill-opacity="0.7"/>
<path d="M6.39844 289.484C6.39844 289.758 6.33919 289.995 6.2207 290.195C6.10221 290.391 5.94954 290.553 5.7627 290.681C5.57585 290.813 5.36165 290.911 5.12012 290.975C4.88314 291.034 4.6416 291.063 4.39551 291.063C4.08561 291.063 3.7985 291.022 3.53418 290.94C3.27441 290.854 3.04427 290.726 2.84375 290.558C2.64323 290.394 2.47917 290.193 2.35156 289.956C2.22396 289.715 2.13965 289.439 2.09863 289.129H0.806641C0.820312 289.557 0.913737 289.947 1.08691 290.298C1.26465 290.644 1.50391 290.947 1.80469 291.207C2.14193 291.508 2.53841 291.738 2.99414 291.897C3.45443 292.057 3.92155 292.137 4.39551 292.137C4.79199 292.137 5.18848 292.082 5.58496 291.973C5.98145 291.859 6.33691 291.69 6.65137 291.467C6.96582 291.248 7.22103 290.972 7.41699 290.64C7.61751 290.307 7.71777 289.917 7.71777 289.471C7.71777 289.029 7.62435 288.639 7.4375 288.302C7.25521 287.965 7.01367 287.68 6.71289 287.447C6.40755 287.197 6.07031 286.992 5.70117 286.832C5.33203 286.668 4.96289 286.529 4.59375 286.415C4.37044 286.347 4.13118 286.267 3.87598 286.176C3.62533 286.085 3.3929 285.971 3.17871 285.834C2.95996 285.697 2.77995 285.531 2.63867 285.335C2.4974 285.134 2.42448 284.891 2.41992 284.604C2.41992 284.339 2.47233 284.107 2.57715 283.906C2.68652 283.706 2.83236 283.537 3.01465 283.4C3.19238 283.264 3.39518 283.161 3.62305 283.093C3.85547 283.024 4.09245 282.99 4.33398 282.99C4.63477 282.99 4.90365 283.038 5.14062 283.134C5.38216 283.225 5.58952 283.355 5.7627 283.523C5.93587 283.692 6.07487 283.895 6.17969 284.132C6.28451 284.364 6.35514 284.624 6.3916 284.911H7.69043C7.68132 284.455 7.58333 284.043 7.39648 283.674C7.20964 283.305 6.96126 282.99 6.65137 282.73C6.34147 282.471 5.986 282.27 5.58496 282.129C5.18392 281.983 4.76693 281.91 4.33398 281.91C3.94206 281.91 3.55241 281.972 3.16504 282.095C2.77767 282.213 2.43132 282.389 2.12598 282.621C1.82064 282.854 1.57227 283.138 1.38086 283.476C1.19401 283.813 1.10059 284.196 1.10059 284.624C1.10059 285.052 1.19401 285.426 1.38086 285.745C1.57227 286.06 1.81836 286.333 2.11914 286.565C2.41536 286.793 2.74349 286.989 3.10352 287.153C3.4681 287.313 3.82585 287.45 4.17676 287.563C4.41829 287.641 4.66895 287.728 4.92871 287.823C5.19303 287.919 5.43457 288.037 5.65332 288.179C5.87207 288.325 6.0498 288.502 6.18652 288.712C6.3278 288.922 6.39844 289.179 6.39844 289.484ZM9.24219 288.233V288.384C9.24219 288.917 9.31966 289.411 9.47461 289.867C9.62956 290.323 9.85286 290.719 10.1445 291.057C10.4316 291.394 10.7826 291.658 11.1973 291.85C11.6165 292.041 12.0882 292.137 12.6123 292.137C13.1318 292.137 13.599 292.041 14.0137 291.85C14.4284 291.658 14.7816 291.394 15.0732 291.057C15.3604 290.719 15.5814 290.323 15.7363 289.867C15.8913 289.411 15.9688 288.917 15.9688 288.384V288.233C15.9688 287.7 15.8913 287.206 15.7363 286.75C15.5814 286.29 15.3604 285.891 15.0732 285.554C14.7816 285.216 14.4261 284.952 14.0068 284.761C13.5921 284.565 13.1227 284.467 12.5986 284.467C12.0791 284.467 11.612 284.565 11.1973 284.761C10.7826 284.952 10.4316 285.216 10.1445 285.554C9.85286 285.891 9.62956 286.29 9.47461 286.75C9.31966 287.206 9.24219 287.7 9.24219 288.233ZM10.5068 288.384V288.233C10.5068 287.873 10.5501 287.529 10.6367 287.201C10.7233 286.868 10.8555 286.577 11.0332 286.326C11.2064 286.076 11.4229 285.877 11.6826 285.731C11.9424 285.581 12.2477 285.506 12.5986 285.506C12.9495 285.506 13.2549 285.581 13.5146 285.731C13.779 285.877 14 286.076 14.1777 286.326C14.3509 286.577 14.4808 286.868 14.5674 287.201C14.6585 287.529 14.7041 287.873 14.7041 288.233V288.384C14.7041 288.748 14.6608 289.097 14.5742 289.43C14.4876 289.758 14.3577 290.047 14.1846 290.298C14.0068 290.549 13.7858 290.747 13.5215 290.893C13.2617 291.038 12.9587 291.111 12.6123 291.111C12.2614 291.111 11.9538 291.038 11.6895 290.893C11.4251 290.747 11.2064 290.549 11.0332 290.298C10.8555 290.047 10.7233 289.758 10.6367 289.43C10.5501 289.097 10.5068 288.748 10.5068 288.384ZM17.7666 288.24V288.384C17.7666 288.912 17.8372 289.407 17.9785 289.867C18.1198 290.323 18.318 290.719 18.5732 291.057C18.8285 291.394 19.1361 291.658 19.4961 291.85C19.8607 292.041 20.2663 292.137 20.7129 292.137C21.1686 292.137 21.5674 292.059 21.9092 291.904C22.251 291.749 22.5449 291.521 22.791 291.221L22.8457 292H24.0078V281.5H22.7432V285.335C22.5016 285.052 22.2145 284.838 21.8818 284.692C21.5537 284.542 21.1686 284.467 20.7266 284.467C20.2754 284.467 19.8675 284.56 19.5029 284.747C19.1383 284.934 18.8285 285.194 18.5732 285.526C18.3135 285.859 18.113 286.258 17.9717 286.723C17.835 287.183 17.7666 287.689 17.7666 288.24ZM19.0312 288.384V288.24C19.0312 287.88 19.07 287.538 19.1475 287.215C19.2249 286.887 19.3457 286.597 19.5098 286.347C19.6693 286.101 19.8743 285.905 20.125 285.759C20.3802 285.613 20.6855 285.54 21.041 285.54C21.4557 285.54 21.8021 285.638 22.0801 285.834C22.3581 286.025 22.5791 286.271 22.7432 286.572V290.004C22.5791 290.327 22.3581 290.585 22.0801 290.776C21.8021 290.968 21.4512 291.063 21.0273 291.063C20.6764 291.063 20.3757 290.993 20.125 290.852C19.8743 290.706 19.6693 290.51 19.5098 290.264C19.3457 290.018 19.2249 289.733 19.1475 289.409C19.07 289.086 19.0312 288.744 19.0312 288.384ZM26.6123 284.604V285.704H29.1279V290.906H26.6123V292H32.8057V290.906H30.3926V284.604H26.6123ZM28.9639 282.662C28.9639 282.867 29.0254 283.038 29.1484 283.175C29.276 283.312 29.4674 283.38 29.7227 283.38C29.9733 283.38 30.1624 283.312 30.29 283.175C30.4176 283.038 30.4814 282.867 30.4814 282.662C30.4814 282.548 30.4632 282.443 30.4268 282.348C30.3903 282.252 30.3356 282.172 30.2627 282.108C30.2035 282.049 30.1283 282.004 30.0371 281.972C29.946 281.935 29.8411 281.917 29.7227 281.917C29.6042 281.917 29.4971 281.935 29.4014 281.972C29.3102 282.004 29.235 282.049 29.1758 282.108C29.1029 282.177 29.0482 282.259 29.0117 282.354C28.9798 282.45 28.9639 282.553 28.9639 282.662ZM39.6963 292H40.8447V284.604H39.5732V289.908C39.5049 290.068 39.4183 290.216 39.3135 290.353C39.2132 290.485 39.0947 290.599 38.958 290.694C38.7939 290.813 38.6003 290.906 38.377 290.975C38.1536 291.038 37.9007 291.07 37.6182 291.07C37.3766 291.07 37.1624 291.038 36.9756 290.975C36.7933 290.911 36.6383 290.799 36.5107 290.64C36.3831 290.485 36.2874 290.275 36.2236 290.011C36.1598 289.746 36.1279 289.414 36.1279 289.013V284.604H34.8633V288.999C34.8633 289.55 34.9225 290.024 35.041 290.421C35.1641 290.813 35.3372 291.136 35.5605 291.392C35.7839 291.647 36.0527 291.836 36.3672 291.959C36.6816 292.077 37.0326 292.137 37.4199 292.137C37.903 292.137 38.3291 292.036 38.6982 291.836C39.0674 291.631 39.375 291.346 39.6211 290.981L39.6963 292ZM43.8115 284.604H42.6768V292H43.8799V286.114C43.9072 286.041 43.9414 285.973 43.9824 285.909C44.028 285.845 44.0804 285.788 44.1396 285.738C44.2171 285.674 44.3105 285.627 44.4199 285.595C44.5339 285.558 44.666 285.54 44.8164 285.54C44.9531 285.54 45.0716 285.558 45.1719 285.595C45.2767 285.627 45.3633 285.679 45.4316 285.752C45.5046 285.829 45.557 285.927 45.5889 286.046C45.6253 286.164 45.6436 286.301 45.6436 286.456V292H46.8467V286.463C46.8467 286.436 46.8467 286.413 46.8467 286.395C46.8467 286.372 46.8467 286.349 46.8467 286.326C46.8604 286.212 46.8877 286.11 46.9287 286.019C46.9697 285.923 47.0267 285.839 47.0996 285.766C47.1725 285.697 47.2637 285.643 47.373 285.602C47.4824 285.561 47.6123 285.54 47.7627 285.54C47.904 285.54 48.027 285.558 48.1318 285.595C48.2412 285.631 48.3324 285.686 48.4053 285.759C48.4736 285.836 48.526 285.934 48.5625 286.053C48.599 286.171 48.6172 286.308 48.6172 286.463V292H49.8203V286.477C49.8203 286.121 49.7793 285.813 49.6973 285.554C49.6152 285.289 49.4967 285.075 49.3418 284.911C49.2005 284.765 49.0273 284.656 48.8223 284.583C48.6172 284.506 48.387 284.467 48.1318 284.467C47.945 284.471 47.7718 284.496 47.6123 284.542C47.4574 284.588 47.3161 284.649 47.1885 284.727C47.0882 284.795 46.9948 284.875 46.9082 284.966C46.8216 285.057 46.7464 285.155 46.6826 285.26C46.6325 285.146 46.571 285.043 46.498 284.952C46.4297 284.861 46.3522 284.784 46.2656 284.72C46.1471 284.638 46.0081 284.576 45.8486 284.535C45.6937 284.49 45.5182 284.467 45.3223 284.467C44.9759 284.471 44.6797 284.547 44.4336 284.692C44.1921 284.838 43.9961 285.041 43.8457 285.301L43.8115 284.604Z" fill="black" fill-opacity="0.7"/>
<path d="M9.72656 108.604V107.531H5.58398V104.127H10.417V103.047H4.30566V113H5.58398V108.604H9.72656ZM14.1959 105.604V106.704H16.7115V111.906H14.1959V113H20.3893V111.906H17.9762V105.604H14.1959ZM16.5475 103.662C16.5475 103.867 16.609 104.038 16.732 104.175C16.8596 104.312 17.051 104.38 17.3062 104.38C17.5569 104.38 17.746 104.312 17.8736 104.175C18.0012 104.038 18.065 103.867 18.065 103.662C18.065 103.548 18.0468 103.443 18.0104 103.348C17.9739 103.252 17.9192 103.172 17.8463 103.108C17.787 103.049 17.7118 103.004 17.6207 102.972C17.5296 102.935 17.4247 102.917 17.3062 102.917C17.1878 102.917 17.0807 102.935 16.985 102.972C16.8938 103.004 16.8186 103.049 16.7594 103.108C16.6865 103.177 16.6318 103.259 16.5953 103.354C16.5634 103.45 16.5475 103.553 16.5475 103.662ZM30.0744 109.384V109.24C30.0744 108.853 30.0425 108.486 29.9787 108.14C29.9149 107.789 29.8215 107.47 29.6984 107.183C29.5799 106.927 29.4432 106.697 29.2883 106.492C29.1333 106.283 28.9579 106.105 28.7619 105.959C28.5432 105.804 28.2993 105.683 28.0305 105.597C27.7616 105.51 27.4676 105.467 27.1486 105.467C26.8934 105.467 26.6564 105.492 26.4377 105.542C26.2189 105.592 26.0184 105.665 25.8361 105.761C25.6903 105.838 25.5536 105.932 25.426 106.041C25.2984 106.146 25.1822 106.264 25.0773 106.396V102.5H23.8127V113H24.9748L25.0363 112.159C25.1184 112.264 25.2049 112.36 25.2961 112.446C25.3872 112.533 25.4829 112.613 25.5832 112.686C25.7928 112.831 26.0275 112.943 26.2873 113.021C26.5516 113.098 26.8433 113.137 27.1623 113.137C27.4403 113.137 27.6978 113.103 27.9348 113.034C28.1763 112.966 28.3973 112.87 28.5979 112.747C28.8758 112.569 29.1128 112.346 29.3088 112.077C29.5093 111.804 29.6711 111.496 29.7941 111.154C29.8853 110.895 29.9536 110.617 29.9992 110.32C30.0493 110.02 30.0744 109.707 30.0744 109.384ZM28.8098 109.24V109.384C28.8098 109.603 28.7961 109.817 28.7687 110.026C28.7414 110.236 28.6981 110.432 28.6389 110.614C28.5659 110.856 28.468 111.075 28.3449 111.271C28.2219 111.466 28.0692 111.628 27.8869 111.756C27.7502 111.856 27.5952 111.934 27.4221 111.988C27.2489 112.038 27.0575 112.063 26.8479 112.063C26.6291 112.063 26.4286 112.036 26.2463 111.981C26.064 111.922 25.8999 111.84 25.7541 111.735C25.6083 111.631 25.4784 111.51 25.3645 111.373C25.2551 111.232 25.1594 111.079 25.0773 110.915V107.682C25.1548 107.518 25.2482 107.367 25.3576 107.23C25.4715 107.089 25.6014 106.966 25.7473 106.861C25.8885 106.761 26.0503 106.684 26.2326 106.629C26.4149 106.57 26.6154 106.54 26.8342 106.54C27.0347 106.54 27.217 106.563 27.3811 106.608C27.5451 106.654 27.6932 106.718 27.8254 106.8C28.0168 106.914 28.1786 107.071 28.3107 107.271C28.4429 107.472 28.55 107.693 28.632 107.935C28.6913 108.131 28.7346 108.34 28.7619 108.563C28.7938 108.782 28.8098 109.008 28.8098 109.24ZM36.8816 113.137C37.6017 113.137 38.2055 112.993 38.6932 112.706C39.1854 112.414 39.5545 112.082 39.8006 111.708L39.0281 111.106C38.7957 111.407 38.504 111.649 38.1531 111.831C37.8022 112.013 37.4012 112.104 36.95 112.104C36.6082 112.104 36.296 112.041 36.0135 111.913C35.7309 111.785 35.4894 111.61 35.2889 111.387C35.0929 111.177 34.938 110.936 34.824 110.662C34.7146 110.389 34.644 110.072 34.6121 109.712V109.664H39.8963V109.097C39.8963 108.582 39.8302 108.103 39.698 107.661C39.5704 107.219 39.3745 106.834 39.1102 106.506C38.8458 106.182 38.5132 105.929 38.1121 105.747C37.7156 105.56 37.2508 105.467 36.7176 105.467C36.2938 105.467 35.879 105.553 35.4734 105.727C35.0724 105.9 34.7146 106.148 34.4002 106.472C34.0812 106.8 33.826 107.201 33.6346 107.675C33.4432 108.144 33.3475 108.677 33.3475 109.274V109.562C33.3475 110.076 33.4341 110.553 33.6072 110.99C33.7804 111.428 34.0219 111.806 34.3318 112.125C34.6417 112.444 35.0132 112.692 35.4461 112.87C35.8836 113.048 36.3621 113.137 36.8816 113.137ZM36.7176 106.506C37.0411 106.506 37.3191 106.565 37.5516 106.684C37.7885 106.802 37.9845 106.957 38.1395 107.148C38.2944 107.34 38.4152 107.568 38.5018 107.832C38.5883 108.092 38.6316 108.336 38.6316 108.563V108.625H34.6531C34.7033 108.283 34.7898 107.982 34.9129 107.723C35.0405 107.458 35.1954 107.235 35.3777 107.053C35.56 106.875 35.7651 106.741 35.993 106.649C36.2208 106.554 36.4624 106.506 36.7176 106.506ZM48.2689 105.467C47.7312 105.467 47.2504 105.585 46.8266 105.822C46.4073 106.055 46.0473 106.374 45.7465 106.779L45.7396 106.595L45.685 105.604H44.4818V113H45.7533V108.256C45.8354 108.028 45.9379 107.823 46.0609 107.641C46.1885 107.454 46.3367 107.297 46.5053 107.169C46.6921 107.023 46.9109 106.914 47.1615 106.841C47.4122 106.763 47.6924 106.725 48.0023 106.725C48.2439 106.725 48.474 106.738 48.6928 106.766C48.9161 106.788 49.1508 106.827 49.3969 106.882L49.5678 105.645C49.4402 105.59 49.2488 105.547 48.9936 105.515C48.7429 105.483 48.5014 105.467 48.2689 105.467Z" fill="black" fill-opacity="0.7"/>
<path d="M368.57 292.008H370.532C370.979 292.003 371.4 291.935 371.797 291.803C372.198 291.671 372.549 291.479 372.85 291.229C373.15 290.978 373.387 290.67 373.561 290.306C373.738 289.937 373.827 289.513 373.827 289.034C373.827 288.556 373.738 288.132 373.561 287.763C373.387 287.394 373.15 287.084 372.85 286.833C372.549 286.582 372.198 286.391 371.797 286.259C371.4 286.127 370.979 286.056 370.532 286.047H367.306V296H368.57V292.008ZM368.57 290.969V287.086H370.532C370.824 287.09 371.093 287.138 371.339 287.229C371.59 287.321 371.806 287.451 371.988 287.619C372.166 287.788 372.305 287.993 372.405 288.234C372.51 288.476 372.562 288.747 372.562 289.048C372.562 289.349 372.51 289.618 372.405 289.854C372.305 290.087 372.164 290.285 371.981 290.449C371.799 290.613 371.585 290.741 371.339 290.832C371.093 290.919 370.824 290.964 370.532 290.969H368.57ZM380.293 291.939L382.248 296H383.581L383.587 295.918L381.475 291.666C381.749 291.548 381.999 291.404 382.227 291.235C382.455 291.067 382.651 290.873 382.815 290.654C382.979 290.436 383.107 290.192 383.198 289.923C383.294 289.654 383.341 289.358 383.341 289.034C383.341 288.533 383.253 288.098 383.075 287.729C382.902 287.355 382.662 287.045 382.357 286.799C382.047 286.553 381.687 286.368 381.277 286.245C380.867 286.122 380.429 286.056 379.964 286.047H377.046V296H378.303V291.939H380.293ZM378.303 290.9V287.086H379.964C380.27 287.09 380.55 287.134 380.805 287.216C381.065 287.298 381.288 287.419 381.475 287.578C381.662 287.742 381.808 287.945 381.913 288.187C382.018 288.424 382.07 288.701 382.07 289.021C382.07 289.321 382.015 289.588 381.906 289.82C381.796 290.048 381.648 290.242 381.462 290.401C381.27 290.561 381.049 290.684 380.798 290.771C380.548 290.853 380.281 290.896 379.999 290.9H378.303ZM393.279 291.598V290.463C393.275 290.107 393.243 289.747 393.184 289.383C393.129 289.018 393.043 288.667 392.924 288.33C392.801 287.993 392.646 287.678 392.459 287.387C392.277 287.09 392.058 286.833 391.803 286.614C391.548 286.396 391.254 286.225 390.921 286.102C390.588 285.974 390.217 285.91 389.807 285.91C389.397 285.91 389.025 285.974 388.693 286.102C388.364 286.225 388.073 286.396 387.818 286.614C387.562 286.838 387.341 287.097 387.154 287.394C386.972 287.685 386.822 288 386.703 288.337C386.58 288.674 386.489 289.025 386.43 289.39C386.375 289.75 386.346 290.107 386.341 290.463V291.598C386.346 291.953 386.377 292.311 386.437 292.671C386.496 293.031 386.587 293.38 386.71 293.717C386.829 294.054 386.981 294.371 387.168 294.667C387.355 294.959 387.576 295.214 387.831 295.433C388.086 295.651 388.378 295.825 388.706 295.952C389.039 296.075 389.41 296.137 389.821 296.137C390.231 296.137 390.6 296.075 390.928 295.952C391.261 295.825 391.555 295.651 391.81 295.433C392.065 295.214 392.284 294.959 392.466 294.667C392.653 294.375 392.806 294.061 392.924 293.724C393.043 293.386 393.129 293.038 393.184 292.678C393.243 292.313 393.275 291.953 393.279 291.598ZM392.029 290.449V291.598C392.024 291.835 392.008 292.083 391.981 292.343C391.958 292.603 391.915 292.858 391.851 293.108C391.782 293.364 391.694 293.607 391.584 293.84C391.479 294.068 391.347 294.268 391.188 294.441C391.024 294.619 390.828 294.76 390.6 294.865C390.376 294.97 390.117 295.022 389.821 295.022C389.524 295.022 389.265 294.97 389.041 294.865C388.818 294.76 388.624 294.619 388.46 294.441C388.296 294.268 388.159 294.065 388.05 293.833C387.941 293.601 387.852 293.357 387.783 293.102C387.715 292.851 387.665 292.596 387.633 292.336C387.606 292.076 387.59 291.83 387.585 291.598V290.449C387.59 290.217 387.606 289.973 387.633 289.718C387.665 289.458 387.715 289.201 387.783 288.945C387.847 288.695 387.934 288.455 388.043 288.228C388.153 287.995 388.289 287.79 388.453 287.612C388.617 287.439 388.811 287.3 389.034 287.195C389.258 287.09 389.515 287.038 389.807 287.038C390.103 287.038 390.363 287.09 390.586 287.195C390.809 287.296 391.003 287.432 391.167 287.605C391.331 287.783 391.468 287.988 391.577 288.221C391.687 288.449 391.776 288.688 391.844 288.938C391.908 289.194 391.953 289.451 391.981 289.711C392.008 289.966 392.024 290.212 392.029 290.449ZM403.327 287.127V286.047H395.944V287.127H399.02V296H400.251V287.127H403.327ZM411.898 291.399V290.326H407.742V287.127H412.527V286.047H406.477V296H412.588V294.927H407.742V291.399H411.898ZM416.23 286.047V287.147H418.562V294.906H416.23V296H422.246V294.906H419.86V287.147H422.246V286.047H416.23ZM432.273 296V286.047H430.995L430.974 293.471L427.112 286.047H425.827V296H427.105L427.126 288.562L430.988 296H432.273Z" fill="black" fill-opacity="0.7"/>
<path d="M377.727 108.604V107.531H373.584V104.127H378.417V103.047H372.306V113H373.584V108.604H377.727ZM386.749 110.423L387.535 113H388.793L385.634 103.047H384.575L381.362 113H382.627L383.426 110.423H386.749ZM383.768 109.322L385.101 105.002L386.414 109.322H383.768ZM398.519 104.127V103.047H391.136V104.127H394.212V113H395.443V104.127H398.519Z" fill="black" fill-opacity="0.7"/>
<path d="M288.5 158L213 130.5L145.5 163L129.5 250.5L213 311L337 271L288.5 158Z" fill="#FF3939" fill-opacity="0.8"/>
<path d="M268.5 170.5L213.5 106.5L135 157.5L139 245L213.5 249.5L244.5 221.5L268.5 170.5Z" fill="#ADFF00" fill-opacity="0.4"/>
<path d="M277 167L213.5 97L114 147V260L213.5 277.5L229.5 218L277 167Z" fill="#6F2BFF" fill-opacity="0.1"/>
</svg>
